<svg width="270" height="152" viewBox="0 0 270 152" fill="none" xmlns="http://www.w3.org/2000/svg">
<rect x="0.946262" y="0.946262" width="268.107" height="150.107" rx="9.1472" fill="black"/>
<rect x="0.946262" y="0.946262" width="268.107" height="150.107" rx="9.1472" stroke="#E0B36F" stroke-width="1.89252"/>
<circle cx="134.972" cy="76.416" r="30.2804" fill="#E0B36F"/>
<path d="M134.72 25.444L141.494 40.9627H127.945L134.72 25.444Z" fill="#E0B36F"/>
<path d="M134.72 127.388L127.945 111.869H141.494L134.72 127.388Z" fill="#E0B36F"/>
<path d="M185.944 76.1636L170.425 82.938V69.3892L185.944 76.1636Z" fill="#E0B36F"/>
<path d="M84 76.1637L99.5187 69.3892V82.9381L84 76.1637Z" fill="#E0B36F"/>
<path d="M171.075 40.4331L164.786 56.1548L155.27 46.5102L171.075 40.4331Z" fill="#E0B36F"/>
<path d="M98.5073 112.032L104.796 96.3107L114.312 105.955L98.5073 112.032Z" fill="#E0B36F"/>
<path d="M170.948 112.519L155.226 106.23L164.871 96.7142L170.948 112.519Z" fill="#E0B36F"/>
<path d="M99.3484 39.9512L115.07 46.2401L105.425 55.756L99.3484 39.9512Z" fill="#E0B36F"/>
<path d="M243.97 31.8446C244.237 31.8052 244.404 31.6031 244.473 31.2384C244.601 31.1694 244.813 31.1349 245.109 31.1349C245.474 31.1349 245.828 31.2335 246.173 31.4306C246.134 31.47 246.114 31.5144 246.114 31.5637C246.114 31.6228 246.144 31.6918 246.203 31.7707C246.193 31.8101 246.188 31.8545 246.188 31.9037C246.188 32.022 246.228 32.16 246.307 32.3177V33.1309L246.173 33.1753L246.366 33.6336L246.469 33.5745C246.597 33.6139 246.76 33.7618 246.957 34.018L247.46 33.9589C247.657 34.0673 247.829 34.1215 247.977 34.1215C248.135 34.1215 248.312 34.0673 248.51 33.9589L249.589 34.2694C249.806 34.0624 250.116 33.9589 250.52 33.9589L251.348 34.0772L251.215 34.2546L251.467 34.2842C251.723 34.2842 251.93 34.2053 252.088 34.0476L253.123 34.299C253.132 34.1413 253.334 34.0624 253.729 34.0624H253.847C253.877 34.0328 253.911 34.018 253.951 34.018C253.99 34.018 254.029 34.0279 254.069 34.0476L253.921 34.1511C253.97 34.2201 254.123 34.2793 254.379 34.3285C254.429 34.1905 254.591 34.1215 254.867 34.1215C255.291 34.1215 255.7 34.1856 256.094 34.3137L255.947 34.0772L256.523 34.1511C256.671 34.299 256.903 34.3827 257.218 34.4025C257.228 34.2743 257.44 34.2103 257.854 34.2103H258.002C258.021 34.1708 258.046 34.1511 258.076 34.1511C258.105 34.1511 258.145 34.1758 258.194 34.225L258.475 34.0772C258.692 34.2053 258.938 34.2694 259.214 34.2694H259.421L259.377 34.0772L259.732 34.2694L259.924 34.2103L260.042 32.8796L259.924 32.7613C260.111 32.643 260.215 32.4114 260.234 32.0664C259.948 31.9481 259.741 31.6327 259.613 31.1201C259.436 31.337 259.204 31.4454 258.918 31.4454C258.84 31.4454 258.766 31.4208 258.697 31.3715C258.637 31.3222 258.598 31.268 258.578 31.2088C258.559 31.1497 258.475 31.0905 258.327 31.0314C258.258 31.0018 258.199 30.987 258.15 30.987C258.09 30.987 258.041 31.0068 258.002 31.0462C257.972 31.0363 257.933 31.0314 257.883 31.0314C257.775 31.0314 257.637 31.0807 257.469 31.1793C257.272 31.061 257.065 31.0018 256.848 31.0018C256.582 31.0018 256.326 31.0807 256.08 31.2384L255.577 30.0999L255.695 29.8929L255.385 29.9077V29.2867L256.02 28.9023L256.242 28.8875C256.577 28.8875 256.839 28.996 257.026 29.2128L257.336 29.065C257.346 28.9467 257.41 28.8875 257.529 28.8875C257.617 28.8875 257.691 28.9023 257.75 28.9319C257.81 28.9615 257.864 28.991 257.913 29.0206C257.972 29.0502 258.036 29.0797 258.105 29.1093C258.174 29.1389 258.263 29.1537 258.371 29.1537C258.568 29.1537 258.667 29.0797 258.667 28.9319L259.17 28.9023C259.475 29.06 259.771 29.1389 260.057 29.1389C260.323 29.1389 260.55 29.06 260.737 28.9023H261.417L261.55 29.0058L261.461 29.0354C261.461 29.1241 261.54 29.1685 261.698 29.1685H261.772V29.4198C261.565 29.5184 261.461 29.6367 261.461 29.7747C261.461 29.9126 261.58 30.0654 261.816 30.233L261.875 30.8836C261.875 31.1891 261.811 31.3715 261.683 31.4306V32.1255C261.831 32.4607 261.905 32.8007 261.905 33.1457C261.905 33.4316 261.806 33.8455 261.609 34.3877C261.757 34.6538 261.831 34.8904 261.831 35.0974C261.831 35.2847 261.777 35.4473 261.668 35.5853L261.802 35.6888C261.644 35.9056 261.565 36.0732 261.565 36.1915C261.565 36.2703 261.614 36.3098 261.713 36.3098L261.816 36.295V37.6109C261.668 37.6799 261.595 37.7735 261.595 37.8918L261.683 38.3058L261.846 38.3354L261.683 38.7494L261.89 39.1781L261.683 39.2521V39.5034C261.565 39.6217 261.506 39.7449 261.506 39.873C261.506 40.0012 261.56 40.1342 261.668 40.2722L261.506 40.8341C261.309 40.9228 261.112 40.9672 260.914 40.9672C260.717 40.9672 260.515 40.9228 260.308 40.8341L259.983 41.1446H258.859L258.83 40.9819L258.416 41.1446L257.972 41.0854L257.928 41.2333L257.529 41.1446L257.573 41.3516L257.085 41.2776L256.893 41.3959C256.637 41.0706 256.341 40.908 256.006 40.908C255.976 40.9672 255.947 40.9967 255.917 40.9967C255.897 40.9967 255.882 40.9918 255.873 40.9819C255.823 40.9524 255.779 40.9376 255.74 40.9376H255.71L255.281 40.6567L255.252 40.3314L255.577 39.8287H255.725C255.735 39.8188 255.744 39.8139 255.754 39.8139C255.784 39.8139 255.813 39.8287 255.843 39.8583C256.267 39.8583 256.577 39.597 256.775 39.0746C256.873 39.1436 256.991 39.1781 257.129 39.1781C257.267 39.1781 257.4 39.1436 257.529 39.0746C257.726 39.2126 257.824 39.3358 257.824 39.4443L257.78 39.6217C257.819 39.6513 257.854 39.666 257.883 39.666C257.923 39.666 257.948 39.6414 257.957 39.5921C258.135 39.5921 258.223 39.5379 258.223 39.4295C258.223 39.4098 258.219 39.3851 258.209 39.3556L258.268 39.3112C258.504 39.3999 258.736 39.4443 258.963 39.4443L259.362 39.3851C259.461 39.4541 259.564 39.4886 259.672 39.4886C259.692 39.5182 259.712 39.533 259.732 39.533C259.771 39.533 259.815 39.5034 259.865 39.4443C259.707 39.2866 259.628 39.1633 259.628 39.0746C259.628 38.9859 259.717 38.9071 259.894 38.8381L259.983 38.9416C260.289 38.6459 260.441 38.3452 260.441 38.0397C260.441 37.7144 260.269 37.3645 259.924 36.9899L260.146 36.5316L260.116 36.1028C259.86 36.0042 259.554 35.9549 259.199 35.9549C258.933 35.9549 258.751 36.0042 258.652 36.1028H258.401V35.8662L258.15 36.1028H257.662L257.529 36.3541C257.193 36.2358 256.982 36.0486 256.893 35.7923C256.844 36.0288 256.73 36.1471 256.553 36.1471C256.425 36.1471 256.267 36.088 256.08 35.9697L255.961 36.0732C255.744 36.0239 255.552 35.9303 255.385 35.7923L254.631 35.9401L254.675 36.1471L253.359 35.9401L253.137 36.1471L252.93 35.9401L252.753 36.1471L252.502 35.9401C252.423 35.9401 252.383 35.9746 252.383 36.0436C252.442 36.0831 252.472 36.157 252.472 36.2654V36.3098C252.196 36.1225 251.915 36.0288 251.629 36.0288C251.373 36.0288 251.136 36.1077 250.92 36.2654C250.604 36.0683 250.372 35.9697 250.225 35.9697C250.146 35.9697 250.082 35.9943 250.032 36.0436C249.993 36.1028 249.934 36.1323 249.855 36.1323C249.727 36.1323 249.648 36.1126 249.618 36.0732C249.599 36.0338 249.549 36.0141 249.471 36.0141C249.392 36.0141 249.328 35.9697 249.278 35.881C249.249 35.8317 249.219 35.8071 249.19 35.8071C249.16 35.8071 249.126 35.8317 249.086 35.881C249.027 35.8613 248.968 35.8514 248.909 35.8514C248.731 35.8514 248.559 35.9352 248.391 36.1028C248.322 36.0633 248.174 36.0436 247.948 36.0436C247.652 36.0436 247.401 36.1471 247.194 36.3541L246.75 36.295C246.543 36.3936 246.44 36.5316 246.44 36.709C246.44 36.8174 246.484 36.9406 246.573 37.0786V37.6109C246.08 37.6897 245.833 37.9608 245.833 38.4241L245.863 38.7494C245.666 38.9268 245.331 39.0155 244.858 39.0155V38.9859C244.858 38.7494 244.606 38.5621 244.103 38.4241L243.956 37.9066L244.133 36.5907L244.281 36.4133L243.911 36.2506C244.177 36.0831 244.31 35.881 244.31 35.6444C244.222 35.5951 244.177 35.5261 244.177 35.4374V35.3487C244.177 35.26 244.163 35.1762 244.133 35.0974C244.084 34.9988 244.039 34.8953 244 34.7869C243.98 34.7475 243.97 34.7031 243.97 34.6538C243.97 34.5947 243.99 34.5355 244.03 34.4764C243.99 34.4172 243.97 34.3581 243.97 34.299C243.97 34.2595 243.975 34.225 243.985 34.1955C244.015 34.0969 244.049 33.9983 244.089 33.8998C244.108 33.8308 244.118 33.7568 244.118 33.678V33.5893C244.108 33.5696 244.103 33.5548 244.103 33.5449C244.103 33.4661 244.143 33.4118 244.222 33.3823C244.222 33.195 244.138 33.0767 243.97 33.0274V31.8446ZM243.69 48.1528C243.867 47.9557 243.956 47.7733 243.956 47.6058C243.956 47.5072 243.916 47.3889 243.837 47.2509C243.877 47.0735 243.956 46.9848 244.074 46.9848L244.222 47.0291L244.237 46.8813C244.237 46.556 244.118 46.3293 243.882 46.2012L244.103 45.7132L244.636 45.5654C244.744 45.4767 244.798 45.3732 244.798 45.2549C244.798 45.1268 244.739 44.9986 244.621 44.8705L245.286 45.0035L245.582 44.8409L245.819 44.9592C245.917 44.9592 245.966 44.8508 245.966 44.6339C245.966 44.3579 245.947 44.1854 245.907 44.1164L246.691 44.2791C246.849 44.2791 246.967 44.2446 247.046 44.1756C247.134 44.1164 247.213 44.0474 247.282 43.9686C247.351 43.8996 247.425 43.8355 247.504 43.7764C247.593 43.7172 247.721 43.6877 247.889 43.6877C248.105 43.6877 248.391 43.7468 248.746 43.8651L248.761 43.5989L249.485 43.7912C249.554 43.663 249.638 43.5989 249.737 43.5989C249.855 43.5989 249.998 43.6877 250.165 43.8651L250.979 43.5989C251.008 43.8454 251.107 43.9686 251.274 43.9686C251.412 43.9686 251.59 43.8897 251.807 43.732H252.073C252.319 43.8601 252.694 43.9242 253.196 43.9242L253.847 43.8651L253.625 43.6581L255.281 43.8651L255.459 43.6433H256.301V43.9242L256.449 43.9538C256.607 43.9538 256.725 43.8552 256.804 43.6581C256.932 43.8158 257.08 43.8946 257.248 43.8946C257.405 43.8946 257.583 43.8059 257.78 43.6285H258.593C258.603 43.8059 258.697 43.8946 258.874 43.8946L259.111 43.8651L259.007 43.5102L259.554 43.5989C259.761 43.5989 259.865 43.5299 259.865 43.3919C259.865 43.3032 259.83 43.2096 259.761 43.111L259.968 42.5196L259.879 42.2535L260.279 42.3126C260.486 42.3126 260.658 42.2535 260.796 42.1352C260.914 42.4013 261.126 42.5344 261.432 42.5344L261.609 42.5196V43.3476L262.038 43.4511L261.609 43.732L261.742 44.1756L261.624 45.1958L261.742 46.8665L261.816 46.8517C261.905 46.8517 261.949 46.9207 261.949 47.0587L261.269 47.9458C260.136 47.8473 259.569 47.3791 259.569 46.5412L259.362 46.2899H258.002C257.913 46.0336 257.829 45.9055 257.75 45.9055C257.681 45.9055 257.627 45.9695 257.588 46.0977L256.508 45.9646L255.858 46.0829L255.133 45.9646L254.749 46.1864L254.527 45.7724H253.64C253.443 45.9794 253.206 46.0829 252.93 46.0829L252.354 45.9646L252.206 46.0977L251.925 46.0533C251.886 45.866 251.748 45.7724 251.511 45.7724C251.334 45.7724 251.092 45.8315 250.786 45.9498C250.688 46.1667 250.506 46.2751 250.239 46.2751C250.101 46.2751 249.973 46.2406 249.855 46.1716C249.737 46.1026 249.614 46.0681 249.485 46.0681C249.278 46.0681 249.062 46.1371 248.835 46.2751C248.608 46.078 248.426 45.9794 248.288 45.9794C248.15 45.9794 248.051 46.073 247.992 46.2603L247.593 46.2012C247.317 46.2012 247.179 46.3293 247.179 46.5856L247.194 46.7039L246.632 47.0587L246.262 46.97C246.114 46.97 246.04 47.0489 246.04 47.2066L246.114 47.591L245.774 47.7832L246.114 48.005C245.819 48.419 245.671 48.7245 245.671 48.9217C245.671 49.0991 245.794 49.1878 246.04 49.1878L246.247 49.6461L246.484 49.8827C246.553 50.0404 246.666 50.1193 246.824 50.1193C246.942 50.1193 247.065 50.0848 247.194 50.0158C247.233 50.4593 247.366 50.6811 247.593 50.6811C247.691 50.6811 247.81 50.6417 247.948 50.5628C248.194 50.7501 248.421 50.8438 248.628 50.8438C248.766 50.8438 248.904 50.7994 249.042 50.7107L249.766 51.0655C249.835 50.9768 249.939 50.9325 250.077 50.9325L250.609 51.0951L251.082 51.0508C251.486 51.0508 251.841 51.1444 252.147 51.3317C252.334 51.0951 252.526 50.9768 252.723 50.9768L252.886 51.0064L252.945 51.2577H253.196C253.739 51.2577 254.113 51.169 254.32 50.9916L255.193 51.0508C255.242 51.1592 255.311 51.2134 255.399 51.2134C255.537 51.2134 255.74 51.1099 256.006 50.9029L256.982 50.829L257.765 51.1838L257.957 50.9029L258.652 50.7698L258.948 51.1395L259.199 50.7994L259.495 51.1395C259.86 50.962 260.042 50.7156 260.042 50.4002L259.953 49.9714C260.2 49.9123 260.323 49.7546 260.323 49.4983L260.308 49.3504L260.604 49.4096C260.772 49.4096 260.924 49.3258 261.062 49.1582H261.269C261.634 49.5525 261.816 50.0059 261.816 50.5185L261.742 51.0803C261.89 51.3563 261.964 51.6767 261.964 52.0414L261.949 52.2927L261.742 52.4849V53.3129L261.979 53.3721C261.88 53.8255 261.713 54.1902 261.476 54.4662V54.7175L261.343 54.7027C261.225 54.7027 261.156 54.7717 261.136 54.9097L260.412 54.9541C260.027 54.7274 259.835 54.4563 259.835 54.1409L259.525 54.0226L259.539 53.786C259.539 53.5692 259.495 53.4312 259.406 53.3721L259.081 53.4903L258.992 53.0911H258.904C258.519 53.0911 258.307 53.2094 258.268 53.446L257.529 53.2094L256.789 53.3868C256.75 53.17 256.612 53.0616 256.375 53.0616C256.287 53.0616 256.183 53.0763 256.065 53.1059C255.956 53.1355 255.838 53.17 255.71 53.2094C255.592 53.2488 255.468 53.2833 255.34 53.3129C255.212 53.3425 255.099 53.3573 255 53.3573C254.882 53.3573 254.769 53.3376 254.66 53.2981C254.562 53.2686 254.463 53.2341 254.365 53.1946C254.266 53.1651 254.158 53.1306 254.039 53.0911C253.921 53.0616 253.788 53.0468 253.64 53.0468C253.482 53.0468 252.94 53.1601 252.014 53.3868C251.787 53.2193 251.57 53.1355 251.363 53.1355C251.186 53.1355 251.003 53.1848 250.816 53.2833L250.491 52.9433L250.269 53.2094C250.042 53.0911 249.825 53.032 249.618 53.032C249.392 53.032 249.17 53.0911 248.953 53.2094C248.697 53.032 248.396 52.9433 248.051 52.9433L248.066 53.0024C248.066 53.0616 248.017 53.0911 247.918 53.0911C247.78 53.0911 247.534 53.032 247.179 52.9137L246.735 52.3519L246.573 52.8102L246.321 52.6771C246.302 52.4406 246.08 52.3223 245.656 52.3223H245.597L245.626 52.0562C245.626 51.7309 245.474 51.5682 245.168 51.5682L244.887 51.6126L244.577 51.0951L244.665 50.7846C244.665 50.6959 244.626 50.622 244.547 50.5628C244.468 50.5037 244.384 50.4396 244.296 50.3706C244.207 50.3115 244.123 50.2376 244.044 50.1488C243.966 50.07 243.926 49.9566 243.926 49.8088C243.926 49.6511 243.985 49.5081 244.103 49.38V48.6112L243.69 48.1528ZM244.03 55.856L244.547 55.9743C244.754 55.9743 244.907 55.9102 245.005 55.7821H245.109C245.306 55.7821 245.483 55.8412 245.641 55.9595C245.809 56.0778 245.893 56.2355 245.893 56.4326C245.893 56.5608 245.828 56.6741 245.7 56.7727C245.74 57.4232 245.937 57.7485 246.292 57.7485L246.957 57.6598C247.203 57.8175 247.41 57.8964 247.578 57.8964C247.647 57.8964 247.711 57.8767 247.77 57.8372C247.829 57.7978 247.879 57.7534 247.918 57.7042C247.967 57.6647 248.012 57.6253 248.051 57.5859C248.1 57.5464 248.15 57.5267 248.199 57.5267C248.307 57.5267 248.416 57.5957 248.524 57.7337L249.515 57.6302C249.88 57.4232 250.146 57.3197 250.313 57.3197C250.382 57.3197 250.432 57.3345 250.461 57.3641C250.491 57.4035 250.52 57.4429 250.55 57.4824C250.579 57.5317 250.614 57.5711 250.653 57.6007C250.703 57.6401 250.772 57.6598 250.86 57.6598L251.171 57.6154C251.22 57.783 251.299 57.8668 251.407 57.8668C251.496 57.8668 251.61 57.7978 251.748 57.6598L252.147 57.852L252.324 57.4528C252.758 57.4725 253.004 57.5711 253.063 57.7485H253.344L253.285 57.438L254.365 57.5415C254.493 57.3937 254.754 57.3197 255.148 57.3197L256.198 57.438L256.168 57.7189C256.326 57.4232 256.558 57.2754 256.863 57.2754C257.08 57.2754 257.336 57.3641 257.632 57.5415C257.8 57.4035 257.982 57.3345 258.179 57.3345C258.366 57.3345 258.588 57.3937 258.844 57.5119H259.288C259.298 57.1472 259.431 56.9649 259.687 56.9649L259.909 56.9945C259.87 56.8072 259.776 56.7135 259.628 56.7135H259.599C259.776 56.2306 260.151 55.9891 260.722 55.9891C260.87 55.9891 260.998 56.0285 261.107 56.1073C261.215 56.1961 261.304 56.2897 261.373 56.3883C261.452 56.4967 261.506 56.6002 261.535 56.6988C261.575 56.7973 261.595 56.8565 261.595 56.8762L261.55 57.0536L261.861 57.5563V58.1329C261.742 58.2611 261.683 58.3941 261.683 58.5321C261.683 58.6504 261.742 58.7786 261.861 58.9166V60.7352L261.388 60.6612L261.846 61.2526V61.5483C261.668 61.7652 261.58 61.9475 261.58 62.0954C261.58 62.2038 261.624 62.2975 261.713 62.3763C261.811 62.465 261.861 62.5488 261.861 62.6277C261.861 62.7065 261.811 62.8002 261.713 62.9086C261.614 63.0269 261.56 63.1501 261.55 63.2782L261.343 63.5296L261.461 64.3428L261.417 64.7715H261.343C261.235 64.7715 261.181 64.8159 261.181 64.9046L261.314 65.2742C260.939 65.5995 260.752 65.9149 260.752 66.2205L260.811 66.5162L260.53 66.8119L260.042 66.6789L259.776 66.8711L260.057 67.3442L259.525 67.0485L258.578 67.773L257.455 67.6695C257.277 67.6695 257.129 67.7089 257.011 67.7878C256.893 67.8765 256.779 67.9208 256.671 67.9208C256.563 67.9208 256.469 67.8518 256.39 67.7138L255.828 67.9948L254.128 67.3738C254.079 67.2259 254.029 67.152 253.98 67.152L253.847 67.2703L253.285 66.8563L253.063 67.152C252.807 66.6789 252.467 66.3536 252.043 66.1762C251.925 65.8016 251.762 65.6143 251.555 65.6143L251.378 65.6439L251.363 65.2151C251.511 64.9194 251.585 64.6927 251.585 64.535C251.585 64.3674 251.496 64.2836 251.319 64.2836L251.082 63.4557L250.801 64.0619C250.496 64.0619 250.328 64.2836 250.299 64.7272L249.885 64.5498C249.835 65.1018 249.623 65.3777 249.249 65.3777C249.071 65.3777 248.919 65.3432 248.79 65.2742L248.746 65.7474L248.332 65.6587C248.076 65.6587 247.913 65.7967 247.844 66.0727C247.706 65.9839 247.563 65.9396 247.415 65.9396C247.12 65.9396 246.819 66.1219 246.514 66.4866L246.75 66.7971L246.44 67.0189L246.469 67.4477C246.469 68.0293 246.282 68.32 245.907 68.32L245.405 68.2017L245.419 68.4679L244.118 68.2757L244.355 67.699H243.985L243.867 67.2259C243.966 67.0386 244.015 66.8415 244.015 66.6345C244.015 66.3881 243.951 66.1564 243.823 65.9396C244.069 65.8114 244.192 65.6636 244.192 65.496C244.192 65.3777 244.143 65.2693 244.044 65.1708L244.444 64.6237L244.784 64.6976C245.04 64.6976 245.257 64.5547 245.434 64.2688L245.671 64.2836C246.026 64.2836 246.228 64.1407 246.277 63.8549L246.647 63.6035L247.208 63.8549C247.208 63.4014 247.376 63.1747 247.711 63.1747L247.933 63.2043L247.815 62.672L248.79 62.6129L248.524 62.2876C249.264 62.1595 249.668 61.8539 249.737 61.3709L250.372 61.3561L250.387 60.883L250.816 60.7795L250.92 60.3951L250.727 60.3064L250.875 59.9959C250.629 59.8677 250.303 59.8037 249.899 59.8037L249.145 59.922C249.007 59.922 248.889 59.8924 248.79 59.8332C248.702 59.784 248.593 59.7593 248.465 59.7593C248.307 59.7593 248.12 59.8037 247.903 59.8924C247.755 59.7741 247.573 59.715 247.356 59.715C247.1 59.715 246.819 59.7938 246.514 59.9515L246.129 59.9072C245.912 59.9072 245.804 59.9762 245.804 60.1142C245.804 60.2029 245.858 60.331 245.966 60.4986L245.759 60.5725V61.0161L245.493 61.4744C245.493 61.5828 245.272 61.6371 244.828 61.6371H244.636L244.68 61.4744L244.03 61.504C244.118 61.1886 244.163 60.9076 244.163 60.6612C244.163 60.4641 244.128 60.2867 244.059 60.129C244 59.9712 243.97 59.8185 243.97 59.6706C243.97 59.434 244.044 59.2221 244.192 59.0348L244 58.9166V58.5617L244.163 58.5765L244.133 58.1477L244 58.2069V57.5119L244.177 57.4972C244.108 57.3986 244.074 57.2951 244.074 57.1867C244.074 57.1078 244.099 57.0437 244.148 56.9945C244.207 56.955 244.237 56.8959 244.237 56.817C244.237 56.7185 244.182 56.5706 244.074 56.3735L244.03 55.856ZM253.315 62.2728C253.246 62.401 253.211 62.6227 253.211 62.9382C253.211 63.1747 253.28 63.293 253.418 63.293L253.566 63.7661L253.433 64.1358L253.758 64.3576L253.67 64.6828C253.857 64.9785 254.005 65.1264 254.113 65.1264L254.246 65.0081C254.394 65.3038 254.729 65.5404 255.252 65.7178L255.207 65.3777L255.991 65.9248L256.375 65.8657L256.272 65.6735L256.627 65.6587C256.745 65.7967 256.863 65.8657 256.982 65.8657C257.179 65.8657 257.356 65.6833 257.514 65.3186L258.223 65.2595L258.164 65.0377L258.578 64.949L258.8 65.0081C258.869 65.0081 258.904 64.9736 258.904 64.9046C258.904 64.806 258.82 64.6138 258.652 64.328C259.027 63.8351 259.214 63.4113 259.214 63.0564C259.214 62.8987 259.175 62.7509 259.096 62.6129C259.392 62.5932 259.539 62.534 259.539 62.4355C259.539 62.3566 259.456 62.2433 259.288 62.0954L259.451 61.2526C259.618 61.2526 259.702 61.1787 259.702 61.0309C259.702 60.8534 259.584 60.5676 259.347 60.1733L259.539 60.1881C259.658 60.1881 259.717 60.1536 259.717 60.0846L259.658 59.9367L258.904 59.9959C258.864 59.8086 258.746 59.715 258.549 59.715H258.46C258.401 59.8825 258.268 59.9663 258.061 59.9663L257.159 59.7593C257.051 59.7593 256.996 59.7987 256.996 59.8776L257.011 59.9367L255.947 60.055L255.991 59.848C255.744 59.7199 255.35 59.6558 254.808 59.6558C254.355 59.6558 253.96 59.7495 253.625 59.9367L253.877 60.3359L253.433 60.2324L253.448 60.6169C253.448 61.1787 253.339 61.6716 253.123 62.0954L253.315 62.2728ZM244.103 69.1776L244.429 69.2811C244.537 69.2811 244.611 69.2318 244.651 69.1332C245.429 69.2318 245.897 69.6803 246.055 70.4787L246.366 70.6561H248.332L248.362 70.4787H248.968L249.16 70.6561L249.559 70.7153C249.766 70.7153 249.87 70.6463 249.87 70.5083L250.594 70.597L251.437 70.4787C251.713 70.6857 252.073 70.7892 252.516 70.7892L252.782 70.7744L252.753 70.5674H253.196C254.241 70.5674 254.828 70.661 254.956 70.8483L255.562 70.4639L255.71 70.9666C255.986 70.7892 256.227 70.7005 256.434 70.7005C256.612 70.7005 256.755 70.7892 256.863 70.9666L257.691 70.6265C257.888 70.735 258.095 70.7892 258.312 70.7892C258.499 70.7892 258.692 70.7448 258.889 70.6561H259.909L259.879 70.523C259.879 70.4048 259.953 70.3259 260.101 70.2865L260.072 70.0499C260.072 69.8133 260.185 69.6113 260.412 69.4437C260.51 69.5029 260.629 69.5324 260.767 69.5324L261.181 69.4437C261.289 69.6409 261.457 69.8035 261.683 69.9316L261.491 70.4787C261.708 70.5181 261.816 70.6265 261.816 70.804L261.491 71.972C261.678 72.2776 261.772 72.6176 261.772 72.9922C261.772 73.2879 261.713 73.5935 261.595 73.9089H260.959C260.446 73.5738 259.929 73.4062 259.406 73.4062C258.864 73.4062 258.332 73.6083 257.81 74.0124L257.632 73.9976C257.129 73.9976 256.784 74.249 256.597 74.7517L256.375 74.7369C255.922 74.7369 255.572 74.9439 255.326 75.3579L254.424 75.5796L254.054 75.964L253.744 75.9345C253.31 75.9345 252.989 76.1513 252.782 76.585C251.826 76.654 251.043 77.1222 250.432 77.9896C250.698 78.1079 250.998 78.1671 251.334 78.1671L251.955 78.1079C252.24 78.2065 252.63 78.2558 253.123 78.2558L253.684 78.2262L253.67 78.1079C253.67 77.9108 253.798 77.7876 254.054 77.7383C254.448 78.0439 254.897 78.1966 255.399 78.1966C255.764 78.1966 256.163 78.1079 256.597 77.9305C256.666 78.1375 256.799 78.241 256.996 78.241C257.115 78.241 257.243 78.2114 257.381 78.1523C257.519 78.103 257.672 78.0784 257.839 78.0784C258.154 78.0784 258.44 78.1276 258.697 78.2262C258.943 78.0192 259.258 77.9157 259.643 77.9157L259.909 77.9305L259.791 77.4278C259.791 77.0927 259.998 76.8906 260.412 76.8216V76.7625C260.412 76.5653 260.52 76.4224 260.737 76.3337C260.836 76.5702 261.043 76.6885 261.358 76.6885L261.654 76.659L261.565 77.3539C261.565 77.7186 261.649 78.0291 261.816 78.2853V78.655C261.688 78.6648 261.624 78.7634 261.624 78.9507L261.683 79.3942L261.846 79.3203V80.2814L261.683 80.2518L261.565 80.6806L261.787 81.0354C261.461 81.065 261.23 81.2375 261.092 81.5529C260.914 81.4642 260.737 81.4198 260.56 81.4198C260.362 81.4198 260.165 81.4741 259.968 81.5825C259.761 81.3755 259.658 81.1438 259.658 80.8876L259.776 80.3701C259.51 80.3405 259.278 80.1976 259.081 79.9413C258.864 79.9807 258.756 80.0842 258.756 80.2518L258.8 80.4292L258.253 80.1779C258.026 80.3553 257.854 80.444 257.736 80.444C257.607 80.444 257.534 80.3454 257.514 80.1483C257.228 80.03 256.947 79.9709 256.671 79.9709C256.454 79.9709 256.178 80.0399 255.843 80.1779L255.473 79.9561L255.133 80.1779C254.818 80.1779 254.606 80.0793 254.498 79.8822L254.379 79.9857L253.315 80.0596L253.359 79.8822L253.034 79.823C252.856 79.823 252.763 79.9167 252.753 80.1039H252.413L252.221 79.823L252.028 80.0596C251.703 79.9709 251.417 79.9265 251.171 79.9265C250.786 79.9265 250.501 80.0349 250.313 80.2518H249.929C249.673 80.1039 249.402 80.03 249.116 80.03C248.82 80.03 248.519 80.1039 248.214 80.2518C248.135 80.1138 248.046 80.0448 247.948 80.0448C247.849 80.0448 247.746 80.1138 247.637 80.2518C247.312 80.1434 247.041 80.0892 246.824 80.0892L246.114 80.1779L245.863 81.5825C245.607 81.75 245.365 81.8338 245.138 81.8338C244.991 81.8338 244.848 81.7944 244.71 81.7155L244.207 81.893L244.015 81.5825C244.113 81.4543 244.163 81.3262 244.163 81.1981C244.163 81.0305 244.049 80.8777 243.823 80.7397L244.148 80.0596C243.98 79.9807 243.897 79.8822 243.897 79.7639L244.015 79.4534V78.7733L244.222 78.9507V78.1523L244.015 78.2262V77.5609C244.153 77.5017 244.222 77.4377 244.222 77.3687C244.222 77.2997 244.103 77.2307 243.867 77.1617L244.074 77.0138L243.897 76.5555L244.03 76.378L244.34 76.4668C244.478 76.4668 244.582 76.4027 244.651 76.2745H245.094V76.3337C245.094 76.4815 245.168 76.5555 245.316 76.5555L245.626 76.4963C245.626 77.1469 245.986 77.4722 246.706 77.4722L247.149 77.4426L247.12 77.2799C247.12 77.0631 247.272 76.8906 247.578 76.7625L247.903 76.8068C248.278 76.8068 248.549 76.6294 248.717 76.2745L248.85 76.2893C249.195 76.2893 249.426 76.1218 249.545 75.7866L249.722 75.8458C249.85 75.8458 249.968 75.7472 250.077 75.5501L250.713 75.8014L250.594 75.3283C251.117 75.2691 251.403 74.9734 251.452 74.4412C251.57 74.658 251.752 74.7664 251.999 74.7664L252.147 74.7517L252.221 74.3229L252.487 74.4412C252.546 74.4412 252.595 74.4165 252.635 74.3672C252.674 74.3278 252.713 74.2834 252.753 74.2342C252.792 74.1849 252.837 74.1356 252.886 74.0863C252.935 74.0469 252.999 74.0272 253.078 74.0272L253.403 74.0715C253.541 74.0715 253.61 73.9976 253.61 73.8497L253.596 73.7167L253.98 73.5245L254.187 73.7167C254.276 73.5688 254.389 73.4949 254.527 73.4949L254.69 73.5245L254.601 72.9183C254.857 72.9183 254.995 72.7753 255.015 72.4895L254.69 72.3121L254.276 72.8296C254.01 72.6226 253.768 72.5191 253.551 72.5191C253.364 72.5191 253.192 72.593 253.034 72.7408H252.531C252.403 72.5831 252.231 72.5043 252.014 72.5043C251.836 72.5043 251.624 72.5634 251.378 72.6817L251.363 72.4747L250.624 72.4895C250.456 72.6669 250.215 72.7556 249.899 72.7556C249.604 72.7556 249.338 72.7063 249.101 72.6078C248.943 72.7359 248.766 72.8 248.569 72.8L247.903 72.6373C247.785 72.6373 247.726 72.7113 247.726 72.8591L247.77 73.0957L247.415 73.3027L247.134 73.0218L247.208 72.8296C247.208 72.6817 247.011 72.6078 246.617 72.6078H246.558C246.134 72.8148 245.922 73.0415 245.922 73.2879C245.922 73.3963 245.966 73.5195 246.055 73.6575C245.907 73.6674 245.833 73.7709 245.833 73.968V74.0715C245.745 73.9828 245.651 73.9385 245.552 73.9385C245.444 73.9385 245.336 74.0075 245.227 74.1455L244.458 74.2046C244.458 74.0962 244.439 74.0025 244.399 73.9237C244.36 73.8448 244.31 73.7758 244.251 73.7167C244.202 73.6575 244.158 73.5935 244.118 73.5245C244.079 73.4653 244.059 73.3963 244.059 73.3175C244.059 72.7951 244.212 72.5339 244.517 72.5339L244.651 72.5486C244.542 72.3712 244.444 72.2825 244.355 72.2825C244.276 72.2825 244.202 72.3564 244.133 72.5043L243.837 71.9277L244.133 70.7892C244.015 70.6512 243.956 70.5428 243.956 70.4639C243.956 70.3653 244.015 70.2963 244.133 70.2569L244.148 69.9908L243.823 69.5472L244.148 69.562L244.103 69.1776ZM251.127 77.9749L250.831 77.9896C250.693 77.9896 250.624 77.9699 250.624 77.9305C250.624 77.8516 250.772 77.7334 251.067 77.5757L251.127 77.9749ZM261.55 101.764C261.55 101.981 261.629 102.109 261.787 102.149V103.11C261.639 103.199 261.565 103.42 261.565 103.775L261.624 104.455C261.2 104.662 260.895 105.022 260.707 105.535L260.397 105.387L260.427 105.816C260.229 105.826 260.062 105.959 259.924 106.215V106.363C259.451 106.363 259.15 106.501 259.022 106.777H258.963C258.736 106.777 258.583 106.934 258.504 107.25L258.179 107.294C258.071 107.215 257.952 107.176 257.824 107.176C257.588 107.176 257.267 107.289 256.863 107.516L256.627 107.501C256.282 107.501 255.986 107.639 255.74 107.915H254.542C254.493 108.122 254.419 108.226 254.32 108.226C254.222 108.226 254.108 108.162 253.98 108.033L253.773 108.24L253.581 107.974L253.019 108.033L252.797 108.314L252.235 108.388C251.802 108.132 251.343 108.004 250.86 108.004L250.417 108.033C249.934 107.728 249.352 107.575 248.672 107.575H248.436V107.501C248.436 107.235 248.15 107.102 247.578 107.102L247.297 107.117L247.312 107.649L246.794 106.836L245.996 106.718L245.612 106.097C244.478 105.446 243.911 104.441 243.911 103.08L243.837 102.001C243.837 101.469 243.916 101.045 244.074 100.729L244.03 100.449C244.03 100.133 244.256 99.9754 244.71 99.9754L244.665 99.5319C244.665 99.2657 244.784 99.1327 245.02 99.1327L245.153 99.1475C245.833 98.0139 246.868 97.388 248.258 97.2697C248.495 96.9839 248.815 96.8409 249.219 96.8409C249.535 96.8409 249.761 96.8754 249.899 96.9444L249.958 96.5896H251.26L251.452 96.2791C251.669 96.3678 252.038 96.4122 252.561 96.4122L253.625 96.3678L253.758 96.5896L254.838 96.5157C254.897 96.7522 255.01 96.8705 255.178 96.8705C255.296 96.8705 255.404 96.836 255.503 96.767L256.449 97.0332L256.375 97.2845C256.375 97.3535 256.405 97.388 256.464 97.388C256.543 97.388 256.696 97.3141 256.922 97.1662C257.041 97.4324 257.534 97.5654 258.401 97.5654H258.504C258.544 97.8414 258.652 97.9794 258.83 97.9794L259.066 97.9351C259.066 98.1815 259.165 98.3047 259.362 98.3047L259.495 98.2899C259.712 98.2899 259.904 98.5215 260.072 98.9848L260.264 98.8665C260.668 99.0341 260.949 99.3347 261.107 99.7684L261.417 99.6206L261.328 99.9607C261.328 100.325 261.481 100.616 261.787 100.833C261.629 101.139 261.55 101.449 261.55 101.764ZM259.865 102.652C259.638 102.454 259.525 102.257 259.525 102.06C259.525 101.863 259.628 101.656 259.835 101.439C259.677 101.104 259.52 100.936 259.362 100.936C259.273 100.936 259.194 100.981 259.125 101.07C259.017 100.281 258.564 99.8079 257.765 99.6502C257.45 99.3643 257.011 99.2214 256.449 99.2214L255.887 99.2657L255.621 98.9109L255.444 99.2066C255.217 99.0587 254.951 98.9848 254.645 98.9848L254.409 98.9996C254.064 98.9996 253.862 98.8567 253.803 98.5708L252.96 98.8665L252.442 98.7483L251.881 98.8665C251.802 98.8271 251.595 98.8074 251.26 98.8074C250.639 98.8074 250.037 98.9947 249.456 99.3692C248.608 99.4087 247.844 99.6649 247.164 100.138C246.957 100.148 246.854 100.212 246.854 100.33C246.854 100.449 246.932 100.587 247.09 100.744L246.735 100.656C246.647 100.656 246.602 100.69 246.602 100.759L246.735 101.07H246.632C246.218 101.07 246.006 101.296 245.996 101.75C245.789 101.838 245.686 102.006 245.686 102.252C245.686 102.489 245.789 102.809 245.996 103.213V103.287C245.996 103.622 246.302 103.844 246.913 103.953L246.883 104.145C246.883 104.293 246.937 104.406 247.046 104.485C247.154 104.574 247.287 104.657 247.445 104.736C247.613 104.815 247.785 104.909 247.962 105.017C248.14 105.126 248.298 105.278 248.436 105.476L248.687 105.446C248.904 105.446 249.101 105.535 249.278 105.712L249.027 105.89L249.618 105.978C249.924 105.978 250.096 105.87 250.136 105.653C250.648 105.821 251.136 105.934 251.6 105.993L251.836 106.274L252.295 106.348C252.521 106.348 252.635 106.254 252.635 106.067L252.62 105.934H252.96C253.029 106.17 253.157 106.289 253.344 106.289C253.482 106.289 253.645 106.239 253.832 106.141C254.02 106.052 254.182 106.008 254.32 106.008C254.438 106.008 254.552 106.037 254.66 106.097C254.877 105.821 255.158 105.683 255.503 105.683L255.961 105.757C256.218 105.53 256.528 105.416 256.893 105.416C257.149 105.416 257.312 105.436 257.381 105.476C257.588 105.239 257.869 105.121 258.223 105.121L258.386 105.136L258.667 104.559C258.766 104.687 258.884 104.751 259.022 104.751C259.16 104.751 259.313 104.682 259.48 104.544L258.904 104.367C259.189 104.248 259.332 104.12 259.332 103.982L259.244 103.79L259.525 103.731L259.495 103.568C259.495 103.361 259.618 103.209 259.865 103.11V102.652ZM244.103 109.542L244.429 109.645C244.537 109.645 244.611 109.596 244.651 109.497C245.429 109.596 245.897 110.044 246.055 110.843L246.366 111.02H248.332L248.362 110.843H248.968L249.16 111.02L249.559 111.079C249.766 111.079 249.87 111.01 249.87 110.872L250.594 110.961L251.437 110.843C251.713 111.05 252.073 111.153 252.516 111.153L252.782 111.138L252.753 110.931H253.196C254.241 110.931 254.828 111.025 254.956 111.212L255.562 110.828L255.71 111.331C255.986 111.153 256.227 111.064 256.434 111.064C256.612 111.064 256.755 111.153 256.863 111.331L257.691 110.991C257.888 111.099 258.095 111.153 258.312 111.153C258.499 111.153 258.692 111.109 258.889 111.02H259.909L259.879 110.887C259.879 110.769 259.953 110.69 260.101 110.65L260.072 110.414C260.072 110.177 260.185 109.975 260.412 109.808C260.51 109.867 260.629 109.896 260.767 109.896L261.181 109.808C261.289 110.005 261.457 110.167 261.683 110.296L261.491 110.843C261.708 110.882 261.816 110.991 261.816 111.168L261.491 112.336C261.678 112.642 261.772 112.982 261.772 113.356C261.772 113.652 261.713 113.957 261.595 114.273H260.959C260.446 113.938 259.929 113.77 259.406 113.77C258.864 113.77 258.332 113.972 257.81 114.376L257.632 114.362C257.129 114.362 256.784 114.613 256.597 115.116L256.375 115.101C255.922 115.101 255.572 115.308 255.326 115.722L254.424 115.944L254.054 116.328L253.744 116.298C253.31 116.298 252.989 116.515 252.782 116.949C251.826 117.018 251.043 117.486 250.432 118.354C250.698 118.472 250.998 118.531 251.334 118.531L251.955 118.472C252.24 118.57 252.63 118.62 253.123 118.62L253.684 118.59L253.67 118.472C253.67 118.275 253.798 118.152 254.054 118.102C254.448 118.408 254.897 118.561 255.399 118.561C255.764 118.561 256.163 118.472 256.597 118.294C256.666 118.501 256.799 118.605 256.996 118.605C257.115 118.605 257.243 118.575 257.381 118.516C257.519 118.467 257.672 118.442 257.839 118.442C258.154 118.442 258.44 118.492 258.697 118.59C258.943 118.383 259.258 118.28 259.643 118.28L259.909 118.294L259.791 117.792C259.791 117.457 259.998 117.255 260.412 117.186V117.126C260.412 116.929 260.52 116.786 260.737 116.698C260.836 116.934 261.043 117.053 261.358 117.053L261.654 117.023L261.565 117.718C261.565 118.083 261.649 118.393 261.816 118.649V119.019C261.688 119.029 261.624 119.127 261.624 119.315L261.683 119.758L261.846 119.684V120.645L261.683 120.616L261.565 121.045L261.787 121.399C261.461 121.429 261.23 121.601 261.092 121.917C260.914 121.828 260.737 121.784 260.56 121.784C260.362 121.784 260.165 121.838 259.968 121.946C259.761 121.739 259.658 121.508 259.658 121.252L259.776 120.734C259.51 120.704 259.278 120.562 259.081 120.305C258.864 120.345 258.756 120.448 258.756 120.616L258.8 120.793L258.253 120.542C258.026 120.719 257.854 120.808 257.736 120.808C257.607 120.808 257.534 120.709 257.514 120.512C257.228 120.394 256.947 120.335 256.671 120.335C256.454 120.335 256.178 120.404 255.843 120.542L255.473 120.32L255.133 120.542C254.818 120.542 254.606 120.443 254.498 120.246L254.379 120.35L253.315 120.424L253.359 120.246L253.034 120.187C252.856 120.187 252.763 120.281 252.753 120.468H252.413L252.221 120.187L252.028 120.424C251.703 120.335 251.417 120.29 251.171 120.29C250.786 120.29 250.501 120.399 250.313 120.616H249.929C249.673 120.468 249.402 120.394 249.116 120.394C248.82 120.394 248.519 120.468 248.214 120.616C248.135 120.478 248.046 120.409 247.948 120.409C247.849 120.409 247.746 120.478 247.637 120.616C247.312 120.507 247.041 120.453 246.824 120.453L246.114 120.542L245.863 121.946C245.607 122.114 245.365 122.198 245.138 122.198C244.991 122.198 244.848 122.158 244.71 122.08L244.207 122.257L244.015 121.946C244.113 121.818 244.163 121.69 244.163 121.562C244.163 121.394 244.049 121.242 243.823 121.104L244.148 120.424C243.98 120.345 243.897 120.246 243.897 120.128L244.015 119.817V119.137L244.222 119.315V118.516L244.015 118.59V117.925C244.153 117.866 244.222 117.802 244.222 117.733C244.222 117.664 244.103 117.595 243.867 117.526L244.074 117.378L243.897 116.919L244.03 116.742L244.34 116.831C244.478 116.831 244.582 116.767 244.651 116.639H245.094V116.698C245.094 116.846 245.168 116.919 245.316 116.919L245.626 116.86C245.626 117.511 245.986 117.836 246.706 117.836L247.149 117.807L247.12 117.644C247.12 117.427 247.272 117.255 247.578 117.126L247.903 117.171C248.278 117.171 248.549 116.993 248.717 116.639L248.85 116.653C249.195 116.653 249.426 116.486 249.545 116.151L249.722 116.21C249.85 116.21 249.968 116.111 250.077 115.914L250.713 116.165L250.594 115.692C251.117 115.633 251.403 115.337 251.452 114.805C251.57 115.022 251.752 115.13 251.999 115.13L252.147 115.116L252.221 114.687L252.487 114.805C252.546 114.805 252.595 114.78 252.635 114.731C252.674 114.692 252.713 114.647 252.753 114.598C252.792 114.549 252.837 114.5 252.886 114.45C252.935 114.411 252.999 114.391 253.078 114.391L253.403 114.436C253.541 114.436 253.61 114.362 253.61 114.214L253.596 114.081L253.98 113.888L254.187 114.081C254.276 113.933 254.389 113.859 254.527 113.859L254.69 113.888L254.601 113.282C254.857 113.282 254.995 113.139 255.015 112.853L254.69 112.676L254.276 113.194C254.01 112.987 253.768 112.883 253.551 112.883C253.364 112.883 253.192 112.957 253.034 113.105H252.531C252.403 112.947 252.231 112.868 252.014 112.868C251.836 112.868 251.624 112.927 251.378 113.046L251.363 112.839L250.624 112.853C250.456 113.031 250.215 113.12 249.899 113.12C249.604 113.12 249.338 113.07 249.101 112.972C248.943 113.1 248.766 113.164 248.569 113.164L247.903 113.001C247.785 113.001 247.726 113.075 247.726 113.223L247.77 113.46L247.415 113.667L247.134 113.386L247.208 113.194C247.208 113.046 247.011 112.972 246.617 112.972H246.558C246.134 113.179 245.922 113.405 245.922 113.652C245.922 113.76 245.966 113.884 246.055 114.022C245.907 114.031 245.833 114.135 245.833 114.332V114.436C245.745 114.347 245.651 114.302 245.552 114.302C245.444 114.302 245.336 114.371 245.227 114.509L244.458 114.569C244.458 114.46 244.439 114.367 244.399 114.288C244.36 114.209 244.31 114.14 244.251 114.081C244.202 114.022 244.158 113.957 244.118 113.888C244.079 113.829 244.059 113.76 244.059 113.681C244.059 113.159 244.212 112.898 244.517 112.898L244.651 112.913C244.542 112.735 244.444 112.646 244.355 112.646C244.276 112.646 244.202 112.72 244.133 112.868L243.837 112.292L244.133 111.153C244.015 111.015 243.956 110.907 243.956 110.828C243.956 110.729 244.015 110.66 244.133 110.621L244.148 110.355L243.823 109.911L244.148 109.926L244.103 109.542ZM251.127 118.339L250.831 118.354C250.693 118.354 250.624 118.334 250.624 118.294C250.624 118.216 250.772 118.097 251.067 117.94L251.127 118.339Z" fill="#E0B36F"/>
</svg>
