<svg width="87" height="216" viewBox="0 0 87 216" fill="none" xmlns="http://www.w3.org/2000/svg">
<g clip-path="url(#clip0_284_944)">
<rect x="1.575" y="1.575" width="83.79" height="41.85" rx="4.725" stroke="#7C6365" stroke-width="3.15"/>
<rect x="6" y="6" width="75" height="33" rx="6.3" fill="#CDCDCF"/>
<path d="M23.0988 15.3697C23.2383 15.3697 23.3285 15.3451 23.3695 15.2959C23.4105 15.2385 23.4516 15.2098 23.4926 15.2098C23.55 15.2098 23.6238 15.2795 23.7141 15.4189L23.9971 15.2098L24.1816 15.3943C24.5016 15.2795 24.8092 15.2221 25.1045 15.2221C25.5967 15.2221 26.1094 15.3246 26.6426 15.5297V15.6896C26.6426 16.3213 26.5031 16.6863 26.2242 16.7848L25.9781 16.7232C25.8387 16.7232 25.7115 16.7807 25.5967 16.8955L25.3506 16.8463C25.2029 16.8463 25.0594 16.916 24.9199 17.0555L25.0184 17.843C24.8789 17.884 24.8092 17.9496 24.8092 18.0398L24.9076 18.409L24.8215 18.7289C24.8215 18.8766 24.9117 19.1021 25.0922 19.4057L24.8092 19.258V21.1037L24.9691 21.1283L24.8707 22.408L24.9938 22.5557L24.8707 22.7771C24.9691 22.8428 25.0184 22.9125 25.0184 22.9863C25.0184 23.0438 24.9938 23.1012 24.9445 23.1586C24.9035 23.216 24.883 23.2898 24.883 23.3801C24.883 23.5277 24.9117 23.6631 24.9691 23.7861L24.8707 24.549C24.8707 24.8936 24.9404 25.1971 25.0799 25.4596V25.8902C25.0307 25.9395 25.0061 26.0256 25.0061 26.1486C25.0061 26.4111 25.0963 26.7516 25.2768 27.1699L24.8461 27.0592L25.2891 27.9328V28.3512L25.6459 28.4127C25.7936 28.4127 25.9494 28.3758 26.1135 28.302C26.3678 28.4496 26.577 28.5234 26.741 28.5234C26.8066 28.5234 26.86 28.5111 26.901 28.4865C26.9502 28.4619 26.9953 28.4373 27.0363 28.4127C27.0773 28.3881 27.1225 28.3635 27.1717 28.3389C27.2209 28.3143 27.2783 28.302 27.3439 28.302C27.4424 28.302 27.5449 28.3225 27.6516 28.3635C27.7582 28.3963 27.9059 28.4127 28.0945 28.4127C28.2586 28.4127 28.4473 28.3963 28.6605 28.3635C28.8738 28.3225 29.1199 28.2691 29.3988 28.2035L29.4727 28.4004L29.9156 28.265L29.9402 28.0928C29.9402 27.9041 29.8459 27.7277 29.6572 27.5637C29.8869 27.457 30.0961 27.2643 30.2848 26.9854C30.1453 26.7721 30.0756 26.5998 30.0756 26.4686C30.0756 26.4111 30.092 26.3619 30.1248 26.3209C30.1576 26.2717 30.1945 26.2266 30.2355 26.1855C30.2766 26.1445 30.3135 26.1035 30.3463 26.0625C30.3791 26.0215 30.3955 25.9723 30.3955 25.9148L30.2971 25.5457C30.2971 25.3898 30.4693 25.275 30.8139 25.2012C31.0764 25.2094 31.2158 25.3652 31.2322 25.6688C31.5275 25.8574 31.6752 26.2594 31.6752 26.8746L31.6383 27.4652C31.7367 27.7523 31.7859 28.0395 31.7859 28.3266C31.7859 28.9008 31.5891 29.4832 31.1953 30.0738C30.941 29.8934 30.7688 29.8031 30.6785 29.8031C30.6375 29.8031 30.617 29.8277 30.617 29.877L30.6539 30.0369C30.4898 29.9549 30.3012 29.9139 30.0879 29.9139C29.8254 29.9139 29.5629 30.0082 29.3004 30.1969H28.6729C28.5416 30.0164 28.3857 29.9262 28.2053 29.9262C28.0248 29.9262 27.832 30.0164 27.627 30.1969H27.467L27.4793 29.8893C27.143 30.0369 26.8025 30.1107 26.458 30.1107C26.1955 30.1107 25.892 30.0533 25.5475 29.9385C25.2522 30.0369 24.9979 30.0861 24.7846 30.0861C24.6861 30.0861 24.6 30.0738 24.5262 30.0492C24.4523 30.0328 24.3785 30.0123 24.3047 29.9877C24.2309 29.9549 24.1488 29.9303 24.0586 29.9139C23.9766 29.8893 23.8699 29.877 23.7387 29.877C23.5828 29.877 23.3941 29.8934 23.1727 29.9262C22.9594 29.9508 22.7092 29.9918 22.4221 30.0492L22.2621 29.8277L22.1391 29.877C22.0816 29.877 22.0365 29.8277 22.0037 29.7293L22.0283 29.5201C22.0283 29.3396 21.9996 29.1797 21.9422 29.0402L22.5205 28.6711L22.5082 28.548L22.7543 28.5973C23.0004 28.5973 23.1234 28.3758 23.1234 27.9328V27.7605L23.308 27.7236C23.2342 27.5268 23.1973 27.3258 23.1973 27.1207C23.1973 26.8172 23.2834 26.5096 23.4557 26.1979L23.2465 25.8902L23.2957 25.5334C23.2957 25.4104 23.267 25.2996 23.2096 25.2012C23.1604 25.1027 23.1357 25.0166 23.1357 24.9428C23.1357 24.8689 23.1522 24.7992 23.185 24.7336C23.226 24.6598 23.2465 24.5613 23.2465 24.4383V24.3645C23.4105 24.2988 23.4926 24.2291 23.4926 24.1553C23.4926 24.1061 23.4557 24.0527 23.3818 23.9953C23.3162 23.9379 23.2834 23.8354 23.2834 23.6877C23.2834 23.5072 23.3408 23.3965 23.4557 23.3555L23.2465 22.9986L23.2834 22.5188C23.3408 22.5188 23.3695 22.4613 23.3695 22.3465L23.2588 21.7313L23.4064 21.559L23.2465 21.5221L23.2588 21.0791C23.3408 21.0791 23.3818 21.0422 23.3818 20.9684C23.3818 20.8863 23.3203 20.7387 23.1973 20.5254L23.1727 19.4549C23.3039 19.4057 23.3695 19.2949 23.3695 19.1227C23.3695 18.9176 23.2793 18.6387 23.0988 18.2859L23.1111 17.9906C23.185 17.966 23.2219 17.8512 23.2219 17.6461C23.2219 17.482 23.1891 17.3385 23.1234 17.2154C23.0578 17.0924 22.9717 16.9898 22.865 16.9078C22.7584 16.8258 22.6354 16.7643 22.4959 16.7232C22.3564 16.674 22.2088 16.6412 22.0529 16.6248L22.0652 16.5756C22.0652 16.4854 21.9217 16.432 21.6346 16.4156V15.7389C21.9053 15.6404 22.1678 15.4641 22.4221 15.2098C22.6272 15.3164 22.8527 15.3697 23.0988 15.3697ZM34.8375 28.8311C34.8211 28.6834 34.7801 28.5727 34.7145 28.4988C34.657 28.425 34.5873 28.3635 34.5053 28.3143C34.4314 28.2568 34.3576 28.1994 34.2838 28.142C34.21 28.0846 34.1525 27.9984 34.1115 27.8836C34.0705 27.7852 34.0131 27.6949 33.9393 27.6129C33.8736 27.5309 33.8039 27.457 33.7301 27.3914C33.6645 27.3258 33.6029 27.2684 33.5455 27.2191C33.4963 27.1699 33.4717 27.1289 33.4717 27.0961L33.4348 26.6408L33.4963 26.2717L33.3979 25.7303L33.4348 25.6564L33.7178 25.6318L33.4348 25.5949C33.4922 25.4145 33.5578 25.3242 33.6316 25.3242C33.5906 25.2504 33.5455 25.1889 33.4963 25.1396C33.4471 25.0822 33.3979 25.0248 33.3486 24.9674C33.3076 24.9018 33.2707 24.8279 33.2379 24.7459C33.2051 24.6639 33.1887 24.5613 33.1887 24.4383L33.2625 24.0076C33.3691 24.0076 33.4225 23.9748 33.4225 23.9092C33.4225 23.86 33.3896 23.7861 33.324 23.6877C33.2666 23.5811 33.2379 23.4908 33.2379 23.417C33.2379 23.3186 33.2748 23.2447 33.3486 23.1955C33.4307 23.1381 33.4717 23.0643 33.4717 22.974L33.4348 22.8264C33.4922 22.5967 33.5619 22.367 33.6439 22.1373C33.726 21.8994 33.8203 21.6615 33.927 21.4236L34.0008 21.5098L34.0377 21.4359L33.9762 21.2391C34.1895 21.1652 34.3699 21.0094 34.5176 20.7715H34.6775L34.7514 20.6115L34.7145 20.5746L34.5668 20.6238C34.7801 20.4105 34.9195 20.2096 34.9852 20.0209H35.3174L35.3912 19.824C35.4076 19.7584 35.4527 19.7256 35.5266 19.7256L35.6619 19.7502L35.625 19.6148C35.8875 19.582 36.1008 19.4713 36.2648 19.2826L36.4371 19.3441L36.474 19.2088H37.2123L37.3477 19.0119L37.4461 19.0734L37.5445 18.9381L37.9506 18.8766V18.7412L38.0859 18.7289C38.1762 18.8438 38.2828 18.9012 38.4059 18.9012L38.5904 18.8766L38.6643 19.0734L38.8611 19.0488L38.935 19.1842L39.1811 19.1473L39.5379 19.2088L39.6363 19.1473L39.6486 19.4795L39.7471 19.1473C39.8373 19.2375 39.948 19.3031 40.0793 19.3441C40.1531 19.5164 40.2885 19.6066 40.4854 19.6148C40.5756 19.7625 40.7109 19.8527 40.8914 19.8855C41.0145 20.0906 41.1949 20.226 41.4328 20.2916L41.6789 20.5992C41.7609 20.6238 41.802 20.6648 41.802 20.7223L41.765 20.833L42.0357 20.9314L42.0234 21.0053C42.0234 21.0545 42.0439 21.0791 42.085 21.0791L42.2449 21.0299L42.1711 21.1406L42.5771 21.842L42.5156 21.9773L42.6141 22.0512C42.6551 22.1824 42.733 22.3178 42.8479 22.4572L42.7986 22.7033L42.8479 22.9863L42.7863 23.0232L42.8355 23.134L42.7863 23.2324L42.8479 23.6631L42.7863 24.1676L42.651 24.2414L42.6879 24.8936L42.5771 24.5736L42.3803 24.7828C42.0275 24.791 41.7568 24.9592 41.5682 25.2873C41.4697 25.1314 41.3959 25.0535 41.3467 25.0535C41.3057 25.0535 41.2852 25.115 41.2852 25.2381V25.3488L41.1129 25.4227V25.3857C41.1129 25.3037 41.0555 25.2627 40.9406 25.2627C40.8258 25.2627 40.7068 25.3283 40.5838 25.4596C40.5428 25.3611 40.473 25.3119 40.3746 25.3119L40.3131 25.3242C40.2803 25.2176 40.227 25.1643 40.1531 25.1643L40.0424 25.1889C39.9439 25.0576 39.8291 24.992 39.6979 24.992L39.4764 25.0535H39.1072L38.8857 24.992L38.6273 25.0535L38.4797 25.0289C38.3484 25.0289 38.2172 25.0822 38.0859 25.1889H37.9875C37.8316 25.0822 37.684 25.0289 37.5445 25.0289L37.4092 25.0535C37.3436 24.9387 37.2697 24.8813 37.1877 24.8813L36.9293 24.9797C36.7816 24.9797 36.6627 25.0494 36.5725 25.1889H36.2648C36.1336 25.0822 35.9859 25.0289 35.8219 25.0289C35.666 25.0289 35.5102 25.0822 35.3543 25.1889L35.4281 25.3488C35.3707 25.4309 35.342 25.5129 35.342 25.5949C35.342 25.6934 35.3707 25.7836 35.4281 25.8656L35.3912 26.0748C35.3912 26.3209 35.5389 26.5096 35.8342 26.6408L35.7604 26.6654C35.826 26.7803 35.8752 26.8869 35.908 26.9854C35.949 27.0756 35.99 27.1658 36.0311 27.2561C36.0803 27.3381 36.1377 27.416 36.2033 27.4898C36.2771 27.5637 36.3756 27.6375 36.4986 27.7113L36.4371 27.9451C36.4371 28.06 36.5068 28.1174 36.6463 28.1174H36.7078L36.6955 28.2281C36.6955 28.3102 36.7201 28.3512 36.7693 28.3512L36.8432 28.3266L36.8801 28.4619V28.1543C36.9867 27.9984 37.1631 27.9205 37.4092 27.9205L37.3477 27.8467C37.4461 27.8303 37.524 27.7852 37.5814 27.7113L37.9875 28.1543C37.8316 28.2609 37.7414 28.3635 37.7168 28.4619L37.9752 28.5111L38.2582 28.4619C38.3566 28.585 38.4838 28.6465 38.6396 28.6465L38.898 28.5973L38.615 28.4742C38.9514 28.4496 39.1195 28.343 39.1195 28.1543L39.1072 28.0559L39.2549 28.0805C39.3697 28.0805 39.4764 28.0271 39.5748 27.9205C39.6814 28.0025 39.7799 28.0436 39.8701 28.0436C40.0342 28.0436 40.1654 27.9041 40.2639 27.6252C40.4525 27.5596 40.5469 27.4857 40.5469 27.4037L40.5346 27.3545C40.633 27.3463 40.6822 27.3053 40.6822 27.2314L40.6699 27.1576C40.793 27.0838 40.9037 26.9689 41.0021 26.8131H41.0637C41.2523 26.8131 41.3467 26.7023 41.3467 26.4809L41.7281 26.727L41.642 26.5547L41.9865 26.407L41.925 26.85L42.0111 26.8377C42.0275 26.8377 42.0645 26.8459 42.1219 26.8623C42.1875 26.8787 42.2531 26.9033 42.3188 26.9361C42.3844 26.9689 42.4418 27.0059 42.491 27.0469C42.5484 27.0879 42.5771 27.1371 42.5771 27.1945C42.5771 27.2602 42.5525 27.3176 42.5033 27.3668C42.4541 27.416 42.4295 27.4734 42.4295 27.5391L42.4541 27.6621L42.1834 27.7975L42.1219 28.1297C42.0563 28.1461 41.9742 28.183 41.8758 28.2404C41.7855 28.2896 41.7404 28.3594 41.7404 28.4496L41.7773 28.5973C41.6461 28.6219 41.5805 28.6957 41.5805 28.8188L41.5682 28.9664C41.3549 29.0402 41.1744 29.1961 41.0268 29.434C40.8791 29.4504 40.7643 29.5201 40.6822 29.6432H40.5838C40.4771 29.4627 40.309 29.3725 40.0793 29.3725C40.0465 29.4053 40.0137 29.4504 39.9809 29.5078C39.948 29.557 39.9111 29.6104 39.8701 29.6678C39.8373 29.717 39.8004 29.7621 39.7594 29.8031C39.7266 29.8359 39.6938 29.8523 39.6609 29.8523L39.501 29.84C39.4107 29.84 39.3205 29.877 39.2303 29.9508C39.1482 30.0246 39.0375 30.0615 38.898 30.0615L38.7012 30.0492L38.3566 29.9139C38.2254 30.0205 38.0654 30.0738 37.8768 30.0738L37.483 30L37.4092 30.1107L37.0646 29.877C37.0482 29.8031 37.0236 29.7662 36.9908 29.7662L36.9416 29.7785C36.8596 29.6719 36.7488 29.6186 36.6094 29.6186L36.4371 29.6432C36.1336 29.5775 35.8752 29.4627 35.6619 29.2986C35.6209 29.1592 35.5512 29.0895 35.4527 29.0895L35.3912 29.1018L35.3174 28.7572L35.0467 28.6957C34.9482 28.6957 34.8785 28.7408 34.8375 28.8311ZM37.2123 23.2078L37.36 23.1709L37.7168 23.2324C37.9055 23.3473 38.0859 23.4047 38.2582 23.4047C38.5699 23.4047 38.8857 23.2447 39.2057 22.9248L39.3287 23.4047L39.4025 23.3432L39.4395 22.9248C39.4805 23.0889 39.5215 23.1709 39.5625 23.1709C39.6117 23.1709 39.6609 23.0889 39.7102 22.9248C39.8332 23.0643 39.9727 23.134 40.1285 23.134L40.2516 23.1217L40.3869 23.2324C40.5346 23.1586 40.6084 23.0643 40.6084 22.9494C40.6084 22.8592 40.5797 22.773 40.5223 22.691L40.3869 22.7279L40.473 22.5803L40.3746 22.5434C40.3664 22.4121 40.35 22.3178 40.3254 22.2604C40.309 22.2029 40.2844 22.166 40.2516 22.1496C40.2188 22.125 40.1777 22.1086 40.1285 22.1004C40.0793 22.0922 40.0178 22.0635 39.9439 22.0143C39.8619 22.0553 39.8168 22.1209 39.8086 22.2111C39.7512 22.1783 39.6445 22.1578 39.4887 22.1496L39.4271 22.1988L39.4025 22.0389C39.3451 21.9979 39.3123 21.9527 39.3041 21.9035C39.3041 21.8461 39.2754 21.7764 39.218 21.6943C39.1688 21.6041 39.1113 21.518 39.0457 21.4359C38.9801 21.3457 38.9104 21.2678 38.8365 21.2021L38.5289 21.1406L38.6643 21.3252L38.3936 21.2021L38.332 21.3375C38.2336 21.3375 38.1721 21.3867 38.1475 21.4852L38.0736 21.4359C38.0326 21.4359 38.0121 21.5016 38.0121 21.6328C37.9793 21.5262 37.9465 21.4729 37.9137 21.4729C37.8809 21.4729 37.8604 21.4975 37.8521 21.5467L37.483 21.4729L37.5445 21.276C37.5445 21.1939 37.4912 21.1365 37.3846 21.1037V21.276C37.2041 21.3088 37.1139 21.3826 37.1139 21.4975V21.5467C36.9662 21.5713 36.8924 21.6492 36.8924 21.7805L36.9416 21.9035C36.876 21.9199 36.8432 21.9773 36.8432 22.0758C36.4084 22.2152 36.191 22.367 36.191 22.5311C36.191 22.6049 36.2279 22.6705 36.3018 22.7279L36.3633 22.6295C36.5355 22.8674 36.7324 23.015 36.9539 23.0725L37.0277 23.257L37.2123 23.2078ZM35.8588 22.7895L36.0803 22.7156L35.9326 22.6172L35.8588 22.7895ZM42.4049 24.8813L42.5156 25.0043C42.4172 25.1191 42.3105 25.1766 42.1957 25.1766C42.1137 25.1766 42.0275 25.1438 41.9373 25.0781C42.0193 24.9797 42.1752 24.9141 42.4049 24.8813ZM39.5133 25.152C39.5953 25.0945 39.6732 25.0658 39.7471 25.0658C39.8455 25.0658 39.9275 25.1355 39.9932 25.275L39.5133 25.152ZM33.1764 25.9025L33.2871 25.8287C33.3199 25.8287 33.3486 25.8943 33.3732 26.0256C33.3814 26.083 33.3855 26.1322 33.3855 26.1732C33.3855 26.2389 33.3691 26.2922 33.3363 26.3332C33.3035 26.3332 33.2666 26.2184 33.2256 25.9887L33.1764 25.9025ZM36.6709 27.6498L36.7324 27.7852L36.6094 27.8221L36.6709 27.6498ZM38.6027 28.1666H38.8365C38.8365 28.2076 38.7135 28.2814 38.4674 28.3881C38.3525 28.3471 38.2951 28.302 38.2951 28.2527C38.2951 28.2035 38.3771 28.1461 38.5412 28.0805L38.6027 28.1666ZM34.05 29.0279L34.0008 29.151L33.9023 29.0648L34.05 29.0279ZM40.2516 29.5324H40.35L40.3254 29.6309C40.3254 29.6883 40.3582 29.7375 40.4238 29.7785L40.2885 29.9139H40.1162L40.0793 29.6678L40.2516 29.5324ZM43.9799 29.6924L44.1398 28.708C44.7141 28.6342 45.0012 28.507 45.0012 28.3266L45.8133 28.2896L46.1086 28.4127C46.3629 28.1584 46.6049 28.0313 46.8346 28.0313L47.093 28.0928L47.3145 26.85L47.6959 27.1207L47.6344 26.5424C47.4293 26.4439 47.3268 26.2307 47.3268 25.9025C47.3268 25.6811 47.3965 25.3365 47.5359 24.8689L47.3391 24.6105L47.5975 23.6016C47.376 23.3965 47.2652 23.1996 47.2652 23.0109C47.2652 22.8141 47.4129 22.6459 47.7082 22.5064L47.3021 21.5959C47.4416 21.3826 47.5113 21.2268 47.5113 21.1283C47.5113 21.0709 47.4949 21.0299 47.4621 21.0053C47.4293 20.9725 47.3924 20.9438 47.3514 20.9191C47.3104 20.8863 47.2734 20.8576 47.2406 20.833C47.2078 20.8002 47.1914 20.7551 47.1914 20.6977L47.2406 20.5377H46.4408C46.2768 20.4393 46.1086 20.39 45.9363 20.39C45.6902 20.39 45.4277 20.4926 45.1488 20.6977C44.7879 20.509 44.6074 20.3162 44.6074 20.1193L44.6197 20.0209L44.8043 19.9471L44.6197 19.6764L45.2842 18.9627L45.9363 19.1842C46.0594 19.0365 46.2398 18.9627 46.4777 18.9627C46.6418 18.9627 46.8961 19.0201 47.2406 19.135C47.2816 19.2744 47.3186 19.3441 47.3514 19.3441C47.4088 19.3441 47.4539 19.1678 47.4867 18.815L47.7574 18.7043L47.3883 17.7445L47.7082 17.5477L47.6221 17.0432C47.499 16.7971 47.4375 16.5592 47.4375 16.3295C47.4375 15.7881 47.782 15.2754 48.4711 14.7914L48.791 15.2098L48.7787 14.976C48.7787 14.4838 48.8895 14.2377 49.1109 14.2377C49.2258 14.2377 49.3898 14.3197 49.6031 14.4838L50.7229 13.8193L50.6736 14.0531C50.6736 14.127 50.7023 14.1639 50.7598 14.1639C50.8418 14.1639 50.9895 14.0818 51.2027 13.9178C51.9082 14.5986 52.5152 14.9514 53.0238 14.976L53.1715 15.6281L53.6268 15.825L53.2453 15.9604L53.3191 16.2926C53.1059 16.5059 52.9992 16.6412 52.9992 16.6986L53.0361 16.7355L53.3684 16.6125L53.5898 17.1416C53.2371 17.7404 52.9008 18.0398 52.5809 18.0398C52.425 18.0398 52.2814 17.9783 52.1502 17.8553L51.9041 18.1506C51.3709 17.8881 51.1043 17.6051 51.1043 17.3016C51.1043 17.0309 51.3094 16.7396 51.7195 16.4279L51.498 16.2064L51.658 16.0711C51.3709 15.7758 51.0674 15.6281 50.7475 15.6281C50.2799 15.6281 49.7836 15.9152 49.2586 16.4895L49.6523 16.6863L49.0125 17.2646L49.517 17.7445L49.1232 17.7691L49.5539 18.1875C49.2996 18.4418 49.1725 18.6756 49.1725 18.8889C49.1725 19.0857 49.3037 19.2457 49.5662 19.3688C49.9189 19.1883 50.2553 19.098 50.5752 19.098C50.8787 19.098 51.1453 19.1883 51.375 19.3688L51.5104 19.0488L52.1133 19.7625L52.224 20.107C52.06 20.1234 51.9779 20.185 51.9779 20.2916C51.9779 20.4146 52.0559 20.5787 52.2117 20.7838L51.6457 20.5869C51.4078 20.7756 51.215 20.8699 51.0674 20.8699C50.9443 20.8699 50.8582 20.7961 50.809 20.6484L49.923 20.8453L49.5293 20.71C49.357 20.874 49.2709 21.0299 49.2709 21.1775L49.3324 21.399L49.0617 21.6697L49.3816 21.9404L49.0863 22.4203L49.3324 22.7279L49.1232 23.1586C49.2709 23.2816 49.3447 23.4006 49.3447 23.5154C49.3447 23.6303 49.2709 23.741 49.1232 23.8477V24.9428L49.3324 25.0412V25.8656L49.1232 25.8164L49.3816 27.3791L49.1479 27.4406L49.3324 27.982H49.3816C49.7672 27.982 49.96 28.06 49.96 28.2158L49.9107 28.3881L51.4488 28.0805L51.5227 28.4988L52.3471 28.3389C52.4291 28.1666 52.5152 28.0805 52.6055 28.0805C52.6875 28.0805 52.7859 28.1789 52.9008 28.3758L53.1961 28.4865L52.95 29.0895L53.4299 29.2494L52.8639 30.1723L52.384 29.7047L52.2609 30.0369C52.0887 30.0943 51.8713 30.123 51.6088 30.123C51.1248 30.123 50.6203 29.9754 50.0953 29.6801L50.1568 30.2215L49.5785 29.9262L48.9018 30.1723L48.2742 29.6186C48.1512 29.9467 47.9297 30.1107 47.6098 30.1107C47.3719 30.1107 47.1012 30.0328 46.7977 29.877L46.0102 30.0984L45.1365 30.0369C45.0463 29.8975 44.9437 29.8277 44.8289 29.8277C44.6895 29.8277 44.5336 29.9221 44.3613 30.1107L43.9799 29.6924ZM58.8686 27.8467L58.4256 27.416L58.8809 27.1207L58.4994 26.69L58.4625 26.0871C58.4625 25.5949 58.5486 25.1889 58.7209 24.8689L58.524 24.6105L58.7824 23.6016C58.5609 23.3965 58.4502 23.1996 58.4502 23.0109C58.4502 22.8141 58.5979 22.6459 58.8932 22.5064L58.4871 21.5959C58.6266 21.3826 58.6963 21.2268 58.6963 21.1283C58.6963 21.0709 58.6799 21.0299 58.6471 21.0053C58.6143 20.9725 58.5773 20.9438 58.5363 20.9191C58.4953 20.8863 58.4584 20.8576 58.4256 20.833C58.3928 20.8002 58.3764 20.7551 58.3764 20.6977L58.4256 20.5377H57.6258C57.4289 20.4393 57.2361 20.39 57.0475 20.39C56.7686 20.39 56.4896 20.4926 56.2107 20.6977C55.8498 20.509 55.6693 20.3162 55.6693 20.1193L55.6816 20.0209L55.8662 19.9471L55.7555 19.3934L56.3461 18.9627L56.8506 19.1719L57.3674 19.1473C57.4002 18.9914 57.5314 18.9135 57.7611 18.9135L58.5363 19.098C58.6348 19.098 58.684 19.0406 58.684 18.9258L58.6717 18.815L58.9424 18.7043L58.5732 17.7445L59.1023 17.7938L58.5979 17.1539C58.7127 16.9406 58.7701 16.6535 58.7701 16.2926L58.6348 15.0744L59.3115 15.2098C59.3443 14.8406 59.533 14.6561 59.8775 14.6561C60.058 14.6561 60.2795 14.7053 60.542 14.8037V14.9883C60.542 15.177 60.5584 15.3328 60.5912 15.4559C60.6322 15.5789 60.6527 15.6979 60.6527 15.8127C60.6527 15.9111 60.583 16.1367 60.4436 16.4895L60.8373 16.6863L60.1975 17.2646L60.702 17.7445L60.3082 17.7691L60.7389 18.1875C60.4928 18.45 60.3697 18.6223 60.3697 18.7043C60.3697 18.7535 60.4066 18.7781 60.4805 18.7781C60.5953 18.7781 60.7061 18.7494 60.8127 18.692L60.7512 19.3688L61.1326 19.418L61.2187 19.0857L61.7232 19.2703C61.9037 19.1719 62.1088 19.1227 62.3385 19.1227C62.4779 19.1227 62.7199 19.1678 63.0645 19.258C63.1465 19.1268 63.2572 19.0611 63.3967 19.0611C63.5689 19.0611 63.7822 19.1637 64.0365 19.3688L64.1719 19.0488L64.7748 19.7625L64.8855 20.107C64.7215 20.1234 64.6395 20.185 64.6395 20.2916C64.6395 20.4146 64.7174 20.5787 64.8732 20.7838L64.3072 20.5869C64.0693 20.7756 63.8766 20.8699 63.7289 20.8699C63.6059 20.8699 63.5197 20.7961 63.4705 20.6484L63.1752 20.8576C63.0029 20.7592 62.8266 20.71 62.6461 20.71L62.1416 20.8453C61.9529 20.7059 61.7807 20.6361 61.6248 20.6361C61.4689 20.6361 61.2967 20.7059 61.108 20.8453L60.7143 20.71C60.542 20.874 60.4559 21.0299 60.4559 21.1775L60.5174 21.399L60.2467 21.6697L60.5666 21.9404L60.2713 22.4203L60.5174 22.7279L60.3082 23.1586C60.4559 23.2816 60.5297 23.4006 60.5297 23.5154C60.5297 23.6303 60.4559 23.741 60.3082 23.8477V24.9428L60.5174 25.0412V25.8656L60.3082 25.8164L60.5666 27.3791L60.3328 27.4406L60.5174 27.982H60.5666C60.9521 27.982 61.1449 28.06 61.1449 28.2158L61.0957 28.3881L61.5756 28.5234V28.2527H62.523L62.7076 28.4988L63.1506 28.2896C63.2982 27.7811 63.5936 27.4406 64.0365 27.2684L64.0242 26.8623C64.1062 26.69 64.1924 26.6039 64.2826 26.6039C64.3646 26.6039 64.4631 26.7023 64.5779 26.8992L64.8732 27.01L64.6271 27.6129L65.107 27.7729L64.7502 28.4496L64.1719 28.4742L63.9381 28.7695L64.6641 28.6096C64.0734 29.5119 63.2162 29.9631 62.0924 29.9631H61.9447C61.7643 30.0697 61.5756 30.123 61.3787 30.123C61.1736 30.123 60.9686 30.0574 60.7635 29.9262L60.5174 29.9754C60.14 29.9754 59.775 29.6801 59.4223 29.0895L59.2008 29.1264C58.8891 29.1264 58.7045 28.868 58.6471 28.3512L58.8686 27.8467Z" fill="black"/>
<rect x="1.575" y="58.575" width="83.79" height="41.85" rx="4.725" stroke="#7C6365" stroke-width="3.15"/>
<rect x="6" y="63" width="74" height="33" rx="6.3" fill="#CDCDCF"/>
<path d="M15.4252 86.9754L15.5236 86.5447C15.5236 86.3725 15.4703 86.2453 15.3637 86.1633V86.0771C15.3637 85.9131 15.4129 85.7654 15.5113 85.6342C15.6098 85.4947 15.741 85.425 15.9051 85.425C16.0117 85.425 16.1061 85.4783 16.1881 85.585C16.7295 85.5521 17.0002 85.3881 17.0002 85.0928L16.9264 84.5391C17.0576 84.334 17.1232 84.1617 17.1232 84.0223C17.1232 83.9648 17.1068 83.9115 17.074 83.8623C17.0412 83.8131 17.0043 83.7721 16.9633 83.7393C16.9305 83.6982 16.8977 83.6613 16.8648 83.6285C16.832 83.5875 16.8156 83.5465 16.8156 83.5055C16.8156 83.4152 16.873 83.325 16.9879 83.2348L16.9018 82.4104C16.7295 82.1068 16.6434 81.8854 16.6434 81.7459C16.6434 81.6885 16.6557 81.6475 16.6803 81.6229C16.7131 81.5982 16.7459 81.5736 16.7787 81.549C16.8197 81.5244 16.8525 81.4957 16.8772 81.4629C16.91 81.4219 16.9264 81.3645 16.9264 81.2906L16.8895 81.0322C17.0289 80.9912 17.0986 80.9256 17.0986 80.8354C17.0986 80.7615 17.0412 80.6672 16.9264 80.5523L17.0863 80.2201L16.7541 80.0725C16.7705 79.7115 16.8525 79.5064 17.0002 79.4572V79.2234L16.7418 79.2727L16.8279 78.3744C16.7049 78.2678 16.6434 78.0504 16.6434 77.7223L16.7418 76.8486L16.9756 76.8732C16.7295 76.742 16.6064 76.5492 16.6064 76.2949C16.6064 76.1145 16.6803 75.9012 16.8279 75.6551C16.7131 75.5156 16.6557 75.3639 16.6557 75.1998C16.6557 75.0439 16.7049 74.8594 16.8033 74.6461V74.277C16.4998 74.2688 16.348 74.158 16.348 73.9447L16.3727 73.7602C16.2168 73.793 16.1389 73.8709 16.1389 73.9939V74.0186C15.7369 73.8709 15.5359 73.5592 15.5359 73.0834C15.5359 72.9604 15.5688 72.8537 15.6344 72.7635C15.7082 72.6732 15.7861 72.5994 15.8682 72.542C15.9584 72.4764 16.0445 72.4313 16.1266 72.4066C16.2086 72.3738 16.2578 72.3574 16.2742 72.3574L16.4219 72.3943L16.8402 72.1359H17.3201C17.4268 72.2344 17.5375 72.2836 17.6523 72.2836C17.7508 72.2836 17.8574 72.2344 17.9723 72.1359H19.4857L19.4242 72.5297L19.9164 72.1482H20.1625C20.343 72.2959 20.4947 72.3697 20.6178 72.3697C20.708 72.3697 20.7859 72.3328 20.8516 72.259C20.9254 72.177 20.9951 72.1359 21.0607 72.1359C21.1264 72.1359 21.2043 72.177 21.2945 72.259C21.393 72.341 21.4955 72.3861 21.6022 72.3943L21.8113 72.5666L22.4881 72.4682L22.8449 72.5051V72.5666C22.8449 72.6568 22.8818 72.702 22.9557 72.702L23.2633 72.5912C23.534 72.9029 23.7965 73.0588 24.0508 73.0588L24.2969 73.0096L24.543 73.2434L24.4322 73.6494L24.5922 73.8709L24.9859 73.6371L24.7398 74.0801L25.3428 74.8676L25.2566 75.8027C25.2566 75.9504 25.2895 76.0734 25.3551 76.1719C25.4289 76.2703 25.4658 76.3646 25.4658 76.4549C25.4658 76.5451 25.4084 76.623 25.2936 76.6887L25.5273 77.1563L25.0105 78.5713C24.8875 78.6123 24.826 78.6533 24.826 78.6943L24.9244 78.8051L24.5799 79.2727L24.826 79.4572C24.4322 79.6705 24.1615 79.9535 24.0139 80.3063C23.7021 80.4047 23.5463 80.54 23.5463 80.7123L23.5709 80.86L23.2141 80.8723C22.968 80.7492 22.7793 80.6877 22.648 80.6877C22.5086 80.6877 22.4389 80.7615 22.4389 80.9092L21.7498 81.1061L22.2543 81.3398C22.2543 81.5941 22.4389 81.7336 22.808 81.7582L22.6604 82.1027C23.1197 82.1438 23.3494 82.3201 23.3494 82.6318C23.3494 82.7795 23.3207 82.9066 23.2633 83.0133L23.657 83.0502L23.5832 83.3947C23.5832 83.608 23.698 83.7434 23.9277 83.8008C23.8539 83.9156 23.817 84.0346 23.817 84.1576C23.817 84.4037 23.9688 84.6539 24.2723 84.9082L24.5307 84.7113L24.7152 84.9697L25.0721 84.9451C25.5561 84.9451 25.798 85.101 25.798 85.4127L25.6996 85.8311L25.9211 85.8188L25.7611 86.9016L25.2813 86.7047V87.0123L24.8875 87.1107C24.7316 87.0287 24.5676 86.9877 24.3953 86.9877C24.1902 86.9877 23.9975 87.041 23.817 87.1477C23.7104 86.9426 23.5873 86.84 23.4479 86.84C23.3494 86.84 23.2592 86.8811 23.1771 86.9631L22.7219 86.6309L22.7834 86.3479C22.7834 86.1346 22.6645 85.9541 22.4266 85.8064L22.4389 85.6096C22.4389 85.3143 22.3199 85.1461 22.082 85.1051L21.8729 84.7975L22.082 84.3299C21.7047 84.3299 21.516 84.1904 21.516 83.9115L21.5406 83.727L21.0977 83.8254L21.0484 83.0133L20.7777 83.2348C20.6711 82.6195 20.4168 82.2832 20.0148 82.2258L20.0025 81.6967L19.6088 81.6844L19.5227 81.3275L19.2027 81.2414L19.1289 81.4014L18.8705 81.2783C18.7639 81.4834 18.7105 81.7541 18.7105 82.0904L18.809 82.718C18.809 82.8328 18.7844 82.9313 18.7352 83.0133C18.6941 83.0871 18.6736 83.1773 18.6736 83.284C18.6736 83.4152 18.7105 83.5711 18.7844 83.7516C18.6859 83.8746 18.6367 84.0264 18.6367 84.2068C18.6367 84.4201 18.7023 84.6539 18.8336 84.9082L18.7967 85.2281C18.7967 85.4086 18.8541 85.4988 18.9689 85.4988C19.0428 85.4988 19.1494 85.4537 19.2889 85.3635L19.3504 85.5357H19.7195L20.101 85.7572C20.1912 85.7572 20.2363 85.9418 20.2363 86.3109V86.4709L20.101 86.434L20.1256 86.9754C19.8631 86.9016 19.6293 86.8646 19.4242 86.8646C19.2602 86.8646 19.1125 86.8934 18.9813 86.9508C18.85 87 18.7229 87.0246 18.5998 87.0246C18.4029 87.0246 18.2266 86.9631 18.0707 86.84L17.9723 87H17.677L17.6893 86.8646L17.3324 86.8893L17.3816 87H16.8033L16.791 86.8523C16.709 86.9098 16.6229 86.9385 16.5326 86.9385C16.467 86.9385 16.4137 86.918 16.3727 86.877C16.3398 86.8277 16.2906 86.8031 16.225 86.8031C16.143 86.8031 16.0199 86.8482 15.8559 86.9385L15.4252 86.9754ZM20.7654 79.248C20.8721 79.3055 21.0566 79.3342 21.3191 79.3342C21.516 79.3342 21.6145 79.2768 21.6145 79.1619L22.0082 79.0389L22.3158 79.1496L22.5004 78.8789L22.7711 78.9527C23.0172 78.7969 23.1402 78.6738 23.1402 78.5836L23.0418 78.4729C23.2879 78.3498 23.4848 78.0709 23.6324 77.6361L23.3494 77.673L23.8047 77.0209L23.7555 76.701L23.5955 76.7871L23.5832 76.4918C23.698 76.3934 23.7555 76.2949 23.7555 76.1965C23.7555 76.0324 23.6037 75.8848 23.3002 75.7535L23.251 75.1629L23.0664 75.2121L22.9926 74.8676L23.0418 74.683C23.0418 74.6256 23.0131 74.5969 22.9557 74.5969C22.8736 74.5969 22.7137 74.6666 22.4758 74.8061C22.0656 74.4943 21.7129 74.3385 21.4176 74.3385C21.2863 74.3385 21.1633 74.3713 21.0484 74.4369C21.032 74.1908 20.9828 74.0678 20.9008 74.0678C20.8352 74.0678 20.7408 74.1375 20.6178 74.277L19.9164 74.1416C19.9164 74.0021 19.8549 73.9324 19.7318 73.9324C19.5842 73.9324 19.3463 74.0309 19.0182 74.2277L19.0305 74.0678C19.0305 73.9693 19.0018 73.9201 18.9443 73.9201L18.8213 73.9693L18.8705 74.5969C18.7147 74.6297 18.6367 74.7281 18.6367 74.8922V74.966C18.7762 75.0152 18.8459 75.126 18.8459 75.2982L18.6736 76.0488C18.6736 76.1391 18.7064 76.1842 18.7721 76.1842L18.8213 76.1719L18.9197 77.0578L18.7475 77.0209C18.6408 77.226 18.5875 77.5541 18.5875 78.0053C18.5875 78.3826 18.6654 78.7107 18.8213 78.9896L19.1535 78.7805L19.0674 79.1496L19.3873 79.1373C19.8549 79.1373 20.265 79.2275 20.6178 79.408L20.7654 79.248ZM32.3318 75.9504C32.3564 76.2129 32.7461 76.3934 33.5008 76.4918C33.2137 76.7297 33.0701 76.9471 33.0701 77.1439C33.0701 77.2014 33.0824 77.2629 33.107 77.3285C33.1398 77.3941 33.1727 77.4598 33.2055 77.5254C33.2465 77.5828 33.2793 77.6402 33.3039 77.6977C33.3367 77.7551 33.3531 77.8043 33.3531 77.8453C33.3531 77.8863 33.3449 77.9191 33.3285 77.9438C33.3121 77.9684 33.2916 78.0012 33.267 78.0422C33.2424 78.075 33.2219 78.1242 33.2055 78.1898C33.1891 78.2473 33.1809 78.3293 33.1809 78.4359L33.267 79.2604L33.0578 79.125V80.1586C33.2055 80.2816 33.2793 80.4006 33.2793 80.5154C33.2793 80.6303 33.2055 80.741 33.0578 80.8477V81.9428L33.267 82.0412V82.8656L33.0578 82.8164L33.3162 84.3791L33.0824 84.4406L33.267 84.982H33.3162C33.7018 84.982 33.8945 85.06 33.8945 85.2158L33.8453 85.3881L35.2111 85.4988L35.568 85.4373C36.052 85.4373 36.4744 85.7941 36.8354 86.5078L36.5523 87.1723L36.0725 86.7047L35.9494 87.0369C35.7854 87.0943 35.5762 87.123 35.3219 87.123C34.8789 87.123 34.4482 86.9754 34.0299 86.6801L34.0914 87.2215L33.5131 86.9262L32.8363 87.1723L32.9102 86.6801C32.5246 86.9754 32.1186 87.123 31.692 87.123C31.4295 87.123 31.1096 87.041 30.7322 86.877L29.9447 87.0984L28.5789 87.0369C28.4887 86.8975 28.3861 86.8277 28.2713 86.8277C28.1318 86.8277 27.976 86.9221 27.8037 87.1107L27.4223 86.6924L27.5822 85.9541C28.1564 85.8803 28.4436 85.7531 28.4436 85.5727L29.7479 85.2896L30.0432 85.4127C30.2975 85.1584 30.5395 85.0313 30.7691 85.0313L31.0275 85.0928L31.4705 84.4037V83.9977C31.3475 83.5711 31.2859 83.1814 31.2859 82.8287C31.2859 82.476 31.3475 82.1561 31.4705 81.8689L31.2736 81.6105L31.532 80.6016C31.4746 80.3719 31.4336 80.1627 31.409 79.974C31.3844 79.7771 31.3721 79.6008 31.3721 79.4449C31.3721 79.1988 31.409 79.0143 31.4828 78.8912L31.2367 78.7189C31.3762 78.5057 31.4459 78.3498 31.4459 78.2514C31.4459 78.1939 31.4295 78.1529 31.3967 78.1283C31.3639 78.0955 31.327 78.0668 31.2859 78.0422C31.2449 78.0094 31.208 77.9807 31.1752 77.9561C31.1424 77.9232 31.126 77.8781 31.126 77.8207L31.1752 77.6607H30.3754C30.2113 77.5623 30.035 77.5131 29.8463 77.5131C29.5592 77.5131 29.2639 77.6156 28.9604 77.8207C28.5994 77.632 28.4189 77.4393 28.4189 77.2424L28.4313 77.1439L28.6158 77.0701L28.4313 76.7994L29.0957 76.0857L29.3541 76.2949L29.8709 76.3072C29.9939 76.1596 30.1744 76.0857 30.4123 76.0857C30.56 76.0857 30.8143 76.1432 31.1752 76.258C31.2162 76.3975 31.2531 76.4672 31.2859 76.4672C31.3434 76.4672 31.3885 76.2908 31.4213 75.9381L32.3318 75.9504ZM32.2211 72.259L32.3811 72.2713C32.6354 72.3943 32.8445 72.5133 33.0086 72.6281C33.1809 72.743 33.3162 72.8578 33.4146 72.9727C33.5131 73.0875 33.5828 73.2105 33.6238 73.3418C33.6648 73.473 33.6854 73.6125 33.6854 73.7602C33.6854 73.9488 33.6607 74.1334 33.6115 74.3139C33.5705 74.4943 33.5008 74.6543 33.4023 74.7938C33.3121 74.9332 33.1932 75.048 33.0455 75.1383C32.8979 75.2203 32.7215 75.2654 32.5164 75.2736L31.692 75.7904L31.8766 75.2859C30.9988 75.0152 30.56 74.6133 30.56 74.0801L30.6092 73.7479C30.5354 73.6986 30.4984 73.6289 30.4984 73.5387C30.4984 73.4074 30.5354 73.2885 30.6092 73.1818C30.683 73.067 30.765 72.9686 30.8553 72.8865C30.9455 72.8045 31.0275 72.743 31.1014 72.702C31.1834 72.6609 31.2326 72.6404 31.249 72.6404L31.3105 72.6527C31.3598 72.6527 31.3844 72.6117 31.3844 72.5297L31.3721 72.4313C31.3721 72.3492 31.4213 72.3082 31.5197 72.3082C31.61 72.3082 31.6879 72.3369 31.7535 72.3943C31.8273 72.4518 31.8725 72.4805 31.8889 72.4805C31.9053 72.4805 31.9176 72.4682 31.9258 72.4436C31.9422 72.4189 31.9586 72.3943 31.975 72.3697C31.9996 72.3451 32.0283 72.3205 32.0611 72.2959C32.1021 72.2713 32.1555 72.259 32.2211 72.259ZM38.9518 91.3312L38.718 91.2574C38.5867 90.8309 38.3242 90.5355 37.9305 90.3715L37.9059 90.1131C37.9059 89.8916 37.9756 89.748 38.115 89.6824C38.0412 89.182 37.9182 88.9318 37.7459 88.9318L37.6967 88.9441L37.8812 88.1074L37.8566 87.7137C37.8566 87.1395 38.0617 86.7457 38.4719 86.5324V86.4463C38.4719 86.1838 38.6236 86.0525 38.9271 86.0525L38.9518 85.8434C38.2299 85.2445 37.8689 84.699 37.8689 84.2068C37.8689 83.9689 37.9551 83.7434 38.1273 83.5301L37.9059 83.1486C38.316 82.8369 38.6687 82.6811 38.9641 82.6811C39.1035 82.6811 39.2307 82.7139 39.3455 82.7795L39.9115 82.3611C39.8705 82.2463 39.8008 82.1889 39.7023 82.1889L39.5547 82.2258L39.6162 81.8936C39.1732 81.2455 38.9518 80.5975 38.9518 79.9494C38.9518 79.6377 38.9928 79.3629 39.0748 79.125L39.0256 78.9158C39.0256 78.6861 39.1609 78.3662 39.4316 77.9561L39.5547 78.0176L39.973 77.5131L40.0715 77.5254C40.2109 77.5254 40.2807 77.4352 40.2807 77.2547L40.2684 77.0947L40.6252 76.9594L40.5637 76.7256C40.5637 76.5779 40.6457 76.4303 40.8098 76.2826C40.9738 76.3975 41.1297 76.4549 41.2773 76.4549C41.5562 76.4549 41.8557 76.2826 42.1756 75.9381H43.1969C43.3281 76.1432 43.5455 76.2457 43.849 76.2457H43.9475L43.8613 76.7625C44.0336 76.5328 44.2018 76.418 44.3658 76.418C44.5709 76.418 44.7801 76.5984 44.9934 76.9594C45.2887 75.9586 45.6291 75.4582 46.0146 75.4582L46.2361 75.5074L46.2238 75.2982L46.4822 75.409L46.8145 75.2367L46.716 75.4459L46.9375 75.409C47.2902 75.409 47.6184 75.6961 47.9219 76.2703L48.0818 76.135C48.2131 76.6107 48.2787 77.0291 48.2787 77.39C48.2787 77.8904 48.127 78.1693 47.8234 78.2268L47.8604 78.3867C47.2369 78.3785 46.9252 78.2227 46.9252 77.9191L46.7529 77.833L46.7898 77.1686C46.7898 76.7748 46.7324 76.5779 46.6176 76.5779C46.5191 76.5779 46.3715 76.742 46.1746 77.0701C46.232 77.1521 46.2607 77.2506 46.2607 77.3654C46.2607 77.5623 46.1623 77.7633 45.9654 77.9684C46.0146 78.2555 46.1008 78.399 46.2238 78.399L46.3223 78.3744L46.7283 79.6418L46.4576 79.7279L46.716 80.1463V80.3309C46.716 81.2332 46.4945 81.873 46.0516 82.2504C45.9449 82.9641 45.4609 83.3291 44.5996 83.3455C44.1977 83.7229 43.7219 83.9115 43.1723 83.9115C42.5898 83.9115 41.9213 83.6695 41.1666 83.1855C41.0764 83.3988 40.8631 83.5055 40.5268 83.5055L40.2437 83.4809C40.416 83.6449 40.5021 83.7762 40.5021 83.8746C40.5021 83.9402 40.4775 83.9936 40.4283 84.0346C40.3791 84.0674 40.3258 84.1002 40.2684 84.133C40.2109 84.1658 40.1576 84.1986 40.1084 84.2314C40.0592 84.2561 40.0346 84.2889 40.0346 84.3299C40.0346 84.3791 40.0715 84.4324 40.1453 84.4898L39.8623 84.5145L39.8254 84.3053C39.8254 84.133 39.9238 83.9895 40.1207 83.8746C40.0141 83.768 39.9115 83.7146 39.8131 83.7146C39.608 83.7146 39.4604 84.0182 39.3701 84.6252C39.8377 84.7072 40.1166 85.0025 40.2068 85.5111L40.9943 85.3635L41.1051 85.5111C41.4004 84.9779 41.8023 84.7113 42.3109 84.7113C42.5488 84.7113 42.7662 84.7523 42.9631 84.8344C43.2338 84.7441 43.4594 84.699 43.6398 84.699C44.0992 84.699 44.5299 84.9 44.9318 85.302C45.2354 85.1625 45.4896 85.0928 45.6947 85.0928C46.1705 85.0928 46.5725 85.3676 46.9006 85.9172H47.2943L47.282 86.1633C47.282 86.5488 47.3969 86.8564 47.6266 87.0861L47.5773 87.4061C47.5773 87.5619 47.6143 87.7055 47.6881 87.8367C47.7865 87.7219 47.8686 87.6645 47.9342 87.6645C48.0572 87.6645 48.1187 87.8531 48.1187 88.2305V88.292C47.9219 88.5381 47.8234 88.8047 47.8234 89.0918C47.8234 89.3461 47.8973 89.6127 48.0449 89.8916C47.9055 89.9818 47.8357 90.1131 47.8357 90.2854L47.8604 90.5068L47.7127 90.433C47.6635 90.433 47.6143 90.4699 47.565 90.5437C47.5158 90.6176 47.4543 90.6996 47.3805 90.7898C47.3148 90.8883 47.2287 90.9867 47.1221 91.0852C47.0154 91.1836 46.8842 91.2574 46.7283 91.3066C46.3592 91.4297 46.1582 91.6143 46.1254 91.8604C46.027 91.7865 45.9244 91.7496 45.8178 91.7496C45.5799 91.7496 45.3256 91.926 45.0549 92.2787C44.858 92.2131 44.698 92.1803 44.575 92.1803C44.3125 92.1803 44.0541 92.2582 43.7998 92.4141C43.6275 92.3402 43.4512 92.3033 43.2707 92.3033C43.041 92.3033 42.799 92.3648 42.5447 92.4879L41.4004 92.4141C41.0641 92.127 40.6088 91.9465 40.0346 91.8727C39.9361 91.6512 39.7721 91.5404 39.5424 91.5404C39.3783 91.5404 39.2184 91.5814 39.0625 91.6635L38.9518 91.3312ZM41.1051 81.6105L41.2404 81.6229C41.4865 81.6229 41.6588 81.508 41.7572 81.2783H41.9418C41.9418 81.467 42.0812 81.6023 42.3602 81.6844C42.1961 81.75 42.1141 81.8402 42.1141 81.9551L42.1264 82.0535L42.4832 81.9182C42.598 82.3283 42.7293 82.5334 42.877 82.5334C42.9426 82.5334 43.0082 82.5006 43.0738 82.435L43.8859 82.398C44.2059 82.3242 44.3863 82.1191 44.4273 81.7828C44.7145 81.709 44.94 81.5695 45.1041 81.3645C45.2764 81.1594 45.3625 80.9174 45.3625 80.6385C45.3625 80.5154 45.3338 80.3965 45.2764 80.2816C45.2189 80.1586 45.1533 80.0314 45.0795 79.9002C45.0139 79.7689 44.9523 79.6295 44.8949 79.4818C44.8375 79.3342 44.8088 79.166 44.8088 78.9773L44.8211 78.7066C44.6324 78.9281 44.4273 79.0389 44.2059 79.0389L44.0459 79.0143C44.0459 78.6041 44.1238 78.2391 44.2797 77.9191C44.0746 77.7879 43.7998 77.7223 43.4553 77.7223L42.84 77.7838L42.877 77.6361C42.877 77.5295 42.8031 77.4639 42.6555 77.4393L42.5939 77.7838C42.3889 77.6771 42.1674 77.6238 41.9295 77.6238C41.4127 77.6238 40.9164 77.9191 40.4406 78.5098L40.6498 78.4236C40.7646 78.4236 40.8303 78.5467 40.8467 78.7928L40.4652 79.0758L40.699 79.2111C40.5678 79.4408 40.5021 79.65 40.5021 79.8387C40.5021 79.9207 40.5186 79.9945 40.5514 80.0602C40.5924 80.1258 40.6375 80.1914 40.6867 80.257C40.7359 80.3145 40.777 80.3719 40.8098 80.4293C40.8508 80.4785 40.8713 80.5277 40.8713 80.577C40.8713 80.6754 40.7852 80.741 40.6129 80.7738C40.7359 80.9215 40.8508 80.9953 40.9574 80.9953L41.0682 80.9707L41.1051 81.6105ZM40.4037 85.0559L40.8098 84.982C41.023 84.982 41.1297 85.0764 41.1297 85.265V85.3266C41.0641 85.2609 40.9779 85.2281 40.8713 85.2281C40.7236 85.2281 40.5432 85.2855 40.3299 85.4004L40.4037 85.0559ZM39.567 88.7104C39.7146 88.7514 39.7885 88.9154 39.7885 89.2025V89.3379C39.9443 89.3707 40.0838 89.4322 40.2068 89.5225C40.3381 89.6209 40.4611 89.7193 40.576 89.8178C40.6908 89.9244 40.8057 90.0146 40.9205 90.0885C41.0354 90.1705 41.1625 90.2115 41.302 90.2115L41.6465 90.1623L41.6096 90.4207L41.9295 90.4699C42.2412 90.4699 42.4053 90.2771 42.4217 89.8916C42.6021 90.2443 42.7867 90.4207 42.9754 90.4207C43.1066 90.4207 43.242 90.3346 43.3814 90.1623L43.6029 90.2115C43.7506 90.2115 43.8736 90.1254 43.9721 89.9531L44.4889 90.0023C45.2928 90.0023 45.9572 89.5553 46.4822 88.6611V88.6119C46.4822 88.21 46.3059 88.009 45.9531 88.009L45.707 88.0459C45.4527 87.4717 45.1041 87.1846 44.6611 87.1846L44.452 87.2092C44.3535 87.0369 44.2469 86.9508 44.132 86.9508C44.0172 86.9508 43.9064 87.0164 43.7998 87.1477L43.2584 86.6063C42.9221 86.6801 42.6596 86.8893 42.4709 87.2338C42.2166 87.2256 42.0895 87.1518 42.0895 87.0123L42.2494 86.6678C42.0361 86.6678 41.9295 86.8195 41.9295 87.123L41.9418 87.3199C41.7531 87.1312 41.5727 87.0369 41.4004 87.0369C41.2363 87.0369 41.0723 87.1066 40.9082 87.2461C40.7605 87.1477 40.6211 87.0984 40.4898 87.0984C40.1207 87.0984 39.809 87.4348 39.5547 88.1074L39.567 88.7104ZM46.1869 88.1936C46.3182 88.3494 46.3838 88.4766 46.3838 88.575C46.3838 88.657 46.3223 88.698 46.1992 88.698L45.9285 88.6611L46.1869 88.1936ZM50.0875 87.16C49.7102 87.16 49.4354 86.9795 49.2631 86.6186C49.2631 85.7818 49.4189 85.3635 49.7307 85.3635C49.8291 85.3635 49.9193 85.3922 50.0014 85.4496L50.0752 85.3512C50.067 85.3266 50.0629 85.3061 50.0629 85.2896C50.0629 85.1748 50.2105 85.0641 50.5059 84.9574C50.4484 84.7605 50.4197 84.5391 50.4197 84.293C50.4197 84.1043 50.4484 83.9854 50.5059 83.9361L50.5551 84.01C50.6289 84.01 50.6658 83.9566 50.6658 83.85C50.6248 83.8008 50.6043 83.7516 50.6043 83.7023V83.6285C50.6043 83.5875 50.5961 83.5342 50.5797 83.4686C50.5551 83.3947 50.5346 83.3209 50.5182 83.2471C50.5018 83.165 50.4936 83.0994 50.4936 83.0502C50.4936 82.8943 50.5674 82.8164 50.715 82.8164L50.3582 82.3857C50.5223 81.9182 50.6043 81.6023 50.6043 81.4383C50.6043 81.225 50.5305 81.0979 50.3828 81.0568V80.4785C50.4977 80.134 50.5551 79.8674 50.5551 79.6787C50.5551 79.3588 50.4484 79.0676 50.2352 78.8051L50.8135 78.6574L50.752 77.7715L50.6535 78.559L50.3213 78.5344C50.4197 78.116 50.4689 77.7264 50.4689 77.3654C50.4689 76.8404 50.3664 76.377 50.1613 75.975L50.4566 75.2982L50.4936 75.0521C50.4936 74.8061 50.4033 74.5805 50.2229 74.3754C50.4115 74.359 50.5059 74.2811 50.5059 74.1416C50.5059 74.035 50.4771 73.9283 50.4197 73.8217L50.1613 73.957C50.0219 73.7438 49.8496 73.6371 49.6445 73.6371L49.4107 73.6863L49.0539 73.5141L49.0047 73.0342L49.46 72.665L49.2385 72.4805C49.3369 72.1113 49.5543 71.9268 49.8906 71.9268L50.1859 71.9637L50.6412 71.8529L51.0596 72.0867C51.1744 71.9719 51.3262 71.9145 51.5148 71.9145L51.9455 71.9883L51.9947 72.4436L52.2654 72.3451L52.5361 72.825L52.3393 73.108C52.5854 73.2557 52.7084 73.4443 52.7084 73.674C52.7084 73.9283 52.573 74.2277 52.3023 74.5723L52.6469 74.8184L52.3516 75.7535L52.61 75.9996V76.4426H52.9791L53.3852 76.7256L53.459 76.5287L54.0742 76.0119L54.3326 76.418L54.5049 75.975L55.1693 76.1473C55.2268 76.0242 55.3047 75.9627 55.4031 75.9627C55.4605 75.9627 55.5262 75.9914 55.6 76.0488C55.6738 76.1063 55.7477 76.1719 55.8215 76.2457C55.9035 76.3195 55.9773 76.3852 56.043 76.4426C56.1168 76.5 56.1824 76.5287 56.2398 76.5287L56.5352 76.4303C56.6828 76.4303 56.8551 76.5779 57.052 76.8732C57.1832 76.742 57.298 76.6764 57.3965 76.6764C57.5113 76.6764 57.6057 76.7584 57.6795 76.9225L58.024 77.8207L57.8148 78.3252C58.1184 78.3826 58.2701 78.8625 58.2701 79.7648L57.9871 80.0725C58.1184 80.2037 58.184 80.3268 58.184 80.4416C58.184 80.5729 58.0979 80.6918 57.9256 80.7984L57.9748 81.1307L58.0609 81.1061C58.1348 81.1061 58.1717 81.1758 58.1717 81.3152C58.1717 81.4465 58.102 81.7705 57.9625 82.2873V82.7549C58.0691 82.7631 58.1225 82.8287 58.1225 82.9518C58.1225 83.0584 58.0855 83.2102 58.0117 83.407V83.7516L58.3686 84.3176L58.024 84.576C58.0979 85.1912 58.4014 85.5809 58.9346 85.7449L59.0453 86.3232L58.7746 86.8523C58.668 86.9098 58.5367 86.9385 58.3809 86.9385C58.225 86.9385 58.0937 86.9098 57.9871 86.8523C57.7492 86.9508 57.5031 87 57.2488 87C56.9863 87 56.7156 86.9508 56.4367 86.8523L56.043 87.1107L55.9076 87.1354C55.8912 87.0205 55.842 86.9631 55.76 86.9631C55.6779 86.9549 55.5836 86.9262 55.477 86.877C55.3703 86.8195 55.2719 86.7375 55.1816 86.6309C55.0914 86.516 55.0463 86.3479 55.0463 86.1264C55.0463 85.8803 55.0873 85.6752 55.1693 85.5111C55.8256 85.4947 56.1537 85.3061 56.1537 84.9451C56.1701 84.9041 56.1783 84.8672 56.1783 84.8344C56.1783 84.7688 56.1537 84.7113 56.1045 84.6621C56.2686 84.4488 56.3506 84.2684 56.3506 84.1207C56.3506 83.973 56.2645 83.8418 56.0922 83.727L55.9814 83.1609C56.1865 82.759 56.2891 82.4186 56.2891 82.1396C56.2891 81.8771 56.1988 81.6926 56.0184 81.5859L56.3875 81.2783L56.0184 80.823L56.0061 80.2201C56.0307 80.2119 56.0512 80.2078 56.0676 80.2078C56.125 80.2078 56.166 80.2324 56.1906 80.2816C56.3055 80.2816 56.3793 80.1791 56.4121 79.974C56.3711 79.9494 56.3342 79.9371 56.3014 79.9371C56.2604 79.9371 56.2316 79.9617 56.2152 80.0109C56.0348 80.0109 55.9445 79.9002 55.9445 79.6787L56.1906 78.6943L55.76 78.6328L55.8092 78.3129C55.8092 78.0258 55.6615 77.8822 55.3662 77.8822L55.0586 77.9191L55.0217 78.1529C54.833 78.1119 54.6607 78.0791 54.5049 78.0545C54.349 78.0299 54.2096 78.0176 54.0865 78.0176C53.824 78.0176 53.5328 78.075 53.2129 78.1898L52.7453 78.0176L52.6469 78.4359C52.409 78.6 52.29 78.8502 52.29 79.1865L52.3516 79.6541C52.2367 79.7033 52.167 79.7854 52.1424 79.9002C52.167 79.892 52.1875 79.8879 52.2039 79.8879C52.2449 79.8879 52.2654 79.9002 52.2654 79.9248C52.2654 79.9576 52.29 79.9822 52.3393 79.9986C52.3967 80.0068 52.4459 80.0232 52.4869 80.0479C52.5279 80.0725 52.5484 80.1135 52.5484 80.1709C52.5484 80.2447 52.5197 80.3391 52.4623 80.4539C52.4049 80.5688 52.3762 80.6795 52.3762 80.7861C52.3762 80.983 52.4664 81.1963 52.6469 81.426C52.3598 81.6967 52.2162 81.9182 52.2162 82.0904C52.2162 82.2627 52.3393 82.3898 52.5854 82.4719V84.3053C52.4459 84.1904 52.3393 84.133 52.2654 84.133C52.1752 84.133 52.1301 84.215 52.1301 84.3791L52.2039 84.8713L52.6592 84.6252L52.7822 85.4988L53.1637 85.425C53.4672 85.425 53.6189 85.6342 53.6189 86.0525L53.5697 86.557C53.3564 86.7047 53.1596 86.9016 52.9791 87.1477C52.7658 87.082 52.5771 87.0492 52.4131 87.0492C52.2736 87.0492 52.1219 87.0574 51.9578 87.0738C51.7937 87.0984 51.6215 87.1312 51.441 87.1723L51.1088 86.8523L50.5059 87.16H50.0875ZM63.9672 84.8467L63.5242 84.416L63.9795 84.1207L63.598 83.69L63.5611 83.0871C63.5611 82.5949 63.6473 82.1889 63.8195 81.8689L63.6227 81.6105L63.8811 80.6016C63.6596 80.3965 63.5488 80.1996 63.5488 80.0109C63.5488 79.8141 63.6965 79.6459 63.9918 79.5064L63.5857 78.5959C63.7252 78.3826 63.7949 78.2268 63.7949 78.1283C63.7949 78.0709 63.7785 78.0299 63.7457 78.0053C63.7129 77.9725 63.676 77.9438 63.635 77.9191C63.5939 77.8863 63.557 77.8576 63.5242 77.833C63.4914 77.8002 63.475 77.7551 63.475 77.6977L63.5242 77.5377H62.7244C62.5275 77.4393 62.3348 77.39 62.1461 77.39C61.8672 77.39 61.5883 77.4926 61.3094 77.6977C60.9484 77.509 60.768 77.3162 60.768 77.1193L60.7803 77.0209L60.9648 76.9471L60.8541 76.3934L61.4447 75.9627L61.9492 76.1719L62.466 76.1473C62.4988 75.9914 62.6301 75.9135 62.8598 75.9135L63.635 76.098C63.7334 76.098 63.7826 76.0406 63.7826 75.9258L63.7703 75.815L64.041 75.7043L63.6719 74.7445L64.201 74.7938L63.6965 74.1539C63.8113 73.9406 63.8687 73.6535 63.8687 73.2926L63.7334 72.0744L64.4102 72.2098C64.443 71.8406 64.6316 71.6561 64.9762 71.6561C65.1566 71.6561 65.3781 71.7053 65.6406 71.8037V71.9883C65.6406 72.177 65.657 72.3328 65.6898 72.4559C65.7309 72.5789 65.7514 72.6979 65.7514 72.8127C65.7514 72.9111 65.6816 73.1367 65.5422 73.4895L65.9359 73.6863L65.2961 74.2646L65.8006 74.7445L65.4068 74.7691L65.8375 75.1875C65.5914 75.45 65.4684 75.6223 65.4684 75.7043C65.4684 75.7535 65.5053 75.7781 65.5791 75.7781C65.6939 75.7781 65.8047 75.7494 65.9113 75.692L65.8498 76.3688L66.2312 76.418L66.3174 76.0857L66.8219 76.2703C67.0023 76.1719 67.2074 76.1227 67.4371 76.1227C67.5766 76.1227 67.8186 76.1678 68.1631 76.258C68.2451 76.1268 68.3559 76.0611 68.4953 76.0611C68.6676 76.0611 68.8809 76.1637 69.1352 76.3688L69.2705 76.0488L69.8734 76.7625L69.9842 77.107C69.8201 77.1234 69.7381 77.185 69.7381 77.2916C69.7381 77.4146 69.816 77.5787 69.9719 77.7838L69.4059 77.5869C69.168 77.7756 68.9752 77.8699 68.8275 77.8699C68.7045 77.8699 68.6184 77.7961 68.5691 77.6484L68.2738 77.8576C68.1016 77.7592 67.9252 77.71 67.7447 77.71L67.2402 77.8453C67.0516 77.7059 66.8793 77.6361 66.7234 77.6361C66.5676 77.6361 66.3953 77.7059 66.2066 77.8453L65.8129 77.71C65.6406 77.874 65.5545 78.0299 65.5545 78.1775L65.616 78.399L65.3453 78.6697L65.6652 78.9404L65.3699 79.4203L65.616 79.7279L65.4068 80.1586C65.5545 80.2816 65.6283 80.4006 65.6283 80.5154C65.6283 80.6303 65.5545 80.741 65.4068 80.8477V81.9428L65.616 82.0412V82.8656L65.4068 82.8164L65.6652 84.3791L65.4314 84.4406L65.616 84.982H65.6652C66.0508 84.982 66.2436 85.06 66.2436 85.2158L66.1943 85.3881L66.6742 85.5234V85.2527H67.6217L67.8062 85.4988L68.2492 85.2896C68.3969 84.7811 68.6922 84.4406 69.1352 84.2684L69.1229 83.8623C69.2049 83.69 69.291 83.6039 69.3812 83.6039C69.4633 83.6039 69.5617 83.7023 69.6766 83.8992L69.9719 84.01L69.7258 84.6129L70.2057 84.7729L69.8488 85.4496L69.2705 85.4742L69.0367 85.7695L69.7627 85.6096C69.1721 86.5119 68.3148 86.9631 67.191 86.9631H67.0434C66.8629 87.0697 66.6742 87.123 66.4773 87.123C66.2723 87.123 66.0672 87.0574 65.8621 86.9262L65.616 86.9754C65.2387 86.9754 64.8736 86.6801 64.5209 86.0895L64.2994 86.1264C63.9877 86.1264 63.8031 85.868 63.7457 85.3512L63.9672 84.8467Z" fill="black"/>
<rect x="1.575" y="115.575" width="83.79" height="41.85" rx="4.725" stroke="#7C6365" stroke-width="3.15"/>
<rect x="6" y="120" width="75" height="33" rx="6.3" fill="#CDCDCF"/>
<path d="M21.9545 144.049C21.9381 143.738 21.8314 143.483 21.6346 143.286C21.7084 143.04 21.7453 142.782 21.7453 142.511C21.7453 142.396 21.7371 142.277 21.7207 142.154C21.7125 142.023 21.692 141.892 21.6592 141.761C21.7576 141.654 21.8068 141.543 21.8068 141.428C21.8068 141.33 21.7781 141.24 21.7207 141.158C21.8273 141.125 21.8807 141.022 21.8807 140.85L21.8561 140.592L21.5854 140.752C21.7084 140.497 21.7699 140.243 21.7699 139.989L21.6346 139.312L21.893 139.263C22.0324 139.263 22.1514 139.312 22.2498 139.41C22.3564 139.287 22.4795 139.226 22.6189 139.226C22.6764 139.226 22.7215 139.25 22.7543 139.3C22.7871 139.341 22.8199 139.39 22.8527 139.447C22.8938 139.496 22.943 139.546 23.0004 139.595C23.0578 139.644 23.1439 139.673 23.2588 139.681C23.3654 140.378 23.8002 140.887 24.5631 141.207C24.76 141.601 24.9855 141.797 25.2398 141.797C25.2727 141.797 25.3055 141.793 25.3383 141.785L25.3629 141.871C25.4859 141.871 25.5926 141.896 25.6828 141.945C25.773 141.994 25.8592 142.052 25.9412 142.117C26.0232 142.175 26.1094 142.228 26.1996 142.277C26.298 142.327 26.417 142.351 26.5564 142.351C26.7697 142.351 27.0322 142.302 27.3439 142.204C27.467 142.302 27.5613 142.351 27.627 142.351C27.7008 142.351 27.7377 142.29 27.7377 142.167L27.7008 141.921H27.8361C28.6975 141.921 29.3824 141.391 29.891 140.333C29.8172 140.235 29.7803 140.128 29.7803 140.013C29.7803 139.849 29.8582 139.665 30.0141 139.46L29.6572 139.25C29.7557 139.119 29.8049 138.996 29.8049 138.881C29.8049 138.635 29.5752 138.442 29.1158 138.303L29.1281 137.934C29.0625 137.95 28.9969 137.958 28.9313 137.958C28.7508 137.958 28.5785 137.897 28.4145 137.774L28.1068 137.626L27.91 137.762L27.8361 137.712C27.8361 137.565 27.7213 137.491 27.4916 137.491H27.4301V137.54C27.4301 137.614 27.4055 137.651 27.3563 137.651C27.2988 137.651 27.1758 137.581 26.9871 137.442L26.8148 137.503L26.6303 137.171L25.732 137.011L25.892 137.331L25.2768 137.06L25.0922 137.208L25.0061 136.937C24.8994 136.913 24.8461 136.884 24.8461 136.851L24.8584 136.789H24.3785C24.1242 136.264 23.6936 135.953 23.0865 135.854L23.025 135.424L22.8281 135.67L22.7174 135.202L22.4467 135.35L22.4836 134.87L22.299 135.067L22.3236 134.907C22.3236 134.735 22.217 134.636 22.0037 134.612C22.0693 134.571 22.1022 134.521 22.1022 134.464C22.1022 134.398 22.0529 134.316 21.9545 134.218L21.7699 133.639L21.893 133.615C21.7945 133.393 21.7453 133.139 21.7453 132.852L21.8068 132.471C21.8807 132.471 21.9176 132.442 21.9176 132.384C21.9176 132.311 21.852 132.196 21.7207 132.04L22.1268 131.818L22.0775 131.572C22.0775 131.449 22.1145 131.314 22.1883 131.166C22.5984 131.043 22.9348 130.752 23.1973 130.293H23.6772C23.7264 130.022 23.9027 129.874 24.2063 129.85L24.0955 129.727L24.3416 129.53L25.0922 129.628V129.431L25.7443 129.628C25.8264 129.595 25.8674 129.55 25.8674 129.493C25.8674 129.444 25.8264 129.382 25.7443 129.308L26.0397 129.345C26.2201 129.345 26.3801 129.296 26.5195 129.197C26.7082 129.509 27.0117 129.665 27.4301 129.665L27.8238 129.628C27.8566 129.768 27.9346 129.862 28.0576 129.911C28.1889 129.96 28.3324 130.005 28.4883 130.046C28.6441 130.088 28.7959 130.145 28.9436 130.219C29.0912 130.284 29.202 130.403 29.2758 130.576C29.4234 130.887 29.608 131.084 29.8295 131.166C29.9607 130.912 30.0264 130.58 30.0264 130.17C30.133 130.145 30.1863 130.108 30.1863 130.059C30.1863 130.001 30.1289 129.932 30.0141 129.85C30.1945 129.694 30.4078 129.616 30.6539 129.616L30.8385 129.628C30.8713 129.932 31.0107 130.096 31.2568 130.12V130.403C31.0518 130.781 30.9492 131.195 30.9492 131.646C30.9492 132.048 31.0354 132.471 31.2076 132.913V133.233L30.777 133.947L30.1371 133.639C30.1781 133.615 30.1986 133.545 30.1986 133.43C30.1986 133.012 30.0387 132.692 29.7188 132.471C29.7023 131.863 29.3455 131.498 28.6482 131.375C28.1725 131.096 27.6311 130.957 27.024 130.957L26.458 130.994C26.3432 130.772 26.1832 130.662 25.9781 130.662L25.7443 130.772C25.9822 130.772 26.1627 130.85 26.2857 131.006L25.7443 131.105C25.49 131.105 25.2316 131.035 24.9691 130.896L25.0307 131.326C24.8338 131.343 24.7354 131.375 24.7354 131.425L24.8461 131.634C24.8461 131.683 24.8051 131.72 24.723 131.745C24.6492 131.761 24.5631 131.786 24.4647 131.818C24.3744 131.843 24.2883 131.884 24.2063 131.941C24.1324 131.991 24.0955 132.073 24.0955 132.188L24.1447 132.421C23.7838 132.643 23.6033 132.979 23.6033 133.43C23.6033 133.75 23.6443 133.996 23.7264 134.169C24.0791 134.308 24.3949 134.579 24.6738 134.981L25.0922 134.882C25.2727 134.882 25.4695 134.931 25.6828 135.03L25.6705 135.214L25.2645 135.178C25.1578 135.178 25.1045 135.194 25.1045 135.227L25.3137 135.399C25.6582 135.301 25.9781 135.251 26.2734 135.251C26.8313 135.251 27.3275 135.42 27.7623 135.756H28.8205L28.7836 135.99L29.165 135.94C29.6162 135.94 29.8992 136.15 30.0141 136.568L30.1494 136.543C30.3053 136.543 30.3832 136.642 30.3832 136.839L30.3709 136.949C30.5924 137.196 30.8672 137.323 31.1953 137.331C31.2773 137.413 31.3184 137.524 31.3184 137.663C31.2855 137.778 31.265 137.868 31.2568 137.934C31.5768 138.377 31.7367 138.779 31.7367 139.14C31.7367 139.345 31.6793 139.542 31.5645 139.73L31.5891 140.505H31.8967C31.5029 141.063 31.3061 141.613 31.3061 142.154L31.3799 142.167L31.3184 142.388L31.1338 142.622L30.9123 142.536C30.7893 142.536 30.7277 142.663 30.7277 142.917V143.016C30.5309 143.04 30.3832 143.098 30.2848 143.188C30.1863 143.27 30.092 143.356 30.0018 143.446C29.9115 143.537 29.8049 143.623 29.6818 143.705C29.5588 143.779 29.3742 143.82 29.1281 143.828L29.1158 144.062C28.6072 143.865 28.0617 143.766 27.4793 143.766C27.3563 143.766 27.2455 143.783 27.1471 143.815C27.0568 143.848 26.9625 143.885 26.8641 143.926C26.7738 143.959 26.6754 143.992 26.5688 144.025C26.4621 144.057 26.3432 144.074 26.2119 144.074C25.9248 144.074 25.5926 144.012 25.2152 143.889C25.2152 143.651 25.084 143.532 24.8215 143.532L24.3785 143.606C24.3047 143.27 24.0299 143.036 23.5541 142.905C23.4311 143.545 23.1522 143.865 22.7174 143.865L22.6066 143.852L22.5574 144.049H21.9545ZM25.0799 130.736L25.2522 130.846C25.2768 130.764 25.3465 130.678 25.4613 130.588L25.0799 130.736ZM36.474 141.847L36.0311 141.416L36.4863 141.121L36.1049 140.69L36.068 140.087C36.068 139.595 36.1541 139.189 36.3264 138.869L36.1295 138.611L36.3879 137.602C36.1664 137.396 36.0557 137.2 36.0557 137.011C36.0557 136.814 36.2033 136.646 36.4986 136.506L36.0926 135.596C36.232 135.383 36.3018 135.227 36.3018 135.128C36.3018 135.071 36.2854 135.03 36.2525 135.005C36.2197 134.972 36.1828 134.944 36.1418 134.919C36.1008 134.886 36.0639 134.858 36.0311 134.833C35.9982 134.8 35.9818 134.755 35.9818 134.698L36.0311 134.538H35.2313C35.0344 134.439 34.8416 134.39 34.6529 134.39C34.374 134.39 34.0951 134.493 33.8162 134.698C33.4553 134.509 33.2748 134.316 33.2748 134.119L33.2871 134.021L33.4717 133.947L33.3609 133.393L33.9516 132.963L34.4561 133.172L34.9729 133.147C35.0057 132.991 35.1369 132.913 35.3666 132.913L36.1418 133.098C36.2402 133.098 36.2895 133.041 36.2895 132.926L36.2771 132.815L36.5479 132.704L36.1787 131.745L36.7078 131.794L36.2033 131.154C36.3182 130.941 36.3756 130.654 36.3756 130.293L36.2402 129.074L36.917 129.21C36.9498 128.841 37.1385 128.656 37.483 128.656C37.6635 128.656 37.885 128.705 38.1475 128.804V128.988C38.1475 129.177 38.1639 129.333 38.1967 129.456C38.2377 129.579 38.2582 129.698 38.2582 129.813C38.2582 129.911 38.1885 130.137 38.049 130.489L38.4428 130.686L37.8029 131.265L38.3074 131.745L37.9137 131.769L38.3443 132.188C38.0982 132.45 37.9752 132.622 37.9752 132.704C37.9752 132.754 38.0121 132.778 38.0859 132.778C38.2008 132.778 38.3115 132.749 38.4182 132.692L38.3566 133.369L38.7381 133.418L38.8242 133.086L39.3287 133.27C39.5092 133.172 39.7143 133.123 39.9439 133.123C40.0834 133.123 40.3254 133.168 40.6699 133.258C40.752 133.127 40.8627 133.061 41.0021 133.061C41.1744 133.061 41.3877 133.164 41.642 133.369L41.7773 133.049L42.3803 133.763L42.491 134.107C42.327 134.123 42.2449 134.185 42.2449 134.292C42.2449 134.415 42.3229 134.579 42.4787 134.784L41.9127 134.587C41.6748 134.776 41.482 134.87 41.3344 134.87C41.2113 134.87 41.1252 134.796 41.076 134.648L40.7807 134.858C40.6084 134.759 40.432 134.71 40.2516 134.71L39.7471 134.845C39.5584 134.706 39.3861 134.636 39.2303 134.636C39.0744 134.636 38.9021 134.706 38.7135 134.845L38.3197 134.71C38.1475 134.874 38.0613 135.03 38.0613 135.178L38.1229 135.399L37.8521 135.67L38.1721 135.94L37.8768 136.42L38.1229 136.728L37.9137 137.159C38.0613 137.282 38.1352 137.401 38.1352 137.515C38.1352 137.63 38.0613 137.741 37.9137 137.848V138.943L38.1229 139.041V139.866L37.9137 139.816L38.1721 141.379L37.9383 141.441L38.1229 141.982H38.1721C38.5576 141.982 38.7504 142.06 38.7504 142.216L38.7012 142.388L39.1811 142.523V142.253H40.1285L40.3131 142.499L40.7561 142.29C40.9037 141.781 41.199 141.441 41.642 141.268L41.6297 140.862C41.7117 140.69 41.7979 140.604 41.8881 140.604C41.9701 140.604 42.0686 140.702 42.1834 140.899L42.4787 141.01L42.2326 141.613L42.7125 141.773L42.3557 142.45L41.7773 142.474L41.5436 142.77L42.2695 142.61C41.6789 143.512 40.8217 143.963 39.6979 143.963H39.5502C39.3697 144.07 39.1811 144.123 38.9842 144.123C38.7791 144.123 38.574 144.057 38.3689 143.926L38.1229 143.975C37.7455 143.975 37.3805 143.68 37.0277 143.089L36.8063 143.126C36.4945 143.126 36.31 142.868 36.2525 142.351L36.474 141.847ZM47.8805 132.729L48.3727 132.692C48.6762 132.692 48.9018 132.721 49.0494 132.778L49.3693 132.667C49.476 132.774 49.6031 132.827 49.7508 132.827C49.8902 132.827 50.0543 132.766 50.243 132.643V132.717C50.243 132.987 50.3619 133.123 50.5998 133.123L50.7229 133.11C50.8623 133.11 50.973 133.139 51.0551 133.196C51.1453 133.246 51.2232 133.307 51.2889 133.381C51.3545 133.455 51.416 133.533 51.4734 133.615C51.5391 133.689 51.6129 133.75 51.6949 133.799C51.859 133.873 51.9984 134.103 52.1133 134.488L52.6547 134.735V134.796C52.6547 134.919 52.667 135.013 52.6916 135.079C52.7244 135.145 52.7572 135.202 52.79 135.251C52.8311 135.292 52.8639 135.333 52.8885 135.374C52.9213 135.415 52.9377 135.477 52.9377 135.559L52.9254 135.682C52.9254 135.863 53.0402 136.092 53.2699 136.371L53.1838 136.654L53.1961 137.146L53.4914 137.638L53.5283 137.983C53.5283 138.262 53.4668 138.541 53.3437 138.82V139.46C53.4504 139.665 53.5037 139.894 53.5037 140.149L53.4914 140.346C53.032 140.641 52.7777 141.051 52.7285 141.576C52.6793 142.101 52.1133 142.757 51.0305 143.545H50.1937C49.9312 143.832 49.6482 143.975 49.3447 143.975C49.2545 143.975 49.1643 143.963 49.074 143.938C48.9838 143.906 48.8854 143.873 48.7787 143.84C48.6721 143.807 48.5572 143.779 48.4342 143.754C48.3111 143.721 48.1717 143.705 48.0158 143.705L47.1176 143.791L46.0102 143.065L46.1086 142.708L45.5303 142.597L45.5795 142.425C45.5795 142.368 45.5508 142.339 45.4934 142.339L45.3703 142.363C45.3211 142.15 45.198 141.949 45.0012 141.761L45.2104 141.404L44.9273 141.379V141.305C44.9273 141.084 44.9027 140.895 44.8535 140.739C44.8043 140.575 44.751 140.44 44.6936 140.333C44.6443 140.218 44.5951 140.12 44.5459 140.038C44.4967 139.948 44.4721 139.866 44.4721 139.792L44.4844 139.693C44.4844 139.521 44.3941 139.259 44.2137 138.906L44.4352 138.709L44.1891 138.672C44.3039 138.459 44.3613 138.27 44.3613 138.106L44.2506 137.626C44.2506 137.602 44.2588 137.581 44.2752 137.565C44.2916 137.54 44.308 137.499 44.3244 137.442C44.3408 137.384 44.3572 137.302 44.3736 137.196C44.3982 137.081 44.4146 136.917 44.4229 136.703C44.4393 136.293 44.468 136.088 44.509 136.088L44.6074 136.187C44.6238 136.187 44.6484 136.146 44.6812 136.063C44.7141 135.981 44.7305 135.883 44.7305 135.768L44.632 135.325C44.6566 135.219 44.6895 135.104 44.7305 134.981C44.7797 134.858 44.8289 134.743 44.8781 134.636C44.9355 134.529 44.9971 134.443 45.0627 134.378C45.1283 134.304 45.198 134.267 45.2719 134.267C45.3375 134.267 45.4031 134.3 45.4687 134.365V134.095L46.4777 133.652V133.356L46.7484 133.504C47.0766 133.053 47.4539 132.795 47.8805 132.729ZM49.357 134.587L49.1602 134.735C48.9633 134.677 48.7295 134.648 48.4588 134.648C48.0076 134.648 47.7574 134.796 47.7082 135.091C47.659 135.329 47.5729 135.493 47.4498 135.584C47.3268 135.666 47.1996 135.731 47.0684 135.78C46.9453 135.821 46.8346 135.875 46.7361 135.94C46.6377 136.006 46.5885 136.133 46.5885 136.322L46.6008 136.334C46.6008 136.482 46.5885 136.613 46.5639 136.728C46.5393 136.843 46.5105 136.949 46.4777 137.048C46.4449 137.138 46.4162 137.224 46.3916 137.306C46.367 137.388 46.3547 137.47 46.3547 137.552L46.4531 138.155L46.3793 138.574L46.4531 139.09L46.3547 140.186C46.3547 140.661 46.5721 141.022 47.0068 141.268C47.2037 141.309 47.3473 141.379 47.4375 141.478C47.5359 141.576 47.6098 141.679 47.659 141.785C47.7164 141.884 47.7656 141.974 47.8066 142.056C47.8559 142.13 47.9379 142.167 48.0527 142.167L48.9633 141.957C49.0535 141.957 49.1355 141.974 49.2094 142.007C49.2832 142.031 49.3529 142.064 49.4186 142.105C49.4842 142.138 49.5457 142.171 49.6031 142.204C49.6687 142.228 49.7344 142.24 49.8 142.24C49.882 142.24 49.9723 142.22 50.0707 142.179C50.1691 142.13 50.2594 142.072 50.3414 142.007C50.4234 141.941 50.4891 141.875 50.5383 141.81C50.5957 141.744 50.6244 141.691 50.6244 141.65C50.6244 141.601 50.5957 141.56 50.5383 141.527C51.2027 141.215 51.5637 140.641 51.6211 139.804L51.8057 139.927L51.5719 139.14L51.5965 138.795L52.0025 138.967C51.9287 138.787 51.8016 138.672 51.6211 138.623C51.777 138.442 51.8549 138.254 51.8549 138.057C51.8549 137.86 51.777 137.671 51.6211 137.491L51.6457 137.269C51.6457 137.13 51.6129 137.019 51.5473 136.937C51.4898 136.855 51.4611 136.732 51.4611 136.568L51.4734 136.322C51.4734 136.199 51.4283 136.104 51.3381 136.039C51.2561 135.965 51.1576 135.899 51.0428 135.842C50.9361 135.785 50.8336 135.723 50.7352 135.657C50.6449 135.584 50.5916 135.481 50.5752 135.35C50.5424 135.104 50.284 134.948 49.8 134.882L49.8123 134.993C49.8123 135.313 49.5416 135.473 49.0002 135.473H48.9633C49.1602 135.374 49.2586 135.28 49.2586 135.19C49.2586 135.132 49.2217 135.079 49.1479 135.03C49.4514 135.022 49.6031 134.989 49.6031 134.931C49.6031 134.882 49.5211 134.825 49.357 134.759V134.587ZM55.9031 148.774C55.9031 148.692 55.8867 148.651 55.8539 148.651C55.8457 148.659 55.8375 148.663 55.8293 148.663C55.7965 148.663 55.7719 148.651 55.7555 148.627C55.7227 148.61 55.6939 148.586 55.6693 148.553C55.6529 148.52 55.6447 148.471 55.6447 148.405C55.6447 148.348 55.657 148.298 55.6816 148.257C55.7145 148.225 55.7432 148.192 55.7678 148.159C55.8006 148.134 55.8293 148.106 55.8539 148.073C55.8867 148.04 55.9031 147.999 55.9031 147.95V147.888C56.1246 147.757 56.2477 147.642 56.2723 147.544L56.2107 147.396C56.2354 147.289 56.3215 147.199 56.4691 147.125C56.4691 146.846 56.383 146.551 56.2107 146.239V145.784L56.6414 144.812C56.5512 144.591 56.4937 144.381 56.4691 144.185C56.5102 143.889 56.5307 143.66 56.5307 143.496C56.5307 143.331 56.5102 143.233 56.4691 143.2V141.736L56.5676 141.465C56.4691 141.465 56.4199 141.313 56.4199 141.01L56.4691 140.358L56.6168 140.37C56.5348 140.231 56.4937 140.108 56.4937 140.001C56.4937 139.976 56.4979 139.952 56.5061 139.927V139.337C56.5061 138.984 56.465 138.672 56.383 138.401L56.4691 138.131L56.4322 136.789C56.3994 136.699 56.3256 136.597 56.2107 136.482L56.3461 135.719V135.19C56.3461 134.993 56.2846 134.874 56.1615 134.833L55.0664 134.612L54.9803 134.525L54.9434 133.541C55.1895 133.393 55.5094 133.32 55.9031 133.32H56.0754C56.2805 133.139 56.6947 133.049 57.3182 133.049H57.392C57.6135 133.336 57.876 133.479 58.1795 133.479C58.3682 133.479 58.4707 133.438 58.4871 133.356L58.967 133.369C59.4264 133.369 59.8201 133.217 60.1482 132.913C60.4189 133.004 60.6281 133.049 60.7758 133.049C61.0301 133.049 61.3008 132.975 61.5879 132.827H61.674L62.0186 133.049C62.3959 133.426 62.8799 133.68 63.4705 133.812C63.5361 133.836 63.5977 133.898 63.6551 133.996C63.7207 134.087 63.7863 134.197 63.852 134.329C63.9176 134.452 63.9914 134.579 64.0734 134.71C64.1637 134.841 64.2662 134.956 64.3811 135.054V135.165C64.3811 135.559 64.5287 135.908 64.824 136.211L64.984 137.22L64.9471 137.675L65.0824 137.503V137.811C64.9594 138.049 64.8979 138.303 64.8979 138.574L64.9471 139.017L64.6887 139.337C64.8117 139.525 64.8732 139.702 64.8732 139.866C64.8732 140.046 64.8117 140.222 64.6887 140.395V140.432C64.6887 140.899 64.5451 141.363 64.258 141.822L64.3441 141.871C64.2867 142.167 64.1965 142.478 64.0734 142.806H64.0488C63.9914 142.806 63.8889 142.884 63.7412 143.04C63.5936 143.245 63.4869 143.364 63.4213 143.397C63.3557 143.422 63.3229 143.438 63.3229 143.446L63.409 143.496C63.3516 143.545 63.2777 143.569 63.1875 143.569L63.0768 143.557L62.9783 143.655C62.765 143.688 62.5354 143.791 62.2893 143.963C62.1744 143.971 62.0678 144.008 61.9693 144.074C61.8709 144.139 61.752 144.172 61.6125 144.172L60.8865 144.098C60.6486 144 60.4025 143.951 60.1482 143.951L59.6191 144.012C59.5125 143.922 59.3936 143.84 59.2623 143.766C59.1393 143.684 58.9957 143.614 58.8316 143.557L57.9088 143.606C57.8596 143.795 57.835 143.988 57.835 144.185L57.8719 144.677C57.757 144.816 57.6996 144.952 57.6996 145.083C57.6996 145.255 57.8021 145.415 58.0072 145.563L57.9457 146.079C57.9457 146.834 58.401 147.212 59.3115 147.212L59.7053 147.261C59.9432 147.523 60.0621 147.757 60.0621 147.962C60.0621 148.274 59.8119 148.545 59.3115 148.774C58.9506 148.586 58.5609 148.491 58.1426 148.491L57.958 148.393L57.9088 148.504C57.835 148.454 57.675 148.409 57.4289 148.368C57.3633 148.303 57.2771 148.233 57.1705 148.159C57.0639 148.085 56.9326 148.007 56.7768 147.925C56.6619 147.999 56.5512 148.036 56.4445 148.036C56.3379 148.036 56.2436 147.999 56.1615 147.925L56.1 148.147C56.1 148.303 56.1943 148.454 56.383 148.602L55.9031 148.774ZM61.0219 134.612C60.7184 134.644 60.4271 134.776 60.1482 135.005L60.0006 134.993C59.7053 134.993 59.4633 135.161 59.2746 135.497C58.9383 135.686 58.7045 135.998 58.5732 136.433C58.4338 136.49 58.3025 136.58 58.1795 136.703L58.1303 137.454C57.9744 137.454 57.8432 137.515 57.7365 137.638V137.811C57.7365 138.377 57.8842 138.943 58.1795 139.509C58.0893 139.755 58.0441 139.931 58.0441 140.038C58.0441 140.284 58.1303 140.522 58.3025 140.752C58.4092 141.465 58.848 141.957 59.6191 142.228C59.7832 142.54 60.0744 142.749 60.4928 142.856L60.8004 142.72L62.0678 142.536C62.1826 142.347 62.2564 142.142 62.2893 141.921C62.6748 141.732 62.8676 141.432 62.8676 141.022L62.8553 140.85C63.3064 140.522 63.532 140.153 63.532 139.743C63.532 139.406 63.3926 139.062 63.1137 138.709L63.3844 138.155C63.4992 138.09 63.5566 137.999 63.5566 137.885C63.5566 137.803 63.532 137.716 63.4828 137.626C63.4336 137.536 63.409 137.458 63.409 137.392L63.4828 137.122C63.4828 137.064 63.45 137.015 63.3844 136.974C63.327 136.933 63.2613 136.892 63.1875 136.851C63.1137 136.81 63.0439 136.765 62.9783 136.716C62.9209 136.658 62.8922 136.593 62.8922 136.519L62.9168 136.285C62.9168 135.998 62.8102 135.735 62.5969 135.497C62.5312 134.907 62.0062 134.612 61.0219 134.612ZM58.1672 136.445C58.2246 136.338 58.2861 136.285 58.3518 136.285C58.3764 136.285 58.401 136.293 58.4256 136.31L58.2164 136.076L58.1672 136.445ZM56.543 144.824C56.4855 144.964 56.4117 145.062 56.3215 145.12L56.26 144.947C56.3256 144.857 56.3789 144.705 56.4199 144.492L56.543 144.824ZM56.2477 148.171C56.3707 148.171 56.4568 148.179 56.5061 148.196H56.5184C56.5676 148.196 56.6332 148.159 56.7152 148.085C56.8547 148.126 56.9244 148.184 56.9244 148.257C56.9244 148.348 56.7727 148.43 56.4691 148.504L56.2477 148.171Z" fill="black"/>
<rect x="1.575" y="172.575" width="83.79" height="41.85" rx="4.725" stroke="#7C6365" stroke-width="3.15"/>
<rect x="6" y="177" width="74" height="33" rx="6.3" fill="#CDCDCF"/>
<path d="M15.8559 201.049C15.8395 200.738 15.7328 200.483 15.5359 200.286C15.6098 200.04 15.6467 199.782 15.6467 199.511C15.6467 199.396 15.6385 199.277 15.6221 199.154C15.6139 199.023 15.5934 198.892 15.5605 198.761C15.659 198.654 15.7082 198.543 15.7082 198.428C15.7082 198.33 15.6795 198.24 15.6221 198.158C15.7287 198.125 15.782 198.022 15.782 197.85L15.7574 197.592L15.4867 197.752C15.6098 197.497 15.6713 197.243 15.6713 196.989L15.5359 196.312L15.7943 196.263C15.9338 196.263 16.0527 196.312 16.1512 196.41C16.2578 196.287 16.3809 196.226 16.5203 196.226C16.5777 196.226 16.6229 196.25 16.6557 196.3C16.6885 196.341 16.7213 196.39 16.7541 196.447C16.7951 196.496 16.8443 196.546 16.9018 196.595C16.9592 196.644 17.0453 196.673 17.1602 196.681C17.2668 197.378 17.7016 197.887 18.4645 198.207C18.6613 198.601 18.8869 198.797 19.1412 198.797C19.174 198.797 19.2068 198.793 19.2397 198.785L19.2643 198.871C19.3873 198.871 19.4939 198.896 19.5842 198.945C19.6744 198.994 19.7605 199.052 19.8426 199.117C19.9246 199.175 20.0107 199.228 20.101 199.277C20.1994 199.327 20.3184 199.351 20.4578 199.351C20.6711 199.351 20.9336 199.302 21.2453 199.204C21.3684 199.302 21.4627 199.351 21.5283 199.351C21.6022 199.351 21.6391 199.29 21.6391 199.167L21.6022 198.921H21.7375C22.5988 198.921 23.2838 198.391 23.7924 197.333C23.7186 197.235 23.6816 197.128 23.6816 197.013C23.6816 196.849 23.7596 196.665 23.9154 196.46L23.5586 196.25C23.657 196.119 23.7063 195.996 23.7063 195.881C23.7063 195.635 23.4766 195.442 23.0172 195.303L23.0295 194.934C22.9639 194.95 22.8982 194.958 22.8326 194.958C22.6521 194.958 22.4799 194.897 22.3158 194.774L22.0082 194.626L21.8113 194.762L21.7375 194.712C21.7375 194.565 21.6227 194.491 21.393 194.491H21.3314V194.54C21.3314 194.614 21.3068 194.651 21.2576 194.651C21.2002 194.651 21.0772 194.581 20.8885 194.442L20.7162 194.503L20.5316 194.171L19.6334 194.011L19.7934 194.331L19.1781 194.06L18.9936 194.208L18.9074 193.937C18.8008 193.913 18.7475 193.884 18.7475 193.851L18.7598 193.789H18.2799C18.0256 193.264 17.5949 192.953 16.9879 192.854L16.9264 192.424L16.7295 192.67L16.6188 192.202L16.348 192.35L16.385 191.87L16.2004 192.067L16.225 191.907C16.225 191.735 16.1184 191.636 15.9051 191.612C15.9707 191.571 16.0035 191.521 16.0035 191.464C16.0035 191.398 15.9543 191.316 15.8559 191.218L15.6713 190.639L15.7943 190.615C15.6959 190.393 15.6467 190.139 15.6467 189.852L15.7082 189.471C15.782 189.471 15.8189 189.442 15.8189 189.384C15.8189 189.311 15.7533 189.196 15.6221 189.04L16.0281 188.818L15.9789 188.572C15.9789 188.449 16.0158 188.314 16.0897 188.166C16.4998 188.043 16.8361 187.752 17.0986 187.293H17.5785C17.6277 187.022 17.8041 186.874 18.1076 186.85L17.9969 186.727L18.243 186.53L18.9936 186.628V186.431L19.6457 186.628C19.7277 186.595 19.7688 186.55 19.7688 186.493C19.7688 186.444 19.7277 186.382 19.6457 186.308L19.941 186.345C20.1215 186.345 20.2814 186.296 20.4209 186.197C20.6096 186.509 20.9131 186.665 21.3314 186.665L21.7252 186.628C21.758 186.768 21.8359 186.862 21.959 186.911C22.0902 186.96 22.2338 187.005 22.3897 187.046C22.5455 187.088 22.6973 187.145 22.8449 187.219C22.9926 187.284 23.1033 187.403 23.1771 187.576C23.3248 187.887 23.5094 188.084 23.7309 188.166C23.8621 187.912 23.9277 187.58 23.9277 187.17C24.0344 187.145 24.0877 187.108 24.0877 187.059C24.0877 187.001 24.0303 186.932 23.9154 186.85C24.0959 186.694 24.3092 186.616 24.5553 186.616L24.7398 186.628C24.7727 186.932 24.9121 187.096 25.1582 187.12V187.403C24.9531 187.781 24.8506 188.195 24.8506 188.646C24.8506 189.048 24.9367 189.471 25.109 189.913V190.233L24.6783 190.947L24.0385 190.639C24.0795 190.615 24.1 190.545 24.1 190.43C24.1 190.012 23.94 189.692 23.6201 189.471C23.6037 188.863 23.2469 188.498 22.5496 188.375C22.0738 188.096 21.5324 187.957 20.9254 187.957L20.3594 187.994C20.2445 187.772 20.0846 187.662 19.8795 187.662L19.6457 187.772C19.8836 187.772 20.0641 187.85 20.1871 188.006L19.6457 188.105C19.3914 188.105 19.133 188.035 18.8705 187.896L18.932 188.326C18.7352 188.343 18.6367 188.375 18.6367 188.425L18.7475 188.634C18.7475 188.683 18.7064 188.72 18.6244 188.745C18.5506 188.761 18.4645 188.786 18.366 188.818C18.2758 188.843 18.1897 188.884 18.1076 188.941C18.0338 188.991 17.9969 189.073 17.9969 189.188L18.0461 189.421C17.6852 189.643 17.5047 189.979 17.5047 190.43C17.5047 190.75 17.5457 190.996 17.6277 191.169C17.9805 191.308 18.2963 191.579 18.5752 191.981L18.9936 191.882C19.174 191.882 19.3709 191.931 19.5842 192.03L19.5719 192.214L19.1658 192.178C19.0592 192.178 19.0059 192.194 19.0059 192.227L19.215 192.399C19.5596 192.301 19.8795 192.251 20.1748 192.251C20.7326 192.251 21.2289 192.42 21.6637 192.756H22.7219L22.685 192.99L23.0664 192.94C23.5176 192.94 23.8006 193.15 23.9154 193.568L24.0508 193.543C24.2066 193.543 24.2846 193.642 24.2846 193.839L24.2723 193.949C24.4938 194.196 24.7686 194.323 25.0967 194.331C25.1787 194.413 25.2197 194.524 25.2197 194.663C25.1869 194.778 25.1664 194.868 25.1582 194.934C25.4781 195.377 25.6381 195.779 25.6381 196.14C25.6381 196.345 25.5807 196.542 25.4658 196.73L25.4904 197.505H25.798C25.4043 198.063 25.2074 198.613 25.2074 199.154L25.2813 199.167L25.2197 199.388L25.0352 199.622L24.8137 199.536C24.6906 199.536 24.6291 199.663 24.6291 199.917V200.016C24.4322 200.04 24.2846 200.098 24.1861 200.188C24.0877 200.27 23.9934 200.356 23.9031 200.446C23.8129 200.537 23.7063 200.623 23.5832 200.705C23.4602 200.779 23.2756 200.82 23.0295 200.828L23.0172 201.062C22.5086 200.865 21.9631 200.766 21.3807 200.766C21.2576 200.766 21.1469 200.783 21.0484 200.815C20.9582 200.848 20.8639 200.885 20.7654 200.926C20.6752 200.959 20.5768 200.992 20.4701 201.025C20.3635 201.057 20.2445 201.074 20.1133 201.074C19.8262 201.074 19.4939 201.012 19.1166 200.889C19.1166 200.651 18.9854 200.532 18.7229 200.532L18.2799 200.606C18.2061 200.27 17.9313 200.036 17.4555 199.905C17.3324 200.545 17.0535 200.865 16.6188 200.865L16.508 200.852L16.4588 201.049H15.8559ZM18.9813 187.736L19.1535 187.846C19.1781 187.764 19.2479 187.678 19.3627 187.588L18.9813 187.736ZM30.3754 198.847L29.9324 198.416L30.3877 198.121L30.0063 197.69L29.9693 197.087C29.9693 196.595 30.0555 196.189 30.2277 195.869L30.0309 195.611L30.2893 194.602C30.0678 194.396 29.957 194.2 29.957 194.011C29.957 193.814 30.1047 193.646 30.4 193.506L29.9939 192.596C30.1334 192.383 30.2031 192.227 30.2031 192.128C30.2031 192.071 30.1867 192.03 30.1539 192.005C30.1211 191.972 30.0842 191.944 30.0432 191.919C30.0021 191.886 29.9652 191.858 29.9324 191.833C29.8996 191.8 29.8832 191.755 29.8832 191.698L29.9324 191.538H29.1326C28.9357 191.439 28.743 191.39 28.5543 191.39C28.2754 191.39 27.9965 191.493 27.7176 191.698C27.3566 191.509 27.1762 191.316 27.1762 191.119L27.1885 191.021L27.373 190.947L27.2623 190.393L27.8529 189.963L28.3574 190.172L28.8742 190.147C28.907 189.991 29.0383 189.913 29.268 189.913L30.0432 190.098C30.1416 190.098 30.1908 190.041 30.1908 189.926L30.1785 189.815L30.4492 189.704L30.0801 188.745L30.6092 188.794L30.1047 188.154C30.2195 187.941 30.277 187.654 30.277 187.293L30.1416 186.074L30.8184 186.21C30.8512 185.841 31.0398 185.656 31.3844 185.656C31.5648 185.656 31.7863 185.705 32.0488 185.804V185.988C32.0488 186.177 32.0652 186.333 32.098 186.456C32.1391 186.579 32.1596 186.698 32.1596 186.813C32.1596 186.911 32.0898 187.137 31.9504 187.489L32.3441 187.686L31.7043 188.265L32.2088 188.745L31.815 188.769L32.2457 189.188C31.9996 189.45 31.8766 189.622 31.8766 189.704C31.8766 189.754 31.9135 189.778 31.9873 189.778C32.1021 189.778 32.2129 189.749 32.3195 189.692L32.258 190.369L32.6395 190.418L32.7256 190.086L33.2301 190.27C33.4105 190.172 33.6156 190.123 33.8453 190.123C33.9848 190.123 34.2268 190.168 34.5713 190.258C34.6533 190.127 34.7641 190.061 34.9035 190.061C35.0758 190.061 35.2891 190.164 35.5434 190.369L35.6787 190.049L36.2816 190.763L36.3924 191.107C36.2283 191.123 36.1463 191.185 36.1463 191.292C36.1463 191.415 36.2242 191.579 36.3801 191.784L35.8141 191.587C35.5762 191.776 35.3834 191.87 35.2357 191.87C35.1127 191.87 35.0266 191.796 34.9773 191.648L34.682 191.858C34.5098 191.759 34.3334 191.71 34.1529 191.71L33.6484 191.845C33.4598 191.706 33.2875 191.636 33.1316 191.636C32.9758 191.636 32.8035 191.706 32.6148 191.845L32.2211 191.71C32.0488 191.874 31.9627 192.03 31.9627 192.178L32.0242 192.399L31.7535 192.67L32.0734 192.94L31.7781 193.42L32.0242 193.728L31.815 194.159C31.9627 194.282 32.0365 194.401 32.0365 194.515C32.0365 194.63 31.9627 194.741 31.815 194.848V195.943L32.0242 196.041V196.866L31.815 196.816L32.0734 198.379L31.8396 198.441L32.0242 198.982H32.0734C32.459 198.982 32.6518 199.06 32.6518 199.216L32.6025 199.388L33.0824 199.523V199.253H34.0299L34.2145 199.499L34.6574 199.29C34.8051 198.781 35.1004 198.441 35.5434 198.268L35.5311 197.862C35.6131 197.69 35.6992 197.604 35.7895 197.604C35.8715 197.604 35.9699 197.702 36.0848 197.899L36.3801 198.01L36.134 198.613L36.6139 198.773L36.257 199.45L35.6787 199.474L35.4449 199.77L36.1709 199.61C35.5803 200.512 34.723 200.963 33.5992 200.963H33.4516C33.2711 201.07 33.0824 201.123 32.8855 201.123C32.6805 201.123 32.4754 201.057 32.2703 200.926L32.0242 200.975C31.6469 200.975 31.2818 200.68 30.9291 200.089L30.7076 200.126C30.3959 200.126 30.2113 199.868 30.1539 199.351L30.3754 198.847ZM42.4955 189.913C42.6268 189.996 42.7785 190.041 42.9508 190.049L43.7014 190C43.8162 190.065 43.9229 190.098 44.0213 190.098L44.1936 190.073C44.3658 190.369 44.6898 190.529 45.1656 190.553C45.2887 190.693 45.3994 190.804 45.4979 190.886C45.5963 190.959 45.6824 191.046 45.7562 191.144C45.8301 191.242 45.8957 191.37 45.9531 191.525C46.0187 191.681 46.0762 191.907 46.1254 192.202L46.3223 193.974L46.2854 194.503L46.3715 195.315L46.027 195.291L46.3223 195.475L46.3961 196.066L46.2854 196.706L46.3715 197.629L46.3223 197.875L46.4084 199.031L46.5684 198.97C46.716 198.97 46.798 199.204 46.8145 199.671C47.0031 199.605 47.0975 199.487 47.0975 199.314L47.0852 199.216L47.2574 198.945L47.4297 199.08L47.602 199.056C47.8398 199.056 47.9588 199.261 47.9588 199.671C47.9588 199.802 47.9383 199.909 47.8973 199.991C47.8562 200.073 47.8111 200.151 47.7619 200.225C47.7127 200.29 47.6676 200.364 47.6266 200.446C47.5855 200.528 47.565 200.635 47.565 200.766L47.2574 200.754C47.0441 200.869 46.8186 200.926 46.5807 200.926L45.8301 200.754L45.5717 200.791C45.5307 200.553 45.424 200.352 45.2518 200.188L44.7842 200.139C44.7268 200.319 44.5545 200.409 44.2674 200.409H44.1936C44.2182 200.491 44.4191 200.561 44.7965 200.619C44.0746 200.684 43.4881 200.77 43.0369 200.877L42.6801 200.828L42.3725 200.963L42.1387 200.914L41.7941 201.049H41.2527C41.1461 200.992 40.9984 200.963 40.8098 200.963L40.3422 201C40.3422 201.082 40.5596 201.148 40.9943 201.197L40.1822 201.271C40.1084 200.91 39.8295 200.721 39.3455 200.705C39.2717 200.426 39.0502 200.266 38.6811 200.225L38.4596 200.065L38.5211 199.868C38.3898 199.761 38.3242 199.622 38.3242 199.45V199.425C38.2504 199.22 38.2135 199.011 38.2135 198.797C38.2135 198.568 38.2627 198.334 38.3611 198.096L38.4104 197.838C38.2545 197.682 38.1766 197.481 38.1766 197.235C38.1766 197.136 38.2135 197.063 38.2873 197.013C38.3611 196.964 38.4473 196.923 38.5457 196.89L38.5334 196.792C38.5334 196.595 38.6318 196.496 38.8287 196.496L38.9395 196.509C39.0707 196.402 39.1363 196.263 39.1363 196.09L39.124 195.992C39.1896 195.943 39.2635 195.906 39.3455 195.881C39.4357 195.857 39.5178 195.832 39.5916 195.807C39.6736 195.775 39.7393 195.734 39.7885 195.684C39.8459 195.627 39.8746 195.545 39.8746 195.438V195.352C40.0797 195.204 40.334 195.131 40.6375 195.131C40.8672 195.008 41.1461 194.938 41.4742 194.921L41.5727 194.528H42.5939C42.5857 194.544 42.5816 194.561 42.5816 194.577C42.5816 194.593 42.5939 194.602 42.6186 194.602C42.6432 194.602 42.6637 194.602 42.6801 194.602C42.6965 194.593 42.7252 194.585 42.7662 194.577L42.9016 194.737L42.4463 194.725L42.9508 194.872C43.0082 194.839 43.0369 194.79 43.0369 194.725L42.9877 194.577H43.0615C43.2338 194.577 43.3855 194.536 43.5168 194.454L43.8121 194.491C44.0254 194.491 44.21 194.45 44.3658 194.368L44.3289 192.51C44.3289 192.149 44.1936 191.882 43.9229 191.71L43.6521 191.538L42.6309 191.365L42.4094 191.501C42.3355 191.452 42.2576 191.427 42.1756 191.427C42.0607 191.427 41.9623 191.464 41.8803 191.538C41.7982 191.612 41.7326 191.706 41.6834 191.821L41.1789 192.067C41.0805 192.132 41.0312 192.223 41.0312 192.338L41.0805 192.571L40.9451 193.543C40.7975 193.757 40.7236 193.99 40.7236 194.245L40.6375 194.368L40.5268 194.355C40.3545 194.355 40.1822 194.405 40.01 194.503C39.8951 194.38 39.7434 194.319 39.5547 194.319L39.4809 193.974L39.0748 193.888C39.0174 193.781 38.9887 193.593 38.9887 193.322L38.9395 193.174C38.8246 193.199 38.7385 193.24 38.6811 193.297C38.6482 193.24 38.6318 193.109 38.6318 192.904L38.6934 192.079L38.9271 192.202C38.8533 192.268 38.8164 192.354 38.8164 192.461L38.8533 192.694L38.9887 192.571L38.9764 192.411C38.9764 192.034 39.0994 191.661 39.3455 191.292L39.4562 190.898C39.7926 190.898 40.0797 190.754 40.3176 190.467L40.4898 190.492C40.6457 190.492 40.7236 190.414 40.7236 190.258L40.8098 190.123L41.4742 190.073L42.0156 189.963L42.0771 190.061L42.1018 189.913H42.4955ZM45.0795 196.423C44.9975 196.48 44.8621 196.509 44.6734 196.509C44.3043 196.509 43.9762 196.472 43.6891 196.398C43.402 196.324 43.2051 196.254 43.0984 196.189L42.7662 196.3C42.758 196.021 42.5816 195.877 42.2371 195.869C42.434 196.033 42.5324 196.14 42.5324 196.189L42.4709 196.226L41.9664 196.078L41.9172 196.25C41.7777 196.283 41.6465 196.353 41.5234 196.46H41.4127C41.0436 196.46 40.7975 196.62 40.6744 196.939L40.5268 196.878C40.3545 196.878 40.0633 196.997 39.6531 197.235L39.5424 197.198L39.4686 197.764C39.4686 197.846 39.526 197.944 39.6408 198.059C39.567 198.272 39.5301 198.437 39.5301 198.551C39.5301 198.707 39.5957 198.785 39.727 198.785L39.8377 198.773V198.871C39.8377 199.331 40.0674 199.56 40.5268 199.56L40.7236 199.548L40.7605 200.102C40.9164 200.184 41.1789 200.225 41.548 200.225H41.8311C41.9951 200.225 42.151 200.192 42.2986 200.126C42.4463 200.061 42.5447 199.925 42.5939 199.72C42.7498 199.614 42.877 199.56 42.9754 199.56L43.1969 199.597L43.5168 199.548C43.525 199.236 43.6316 198.966 43.8367 198.736L43.7875 198.391H43.8367C44.2469 198.391 44.452 198.186 44.452 197.776V197.702C44.5832 197.645 44.6488 197.546 44.6488 197.407L44.5135 196.607C44.6693 196.706 44.7924 196.755 44.8826 196.755C44.9893 196.755 45.0549 196.644 45.0795 196.423ZM40.0223 197.924L39.8377 197.961C39.6408 197.961 39.5424 197.825 39.5424 197.555C39.5424 197.489 39.5465 197.432 39.5547 197.382C39.5711 197.325 39.6244 197.296 39.7146 197.296C39.8787 197.296 39.9812 197.505 40.0223 197.924ZM40.8344 199.376L40.4406 199.437C40.1043 199.437 39.9361 199.253 39.9361 198.884V198.785L40.8344 199.376ZM41.8803 199.856L42.1018 199.843C42.3232 199.843 42.434 199.872 42.434 199.929C42.434 199.979 42.3191 200.053 42.0895 200.151L41.8803 199.856ZM42.1264 201.074C42.2904 201.164 42.3725 201.226 42.3725 201.258H41.8311L42.1264 201.074ZM41.7326 201.16L41.6465 201.246C41.6055 201.246 41.5686 201.217 41.5357 201.16H41.7326ZM41.3635 194.638L41.2773 194.725C41.2363 194.725 41.1994 194.696 41.1666 194.638H41.3635ZM49.0785 200.692L49.2385 199.954C49.5748 199.88 49.743 199.761 49.743 199.597L49.7307 199.536L50.5428 199.29L50.8381 199.413C50.9693 199.158 51.117 199.031 51.2811 199.031L51.4533 199.093L51.8963 198.404V197.998C51.7732 197.571 51.7117 197.181 51.7117 196.829C51.7117 196.476 51.7732 196.156 51.8963 195.869L51.6994 195.611L51.9578 194.602C51.9004 194.372 51.8594 194.163 51.8348 193.974C51.8102 193.777 51.7979 193.601 51.7979 193.445C51.7979 193.199 51.8348 193.014 51.9086 192.891L51.6625 192.719C51.802 192.506 51.8717 192.35 51.8717 192.251C51.8717 192.194 51.8553 192.153 51.8225 192.128C51.7896 192.096 51.7527 192.067 51.7117 192.042C51.6707 192.009 51.6338 191.981 51.601 191.956C51.5682 191.923 51.5518 191.878 51.5518 191.821L51.601 191.661H50.9242C50.8094 191.546 50.6822 191.488 50.5428 191.488C50.3951 191.488 50.2146 191.558 50.0014 191.698C49.6404 191.509 49.46 191.316 49.46 191.119L49.4723 191.021L49.6568 190.947L49.4723 190.676L50.1367 189.963L50.6658 190.307C50.7889 190.16 50.9324 190.086 51.0965 190.086C51.2441 190.086 51.4123 190.143 51.601 190.258C51.642 190.397 51.6789 190.467 51.7117 190.467C51.7691 190.467 51.8143 190.291 51.8471 189.938L52.7576 189.95C52.7822 190.213 53.1719 190.393 53.9266 190.492C53.6395 190.73 53.4959 190.947 53.4959 191.144C53.4959 191.201 53.5082 191.263 53.5328 191.329C53.5656 191.394 53.5984 191.46 53.6312 191.525C53.6723 191.583 53.7051 191.64 53.7297 191.698C53.7625 191.755 53.7789 191.804 53.7789 191.845C53.7789 191.911 53.7543 191.96 53.7051 191.993C53.6641 192.026 53.6436 192.063 53.6436 192.104C53.6436 192.186 53.7789 192.264 54.0496 192.338L54.2096 192.128L54.6771 192.018L54.3941 191.808L55.1816 191.365L55.0955 191.033L55.3662 191.107C55.5385 191.107 55.6615 190.976 55.7354 190.713L56.0799 190.455L56.3752 190.479C56.7443 190.479 57.0355 190.361 57.2488 190.123L57.5441 190.172L57.7164 190.32C57.7984 190.246 57.8805 190.209 57.9625 190.209C58.0035 190.209 58.0445 190.225 58.0855 190.258C58.1266 190.291 58.1717 190.328 58.2209 190.369C58.2701 190.41 58.3275 190.451 58.3932 190.492C58.4588 190.533 58.5326 190.562 58.6146 190.578L58.8977 191.009L59.1191 190.738L59.033 191.218L59.1807 191.427L59.0576 191.661C59.1561 191.833 59.2053 192.009 59.2053 192.19C59.2053 192.534 59.0412 192.883 58.7131 193.236L58.627 193.051L58.4178 193.162L58.5777 193.408L58.1717 193.334C58.0158 193.334 57.8969 193.375 57.8148 193.457L57.4703 193.445L57.458 193.211L57.335 193.223C57.0643 193.223 56.8633 193.063 56.732 192.744C56.8633 192.563 56.9289 192.424 56.9289 192.325C56.9289 192.219 56.8469 192.165 56.6828 192.165L56.4613 192.19L56.4367 191.808C56.166 191.907 56.0307 192.013 56.0307 192.128L56.0676 192.251L55.8707 192.362L55.9814 192.94L55.6738 192.473C55.4934 192.998 55.2719 193.26 55.0094 193.26C54.9191 193.26 54.833 193.232 54.751 193.174L54.3203 193.383L54.2957 193.654L53.7666 193.642L53.4836 194.159C53.6312 194.282 53.7051 194.401 53.7051 194.515C53.7051 194.63 53.6312 194.741 53.4836 194.848V195.943L53.6928 196.041V196.866L53.4836 196.816L53.742 198.379L53.5082 198.441L53.6928 198.982H53.742C54.2096 198.982 54.4434 199.068 54.4434 199.24L54.3941 199.388C54.55 199.306 54.7305 199.265 54.9355 199.265C55.1078 199.265 55.276 199.31 55.44 199.4L55.8461 199.167L56.3506 199.179L56.4982 199.499L56.8182 199.437C57.2447 199.437 57.6385 199.794 57.9994 200.508L57.7164 200.951L57.2365 200.705L57.1135 201.037L56.6459 201.012C56.326 201.012 56.0307 201.049 55.76 201.123L55.0463 200.889L54.7018 200.84L54.6402 201.221L53.9389 200.926L53.2621 201.172L52.5607 200.779C52.4705 201.025 52.2941 201.148 52.0316 201.148C51.802 201.148 51.5107 201.057 51.158 200.877L50.7396 201.098L49.866 201.037C49.7758 200.897 49.6979 200.828 49.6322 200.828C49.5584 200.828 49.501 200.922 49.46 201.111L49.0785 200.692ZM63.9672 198.847L63.5242 198.416L63.9795 198.121L63.598 197.69L63.5611 197.087C63.5611 196.595 63.6473 196.189 63.8195 195.869L63.6227 195.611L63.8811 194.602C63.6596 194.396 63.5488 194.2 63.5488 194.011C63.5488 193.814 63.6965 193.646 63.9918 193.506L63.5857 192.596C63.7252 192.383 63.7949 192.227 63.7949 192.128C63.7949 192.071 63.7785 192.03 63.7457 192.005C63.7129 191.972 63.676 191.944 63.635 191.919C63.5939 191.886 63.557 191.858 63.5242 191.833C63.4914 191.8 63.475 191.755 63.475 191.698L63.5242 191.538H62.7244C62.5275 191.439 62.3348 191.39 62.1461 191.39C61.8672 191.39 61.5883 191.493 61.3094 191.698C60.9484 191.509 60.768 191.316 60.768 191.119L60.7803 191.021L60.9648 190.947L60.8541 190.393L61.4447 189.963L61.9492 190.172L62.466 190.147C62.4988 189.991 62.6301 189.913 62.8598 189.913L63.635 190.098C63.7334 190.098 63.7826 190.041 63.7826 189.926L63.7703 189.815L64.041 189.704L63.6719 188.745L64.201 188.794L63.6965 188.154C63.8113 187.941 63.8687 187.654 63.8687 187.293L63.7334 186.074L64.4102 186.21C64.443 185.841 64.6316 185.656 64.9762 185.656C65.1566 185.656 65.3781 185.705 65.6406 185.804V185.988C65.6406 186.177 65.657 186.333 65.6898 186.456C65.7309 186.579 65.7514 186.698 65.7514 186.813C65.7514 186.911 65.6816 187.137 65.5422 187.489L65.9359 187.686L65.2961 188.265L65.8006 188.745L65.4068 188.769L65.8375 189.188C65.5914 189.45 65.4684 189.622 65.4684 189.704C65.4684 189.754 65.5053 189.778 65.5791 189.778C65.6939 189.778 65.8047 189.749 65.9113 189.692L65.8498 190.369L66.2312 190.418L66.3174 190.086L66.8219 190.27C67.0023 190.172 67.2074 190.123 67.4371 190.123C67.5766 190.123 67.8186 190.168 68.1631 190.258C68.2451 190.127 68.3559 190.061 68.4953 190.061C68.6676 190.061 68.8809 190.164 69.1352 190.369L69.2705 190.049L69.8734 190.763L69.9842 191.107C69.8201 191.123 69.7381 191.185 69.7381 191.292C69.7381 191.415 69.816 191.579 69.9719 191.784L69.4059 191.587C69.168 191.776 68.9752 191.87 68.8275 191.87C68.7045 191.87 68.6184 191.796 68.5691 191.648L68.2738 191.858C68.1016 191.759 67.9252 191.71 67.7447 191.71L67.2402 191.845C67.0516 191.706 66.8793 191.636 66.7234 191.636C66.5676 191.636 66.3953 191.706 66.2066 191.845L65.8129 191.71C65.6406 191.874 65.5545 192.03 65.5545 192.178L65.616 192.399L65.3453 192.67L65.6652 192.94L65.3699 193.42L65.616 193.728L65.4068 194.159C65.5545 194.282 65.6283 194.401 65.6283 194.515C65.6283 194.63 65.5545 194.741 65.4068 194.848V195.943L65.616 196.041V196.866L65.4068 196.816L65.6652 198.379L65.4314 198.441L65.616 198.982H65.6652C66.0508 198.982 66.2436 199.06 66.2436 199.216L66.1943 199.388L66.6742 199.523V199.253H67.6217L67.8062 199.499L68.2492 199.29C68.3969 198.781 68.6922 198.441 69.1352 198.268L69.1229 197.862C69.2049 197.69 69.291 197.604 69.3812 197.604C69.4633 197.604 69.5617 197.702 69.6766 197.899L69.9719 198.01L69.7258 198.613L70.2057 198.773L69.8488 199.45L69.2705 199.474L69.0367 199.77L69.7627 199.61C69.1721 200.512 68.3148 200.963 67.191 200.963H67.0434C66.8629 201.07 66.6742 201.123 66.4773 201.123C66.2723 201.123 66.0672 201.057 65.8621 200.926L65.616 200.975C65.2387 200.975 64.8736 200.68 64.5209 200.089L64.2994 200.126C63.9877 200.126 63.8031 199.868 63.7457 199.351L63.9672 198.847Z" fill="black"/>
</g>
<defs>
<clipPath id="clip0_284_944">
<rect width="86.94" height="216" fill="white"/>
</clipPath>
</defs>
</svg>
