<svg width="553" height="317" viewBox="0 0 553 317" fill="none" xmlns="http://www.w3.org/2000/svg">
<g clip-path="url(#clip0_298_1562)">
<circle cx="284.801" cy="315.801" r="243.08" fill="#EDEDED" stroke="black" stroke-width="1.442"/>
<path d="M284.801 76.1033L292.197 231.271L326.425 79.7448L306.763 233.84L366.783 90.5588L320.662 238.898L404.651 108.217L333.471 246.294L438.877 132.182L344.802 255.801L468.421 161.726L354.309 267.132L492.386 195.952L361.705 279.941L510.044 233.82L366.763 293.84L520.858 274.178L369.332 308.406L524.5 315.801L369.332 323.197L520.858 357.425L366.763 337.763L510.044 397.783L361.705 351.662L492.386 435.651L354.309 364.471L468.421 469.877L344.802 375.802L438.877 499.421L333.471 385.309L404.651 523.386L320.662 392.705L366.783 541.044L306.763 397.763L326.425 551.858L292.197 400.332L284.801 555.5L277.406 400.332L243.178 551.858L262.84 397.763L202.82 541.044L248.941 392.705L164.952 523.386L236.132 385.309L130.726 499.421L224.801 375.802L101.182 469.877L215.294 364.471L77.2167 435.651L207.898 351.662L59.5588 397.783L202.84 337.763L48.7448 357.425L200.271 323.197L45.1033 315.801L200.271 308.406L48.7448 274.178L202.84 293.84L59.5588 233.82L207.898 279.941L77.2167 195.952L215.294 267.132L101.182 161.726L224.801 255.801L130.726 132.182L236.132 246.294L164.952 108.217L248.941 238.898L202.82 90.5588L262.84 233.84L243.178 79.7448L277.406 231.271L284.801 76.1033Z" fill="black"/>
<circle cx="285.143" cy="316.143" r="217.435" fill="#CDCDCF" stroke="black" stroke-width="1.442"/>
<circle cx="284.801" cy="315.801" r="169.222" fill="#EDEDED" stroke="black" stroke-width="1.442"/>
<path d="M284.118 147.91C284.118 147.91 133.729 159.89 129.97 315.288C126.21 470.686 284.46 483.693 284.46 483.693M284.118 147.91C284.118 147.91 157.655 172.555 158.338 315.288C159.022 458.021 284.46 483.693 284.46 483.693M284.118 147.91C284.118 147.91 203.113 172.555 203.797 315.288C204.48 458.021 284.46 483.693 284.46 483.693M284.118 147.91C284.118 147.91 253.698 172.555 254.382 315.288C255.065 458.021 284.46 483.693 284.46 483.693" stroke="#CDCDCF" stroke-width="1.442"/>
<path d="M285.485 147.91C285.485 147.91 435.873 159.89 439.633 315.288C443.393 470.686 285.143 483.693 285.143 483.693M285.485 147.91C285.485 147.91 411.948 172.555 411.264 315.288C410.581 458.021 285.143 483.693 285.143 483.693M285.485 147.91C285.485 147.91 366.489 172.555 365.806 315.288C365.122 458.021 285.143 483.693 285.143 483.693M285.485 147.91C285.485 147.91 315.904 172.555 315.221 315.288C314.537 458.021 285.143 483.693 285.143 483.693" stroke="#CDCDCF" stroke-width="1.442"/>
<path d="M452.693 315.802C452.693 315.802 440.713 165.413 285.315 161.654C129.917 157.894 116.91 316.143 116.91 316.143M452.693 315.802C452.693 315.802 428.048 189.339 285.315 190.022C142.582 190.706 116.91 316.143 116.91 316.143M452.693 315.802C452.693 315.802 428.048 234.797 285.315 235.481C142.582 236.164 116.91 316.143 116.91 316.143M452.693 315.802C452.693 315.802 428.048 285.382 285.315 286.066C142.582 286.749 116.91 316.143 116.91 316.143" stroke="#CDCDCF" stroke-width="1.442"/>
<path d="M452.693 317.169C452.693 317.169 440.713 467.557 285.315 471.317C129.917 475.077 116.91 316.827 116.91 316.827M452.693 317.169C452.693 317.169 428.048 443.632 285.315 442.948C142.582 442.265 116.91 316.827 116.91 316.827M452.693 317.169C452.693 317.169 428.048 398.174 285.315 397.49C142.582 396.806 116.91 316.827 116.91 316.827M452.693 317.169C452.693 317.169 428.048 347.588 285.315 346.905C142.582 346.221 116.91 316.827 116.91 316.827" stroke="#CDCDCF" stroke-width="1.442"/>
<line x1="284.423" y1="484.377" x2="284.423" y2="147.226" stroke="#CDCDCF" stroke-width="1.442"/>
<line x1="116.226" y1="315.422" x2="453.377" y2="315.422" stroke="#CDCDCF" stroke-width="1.442"/>
<circle cx="285.143" cy="316.143" r="104.596" fill="#CDCDCF" stroke="black" stroke-width="1.442"/>
<path d="M274.55 236.976C277.22 226.306 292.383 226.306 295.053 236.976C297.341 246.116 308.784 249.182 315.336 242.41C322.983 234.505 336.115 242.087 333.093 252.662C330.503 261.722 338.88 270.099 347.94 267.51C358.516 264.488 366.097 277.619 358.192 285.267C351.42 291.818 354.487 303.262 363.628 305.55C374.297 308.221 374.296 323.383 363.627 326.054C354.486 328.342 351.42 339.784 358.192 346.336C366.097 353.983 358.516 367.115 347.94 364.093C338.88 361.504 330.504 369.88 333.093 378.94C336.115 389.516 322.983 397.097 315.336 389.192C308.784 382.42 297.341 385.487 295.053 394.628C292.383 405.297 277.22 405.296 274.55 394.627C272.261 385.486 260.818 382.42 254.266 389.192C246.619 397.097 233.487 389.516 236.51 378.94C239.098 369.88 230.722 361.504 221.662 364.093C211.086 367.115 203.505 353.983 211.41 346.336C218.182 339.784 215.116 328.342 205.975 326.054C195.306 323.383 195.306 308.22 205.975 305.55C215.116 303.262 218.182 291.818 211.41 285.267C203.505 277.619 211.087 264.488 221.662 267.51C230.722 270.099 239.099 261.722 236.51 252.662C233.488 242.087 246.619 234.506 254.266 242.41C260.818 249.183 272.262 246.117 274.55 236.976Z" fill="#CDCDCF" stroke="black" stroke-width="1.442"/>
<circle cx="284.801" cy="315.801" r="33.8147" fill="#CDCDCF" stroke="black" stroke-width="1.442"/>
<circle cx="284.801" cy="315.801" r="22.8727" fill="#EDEDED" stroke="black" stroke-width="1.442"/>
</g>
<defs>
<clipPath id="clip0_298_1562">
<rect width="553" height="317" fill="white"/>
</clipPath>
</defs>
</svg>
