<svg width="1157" height="631" viewBox="0 0 1157 631" fill="none" xmlns="http://www.w3.org/2000/svg">
<rect x="706.018" y="41.3447" width="41.3449" height="11.1566" rx="3.28134" transform="rotate(-90 706.018 41.3447)" fill="white"/>
<rect x="898.304" y="41.3447" width="41.3449" height="11.1566" rx="3.28134" transform="rotate(-90 898.304 41.3447)" fill="white"/>
<rect x="1090.59" y="41.3447" width="41.3449" height="11.1566" rx="3.28134" transform="rotate(-90 1090.59 41.3447)" fill="white"/>
<rect x="619.39" y="569.64" width="75.4708" height="11.1566" rx="3.28134" transform="rotate(180 619.39 569.64)" fill="white"/>
<rect x="733.581" y="311.071" width="84.6585" height="11.1566" rx="3.28134" transform="rotate(-90 733.581 311.071)" fill="white"/>
<rect x="583.952" y="311.071" width="84.6585" height="11.1566" rx="3.28134" transform="rotate(-90 583.952 311.071)" fill="white"/>
<rect x="319.476" y="311.071" width="84.6585" height="11.1566" rx="3.28134" transform="rotate(-90 319.476 311.071)" fill="white"/>
<rect x="55" y="311.071" width="84.6585" height="11.1566" rx="3.28134" transform="rotate(-90 55 311.071)" fill="white"/>
<rect x="1013.81" y="124.034" width="53.1577" height="11.1566" rx="3.28134" transform="rotate(-90 1013.81 124.034)" fill="white"/>
<rect x="897.648" y="441.012" width="95.1588" height="11.1566" rx="3.28134" transform="rotate(-90 897.648 441.012)" fill="white"/>
<rect x="1041.37" y="441.012" width="95.1588" height="11.1566" rx="3.28134" transform="rotate(-90 1041.37 441.012)" fill="white"/>
<rect x="643.016" y="466.606" width="75.4708" height="11.1566" rx="3.28134" transform="rotate(90 643.016 466.606)" fill="white"/>
<rect x="751.3" y="466.606" width="75.4708" height="11.1566" rx="3.28134" transform="rotate(90 751.3 466.606)" fill="white"/>
<rect x="858.271" y="334.697" width="95.1588" height="11.1566" rx="3.28134" transform="rotate(180 858.271 334.697)" fill="white"/>
<rect x="858.271" y="453.481" width="95.1588" height="11.1566" rx="3.28134" transform="rotate(180 858.271 453.481)" fill="white"/>
<rect x="858.271" y="563.078" width="95.1588" height="11.1566" rx="3.28134" transform="rotate(180 858.271 563.078)" fill="white"/>
<rect x="1001.99" y="148.973" width="53.1577" height="11.1566" rx="3.28134" transform="rotate(180 1001.99 148.973)" fill="white"/>
<rect x="685.017" y="215.912" width="41.3449" height="11.1566" rx="3.28134" transform="rotate(180 685.017 215.912)" fill="white"/>
<rect x="685.017" y="71.5332" width="41.3449" height="11.1566" rx="3.28134" transform="rotate(180 685.017 71.5332)" fill="white"/>
<rect x="1001.99" y="327.478" width="53.1577" height="11.1566" rx="3.28134" transform="rotate(180 1001.99 327.478)" fill="white"/>
</svg>
