<svg width="1157" height="633" viewBox="0 0 1157 633" fill="none" xmlns="http://www.w3.org/2000/svg">
<rect y="233.975" width="850.523" height="71.5332" rx="26.2507" fill="#CDCDCF"/>
<rect width="18.7856" height="10.0378" transform="translate(996.871 232.935)" fill="#CDCDCF"/>
<rect x="1015.66" y="210.35" width="13.093" height="54.7059" rx="6.54649" fill="#CDCDCF"/>
<rect width="18.7856" height="10.0378" transform="translate(679.894 133.838)" fill="#CDCDCF"/>
<rect x="698.679" y="111.253" width="13.093" height="54.7059" rx="6.54649" fill="#CDCDCF"/>
<rect width="18.7856" height="10.0378" transform="matrix(0 1 -1 0 976.49 430.199)" fill="#CDCDCF"/>
<rect x="999.075" y="448.985" width="13.093" height="54.7059" rx="6.54649" transform="rotate(90 999.075 448.985)" fill="#CDCDCF"/>
<rect width="18.7856" height="10.0378" transform="matrix(0 -1 1 0 680.822 475.859)" fill="#CDCDCF"/>
<rect x="658.237" y="457.074" width="13.093" height="54.7059" rx="6.54649" transform="rotate(-90 658.237 457.074)" fill="#CDCDCF"/>
<rect x="996.871" y="80.4082" width="322.884" height="40.6886" rx="20.3443" transform="rotate(90 996.871 80.4082)" fill="#CDCDCF"/>
<rect x="679.893" y="7.5625" width="240.85" height="28.2195" rx="14.1098" transform="rotate(90 679.893 7.5625)" fill="#CDCDCF"/>
<rect x="1157" y="35.7822" width="505.326" height="28.2195" rx="14.1098" transform="rotate(180 1157 35.7822)" fill="#CDCDCF"/>
<rect x="610.329" y="473.513" width="158.817" height="63.658" rx="26.2507" transform="rotate(90 610.329 473.513)" fill="#CDCDCF"/>
<rect x="1157" y="116.503" width="200.818" height="36.0947" rx="18.0474" transform="rotate(180 1157 116.503)" fill="#CDCDCF"/>
<rect x="798.022" y="537.17" width="252.007" height="63.658" rx="26.2507" transform="rotate(180 798.022 537.17)" fill="#CDCDCF"/>
<rect x="852.492" y="233.975" width="398.354" height="81.3772" rx="26.2507" transform="rotate(90 852.492 233.975)" fill="#CDCDCF"/>
<rect x="1157" y="431" width="348" height="72" rx="26.25" transform="rotate(180 1157 431)" fill="#CDCDCF"/>
</svg>
