<svg width="270" height="152" viewBox="0 0 270 152" fill="none" xmlns="http://www.w3.org/2000/svg">
<rect x="0.945" y="0.945" width="268.11" height="150.11" rx="9.135" fill="#E0B36F"/>
<rect x="0.945" y="0.945" width="268.11" height="150.11" rx="9.135" stroke="black" stroke-width="1.89"/>
<path d="M26.0295 126.604C25.7638 126.643 25.5964 126.845 25.5275 127.209C25.3995 127.278 25.1879 127.313 24.8926 127.313C24.5284 127.313 24.174 127.214 23.8295 127.017C23.8688 126.978 23.8885 126.934 23.8885 126.884C23.8885 126.825 23.859 126.756 23.7999 126.678C23.8098 126.638 23.8147 126.594 23.8147 126.545C23.8147 126.427 23.7753 126.289 23.6966 126.131V125.319L23.8295 125.275L23.6375 124.817L23.5341 124.876C23.4062 124.837 23.2438 124.689 23.0469 124.433L22.5448 124.492C22.348 124.384 22.1757 124.33 22.028 124.33C21.8705 124.33 21.6934 124.384 21.4965 124.492L20.4186 124.182C20.202 124.389 19.892 124.492 19.4884 124.492L18.6615 124.374L18.7944 124.197L18.5434 124.168C18.2874 124.168 18.0807 124.246 17.9232 124.404L16.8896 124.153C16.8798 124.31 16.678 124.389 16.2842 124.389H16.1661C16.1366 124.419 16.1021 124.433 16.0627 124.433C16.0234 124.433 15.984 124.424 15.9446 124.404L16.0923 124.3C16.043 124.232 15.8905 124.173 15.6345 124.123C15.5853 124.261 15.4229 124.33 15.1473 124.33C14.724 124.33 14.3155 124.266 13.9217 124.138L14.0694 124.374L13.4935 124.3C13.3459 124.153 13.1145 124.069 12.7995 124.049C12.7897 124.177 12.578 124.241 12.1646 124.241H12.017C11.9973 124.281 11.9727 124.3 11.9431 124.3C11.9136 124.3 11.8742 124.276 11.825 124.227L11.5445 124.374C11.3279 124.246 11.0818 124.182 10.8062 124.182H10.5995L10.6438 124.374L10.2894 124.182L10.0974 124.241L9.9793 125.57L10.0974 125.688C9.91039 125.807 9.80703 126.038 9.78734 126.382C10.0728 126.501 10.2795 126.816 10.4075 127.327C10.5847 127.111 10.816 127.003 11.1015 127.003C11.1802 127.003 11.2541 127.027 11.323 127.076C11.382 127.126 11.4214 127.18 11.4411 127.239C11.4608 127.298 11.5445 127.357 11.6921 127.416C11.761 127.446 11.8201 127.46 11.8693 127.46C11.9284 127.46 11.9776 127.441 12.017 127.401C12.0465 127.411 12.0859 127.416 12.1351 127.416C12.2434 127.416 12.3812 127.367 12.5485 127.268C12.7454 127.386 12.9521 127.446 13.1687 127.446C13.4345 127.446 13.6904 127.367 13.9365 127.209L14.4385 128.346L14.3204 128.553L14.6305 128.538V129.158L13.9955 129.542L13.7741 129.557C13.4394 129.557 13.1785 129.449 12.9915 129.232L12.6814 129.38C12.6716 129.498 12.6076 129.557 12.4895 129.557C12.4009 129.557 12.327 129.542 12.268 129.513C12.2089 129.483 12.1548 129.454 12.1055 129.424C12.0465 129.395 11.9825 129.365 11.9136 129.336C11.8447 129.306 11.7561 129.291 11.6478 129.291C11.4509 129.291 11.3525 129.365 11.3525 129.513L10.8505 129.542C10.5453 129.385 10.25 129.306 9.96453 129.306C9.69875 129.306 9.47234 129.385 9.28531 129.542H8.60609L8.4732 129.439L8.5618 129.409C8.5618 129.321 8.48305 129.276 8.32555 129.276H8.25172V129.025C8.45844 128.927 8.5618 128.809 8.5618 128.671C8.5618 128.533 8.44367 128.381 8.20742 128.213L8.14836 127.564C8.14836 127.259 8.21235 127.076 8.34031 127.017V126.323C8.19266 125.989 8.11883 125.649 8.11883 125.305C8.11883 125.019 8.21727 124.606 8.41414 124.064C8.26649 123.798 8.19266 123.562 8.19266 123.355C8.19266 123.168 8.2468 123.006 8.35508 122.868L8.22219 122.765C8.37969 122.548 8.45844 122.381 8.45844 122.263C8.45844 122.184 8.40922 122.145 8.31078 122.145L8.20742 122.159V120.845C8.35508 120.776 8.42891 120.683 8.42891 120.565L8.34031 120.151L8.17789 120.122L8.34031 119.708L8.1336 119.28L8.34031 119.206V118.955C8.45844 118.837 8.5175 118.714 8.5175 118.586C8.5175 118.458 8.46336 118.325 8.35508 118.188L8.5175 117.626C8.71438 117.538 8.91125 117.494 9.10813 117.494C9.305 117.494 9.5068 117.538 9.71352 117.626L10.0384 117.316H11.1605L11.1901 117.479L11.6035 117.316L12.0465 117.375L12.0908 117.228L12.4895 117.316L12.4452 117.11L12.9324 117.183L13.1244 117.065C13.3803 117.39 13.6756 117.553 14.0103 117.553C14.0398 117.494 14.0694 117.464 14.0989 117.464C14.1186 117.464 14.1334 117.469 14.1432 117.479C14.1924 117.508 14.2367 117.523 14.2761 117.523H14.3056L14.7338 117.804L14.7634 118.128L14.4385 118.63H14.2909C14.281 118.64 14.2712 118.645 14.2613 118.645C14.2318 118.645 14.2023 118.63 14.1727 118.601C13.7495 118.601 13.4394 118.862 13.2425 119.384C13.1441 119.315 13.0259 119.28 12.8881 119.28C12.7503 119.28 12.6174 119.315 12.4895 119.384C12.2926 119.246 12.1941 119.123 12.1941 119.014L12.2384 118.837C12.1991 118.808 12.1646 118.793 12.1351 118.793C12.0957 118.793 12.0711 118.818 12.0613 118.867C11.8841 118.867 11.7955 118.921 11.7955 119.029C11.7955 119.049 11.8004 119.073 11.8102 119.103L11.7512 119.147C11.5149 119.059 11.2836 119.014 11.0572 119.014L10.6585 119.073C10.5601 119.005 10.4567 118.97 10.3484 118.97C10.3288 118.941 10.3091 118.926 10.2894 118.926C10.25 118.926 10.2057 118.955 10.1565 119.014C10.314 119.172 10.3927 119.295 10.3927 119.384C10.3927 119.472 10.3041 119.551 10.127 119.62L10.0384 119.516C9.7332 119.812 9.58063 120.112 9.58063 120.417C9.58063 120.742 9.75289 121.091 10.0974 121.465L9.87594 121.923L9.90547 122.351C10.1614 122.45 10.4666 122.499 10.8209 122.499C11.0867 122.499 11.2688 122.45 11.3673 122.351H11.6183V122.588L11.8693 122.351H12.3566L12.4895 122.1C12.8241 122.219 13.0358 122.406 13.1244 122.661C13.1736 122.425 13.2868 122.307 13.464 122.307C13.592 122.307 13.7495 122.366 13.9365 122.484L14.0546 122.381C14.2712 122.43 14.4631 122.524 14.6305 122.661L15.3835 122.514L15.3392 122.307L16.6534 122.514L16.8748 122.307L17.0816 122.514L17.2588 122.307L17.5098 122.514C17.5885 122.514 17.6279 122.479 17.6279 122.41C17.5688 122.371 17.5393 122.297 17.5393 122.189V122.145C17.8149 122.332 18.0955 122.425 18.3809 122.425C18.6369 122.425 18.8731 122.346 19.0897 122.189C19.4047 122.386 19.636 122.484 19.7837 122.484C19.8624 122.484 19.9264 122.46 19.9756 122.41C20.015 122.351 20.0741 122.322 20.1528 122.322C20.2808 122.322 20.3595 122.342 20.3891 122.381C20.4088 122.42 20.458 122.44 20.5367 122.44C20.6155 122.44 20.6795 122.484 20.7287 122.573C20.7582 122.622 20.7877 122.647 20.8173 122.647C20.8468 122.647 20.8813 122.622 20.9206 122.573C20.9797 122.593 21.0388 122.602 21.0978 122.602C21.275 122.602 21.4473 122.519 21.6146 122.351C21.6835 122.391 21.8312 122.41 22.0576 122.41C22.3529 122.41 22.6039 122.307 22.8106 122.1L23.2536 122.159C23.4603 122.061 23.5637 121.923 23.5637 121.746C23.5637 121.638 23.5194 121.515 23.4308 121.377V120.845C23.923 120.767 24.1691 120.496 24.1691 120.033L24.1395 119.708C24.3364 119.531 24.6711 119.443 25.1436 119.443V119.472C25.1436 119.708 25.3946 119.895 25.8966 120.033L26.0443 120.55L25.8671 121.864L25.7195 122.041L26.0886 122.204C25.8228 122.371 25.6899 122.573 25.6899 122.809C25.7785 122.858 25.8228 122.927 25.8228 123.016V123.104C25.8228 123.193 25.8376 123.277 25.8671 123.355C25.9163 123.454 25.9606 123.557 26 123.666C26.0197 123.705 26.0295 123.749 26.0295 123.798C26.0295 123.858 26.0098 123.917 25.9705 123.976C26.0098 124.035 26.0295 124.094 26.0295 124.153C26.0295 124.192 26.0246 124.227 26.0148 124.256C25.9852 124.355 25.9508 124.453 25.9114 124.551C25.8917 124.62 25.8819 124.694 25.8819 124.773V124.862C25.8917 124.881 25.8966 124.896 25.8966 124.906C25.8966 124.985 25.8573 125.039 25.7785 125.068C25.7785 125.255 25.8622 125.373 26.0295 125.423V126.604ZM26.3101 110.317C26.1329 110.514 26.0443 110.696 26.0443 110.864C26.0443 110.962 26.0837 111.08 26.1624 111.218C26.123 111.395 26.0443 111.484 25.9262 111.484L25.7785 111.44L25.7638 111.587C25.7638 111.912 25.8819 112.139 26.1181 112.266L25.8966 112.754L25.3651 112.901C25.2568 112.99 25.2027 113.093 25.2027 113.211C25.2027 113.339 25.2617 113.467 25.3798 113.595L24.7154 113.463L24.4201 113.625L24.1838 113.507C24.0854 113.507 24.0362 113.615 24.0362 113.832C24.0362 114.107 24.0559 114.28 24.0952 114.348L23.3127 114.186C23.1552 114.186 23.037 114.22 22.9583 114.289C22.8697 114.348 22.7909 114.417 22.722 114.496C22.6531 114.565 22.5793 114.629 22.5005 114.688C22.412 114.747 22.284 114.777 22.1166 114.777C21.9001 114.777 21.6146 114.718 21.2602 114.599L21.2455 114.865L20.522 114.673C20.453 114.801 20.3694 114.865 20.2709 114.865C20.1528 114.865 20.0101 114.777 19.8427 114.599L19.0306 114.865C19.0011 114.619 18.9027 114.496 18.7353 114.496C18.5975 114.496 18.4203 114.575 18.2038 114.732H17.938C17.6919 114.604 17.3178 114.54 16.8158 114.54L16.1661 114.599L16.3876 114.806L14.7338 114.599L14.5566 114.821H13.715V114.54L13.5673 114.511C13.4098 114.511 13.2917 114.609 13.213 114.806C13.085 114.649 12.9373 114.57 12.77 114.57C12.6125 114.57 12.4353 114.659 12.2384 114.836H11.4263C11.4165 114.659 11.323 114.57 11.1458 114.57L10.9095 114.599L11.0129 114.954L10.4666 114.865C10.2598 114.865 10.1565 114.934 10.1565 115.072C10.1565 115.161 10.1909 115.254 10.2598 115.353L10.0531 115.943L10.1417 116.209L9.74305 116.15C9.53633 116.15 9.36406 116.209 9.22625 116.327C9.10813 116.061 8.89649 115.928 8.59133 115.928L8.41414 115.943V115.116L7.98594 115.013L8.41414 114.732L8.28125 114.289L8.39938 113.271L8.28125 111.602L8.20742 111.617C8.11883 111.617 8.07453 111.548 8.07453 111.41L8.75375 110.524C9.88578 110.623 10.4518 111.09 10.4518 111.927L10.6585 112.178H12.017C12.1055 112.434 12.1892 112.562 12.268 112.562C12.3369 112.562 12.391 112.498 12.4304 112.37L13.5083 112.503L14.158 112.385L14.8815 112.503L15.2654 112.281L15.4869 112.695H16.3728C16.5697 112.488 16.8059 112.385 17.0816 112.385L17.6574 112.503L17.8051 112.37L18.0856 112.414C18.125 112.601 18.2628 112.695 18.4991 112.695C18.6763 112.695 18.9174 112.636 19.2226 112.518C19.321 112.301 19.5031 112.193 19.7689 112.193C19.9067 112.193 20.0347 112.227 20.1528 112.296C20.2709 112.365 20.394 112.399 20.522 112.399C20.7287 112.399 20.9452 112.33 21.1716 112.193C21.398 112.39 21.5802 112.488 21.718 112.488C21.8558 112.488 21.9542 112.394 22.0133 112.207L22.412 112.266C22.6876 112.266 22.8254 112.139 22.8254 111.883L22.8106 111.764L23.3717 111.41L23.7409 111.499C23.8885 111.499 23.9623 111.42 23.9623 111.262L23.8885 110.879L24.2281 110.687L23.8885 110.465C24.1838 110.052 24.3315 109.746 24.3315 109.55C24.3315 109.372 24.2084 109.284 23.9623 109.284L23.7556 108.826L23.5194 108.59C23.4505 108.432 23.3373 108.354 23.1798 108.354C23.0616 108.354 22.9386 108.388 22.8106 108.457C22.7713 108.014 22.6384 107.793 22.412 107.793C22.3135 107.793 22.1954 107.832 22.0576 107.911C21.8115 107.724 21.5851 107.63 21.3784 107.63C21.2405 107.63 21.1027 107.674 20.9649 107.763L20.2414 107.409C20.1725 107.497 20.0691 107.541 19.9313 107.541L19.3998 107.379L18.9273 107.423C18.5237 107.423 18.1693 107.33 17.8641 107.143C17.6771 107.379 17.4852 107.497 17.2883 107.497L17.1259 107.468L17.0668 107.217H16.8158C16.2744 107.217 15.9003 107.305 15.6936 107.482L14.8224 107.423C14.7732 107.315 14.7043 107.261 14.6157 107.261C14.4779 107.261 14.2761 107.364 14.0103 107.571L13.0358 107.645L12.2532 107.29L12.0613 107.571L11.3673 107.704L11.072 107.335L10.8209 107.674L10.5256 107.335C10.1614 107.512 9.9793 107.758 9.9793 108.073L10.0679 108.501C9.8218 108.56 9.69875 108.718 9.69875 108.974L9.71352 109.121L9.4182 109.062C9.25086 109.062 9.09828 109.146 8.96047 109.313H8.75375C8.38953 108.92 8.20742 108.467 8.20742 107.955L8.28125 107.394C8.1336 107.118 8.05977 106.798 8.05977 106.434L8.07453 106.183L8.28125 105.991V105.164L8.045 105.105C8.14344 104.652 8.31078 104.288 8.54703 104.013V103.761L8.67992 103.776C8.79805 103.776 8.86695 103.707 8.88664 103.57L9.61016 103.525C9.99406 103.752 10.186 104.022 10.186 104.337L10.4961 104.455L10.4813 104.692C10.4813 104.908 10.5256 105.046 10.6142 105.105L10.9391 104.987L11.0277 105.386H11.1163C11.5002 105.386 11.7118 105.268 11.7512 105.031L12.4895 105.268L13.2277 105.09C13.2671 105.307 13.4049 105.415 13.6412 105.415C13.7298 105.415 13.8331 105.4 13.9513 105.371C14.0595 105.341 14.1777 105.307 14.3056 105.268C14.4238 105.228 14.5468 105.194 14.6748 105.164C14.8027 105.135 14.9159 105.12 15.0144 105.12C15.1325 105.12 15.2457 105.14 15.354 105.179C15.4524 105.209 15.5509 105.243 15.6493 105.282C15.7477 105.312 15.856 105.346 15.9741 105.386C16.0923 105.415 16.2252 105.43 16.3728 105.43C16.5303 105.43 17.0717 105.317 17.997 105.09C18.2234 105.258 18.44 105.341 18.6467 105.341C18.8239 105.341 19.006 105.292 19.193 105.194L19.5179 105.533L19.7394 105.268C19.9658 105.386 20.1823 105.445 20.3891 105.445C20.6155 105.445 20.837 105.386 21.0535 105.268C21.3095 105.445 21.6097 105.533 21.9542 105.533L21.9395 105.474C21.9395 105.415 21.9887 105.386 22.0871 105.386C22.2249 105.386 22.471 105.445 22.8254 105.563L23.2684 106.124L23.4308 105.666L23.6818 105.799C23.7015 106.035 23.923 106.154 24.3463 106.154H24.4053L24.3758 106.419C24.3758 106.744 24.5284 106.907 24.8335 106.907L25.1141 106.862L25.4241 107.379L25.3355 107.689C25.3355 107.778 25.3749 107.852 25.4537 107.911C25.5324 107.97 25.6161 108.034 25.7047 108.103C25.7933 108.162 25.877 108.235 25.9557 108.324C26.0345 108.403 26.0738 108.516 26.0738 108.664C26.0738 108.821 26.0148 108.964 25.8966 109.092V109.86L26.3101 110.317ZM25.9705 102.625L25.4537 102.506C25.247 102.506 25.0944 102.57 24.9959 102.698H24.8926C24.6957 102.698 24.5185 102.639 24.361 102.521C24.1937 102.403 24.11 102.246 24.11 102.049C24.11 101.921 24.174 101.808 24.302 101.709C24.2626 101.059 24.0657 100.735 23.7113 100.735L23.0469 100.823C22.8008 100.666 22.5941 100.587 22.4267 100.587C22.3578 100.587 22.2938 100.607 22.2348 100.646C22.1757 100.685 22.1265 100.73 22.0871 100.779C22.0379 100.818 21.9936 100.858 21.9542 100.897C21.905 100.936 21.8558 100.956 21.8066 100.956C21.6983 100.956 21.59 100.887 21.4817 100.749L20.4924 100.853C20.1282 101.059 19.8624 101.163 19.6951 101.163C19.6262 101.163 19.577 101.148 19.5474 101.118C19.5179 101.079 19.4884 101.04 19.4588 101C19.4293 100.951 19.3948 100.912 19.3555 100.882C19.3063 100.843 19.2373 100.823 19.1488 100.823L18.8387 100.867C18.7895 100.7 18.7107 100.616 18.6024 100.616C18.5138 100.616 18.4006 100.685 18.2628 100.823L17.8641 100.631L17.687 101.03C17.2538 101.01 17.0077 100.912 16.9487 100.735H16.6681L16.7272 101.045L15.6493 100.941C15.5213 101.089 15.2605 101.163 14.8667 101.163L13.8184 101.045L13.8479 100.764C13.6904 101.059 13.4591 101.207 13.1539 101.207C12.9373 101.207 12.6814 101.118 12.3861 100.941C12.2188 101.079 12.0366 101.148 11.8398 101.148C11.6527 101.148 11.4313 101.089 11.1753 100.971H10.7323C10.7225 101.335 10.5896 101.517 10.3337 101.517L10.1122 101.488C10.1516 101.675 10.2451 101.768 10.3927 101.768H10.4223C10.2451 102.25 9.87102 102.492 9.30008 102.492C9.15242 102.492 9.02445 102.452 8.91617 102.374C8.80789 102.285 8.7193 102.191 8.65039 102.093C8.57164 101.985 8.5175 101.881 8.48797 101.783C8.44859 101.684 8.42891 101.625 8.42891 101.606L8.4732 101.429L8.16313 100.926V100.351C8.28125 100.223 8.34031 100.09 8.34031 99.952C8.34031 99.8338 8.28125 99.7059 8.16313 99.568V97.7519L8.63563 97.8257L8.17789 97.2351V96.9398C8.35508 96.7232 8.44367 96.5411 8.44367 96.3934C8.44367 96.2852 8.39938 96.1916 8.31078 96.1129C8.21235 96.0243 8.16313 95.9406 8.16313 95.8619C8.16313 95.7831 8.21235 95.6896 8.31078 95.5813C8.40922 95.4632 8.46336 95.3402 8.4732 95.2122L8.67992 94.9612L8.5618 94.1491L8.60609 93.7209H8.67992C8.7882 93.7209 8.84234 93.6766 8.84234 93.588L8.70945 93.2188C9.08352 92.894 9.27055 92.579 9.27055 92.2738L9.21149 91.9785L9.49203 91.6832L9.9793 91.8161L10.2451 91.6241L9.96453 91.1516L10.4961 91.447L11.4411 90.7234L12.5633 90.8268C12.7405 90.8268 12.8881 90.7874 13.0063 90.7087C13.1244 90.6201 13.2376 90.5758 13.3459 90.5758C13.4541 90.5758 13.5477 90.6447 13.6264 90.7825L14.1875 90.502L15.8855 91.1221C15.9348 91.2698 15.984 91.3436 16.0332 91.3436L16.1661 91.2255L16.7272 91.6389L16.9487 91.3436C17.2046 91.8161 17.5442 92.1409 17.9675 92.3181C18.0856 92.6922 18.248 92.8792 18.4548 92.8792L18.632 92.8497L18.6467 93.2779C18.4991 93.5732 18.4252 93.7996 18.4252 93.9571C18.4252 94.1245 18.5138 94.2081 18.691 94.2081L18.9273 95.035L19.2078 94.4296C19.513 94.4296 19.6803 94.2081 19.7098 93.7652L20.1233 93.9423C20.1725 93.3911 20.3841 93.1155 20.7582 93.1155C20.9354 93.1155 21.088 93.1499 21.2159 93.2188L21.2602 92.7463L21.6737 92.8349C21.9296 92.8349 22.092 92.6971 22.1609 92.4215C22.2988 92.5101 22.4415 92.5544 22.5891 92.5544C22.8845 92.5544 23.1847 92.3723 23.4898 92.008L23.2536 91.698L23.5637 91.4765L23.5341 91.0483C23.5341 90.4675 23.7212 90.1771 24.0952 90.1771L24.5973 90.2952L24.5825 90.0295L25.8819 90.2214L25.6456 90.7973H26.0148L26.1329 91.2698C26.0345 91.4568 25.9852 91.6537 25.9852 91.8604C25.9852 92.1065 26.0492 92.3378 26.1772 92.5544C25.9311 92.6823 25.808 92.83 25.808 92.9973C25.808 93.1155 25.8573 93.2238 25.9557 93.3222L25.557 93.8685L25.2174 93.7947C24.9615 93.7947 24.7449 93.9374 24.5677 94.2229L24.3315 94.2081C23.9771 94.2081 23.7753 94.3509 23.7261 94.6363L23.357 94.8873L22.7959 94.6363C22.7959 95.0891 22.6285 95.3155 22.2938 95.3155L22.0723 95.286L22.1905 95.8176L21.2159 95.8766L21.4817 96.2015C20.7434 96.3295 20.3398 96.6346 20.2709 97.117L19.636 97.1317L19.6213 97.6042L19.193 97.7076L19.0897 98.0915L19.2816 98.1801L19.134 98.4902C19.3801 98.6181 19.7049 98.6821 20.1085 98.6821L20.8616 98.564C20.9994 98.564 21.1175 98.5935 21.2159 98.6526C21.3045 98.7018 21.4128 98.7264 21.5408 98.7264C21.6983 98.7264 21.8853 98.6821 22.1019 98.5935C22.2495 98.7116 22.4316 98.7707 22.6482 98.7707C22.9041 98.7707 23.1847 98.692 23.4898 98.5345L23.8738 98.5788C24.0903 98.5788 24.1986 98.5098 24.1986 98.372C24.1986 98.2834 24.1445 98.1555 24.0362 97.9881L24.2429 97.9143V97.4713L24.5087 97.0136C24.5087 96.9053 24.7302 96.8512 25.1731 96.8512H25.3651L25.3208 97.0136L25.9705 96.9841C25.8819 97.2991 25.8376 97.5796 25.8376 97.8257C25.8376 98.0226 25.872 98.1998 25.9409 98.3573C26 98.5148 26.0295 98.6673 26.0295 98.815C26.0295 99.0513 25.9557 99.2629 25.808 99.4499L26 99.568V99.9224L25.8376 99.9077L25.8671 100.336L26 100.277V100.971L25.8228 100.986C25.8917 101.084 25.9262 101.187 25.9262 101.296C25.9262 101.374 25.9016 101.438 25.8523 101.488C25.7933 101.527 25.7638 101.586 25.7638 101.665C25.7638 101.763 25.8179 101.911 25.9262 102.108L25.9705 102.625ZM16.6977 96.2163C16.7666 96.0883 16.801 95.8668 16.801 95.5518C16.801 95.3155 16.7321 95.1974 16.5943 95.1974L16.4466 94.7249L16.5795 94.3558L16.2547 94.1343L16.3433 93.8095C16.1563 93.5141 16.0086 93.3665 15.9003 93.3665L15.7674 93.4846C15.6198 93.1893 15.2851 92.953 14.7634 92.7759L14.8077 93.1155L14.0251 92.5691L13.6412 92.6282L13.7445 92.8202L13.3902 92.8349C13.272 92.6971 13.1539 92.6282 13.0358 92.6282C12.8389 92.6282 12.6617 92.8103 12.5042 93.1745L11.7955 93.2336L11.8545 93.4551L11.4411 93.5437L11.2196 93.4846C11.1507 93.4846 11.1163 93.5191 11.1163 93.588C11.1163 93.6864 11.1999 93.8784 11.3673 94.1638C10.9932 94.656 10.8062 95.0793 10.8062 95.4337C10.8062 95.5912 10.8455 95.7388 10.9243 95.8766C10.629 95.8963 10.4813 95.9554 10.4813 96.0538C10.4813 96.1326 10.565 96.2458 10.7323 96.3934L10.5699 97.2351C10.4026 97.2351 10.3189 97.3089 10.3189 97.4566C10.3189 97.6338 10.437 97.9192 10.6733 98.313L10.4813 98.2982C10.3632 98.2982 10.3041 98.3327 10.3041 98.4016L10.3632 98.5492L11.1163 98.4902C11.1556 98.6772 11.2738 98.7707 11.4706 98.7707H11.5592C11.6183 98.6034 11.7512 98.5197 11.9579 98.5197L12.8586 98.7264C12.9669 98.7264 13.021 98.687 13.021 98.6083L13.0063 98.5492L14.0694 98.4311L14.0251 98.6378C14.2712 98.7658 14.6649 98.8298 15.2063 98.8298C15.6591 98.8298 16.0529 98.7363 16.3876 98.5492L16.1366 98.1505L16.5795 98.2539L16.5648 97.87C16.5648 97.3089 16.673 96.8167 16.8896 96.3934L16.6977 96.2163ZM25.8966 89.3207L25.5718 89.2173C25.4635 89.2173 25.3897 89.2666 25.3503 89.365C24.5727 89.2666 24.1051 88.8187 23.9476 88.0213L23.6375 87.8441H21.6737L21.6441 88.0213H21.0388L20.8468 87.8441L20.4481 87.7851C20.2414 87.7851 20.138 87.854 20.138 87.9918L19.4145 87.9032L18.5729 88.0213C18.2973 87.8146 17.938 87.7113 17.495 87.7113L17.2292 87.726L17.2588 87.9327H16.8158C15.7723 87.9327 15.1866 87.8392 15.0587 87.6522L14.4533 88.0361L14.3056 87.5341C14.03 87.7113 13.7888 87.7998 13.5821 87.7998C13.4049 87.7998 13.2622 87.7113 13.1539 87.5341L12.327 87.8737C12.1302 87.7654 11.9234 87.7113 11.7069 87.7113C11.5198 87.7113 11.3279 87.7555 11.131 87.8441H10.1122L10.1417 87.977C10.1417 88.0952 10.0679 88.1739 9.92024 88.2133L9.94977 88.4495C9.94977 88.6858 9.83656 88.8876 9.61016 89.0549C9.51172 88.9959 9.39359 88.9663 9.25578 88.9663L8.84234 89.0549C8.73406 88.858 8.56672 88.6956 8.34031 88.5677L8.53227 88.0213C8.3157 87.982 8.20742 87.8737 8.20742 87.6965L8.53227 86.53C8.34524 86.2248 8.25172 85.8852 8.25172 85.5112C8.25172 85.2159 8.31078 84.9107 8.42891 84.5957H9.06383C9.5757 84.9304 10.0925 85.0977 10.6142 85.0977C11.1556 85.0977 11.6872 84.8959 12.2089 84.4923L12.3861 84.5071C12.8881 84.5071 13.2327 84.2561 13.4197 83.7541L13.6412 83.7688C14.094 83.7688 14.4434 83.5621 14.6895 83.1487L15.5902 82.9272L15.9594 82.5433L16.2695 82.5728C16.7026 82.5728 17.0225 82.3563 17.2292 81.9231C18.1841 81.8542 18.9666 81.3866 19.577 80.5204C19.3112 80.4023 19.0109 80.3432 18.6763 80.3432L18.0561 80.4023C17.7706 80.3038 17.3818 80.2546 16.8896 80.2546L16.3285 80.2841L16.3433 80.4023C16.3433 80.5991 16.2153 80.7222 15.9594 80.7714C15.5656 80.4663 15.1177 80.3137 14.6157 80.3137C14.2515 80.3137 13.8528 80.4023 13.4197 80.5795C13.3508 80.3727 13.2179 80.2694 13.021 80.2694C12.9029 80.2694 12.7749 80.2989 12.6371 80.358C12.4993 80.4072 12.3467 80.4318 12.1794 80.4318C11.8644 80.4318 11.5789 80.3826 11.323 80.2841C11.0769 80.4909 10.7619 80.5942 10.378 80.5942L10.1122 80.5795L10.2303 81.0815C10.2303 81.4162 10.0236 81.618 9.61016 81.6869V81.7459C9.61016 81.9428 9.50188 82.0855 9.28531 82.1741C9.18688 81.9379 8.98016 81.8198 8.66516 81.8198L8.36984 81.8493L8.45844 81.1553C8.45844 80.7911 8.37477 80.481 8.20742 80.2251V79.8559C8.33539 79.8461 8.39938 79.7477 8.39938 79.5606L8.34031 79.1177L8.17789 79.1915V78.2317L8.34031 78.2613L8.45844 77.8331L8.23695 77.4787C8.5618 77.4491 8.79313 77.2769 8.93094 76.9619C9.10813 77.0505 9.28531 77.0948 9.4625 77.0948C9.65938 77.0948 9.85625 77.0406 10.0531 76.9323C10.2598 77.1391 10.3632 77.3704 10.3632 77.6263L10.2451 78.1431C10.5109 78.1727 10.7422 78.3154 10.9391 78.5713C11.1556 78.532 11.2639 78.4286 11.2639 78.2613L11.2196 78.0841L11.7659 78.3351C11.9923 78.1579 12.1646 78.0693 12.2827 78.0693C12.4107 78.0693 12.4845 78.1677 12.5042 78.3646C12.7897 78.4827 13.0702 78.5418 13.3459 78.5418C13.5624 78.5418 13.838 78.4729 14.1727 78.3351L14.5419 78.5566L14.8815 78.3351C15.1965 78.3351 15.4081 78.4335 15.5164 78.6304L15.6345 78.527L16.6977 78.4532L16.6534 78.6304L16.9782 78.6895C17.1554 78.6895 17.2489 78.5959 17.2588 78.4089H17.5984L17.7903 78.6895L17.9823 78.4532C18.3071 78.5418 18.5926 78.5861 18.8387 78.5861C19.2226 78.5861 19.508 78.4778 19.6951 78.2613H20.079C20.3349 78.4089 20.6056 78.4827 20.8911 78.4827C21.1864 78.4827 21.4866 78.4089 21.7918 78.2613C21.8705 78.3991 21.9591 78.468 22.0576 78.468C22.156 78.468 22.2594 78.3991 22.3677 78.2613C22.6925 78.3695 22.9632 78.4237 23.1798 78.4237L23.8885 78.3351L24.1395 76.9323C24.3955 76.765 24.6366 76.6813 24.863 76.6813C25.0107 76.6813 25.1534 76.7207 25.2913 76.7995L25.7933 76.6223L25.9852 76.9323C25.8868 77.0603 25.8376 77.1883 25.8376 77.3163C25.8376 77.4836 25.9508 77.6362 26.1772 77.774L25.8523 78.4532C26.0197 78.532 26.1034 78.6304 26.1034 78.7485L25.9852 79.0586V79.7378L25.7785 79.5606V80.358L25.9852 80.2841V80.9486C25.8474 81.0077 25.7785 81.0716 25.7785 81.1405C25.7785 81.2095 25.8966 81.2784 26.1329 81.3473L25.9262 81.4949L26.1034 81.9527L25.9705 82.1298L25.6604 82.0413C25.5226 82.0413 25.4192 82.1052 25.3503 82.2332H24.9073V82.1741C24.9073 82.0265 24.8335 81.9527 24.6859 81.9527L24.3758 82.0117C24.3758 81.362 24.0165 81.0372 23.2979 81.0372L22.8549 81.0667L22.8845 81.2291C22.8845 81.4457 22.7319 81.618 22.4267 81.7459L22.1019 81.7016C21.7278 81.7016 21.4571 81.8788 21.2898 82.2332L21.1569 82.2184C20.8123 82.2184 20.581 82.3858 20.4629 82.7205L20.2857 82.6614C20.1577 82.6614 20.0396 82.7598 19.9313 82.9567L19.2964 82.7057L19.4145 83.1782C18.8928 83.2373 18.6073 83.5326 18.5581 84.0641C18.44 83.8476 18.2579 83.7393 18.0118 83.7393L17.8641 83.7541L17.7903 84.1823L17.5245 84.0641C17.4655 84.0641 17.4163 84.0888 17.3769 84.138C17.3375 84.1773 17.2981 84.2216 17.2588 84.2709C17.2194 84.3201 17.1751 84.3693 17.1259 84.4185C17.0766 84.4579 17.0127 84.4776 16.9339 84.4776L16.6091 84.4333C16.4713 84.4333 16.4023 84.5071 16.4023 84.6548L16.4171 84.7877L16.0332 84.9796L15.8265 84.7877C15.7379 84.9353 15.6247 85.0091 15.4869 85.0091L15.3245 84.9796L15.413 85.585C15.1571 85.585 15.0193 85.7277 14.9996 86.0132L15.3245 86.1904L15.7379 85.6736C16.0037 85.8803 16.2448 85.9837 16.4614 85.9837C16.6484 85.9837 16.8207 85.9098 16.9782 85.7622H17.4802C17.6082 85.9197 17.7805 85.9984 17.997 85.9984C18.1742 85.9984 18.3859 85.9394 18.632 85.8213L18.6467 86.028L19.385 86.0132C19.5523 85.836 19.7935 85.7474 20.1085 85.7474C20.4038 85.7474 20.6696 85.7966 20.9059 85.8951C21.0634 85.7671 21.2405 85.7031 21.4374 85.7031L22.1019 85.8655C22.22 85.8655 22.2791 85.7917 22.2791 85.6441L22.2348 85.4078L22.5891 85.2011L22.8697 85.4816L22.7959 85.6736C22.7959 85.8213 22.9927 85.8951 23.3865 85.8951H23.4455C23.8688 85.6884 24.0805 85.462 24.0805 85.2159C24.0805 85.1076 24.0362 84.9845 23.9476 84.8467C24.0952 84.8369 24.1691 84.7335 24.1691 84.5366V84.4333C24.2577 84.5219 24.3512 84.5662 24.4496 84.5662C24.5579 84.5662 24.6662 84.4973 24.7745 84.3595L25.5423 84.3004C25.5423 84.4087 25.562 84.5022 25.6013 84.5809C25.6407 84.6597 25.6899 84.7286 25.749 84.7877C25.7982 84.8467 25.8425 84.9107 25.8819 84.9796C25.9213 85.0387 25.9409 85.1076 25.9409 85.1863C25.9409 85.708 25.7884 85.9689 25.4832 85.9689L25.3503 85.9541C25.4586 86.1313 25.557 86.2199 25.6456 86.2199C25.7244 86.2199 25.7982 86.1461 25.8671 85.9984L26.1624 86.5743L25.8671 87.7113C25.9852 87.8491 26.0443 87.9573 26.0443 88.0361C26.0443 88.1345 25.9852 88.2034 25.8671 88.2428L25.8523 88.5086L26.1772 88.9516L25.8523 88.9368L25.8966 89.3207ZM18.883 80.5352L19.1783 80.5204C19.3161 80.5204 19.385 80.5401 19.385 80.5795C19.385 80.6582 19.2373 80.7763 18.942 80.9338L18.883 80.5352ZM8.4732 56.7773C8.4732 56.5607 8.39445 56.4327 8.23695 56.3934V55.4336C8.38461 55.345 8.45844 55.1235 8.45844 54.7691L8.39938 54.0899C8.82266 53.8832 9.12781 53.5239 9.31484 53.012L9.62492 53.1597L9.59539 52.7315C9.79227 52.7216 9.95961 52.5888 10.0974 52.3328V52.1852C10.5699 52.1852 10.8702 52.0473 10.9981 51.7717H11.0572C11.2836 51.7717 11.4362 51.6142 11.5149 51.2992L11.8398 51.2549C11.948 51.3337 12.0662 51.373 12.1941 51.373C12.4304 51.373 12.7503 51.2598 13.1539 51.0334L13.3902 51.0482C13.7347 51.0482 14.03 50.9104 14.2761 50.6348H15.4721C15.5213 50.428 15.5952 50.3247 15.6936 50.3247C15.792 50.3247 15.9052 50.3887 16.0332 50.5166L16.2399 50.3099L16.4319 50.5757L16.993 50.5166L17.2145 50.2361L17.7755 50.1623C18.2087 50.4182 18.6664 50.5462 19.1488 50.5462L19.5917 50.5166C20.0741 50.8218 20.6548 50.9744 21.3341 50.9744H21.5703V51.0482C21.5703 51.314 21.8558 51.4469 22.4267 51.4469L22.7073 51.4321L22.6925 50.9005L23.2093 51.7127L24.0066 51.8308L24.3905 52.4509C25.5226 53.1006 26.0886 54.1047 26.0886 55.4631L26.1624 56.541C26.1624 57.0726 26.0837 57.4959 25.9262 57.8109L25.9705 58.0914C25.9705 58.4064 25.7441 58.5639 25.2913 58.5639L25.3355 59.0069C25.3355 59.2727 25.2174 59.4055 24.9812 59.4055L24.8483 59.3908C24.1691 60.5228 23.1355 61.1479 21.7475 61.266C21.5113 61.5515 21.1913 61.6942 20.7877 61.6942C20.4727 61.6942 20.2463 61.6598 20.1085 61.5909L20.0495 61.9452H18.7501L18.5581 62.2553C18.3416 62.1667 17.9724 62.1224 17.4507 62.1224L16.3876 62.1667L16.2547 61.9452L15.1768 62.0191C15.1177 61.7828 15.0045 61.6647 14.8372 61.6647C14.7191 61.6647 14.6108 61.6991 14.5123 61.768L13.5673 61.5023L13.6412 61.2513C13.6412 61.1823 13.6116 61.1479 13.5526 61.1479C13.4738 61.1479 13.3213 61.2217 13.0948 61.3694C12.9767 61.1036 12.4845 60.9707 11.6183 60.9707H11.5149C11.4755 60.6951 11.3673 60.5573 11.1901 60.5573L10.9538 60.6016C10.9538 60.3555 10.8554 60.2324 10.6585 60.2324L10.5256 60.2472C10.3091 60.2472 10.1171 60.0159 9.94977 59.5532L9.75781 59.6713C9.35422 59.504 9.07367 59.2038 8.91617 58.7706L8.60609 58.9183L8.69469 58.5787C8.69469 58.2145 8.54211 57.9241 8.23695 57.7075C8.39445 57.4023 8.4732 57.0923 8.4732 56.7773ZM10.1565 55.8913C10.3829 56.0882 10.4961 56.2851 10.4961 56.482C10.4961 56.6788 10.3927 56.8855 10.186 57.1021C10.3435 57.4368 10.501 57.6041 10.6585 57.6041C10.7471 57.6041 10.8259 57.5598 10.8948 57.4713C11.003 58.2588 11.4559 58.7313 12.2532 58.8888C12.5682 59.1742 13.0063 59.317 13.5673 59.317L14.1284 59.2727L14.3942 59.627L14.5714 59.3317C14.7978 59.4794 15.0636 59.5532 15.3688 59.5532L15.605 59.5384C15.9495 59.5384 16.1513 59.6812 16.2104 59.9666L17.052 59.6713L17.5688 59.7895L18.1299 59.6713C18.2087 59.7107 18.4154 59.7304 18.7501 59.7304C19.3702 59.7304 19.9707 59.5434 20.5515 59.1693C21.398 59.1299 22.1609 58.874 22.8402 58.4015C23.0469 58.3916 23.1502 58.3277 23.1502 58.2095C23.1502 58.0914 23.0715 57.9536 22.914 57.7961L23.2684 57.8847C23.357 57.8847 23.4013 57.8502 23.4013 57.7813L23.2684 57.4713H23.3717C23.7852 57.4713 23.9968 57.2448 24.0066 56.792C24.2134 56.7034 24.3167 56.5361 24.3167 56.29C24.3167 56.0538 24.2134 55.7338 24.0066 55.3302V55.2564C24.0066 54.9217 23.7015 54.7002 23.0912 54.592L23.1207 54.4C23.1207 54.2523 23.0666 54.1391 22.9583 54.0604C22.85 53.9718 22.7171 53.8881 22.5596 53.8094C22.3923 53.7306 22.22 53.6371 22.0428 53.5288C21.8656 53.4205 21.7081 53.268 21.5703 53.0711L21.3193 53.1006C21.1027 53.1006 20.9059 53.012 20.7287 52.8348L20.9797 52.6577L20.3891 52.5691C20.0839 52.5691 19.9116 52.6773 19.8723 52.8939C19.3604 52.7266 18.8731 52.6134 18.4105 52.5543L18.1742 52.2738L17.7165 52.1999C17.4901 52.1999 17.3769 52.2934 17.3769 52.4805L17.3916 52.6134H17.052C16.9831 52.3771 16.8552 52.259 16.6681 52.259C16.5303 52.259 16.3679 52.3082 16.1809 52.4066C15.9938 52.4952 15.8314 52.5395 15.6936 52.5395C15.5755 52.5395 15.4623 52.51 15.354 52.4509C15.1374 52.7266 14.8569 52.8644 14.5123 52.8644L14.0546 52.7905C13.7987 53.017 13.4886 53.1302 13.1244 53.1302C12.8684 53.1302 12.706 53.1105 12.6371 53.0711C12.4304 53.3073 12.1498 53.4255 11.7955 53.4255L11.633 53.4107L11.3525 53.9866C11.2541 53.8586 11.1359 53.7946 10.9981 53.7946C10.8603 53.7946 10.7077 53.8635 10.5404 54.0013L11.1163 54.1785C10.8308 54.2966 10.688 54.4246 10.688 54.5624L10.7766 54.7544L10.4961 54.8134L10.5256 54.9759C10.5256 55.1826 10.4026 55.3352 10.1565 55.4336V55.8913ZM8.25172 42.3513L8.17789 41.7606C8.17789 41.4358 8.26649 41.234 8.44367 41.1552C8.32555 40.8304 8.26649 40.4908 8.26649 40.1364C8.26649 39.6836 8.33047 39.3095 8.45844 39.0142C8.48797 39.0339 8.5175 39.0438 8.54703 39.0438C8.57656 39.0438 8.60609 39.0339 8.63563 39.0142L8.72422 39.029C8.72422 38.9502 8.57164 38.7583 8.26649 38.4531C8.55195 38.2267 8.69469 37.9856 8.69469 37.7296L8.57656 37.2866L9.77258 37.2719L9.06383 37.0356H9.935L9.92024 36.7551C10.1466 36.9224 10.3484 37.0061 10.5256 37.0061C10.7127 37.0061 10.8702 36.9421 10.9981 36.8141L11.5002 36.8732C11.5888 36.637 11.6872 36.5188 11.7955 36.5188C11.8939 36.5188 12.0071 36.5877 12.1351 36.7256C12.1449 36.8141 12.1991 36.8584 12.2975 36.8584H12.4452C12.8684 36.8584 13.3902 36.947 14.0103 37.1242L14.2023 36.947L14.2613 37.4048C14.2613 37.769 14.158 38.1184 13.9513 38.4531L13.7593 38.4384C13.6116 38.4384 13.5378 38.4827 13.5378 38.5713L13.6116 38.7484L13.1982 38.6598C12.962 38.6598 12.7306 38.7484 12.5042 38.9256C12.455 38.6697 12.3763 38.5417 12.268 38.5417C12.0809 38.5417 11.7856 38.8321 11.382 39.4129L10.629 39.2357C10.5305 39.4227 10.4813 39.5655 10.4813 39.6639C10.4813 39.7722 10.5355 39.8263 10.6438 39.8263L10.7176 39.8116L10.5109 40.8599L10.3337 40.7418C10.2845 40.7418 10.2598 40.8058 10.2598 40.9338L10.5109 42.1741L10.437 42.366L10.3189 42.2774C10.2697 42.2774 10.2451 42.3414 10.2451 42.4694C10.2451 42.7844 10.3091 43.1683 10.437 43.6211L10.0974 44.197L10.4813 44.1084C10.6782 44.1084 10.7914 44.2265 10.8209 44.4627C11.3131 44.699 11.8299 44.8171 12.3713 44.8171C12.5288 44.8171 12.7011 44.8023 12.8881 44.7728C13.0752 44.7433 13.2819 44.7039 13.5083 44.6547L13.4049 44.8762C13.4049 44.9254 13.4443 44.95 13.523 44.95C13.651 44.95 13.8528 44.8909 14.1284 44.7728L15.2063 45.0829L15.0882 44.7876C15.0882 44.7285 15.1227 44.699 15.1916 44.699C15.2998 44.699 15.5115 44.7827 15.8265 44.95C15.8855 44.5759 15.9397 44.3643 15.9889 44.3151C15.9889 44.2068 15.9545 44.1527 15.8855 44.1527L15.8117 44.2265L15.8413 43.6949L16.5352 43.5325L15.8265 43.4439C16.043 43.1978 16.1513 42.9616 16.1513 42.7352L16.0923 42.4398L15.5016 42.4694L16.0184 42.307C15.8413 42.1298 15.6395 42.0412 15.413 42.0412C15.2555 42.0412 15.0784 42.0855 14.8815 42.1741L14.0694 41.8492L13.6855 42.0559C13.4788 41.7803 13.3754 41.4998 13.3754 41.2143C13.3754 40.9288 13.4837 40.6483 13.7002 40.3727L14.1432 40.4022C14.3795 40.4022 14.4976 40.353 14.4976 40.2545L14.4533 40.1364C14.6305 40.2053 14.9258 40.2398 15.3392 40.2398L16.1956 40.1659C16.2744 40.0478 16.3384 39.9888 16.3876 39.9888C16.4565 39.9888 16.4909 40.0626 16.4909 40.2102C16.4909 40.2496 16.486 40.3038 16.4762 40.3727L16.5205 40.5498L16.6829 40.1216L17.5541 40.0478L17.4507 40.2545H18.1447L18.2185 40.7566L18.3366 40.1216L19.6655 40.476L19.3259 40.1364L20.0199 40.3136C20.0593 40.2742 20.0938 40.2545 20.1233 40.2545C20.1528 40.2545 20.1823 40.2644 20.2119 40.2841C20.3891 40.2841 20.4777 40.412 20.4777 40.668L20.4629 40.9042C20.6007 41.042 20.6696 41.1798 20.6696 41.3177C20.6696 41.5047 20.5564 41.7114 20.33 41.9378L19.3259 42.2184L19.0749 41.9526V42.2331C18.7304 42.43 18.5089 42.5284 18.4105 42.5284L18.248 42.4989L18.3662 42.366C18.0118 42.4743 17.8346 42.6564 17.8346 42.9123C17.8346 43.0895 17.9134 43.2864 18.0709 43.503C17.9724 43.6309 17.9232 43.8032 17.9232 44.0198C17.9232 44.2363 17.9577 44.4086 18.0266 44.5366L17.6279 44.8023L19.0159 44.8909C18.8977 44.9894 18.8387 45.0583 18.8387 45.0977V45.1124L19.134 45.0091L20.138 45.0681L20.0642 44.8614L20.6991 45.0091L21.083 44.8762L21.275 45.0091L21.3341 44.8909L21.7623 45.0681C21.9099 44.8909 22.1166 44.8023 22.3824 44.8023L22.8992 44.8909C22.9189 44.635 23.0616 44.507 23.3274 44.507C23.357 44.4873 23.3865 44.4775 23.416 44.4775C23.4554 44.4775 23.4898 44.4923 23.5194 44.5218C23.3323 44.6104 23.2388 44.6793 23.2388 44.7285C23.2388 44.827 23.4603 44.8811 23.9033 44.8909C24.0214 44.7925 24.0805 44.6695 24.0805 44.5218C24.0805 44.3741 24.0313 44.2216 23.9328 44.0641L24.3315 43.8131L24.2872 43.5768C24.2872 43.4095 24.3659 43.247 24.5234 43.0895L25.1879 42.6761C25.7687 42.7647 26.0591 43.0403 26.0591 43.503C26.0295 43.5522 26.0148 43.6063 26.0148 43.6654C26.0148 43.6949 26.0197 43.7294 26.0295 43.7688L25.4537 44.197L26.0886 43.9312V44.0788C26.0886 44.3249 26.0148 44.571 25.8671 44.8171L26.1329 45.2158L26.0295 45.7326C25.7736 45.8113 25.6456 45.8704 25.6456 45.9098L26.1624 45.9541L26.2215 46.4561L26.0295 46.2789L25.8819 47.1501L26.1181 46.7514L26.1624 47.8736C26.0541 47.8736 25.9852 47.9228 25.9557 48.0213C25.9163 48.1098 25.8868 48.2083 25.8671 48.3166C25.8474 48.4248 25.8179 48.5282 25.7785 48.6266C25.7391 48.7152 25.6555 48.7595 25.5275 48.7595C25.3995 48.7595 25.0796 48.6611 24.5677 48.4642L24.6416 48.228C24.2675 48.1492 24.0805 47.8293 24.0805 47.2682V47.1796L24.2577 47.1206C24.2577 47.0812 24.0066 47.0221 23.5046 46.9434L23.5489 46.8548C23.5489 46.8154 23.5145 46.7957 23.4455 46.7957C23.3176 46.8843 23.0715 46.9532 22.7073 47.0024C22.2348 46.8646 21.8312 46.7957 21.4965 46.7957C20.9551 46.7957 20.4777 46.8745 20.0642 47.032L19.1488 46.6923C19.0798 46.6923 19.0454 46.717 19.0454 46.7662L19.1488 46.9877L18.5729 46.7514C18.3268 46.8991 18.0955 46.9729 17.8789 46.9729C17.7116 46.9729 17.5295 46.9188 17.3326 46.8105L17.1406 46.9434C16.8945 46.7859 16.6435 46.7071 16.3876 46.7071C16.112 46.7071 15.8314 46.8105 15.5459 47.0172L15.6641 46.7071C15.6641 46.6382 15.6296 46.6038 15.5607 46.6038L15.2654 46.8105C14.8716 46.8105 14.6649 46.8498 14.6452 46.9286C14.5763 46.9286 14.5222 46.9188 14.4828 46.8991C14.4434 46.8794 14.409 46.8548 14.3795 46.8252C14.3499 46.7957 14.3155 46.7711 14.2761 46.7514C14.2367 46.7317 14.1826 46.7219 14.1137 46.7219L13.6707 46.7809C13.5132 46.7809 13.3557 46.7317 13.1982 46.6333L12.1941 46.8843L11.1753 46.6776C11.1655 46.7071 11.1605 46.7317 11.1605 46.7514C11.1605 46.7809 11.1753 46.8006 11.2048 46.8105C11.2048 46.8991 11.0178 46.9434 10.6438 46.9434L10.0679 46.9138L10.3632 47.0763C10.3435 47.5684 10.0974 47.9819 9.62492 48.3166C9.37883 48.287 9.22133 48.2477 9.15242 48.1984C9.01461 48.1984 8.94078 48.2477 8.93094 48.3461C8.54703 48.0803 8.35508 47.7407 8.35508 47.3273C8.35508 47.0221 8.46828 46.653 8.69469 46.2198C8.50766 46.0033 8.41414 45.7523 8.41414 45.4668L8.53227 44.95L8.16313 45.1715L8.5618 44.4037C8.43383 44.1576 8.36984 43.8131 8.36984 43.3701C8.36984 42.9271 8.43383 42.5481 8.5618 42.2331L8.25172 42.3513ZM8.25172 28.9145L8.17789 28.3239C8.17789 27.9991 8.26649 27.7973 8.44367 27.7185C8.32555 27.3937 8.26649 27.0541 8.26649 26.6997C8.26649 26.2469 8.33047 25.8728 8.45844 25.5775C8.48797 25.5972 8.5175 25.607 8.54703 25.607C8.57656 25.607 8.60609 25.5972 8.63563 25.5775L8.72422 25.5923C8.72422 25.5135 8.57164 25.3216 8.26649 25.0164C8.55195 24.79 8.69469 24.5488 8.69469 24.2929L8.57656 23.8499L9.77258 23.8352L9.06383 23.5989H9.935L9.92024 23.3184C10.1466 23.4857 10.3484 23.5694 10.5256 23.5694C10.7127 23.5694 10.8702 23.5054 10.9981 23.3774L11.5002 23.4365C11.5888 23.2002 11.6872 23.0821 11.7955 23.0821C11.8939 23.0821 12.0071 23.151 12.1351 23.2888C12.1449 23.3774 12.1991 23.4217 12.2975 23.4217H12.4452C12.8684 23.4217 13.3902 23.5103 14.0103 23.6875L14.2023 23.5103L14.2613 23.9681C14.2613 24.3323 14.158 24.6817 13.9513 25.0164L13.7593 25.0017C13.6116 25.0017 13.5378 25.0459 13.5378 25.1345L13.6116 25.3117L13.1982 25.2231C12.962 25.2231 12.7306 25.3117 12.5042 25.4889C12.455 25.233 12.3763 25.105 12.268 25.105C12.0809 25.105 11.7856 25.3954 11.382 25.9762L10.629 25.799C10.5305 25.986 10.4813 26.1288 10.4813 26.2272C10.4813 26.3355 10.5355 26.3896 10.6438 26.3896L10.7176 26.3749L10.5109 27.4232L10.3337 27.3051C10.2845 27.3051 10.2598 27.3691 10.2598 27.497L10.5109 28.7374L10.437 28.9293L10.3189 28.8407C10.2697 28.8407 10.2451 28.9047 10.2451 29.0327C10.2451 29.3477 10.3091 29.7316 10.437 30.1844L10.0974 30.7602L10.4813 30.6717C10.6782 30.6717 10.7914 30.7898 10.8209 31.026C11.3131 31.2623 11.8299 31.3804 12.3713 31.3804C12.5288 31.3804 12.7011 31.3656 12.8881 31.3361C13.0752 31.3066 13.2819 31.2672 13.5083 31.218L13.4049 31.4395C13.4049 31.4887 13.4443 31.5133 13.523 31.5133C13.651 31.5133 13.8528 31.4542 14.1284 31.3361L15.2063 31.6462L15.0882 31.3509C15.0882 31.2918 15.1227 31.2623 15.1916 31.2623C15.2998 31.2623 15.5115 31.3459 15.8265 31.5133C15.8855 31.1392 15.9397 30.9276 15.9889 30.8784C15.9889 30.7701 15.9545 30.7159 15.8855 30.7159L15.8117 30.7898L15.8413 30.2582L16.5352 30.0958L15.8265 30.0072C16.043 29.7611 16.1513 29.5249 16.1513 29.2984L16.0923 29.0031L15.5016 29.0327L16.0184 28.8702C15.8413 28.6931 15.6395 28.6045 15.413 28.6045C15.2555 28.6045 15.0784 28.6488 14.8815 28.7374L14.0694 28.4125L13.6855 28.6192C13.4788 28.3436 13.3754 28.0631 13.3754 27.7776C13.3754 27.4921 13.4837 27.2116 13.7002 26.9359L14.1432 26.9655C14.3795 26.9655 14.4976 26.9163 14.4976 26.8178L14.4533 26.6997C14.6305 26.7686 14.9258 26.8031 15.3392 26.8031L16.1956 26.7292C16.2744 26.6111 16.3384 26.552 16.3876 26.552C16.4565 26.552 16.4909 26.6259 16.4909 26.7735C16.4909 26.8129 16.486 26.867 16.4762 26.9359L16.5205 27.1131L16.6829 26.6849L17.5541 26.6111L17.4507 26.8178H18.1447L18.2185 27.3199L18.3366 26.6849L19.6655 27.0393L19.3259 26.6997L20.0199 26.8769C20.0593 26.8375 20.0938 26.8178 20.1233 26.8178C20.1528 26.8178 20.1823 26.8277 20.2119 26.8474C20.3891 26.8474 20.4777 26.9753 20.4777 27.2313L20.4629 27.4675C20.6007 27.6053 20.6696 27.7431 20.6696 27.8809C20.6696 28.068 20.5564 28.2747 20.33 28.5011L19.3259 28.7817L19.0749 28.5159V28.7964C18.7304 28.9933 18.5089 29.0917 18.4105 29.0917L18.248 29.0622L18.3662 28.9293C18.0118 29.0376 17.8346 29.2197 17.8346 29.4756C17.8346 29.6528 17.9134 29.8497 18.0709 30.0663C17.9724 30.1942 17.9232 30.3665 17.9232 30.5831C17.9232 30.7996 17.9577 30.9719 18.0266 31.0999L17.6279 31.3656L19.0159 31.4542C18.8977 31.5527 18.8387 31.6216 18.8387 31.6609V31.6757L19.134 31.5724L20.138 31.6314L20.0642 31.4247L20.6991 31.5724L21.083 31.4395L21.275 31.5724L21.3341 31.4542L21.7623 31.6314C21.9099 31.4542 22.1166 31.3656 22.3824 31.3656L22.8992 31.4542C22.9189 31.1983 23.0616 31.0703 23.3274 31.0703C23.357 31.0506 23.3865 31.0408 23.416 31.0408C23.4554 31.0408 23.4898 31.0556 23.5194 31.0851C23.3323 31.1737 23.2388 31.2426 23.2388 31.2918C23.2388 31.3902 23.4603 31.4444 23.9033 31.4542C24.0214 31.3558 24.0805 31.2327 24.0805 31.0851C24.0805 30.9374 24.0313 30.7849 23.9328 30.6274L24.3315 30.3763L24.2872 30.1401C24.2872 29.9727 24.3659 29.8103 24.5234 29.6528L25.1879 29.2394C25.7687 29.328 26.0591 29.6036 26.0591 30.0663C26.0295 30.1155 26.0148 30.1696 26.0148 30.2287C26.0148 30.2582 26.0197 30.2927 26.0295 30.332L25.4537 30.7602L26.0886 30.4945V30.6421C26.0886 30.8882 26.0148 31.1343 25.8671 31.3804L26.1329 31.7791L26.0295 32.2959C25.7736 32.3746 25.6456 32.4337 25.6456 32.4731L26.1624 32.5174L26.2215 33.0194L26.0295 32.8422L25.8819 33.7134L26.1181 33.3147L26.1624 34.4369C26.0541 34.4369 25.9852 34.4861 25.9557 34.5845C25.9163 34.6731 25.8868 34.7716 25.8671 34.8799C25.8474 34.9881 25.8179 35.0915 25.7785 35.1899C25.7391 35.2785 25.6555 35.3228 25.5275 35.3228C25.3995 35.3228 25.0796 35.2244 24.5677 35.0275L24.6416 34.7913C24.2675 34.7125 24.0805 34.3926 24.0805 33.8315V33.7429L24.2577 33.6838C24.2577 33.6445 24.0066 33.5854 23.5046 33.5066L23.5489 33.4181C23.5489 33.3787 23.5145 33.359 23.4455 33.359C23.3176 33.4476 23.0715 33.5165 22.7073 33.5657C22.2348 33.4279 21.8312 33.359 21.4965 33.359C20.9551 33.359 20.4777 33.4377 20.0642 33.5952L19.1488 33.2556C19.0798 33.2556 19.0454 33.2802 19.0454 33.3295L19.1488 33.5509L18.5729 33.3147C18.3268 33.4624 18.0955 33.5362 17.8789 33.5362C17.7116 33.5362 17.5295 33.482 17.3326 33.3738L17.1406 33.5066C16.8945 33.3491 16.6435 33.2704 16.3876 33.2704C16.112 33.2704 15.8314 33.3738 15.5459 33.5805L15.6641 33.2704C15.6641 33.2015 15.6296 33.167 15.5607 33.167L15.2654 33.3738C14.8716 33.3738 14.6649 33.4131 14.6452 33.4919C14.5763 33.4919 14.5222 33.482 14.4828 33.4624C14.4434 33.4427 14.409 33.4181 14.3795 33.3885C14.3499 33.359 14.3155 33.3344 14.2761 33.3147C14.2367 33.295 14.1826 33.2852 14.1137 33.2852L13.6707 33.3442C13.5132 33.3442 13.3557 33.295 13.1982 33.1966L12.1941 33.4476L11.1753 33.2409C11.1655 33.2704 11.1605 33.295 11.1605 33.3147C11.1605 33.3442 11.1753 33.3639 11.2048 33.3738C11.2048 33.4624 11.0178 33.5066 10.6438 33.5066L10.0679 33.4771L10.3632 33.6395C10.3435 34.1317 10.0974 34.5452 9.62492 34.8799C9.37883 34.8503 9.22133 34.8109 9.15242 34.7617C9.01461 34.7617 8.94078 34.8109 8.93094 34.9094C8.54703 34.6436 8.35508 34.304 8.35508 33.8906C8.35508 33.5854 8.46828 33.2163 8.69469 32.7831C8.50766 32.5666 8.41414 32.3156 8.41414 32.0301L8.53227 31.5133L8.16313 31.7348L8.5618 30.967C8.43383 30.7209 8.36984 30.3763 8.36984 29.9334C8.36984 29.4904 8.43383 29.1114 8.5618 28.7964L8.25172 28.9145Z" fill="black"/>
<circle cx="134.904" cy="75.9999" r="30.24" fill="black"/>
<path d="M134.652 25.0959L141.417 40.5939H127.887L134.652 25.0959Z" fill="black"/>
<path d="M134.652 126.904L127.887 111.406H141.417L134.652 126.904Z" fill="black"/>
<path d="M185.808 75.7479L170.31 82.5133V68.9825L185.808 75.7479Z" fill="black"/>
<path d="M84 75.7478L99.498 68.9824V82.5132L84 75.7478Z" fill="black"/>
<path d="M170.959 40.0649L164.678 55.7657L155.175 46.1339L170.959 40.0649Z" fill="black"/>
<path d="M98.488 111.569L104.769 95.8681L114.272 105.5L98.488 111.569Z" fill="black"/>
<path d="M170.832 112.055L155.131 105.774L164.763 96.2712L170.832 112.055Z" fill="black"/>
<path d="M99.3277 39.5837L115.029 45.8643L105.397 55.3675L99.3277 39.5837Z" fill="black"/>
</svg>
