<svg width="236" height="82" viewBox="0 0 236 82" fill="none" xmlns="http://www.w3.org/2000/svg">
<g clip-path="url(#clip0_284_781)">
<rect width="235.767" height="81.473" rx="14" fill="#E0B36F"/>
<rect x="1.05" y="1.05" width="182.476" height="79.373" stroke="black" stroke-width="2.1"/>
<path d="M73.4545 16.3359C73.638 16.3359 73.7568 16.3036 73.8108 16.2388C73.8647 16.1632 73.9187 16.1254 73.9727 16.1254C74.0483 16.1254 74.1454 16.2172 74.2642 16.4007L74.6367 16.1254L74.8796 16.3683C75.3006 16.2172 75.7055 16.1416 76.0942 16.1416C76.7419 16.1416 77.4167 16.2766 78.1185 16.5465V16.757C78.1185 17.5883 77.9349 18.0687 77.5678 18.1983L77.244 18.1173C77.0604 18.1173 76.8931 18.1929 76.7419 18.344L76.418 18.2793C76.2237 18.2793 76.0348 18.371 75.8512 18.5546L75.9808 19.591C75.7973 19.645 75.7055 19.7314 75.7055 19.8501L75.8351 20.3359L75.7217 20.757C75.7217 20.9513 75.8404 21.2482 76.078 21.6477L75.7055 21.4533V23.8825L75.916 23.9149L75.7865 25.5991L75.9484 25.7934L75.7865 26.0849C75.916 26.1713 75.9808 26.2631 75.9808 26.3602C75.9808 26.4358 75.9484 26.5114 75.8836 26.587C75.8297 26.6625 75.8027 26.7597 75.8027 26.8785C75.8027 27.0728 75.8404 27.2509 75.916 27.4129L75.7865 28.4169C75.7865 28.8704 75.8782 29.2698 76.0618 29.6153V30.1821C75.997 30.2469 75.9646 30.3602 75.9646 30.5222C75.9646 30.8677 76.0834 31.3157 76.3209 31.8663L75.7541 31.7206L76.3371 32.8704V33.421L76.8067 33.5019C77.001 33.5019 77.2062 33.4534 77.4221 33.3562C77.7568 33.5505 78.0321 33.6477 78.248 33.6477C78.3344 33.6477 78.4046 33.6315 78.4585 33.5991C78.5233 33.5667 78.5827 33.5343 78.6367 33.5019C78.6907 33.4695 78.75 33.4372 78.8148 33.4048C78.8796 33.3724 78.9552 33.3562 79.0415 33.3562C79.1711 33.3562 79.306 33.3832 79.4464 33.4372C79.5867 33.4803 79.7811 33.5019 80.0294 33.5019C80.2453 33.5019 80.4936 33.4803 80.7743 33.4372C81.055 33.3832 81.3789 33.313 81.746 33.2266L81.8431 33.4857L82.4261 33.3076L82.4585 33.0809C82.4585 32.8326 82.3344 32.6004 82.0861 32.3845C82.3884 32.2442 82.6637 31.9905 82.912 31.6234C82.7284 31.3427 82.6367 31.116 82.6367 30.9432C82.6367 30.8677 82.6583 30.8029 82.7014 30.7489C82.7446 30.6841 82.7932 30.6247 82.8472 30.5708C82.9012 30.5168 82.9498 30.4628 82.9929 30.4088C83.0361 30.3548 83.0577 30.2901 83.0577 30.2145L82.9282 29.7287C82.9282 29.5235 83.1549 29.3724 83.6083 29.2752C83.9538 29.286 84.1373 29.4911 84.1589 29.8906C84.5476 30.1389 84.7419 30.6679 84.7419 31.4776L84.6934 32.255C84.8229 32.6328 84.8877 33.0107 84.8877 33.3886C84.8877 34.1443 84.6286 34.9108 84.1104 35.6882C83.7757 35.4507 83.549 35.3319 83.4302 35.3319C83.3762 35.3319 83.3492 35.3643 83.3492 35.4291L83.3978 35.6396C83.1819 35.5316 82.9336 35.4776 82.6529 35.4776C82.3074 35.4776 81.9619 35.6018 81.6164 35.8501H80.7905C80.6178 35.6126 80.4126 35.4938 80.1751 35.4938C79.9376 35.4938 79.6839 35.6126 79.414 35.8501H79.2035L79.2197 35.4453C78.777 35.6396 78.329 35.7368 77.8755 35.7368C77.5301 35.7368 77.1306 35.6612 76.6772 35.51C76.2885 35.6396 75.9538 35.7044 75.6731 35.7044C75.5436 35.7044 75.4302 35.6882 75.333 35.6558C75.2359 35.6342 75.1387 35.6072 75.0415 35.5748C74.9444 35.5316 74.8364 35.4992 74.7176 35.4776C74.6097 35.4453 74.4693 35.4291 74.2966 35.4291C74.0915 35.4291 73.8431 35.4507 73.5516 35.4938C73.2709 35.5262 72.9417 35.5802 72.5638 35.6558L72.3533 35.3643L72.1913 35.4291C72.1158 35.4291 72.0564 35.3643 72.0132 35.2347L72.0456 34.9594C72.0456 34.7219 72.0078 34.5114 71.9322 34.3278L72.6933 33.842L72.6772 33.6801L73.001 33.7448C73.3249 33.7448 73.4869 33.4534 73.4869 32.8704V32.6436L73.7298 32.5951C73.6326 32.3359 73.584 32.0714 73.584 31.8015C73.584 31.4021 73.6974 30.9972 73.9241 30.587L73.6488 30.1821L73.7136 29.7125C73.7136 29.5505 73.6758 29.4048 73.6002 29.2752C73.5355 29.1457 73.5031 29.0323 73.5031 28.9351C73.5031 28.838 73.5247 28.7462 73.5678 28.6598C73.6218 28.5627 73.6488 28.4331 73.6488 28.2712V28.174C73.8647 28.0876 73.9727 27.9959 73.9727 27.8987C73.9727 27.8339 73.9241 27.7637 73.827 27.6882C73.7406 27.6126 73.6974 27.4776 73.6974 27.2833C73.6974 27.0458 73.773 26.9 73.9241 26.8461L73.6488 26.3764L73.6974 25.7448C73.773 25.7448 73.8108 25.6693 73.8108 25.5181L73.665 24.7084L73.8593 24.4817L73.6488 24.4331L73.665 23.8501C73.773 23.8501 73.827 23.8015 73.827 23.7044C73.827 23.5964 73.746 23.4021 73.584 23.1214L73.5516 21.7125C73.7244 21.6477 73.8108 21.5019 73.8108 21.2752C73.8108 21.0053 73.692 20.6382 73.4545 20.174L73.4707 19.7853C73.5678 19.7529 73.6164 19.6018 73.6164 19.3319C73.6164 19.116 73.5732 18.927 73.4869 18.7651C73.4005 18.6031 73.2871 18.4682 73.1468 18.3602C73.0064 18.2523 72.8445 18.1713 72.661 18.1173C72.4774 18.0525 72.2831 18.0094 72.078 17.9878L72.0942 17.923C72.0942 17.8042 71.9052 17.7341 71.5274 17.7125V16.8218C71.8836 16.6922 72.2291 16.4601 72.5638 16.1254C72.8337 16.2658 73.1306 16.3359 73.4545 16.3359ZM90.6697 20.757L91.3175 20.7084C91.7169 20.7084 92.0138 20.7462 92.2082 20.8218L92.6292 20.676C92.7696 20.8164 92.9369 20.8865 93.1312 20.8865C93.3148 20.8865 93.5307 20.8056 93.779 20.6436V20.7408C93.779 21.0971 93.9356 21.2752 94.2487 21.2752L94.4106 21.259C94.5941 21.259 94.7399 21.2968 94.8478 21.3724C94.9666 21.4372 95.0692 21.5181 95.1555 21.6153C95.2419 21.7125 95.3229 21.815 95.3985 21.923C95.4848 22.0202 95.582 22.1011 95.69 22.1659C95.9059 22.2631 96.0894 22.5654 96.2406 23.0728L96.9531 23.3967V23.4776C96.9531 23.6396 96.9693 23.7637 97.0017 23.8501C97.0449 23.9365 97.0881 24.0121 97.1312 24.0768C97.1852 24.1308 97.2284 24.1848 97.2608 24.2388C97.304 24.2928 97.3256 24.3737 97.3256 24.4817L97.3094 24.6436C97.3094 24.8812 97.4605 25.1834 97.7628 25.5505L97.6495 25.923L97.6657 26.5708L98.0543 27.2185L98.1029 27.672C98.1029 28.039 98.0219 28.4061 97.86 28.7732V29.6153C98.0003 29.8852 98.0705 30.1875 98.0705 30.5222L98.0543 30.7813C97.4497 31.17 97.1151 31.7098 97.0503 32.4007C96.9855 33.0917 96.2406 33.9554 94.8155 34.9918H93.7142C93.3688 35.3697 92.9963 35.5586 92.5968 35.5586C92.4781 35.5586 92.3593 35.5424 92.2406 35.51C92.1218 35.4668 91.9922 35.4237 91.8519 35.3805C91.7115 35.3373 91.5604 35.2995 91.3985 35.2671C91.2365 35.2239 91.053 35.2023 90.8478 35.2023L89.6657 35.3157L88.2082 34.3602L88.3377 33.8906L87.5766 33.7448L87.6414 33.5181C87.6414 33.4426 87.6036 33.4048 87.528 33.4048L87.3661 33.4372C87.3013 33.1565 87.1393 32.8919 86.8802 32.6436L87.1555 32.174L86.7831 32.1416V32.0444C86.7831 31.7529 86.7507 31.5046 86.6859 31.2995C86.6211 31.0836 86.5509 30.9054 86.4754 30.7651C86.4106 30.6139 86.3458 30.4844 86.281 30.3764C86.2163 30.2577 86.1839 30.1497 86.1839 30.0525L86.2001 29.923C86.2001 29.6963 86.0813 29.3508 85.8438 28.8865L86.1353 28.6274L85.8114 28.5789C85.9626 28.2982 86.0381 28.0498 86.0381 27.8339L85.8924 27.2023C85.8924 27.1699 85.9032 27.143 85.9248 27.1214C85.9464 27.089 85.968 27.035 85.9895 26.9594C86.0111 26.8838 86.0327 26.7759 86.0543 26.6355C86.0867 26.4844 86.1083 26.2685 86.1191 25.9878C86.1407 25.448 86.1785 25.178 86.2325 25.178L86.362 25.3076C86.3836 25.3076 86.416 25.2536 86.4592 25.1457C86.5024 25.0377 86.524 24.9081 86.524 24.757L86.3944 24.174C86.4268 24.0336 86.47 23.8825 86.524 23.7206C86.5887 23.5586 86.6535 23.4075 86.7183 23.2671C86.7939 23.1268 86.8748 23.0134 86.9612 22.927C87.0476 22.8299 87.1393 22.7813 87.2365 22.7813C87.3229 22.7813 87.4092 22.8245 87.4956 22.9108V22.5546L88.8236 21.9716V21.5829L89.1798 21.7772C89.6117 21.1834 90.1083 20.8434 90.6697 20.757ZM92.613 23.2023L92.3539 23.3967C92.0948 23.3211 91.7871 23.2833 91.4308 23.2833C90.8371 23.2833 90.5078 23.4776 90.443 23.8663C90.3782 24.1794 90.2649 24.3953 90.1029 24.5141C89.941 24.622 89.7736 24.7084 89.6009 24.7732C89.4389 24.8272 89.2932 24.8973 89.1636 24.9837C89.0341 25.0701 88.9693 25.2374 88.9693 25.4857L88.9855 25.5019C88.9855 25.6963 88.9693 25.869 88.9369 26.0202C88.9045 26.1713 88.8667 26.3116 88.8236 26.4412C88.7804 26.56 88.7426 26.6733 88.7102 26.7813C88.6778 26.8892 88.6616 26.9972 88.6616 27.1052L88.7912 27.8987L88.694 28.4493L88.7912 29.1295L88.6616 30.5708C88.6616 31.1969 88.9477 31.672 89.5199 31.9959C89.779 32.0498 89.968 32.1416 90.0867 32.2712C90.2163 32.4007 90.3134 32.5357 90.3782 32.676C90.4538 32.8056 90.5186 32.9243 90.5725 33.0323C90.6373 33.1295 90.7453 33.178 90.8964 33.178L92.0948 32.9027C92.2136 32.9027 92.3215 32.9243 92.4187 32.9675C92.5159 32.9999 92.6076 33.0431 92.694 33.0971C92.7804 33.1403 92.8613 33.1834 92.9369 33.2266C93.0233 33.259 93.1097 33.2752 93.196 33.2752C93.304 33.2752 93.4227 33.2482 93.5523 33.1942C93.6819 33.1295 93.8006 33.0539 93.9086 32.9675C94.0165 32.8812 94.1029 32.7948 94.1677 32.7084C94.2433 32.622 94.281 32.5519 94.281 32.4979C94.281 32.4331 94.2433 32.3791 94.1677 32.3359C95.0422 31.9257 95.5172 31.17 95.5928 30.0687L95.8357 30.2307L95.528 29.1942L95.5604 28.7408L96.0948 28.9675C95.9976 28.73 95.8303 28.5789 95.5928 28.5141C95.7979 28.2766 95.9005 28.0282 95.9005 27.7691C95.9005 27.51 95.7979 27.2617 95.5928 27.0242L95.6252 26.7327C95.6252 26.5492 95.582 26.4034 95.4956 26.2955C95.42 26.1875 95.3823 26.0255 95.3823 25.8096L95.3985 25.4857C95.3985 25.3238 95.3391 25.1996 95.2203 25.1133C95.1124 25.0161 94.9828 24.9297 94.8317 24.8542C94.6913 24.7786 94.5563 24.6976 94.4268 24.6112C94.308 24.5141 94.2379 24.3791 94.2163 24.2064C94.1731 23.8825 93.833 23.6774 93.196 23.591L93.2122 23.7368C93.2122 24.1578 92.8559 24.3683 92.1434 24.3683H92.0948C92.3539 24.2388 92.4835 24.1146 92.4835 23.9959C92.4835 23.9203 92.4349 23.8501 92.3377 23.7853C92.7372 23.7745 92.9369 23.7314 92.9369 23.6558C92.9369 23.591 92.829 23.5154 92.613 23.4291V23.2023ZM109.342 35.4129C109.126 35.4129 108.97 35.4507 108.873 35.5262C108.776 35.6018 108.711 35.6396 108.678 35.6396C108.635 35.6396 108.592 35.6072 108.549 35.5424C108.517 35.4668 108.479 35.3859 108.436 35.2995C108.392 35.2131 108.349 35.1376 108.306 35.0728C108.263 34.9972 108.22 34.9594 108.176 34.9594C108.101 34.9594 108.025 35.008 107.95 35.1052C107.885 35.2023 107.815 35.2509 107.739 35.2509C107.653 35.2509 107.561 35.1807 107.464 35.0404L106.33 34.2145L107.464 34.3278L106.897 33.7934L106.8 32.7246L107.108 32.5951C106.697 32.3143 106.492 32.0876 106.492 31.9149C106.492 31.8717 106.514 31.8231 106.557 31.7691C106.6 31.7044 106.649 31.645 106.703 31.591C106.768 31.5262 106.822 31.4668 106.865 31.4129C106.908 31.3589 106.929 31.3103 106.929 31.2671V31.2185C106.929 31.1538 106.908 31.0836 106.865 31.008C106.832 30.9216 106.789 30.8353 106.735 30.7489C106.692 30.6625 106.649 30.5708 106.606 30.4736C106.573 30.3656 106.557 30.2523 106.557 30.1335L106.589 29.7772C106.589 29.4641 106.438 29.1565 106.136 28.8542C105.985 29.0053 105.909 29.1403 105.909 29.259C105.909 29.4318 106.039 29.5721 106.298 29.6801L105.618 29.9068L105.602 30.4736C105.353 30.6571 105.229 30.8353 105.229 31.008C105.229 31.1376 105.294 31.2563 105.423 31.3643L105.699 32.0606L105.1 32.1254L105.504 32.7246C105.18 32.811 104.992 32.9783 104.938 33.2266C104.894 33.4749 104.873 33.7826 104.873 34.1497V34.4088C104.873 34.8299 104.355 35.2347 103.318 35.6234L102.346 35.089C102.692 35.0026 102.865 34.9216 102.865 34.8461C102.865 34.7597 102.681 34.6787 102.314 34.6031L102.006 33.34L101.569 33.1133C101.763 32.9081 101.893 32.649 101.958 32.3359L101.699 32.174C101.85 31.9581 101.925 31.7475 101.925 31.5424C101.925 31.4021 101.882 31.2725 101.796 31.1538C101.709 31.035 101.612 30.9216 101.504 30.8137C101.407 30.6949 101.315 30.5816 101.229 30.4736C101.143 30.3548 101.1 30.2307 101.1 30.1011C101.1 29.8528 101.218 29.6099 101.456 29.3724L100.921 27.9797L101.261 27.5748C100.808 27.5748 100.581 27.3535 100.581 26.9108L100.597 26.6679L101.197 26.7489C100.948 26.5006 100.824 26.2739 100.824 26.0687C100.824 25.9608 100.867 25.8474 100.954 25.7287L100.581 25.1942L100.452 24.4655C100.452 24.3143 100.473 24.1956 100.517 24.1092C100.57 24.0121 100.597 23.9095 100.597 23.8015C100.597 23.6936 100.527 23.618 100.387 23.5748C100.257 23.5316 100.106 23.4884 99.9335 23.4453C99.7716 23.3913 99.6204 23.3157 99.4801 23.2185C99.3505 23.1214 99.2857 22.9594 99.2857 22.7327C99.2857 22.6139 99.3019 22.5222 99.3343 22.4574C99.3775 22.3926 99.4153 22.344 99.4477 22.3116C99.4909 22.2685 99.5287 22.2307 99.561 22.1983C99.6042 22.1551 99.6258 22.1011 99.6258 22.0363C99.6258 21.8744 99.5071 21.6585 99.2695 21.3886L100.257 20.9999C100.57 21.2158 100.803 21.3238 100.954 21.3238C101.019 21.3238 101.067 21.3022 101.1 21.259C101.143 21.205 101.202 21.1511 101.278 21.0971C101.353 21.0323 101.467 20.9783 101.618 20.9351C101.769 20.8811 101.99 20.8542 102.282 20.8542H102.557C102.6 21.0809 102.989 21.2266 103.723 21.2914C103.993 21.6909 104.128 22.1875 104.128 22.7813V22.9756C103.782 23.2563 103.361 23.4129 102.865 23.4453L102.735 23.1861L102.687 23.5748C102.687 23.9851 102.838 24.4385 103.14 24.9351L103.124 25.5343L103.561 26.9432C103.41 27.4614 103.334 27.8123 103.334 27.9959C103.334 28.6004 103.664 28.9513 104.322 29.0485L103.95 27.8339L104.646 28.1092C104.592 27.8069 104.549 27.5424 104.517 27.3157C104.484 27.0782 104.468 26.8677 104.468 26.6841C104.468 26.4574 104.495 26.2793 104.549 26.1497C104.603 26.0094 104.657 25.896 104.711 25.8096C104.776 25.7125 104.835 25.6261 104.889 25.5505C104.943 25.4749 104.97 25.3832 104.97 25.2752L104.905 24.9675L105.083 24.174L105.537 24.0282L105.569 23.5748C105.569 23.4129 105.553 23.2995 105.521 23.2347C105.499 23.1592 105.467 23.0998 105.423 23.0566C105.391 23.0134 105.342 22.9702 105.278 22.927C105.224 22.8731 105.164 22.7921 105.1 22.6841L105.067 22.5384C105.067 22.3872 105.186 22.2253 105.423 22.0525L105.602 21.5019C105.677 21.6747 105.742 21.761 105.796 21.761L105.828 21.4048C105.936 21.5667 106.055 21.6477 106.185 21.6477C106.346 21.6477 106.519 21.5181 106.703 21.259C107.059 21.4749 107.237 21.6963 107.237 21.923L107.108 22.425C107.108 22.5546 107.183 22.6355 107.334 22.6679L107.286 23.1052C107.286 23.2671 107.307 23.3967 107.351 23.4938C107.405 23.591 107.458 23.6828 107.512 23.7691C107.566 23.8555 107.615 23.9473 107.658 24.0444C107.712 24.1308 107.739 24.2442 107.739 24.3845L107.674 24.9675C107.674 25.0971 107.707 25.2266 107.772 25.3562C107.836 25.4749 107.907 25.5937 107.982 25.7125C108.058 25.8204 108.128 25.9338 108.193 26.0525C108.257 26.1605 108.29 26.2685 108.29 26.3764L108.209 26.8299C108.209 26.981 108.252 27.1538 108.338 27.3481C108.436 27.5316 108.549 27.7152 108.678 27.8987C108.819 28.0822 108.965 28.2442 109.116 28.3845C109.278 28.5249 109.429 28.622 109.569 28.676C109.386 28.3629 109.294 28.066 109.294 27.7853C109.294 27.5046 109.364 27.2455 109.504 27.008L109.326 26.2307C109.672 25.6909 109.844 25.3238 109.844 25.1295C109.844 25.0107 109.79 24.9513 109.683 24.9513C109.564 24.9513 109.434 24.9891 109.294 25.0647L109.666 23.7691C109.796 23.9419 109.893 24.0282 109.958 24.0282C110.012 24.0282 110.039 23.9635 110.039 23.8339L110.006 23.4776C108.873 23.1753 108.306 22.5977 108.306 21.7448V21.5829L108.954 22.3278L109.035 21.9554L108.776 21.4372C109.013 21.178 109.326 21.0485 109.715 21.0485C110.017 21.0485 110.357 21.1295 110.735 21.2914C111.135 21.1295 111.507 21.0485 111.853 21.0485C111.982 21.0485 112.128 21.0647 112.29 21.0971C112.452 21.1187 112.603 21.1619 112.743 21.2266C112.884 21.2914 113.002 21.3832 113.1 21.5019C113.197 21.6099 113.245 21.7448 113.245 21.9068C113.245 22.3926 113.051 22.6355 112.662 22.6355L112.306 22.587L112.209 23.6558C112.425 23.6558 112.533 23.7907 112.533 24.0606C112.533 24.2874 112.468 24.5843 112.338 24.9513C112.004 25.0485 111.836 25.2536 111.836 25.5667L111.917 25.9878L111.302 26.5708L111.512 27.3643C111.415 27.7206 111.367 28.1362 111.367 28.6112L111.383 29.1942L110.848 29.4857L110.865 29.6801C110.865 29.95 110.805 30.2037 110.687 30.4412C110.579 30.6679 110.525 30.8731 110.525 31.0566L110.622 31.5262C110.622 31.7961 110.427 32.2388 110.039 32.8542L109.812 34.3117L109.666 34.4736L109.877 34.4574L109.909 34.8461C109.909 35.2239 109.78 35.4129 109.521 35.4129H109.342ZM20.0268 62.757L19.4438 62.1902L20.043 61.8015L19.541 61.2347L19.4924 60.4412C19.4924 59.7934 19.6057 59.259 19.8325 58.838L19.5733 58.4979L19.9134 57.1699C19.6219 56.9 19.4762 56.6409 19.4762 56.3926C19.4762 56.1335 19.6705 55.9122 20.0592 55.7287L19.5248 54.5303C19.7083 54.2496 19.8001 54.0444 19.8001 53.9149C19.8001 53.8393 19.7785 53.7853 19.7353 53.7529C19.6921 53.7098 19.6435 53.672 19.5895 53.6396C19.5356 53.5964 19.487 53.5586 19.4438 53.5262C19.4006 53.483 19.379 53.4237 19.379 53.3481L19.4438 53.1376H18.3912C18.132 53.008 17.8783 52.9432 17.63 52.9432C17.2629 52.9432 16.8959 53.0782 16.5288 53.3481C16.0538 53.0998 15.8163 52.8461 15.8163 52.587L15.8325 52.4574L16.0754 52.3602L15.9296 51.6315L16.7069 51.0647L17.3709 51.34L18.0511 51.3076C18.0943 51.1025 18.267 50.9999 18.5693 50.9999L19.5895 51.2428C19.7191 51.2428 19.7839 51.1672 19.7839 51.0161L19.7677 50.8704L20.1239 50.7246L19.6381 49.4614L20.3345 49.5262L19.6705 48.6841C19.8217 48.4034 19.8972 48.0255 19.8972 47.5505L19.7191 45.9473L20.6098 46.1254C20.653 45.6396 20.9013 45.3967 21.3547 45.3967C21.5922 45.3967 21.8837 45.4614 22.2292 45.591V45.8339C22.2292 46.0822 22.2508 46.2874 22.294 46.4493C22.348 46.6112 22.375 46.7678 22.375 46.9189C22.375 47.0485 22.2832 47.3454 22.0997 47.8096L22.6179 48.0687L21.7758 48.8299L22.4397 49.4614L21.9215 49.4938L22.4883 50.0444C22.1644 50.3899 22.0025 50.6166 22.0025 50.7246C22.0025 50.7894 22.0511 50.8218 22.1482 50.8218C22.2994 50.8218 22.4451 50.784 22.5855 50.7084L22.5045 51.5991L23.0065 51.6639L23.1199 51.2266L23.7839 51.4695C24.0214 51.34 24.2913 51.2752 24.5936 51.2752C24.7771 51.2752 25.0956 51.3346 25.5491 51.4533C25.657 51.2806 25.8028 51.1942 25.9863 51.1942C26.213 51.1942 26.4937 51.3292 26.8284 51.5991L27.0065 51.178L27.8001 52.1173L27.9458 52.5708C27.7299 52.5924 27.6219 52.6733 27.6219 52.8137C27.6219 52.9756 27.7245 53.1915 27.9296 53.4614L27.1847 53.2023C26.8716 53.4507 26.6179 53.5748 26.4235 53.5748C26.2616 53.5748 26.1482 53.4776 26.0835 53.2833L25.6948 53.5586C25.4681 53.4291 25.236 53.3643 24.9984 53.3643L24.3345 53.5424C24.0862 53.3589 23.8594 53.2671 23.6543 53.2671C23.4492 53.2671 23.2225 53.3589 22.9742 53.5424L22.4559 53.3643C22.2292 53.5802 22.1159 53.7853 22.1159 53.9797L22.1968 54.2712L21.8405 54.6274L22.2616 54.9837L21.8729 55.6153L22.1968 56.0202L21.9215 56.587C22.1159 56.7489 22.213 56.9054 22.213 57.0566C22.213 57.2077 22.1159 57.3535 21.9215 57.4938V58.9351L22.1968 59.0647V60.1497L21.9215 60.0849L22.2616 62.1416L21.9539 62.2226L22.1968 62.9351H22.2616C22.769 62.9351 23.0227 63.0377 23.0227 63.2428L22.958 63.4695L23.5895 63.6477V63.2914H24.8365L25.0794 63.6153L25.6624 63.34C25.8567 62.6706 26.2454 62.2226 26.8284 61.9959L26.8122 61.4614C26.9202 61.2347 27.0335 61.1214 27.1523 61.1214C27.2603 61.1214 27.3898 61.2509 27.541 61.51L27.9296 61.6558L27.6057 62.4493L28.2373 62.6598L27.7677 63.5505L27.0065 63.5829L26.6988 63.9716L27.6543 63.761C26.877 64.9486 25.7488 65.5424 24.2697 65.5424H24.0754C23.8378 65.6828 23.5895 65.7529 23.3304 65.7529C23.0605 65.7529 22.7906 65.6666 22.5207 65.4938L22.1968 65.5586C21.7002 65.5586 21.2198 65.17 20.7555 64.3926L20.464 64.4412C20.0538 64.4412 19.8109 64.1011 19.7353 63.421L20.0268 62.757ZM31.9465 64.0525C31.9249 63.8582 31.8709 63.7125 31.7845 63.6153C31.7089 63.5181 31.6172 63.4372 31.5092 63.3724C31.412 63.2968 31.3149 63.2212 31.2177 63.1457C31.1205 63.0701 31.045 62.9567 30.991 62.8056C30.937 62.676 30.8614 62.5573 30.7643 62.4493C30.6779 62.3413 30.5861 62.2442 30.489 62.1578C30.4026 62.0714 30.3216 61.9959 30.2461 61.9311C30.1813 61.8663 30.1489 61.8123 30.1489 61.7691L30.1003 61.17L30.1813 60.6841L30.0517 59.9716L30.1003 59.8744L30.4728 59.842L30.1003 59.7934C30.1759 59.5559 30.2622 59.4372 30.3594 59.4372C30.3054 59.34 30.2461 59.259 30.1813 59.1942C30.1165 59.1187 30.0517 59.0431 29.9869 58.9675C29.933 58.8812 29.8844 58.784 29.8412 58.676C29.798 58.5681 29.7764 58.4331 29.7764 58.2712L29.8736 57.7044C30.0139 57.7044 30.0841 57.6612 30.0841 57.5748C30.0841 57.51 30.0409 57.4129 29.9546 57.2833C29.879 57.143 29.8412 57.0242 29.8412 56.927C29.8412 56.7975 29.8898 56.7003 29.9869 56.6355C30.0949 56.56 30.1489 56.4628 30.1489 56.344L30.1003 56.1497C30.1759 55.8474 30.2676 55.5451 30.3756 55.2428C30.4836 54.9297 30.6077 54.6166 30.7481 54.3036L30.8452 54.4169L30.8938 54.3197L30.8129 54.0606C31.0936 53.9635 31.3311 53.7583 31.5254 53.4453H31.7359L31.8331 53.2347L31.7845 53.1861L31.5902 53.2509C31.8709 52.9702 32.0544 52.7057 32.1408 52.4574H32.578L32.6752 52.1983C32.6968 52.1119 32.7562 52.0687 32.8533 52.0687L33.0315 52.1011L32.9829 51.923C33.3284 51.8798 33.6091 51.7341 33.825 51.4857L34.0517 51.5667L34.1003 51.3886H35.072L35.2501 51.1295L35.3797 51.2104L35.5092 51.0323L36.0436 50.9513V50.7732L36.2218 50.757C36.3405 50.9081 36.4809 50.9837 36.6428 50.9837L36.8857 50.9513L36.9829 51.2104L37.242 51.178L37.3392 51.3562L37.6631 51.3076L38.1327 51.3886L38.2623 51.3076L38.2784 51.7448L38.408 51.3076C38.5268 51.4264 38.6725 51.5127 38.8452 51.5667C38.9424 51.7934 39.1206 51.9122 39.3797 51.923C39.4984 52.1173 39.6766 52.2361 39.9141 52.2793C40.076 52.5492 40.3135 52.7273 40.6266 52.8137L40.9505 53.2185C41.0585 53.2509 41.1125 53.3049 41.1125 53.3805L41.0639 53.5262L41.4201 53.6558L41.404 53.7529C41.404 53.8177 41.4309 53.8501 41.4849 53.8501L41.6954 53.7853L41.5983 53.9311L42.1327 54.8542L42.0517 55.0323L42.1813 55.1295C42.2353 55.3022 42.3378 55.4803 42.489 55.6639L42.4242 55.9878L42.489 56.3602L42.408 56.4088L42.4728 56.5546L42.408 56.6841L42.489 57.2509L42.408 57.9149L42.2299 58.0121L42.2784 58.8704L42.1327 58.4493L41.8736 58.7246C41.4094 58.7354 41.0531 58.9567 40.8048 59.3886C40.6752 59.1834 40.578 59.0809 40.5133 59.0809C40.4593 59.0809 40.4323 59.1619 40.4323 59.3238V59.4695L40.2056 59.5667V59.5181C40.2056 59.4102 40.13 59.3562 39.9789 59.3562C39.8277 59.3562 39.6712 59.4426 39.5092 59.6153C39.4552 59.4857 39.3635 59.421 39.2339 59.421L39.1529 59.4372C39.1098 59.2968 39.0396 59.2266 38.9424 59.2266L38.7967 59.259C38.6671 59.0863 38.516 58.9999 38.3432 58.9999L38.0517 59.0809H37.5659L37.2744 58.9999L36.9343 59.0809L36.74 59.0485C36.5672 59.0485 36.3945 59.1187 36.2218 59.259H36.0922C35.8871 59.1187 35.6928 59.0485 35.5092 59.0485L35.3311 59.0809C35.2447 58.9297 35.1475 58.8542 35.0396 58.8542L34.6995 58.9837C34.5052 58.9837 34.3486 59.0755 34.2299 59.259H33.825C33.6523 59.1187 33.4579 59.0485 33.242 59.0485C33.0369 59.0485 32.8318 59.1187 32.6266 59.259L32.7238 59.4695C32.6482 59.5775 32.6104 59.6855 32.6104 59.7934C32.6104 59.923 32.6482 60.0417 32.7238 60.1497L32.6752 60.425C32.6752 60.7489 32.8695 60.9972 33.2582 61.17L33.161 61.2023C33.2474 61.3535 33.3122 61.4938 33.3554 61.6234C33.4093 61.7421 33.4633 61.8609 33.5173 61.9797C33.5821 62.0876 33.6577 62.1902 33.744 62.2874C33.8412 62.3845 33.9708 62.4817 34.1327 62.5789L34.0517 62.8865C34.0517 63.0377 34.1435 63.1133 34.327 63.1133H34.408L34.3918 63.259C34.3918 63.367 34.4242 63.421 34.489 63.421L34.5861 63.3886L34.6347 63.5667V63.1619C34.7751 62.9567 35.0072 62.8542 35.3311 62.8542L35.2501 62.757C35.3797 62.7354 35.4822 62.676 35.5578 62.5789L36.0922 63.1619C35.8871 63.3022 35.7683 63.4372 35.7359 63.5667L36.076 63.6315L36.4485 63.5667C36.578 63.7287 36.7454 63.8096 36.9505 63.8096L37.2906 63.7448L36.9181 63.5829C37.3608 63.5505 37.5821 63.4102 37.5821 63.1619L37.5659 63.0323L37.7602 63.0647C37.9114 63.0647 38.0517 62.9945 38.1813 62.8542C38.3216 62.9621 38.4512 63.0161 38.5699 63.0161C38.7859 63.0161 38.9586 62.8326 39.0882 62.4655C39.3365 62.3791 39.4606 62.282 39.4606 62.174L39.4444 62.1092C39.574 62.0984 39.6388 62.0444 39.6388 61.9473L39.6226 61.8501C39.7845 61.7529 39.9303 61.6018 40.0598 61.3967H40.1408C40.3891 61.3967 40.5133 61.2509 40.5133 60.9594L41.0153 61.2833L40.9019 61.0566L41.3554 60.8623L41.2744 61.4453L41.3878 61.4291C41.4094 61.4291 41.4579 61.4399 41.5335 61.4614C41.6199 61.483 41.7062 61.5154 41.7926 61.5586C41.879 61.6018 41.9546 61.6504 42.0193 61.7044C42.0949 61.7583 42.1327 61.8231 42.1327 61.8987C42.1327 61.9851 42.1003 62.0606 42.0355 62.1254C41.9708 62.1902 41.9384 62.2658 41.9384 62.3521L41.9708 62.5141L41.6145 62.6922L41.5335 63.1295C41.4471 63.1511 41.3392 63.1996 41.2096 63.2752C41.0909 63.34 41.0315 63.4318 41.0315 63.5505L41.0801 63.7448C40.9073 63.7772 40.821 63.8744 40.821 64.0363L40.8048 64.2307C40.5241 64.3278 40.2865 64.533 40.0922 64.8461C39.8979 64.8677 39.7467 64.9594 39.6388 65.1214H39.5092C39.3689 64.8839 39.1475 64.7651 38.8452 64.7651C38.8021 64.8083 38.7589 64.8677 38.7157 64.9432C38.6725 65.008 38.6239 65.0782 38.5699 65.1538C38.5268 65.2185 38.4782 65.2779 38.4242 65.3319C38.381 65.3751 38.3378 65.3967 38.2946 65.3967L38.0841 65.3805C37.9654 65.3805 37.8466 65.4291 37.7278 65.5262C37.6199 65.6234 37.4741 65.672 37.2906 65.672L37.0315 65.6558L36.578 65.4776C36.4053 65.618 36.1948 65.6882 35.9465 65.6882L35.4282 65.591L35.3311 65.7368L34.8776 65.4291C34.856 65.3319 34.8237 65.2833 34.7805 65.2833L34.7157 65.2995C34.6077 65.1592 34.462 65.089 34.2784 65.089L34.0517 65.1214C33.6523 65.035 33.3122 64.8839 33.0315 64.6679C32.9775 64.4844 32.8857 64.3926 32.7562 64.3926L32.6752 64.4088L32.578 63.9554L32.2218 63.8744C32.0922 63.8744 32.0004 63.9338 31.9465 64.0525ZM35.072 56.6517L35.2663 56.6031L35.7359 56.6841C35.9842 56.8353 36.2218 56.9108 36.4485 56.9108C36.8587 56.9108 37.2744 56.7003 37.6954 56.2793L37.8574 56.9108L37.9546 56.8299L38.0031 56.2793C38.0571 56.4952 38.1111 56.6031 38.1651 56.6031C38.2299 56.6031 38.2946 56.4952 38.3594 56.2793C38.5214 56.4628 38.7049 56.5546 38.91 56.5546L39.072 56.5384L39.2501 56.6841C39.4444 56.587 39.5416 56.4628 39.5416 56.3116C39.5416 56.1929 39.5038 56.0795 39.4282 55.9716L39.2501 56.0202L39.3635 55.8258L39.2339 55.7772C39.2231 55.6045 39.2015 55.4803 39.1691 55.4048C39.1475 55.3292 39.1152 55.2806 39.072 55.259C39.0288 55.2266 38.9748 55.205 38.91 55.1942C38.8452 55.1834 38.7643 55.1457 38.6671 55.0809C38.5591 55.1349 38.4998 55.2212 38.489 55.34C38.4134 55.2968 38.273 55.2698 38.0679 55.259L37.9869 55.3238L37.9546 55.1133C37.879 55.0593 37.8358 54.9999 37.825 54.9351C37.825 54.8596 37.7872 54.7678 37.7116 54.6598C37.6469 54.5411 37.5713 54.4277 37.4849 54.3197C37.3986 54.201 37.3068 54.0984 37.2096 54.0121L36.8048 53.9311L36.9829 54.174L36.6266 54.0121L36.5457 54.1902C36.4161 54.1902 36.3351 54.255 36.3027 54.3845L36.2056 54.3197C36.1516 54.3197 36.1246 54.4061 36.1246 54.5789C36.0814 54.4385 36.0382 54.3683 35.995 54.3683C35.9519 54.3683 35.9249 54.4007 35.9141 54.4655L35.4282 54.3683L35.5092 54.1092C35.5092 54.0013 35.439 53.9257 35.2987 53.8825V54.1092C35.0612 54.1524 34.9424 54.2496 34.9424 54.4007V54.4655C34.7481 54.4979 34.6509 54.6004 34.6509 54.7732L34.7157 54.9351C34.6293 54.9567 34.5861 55.0323 34.5861 55.1619C34.0139 55.3454 33.7278 55.5451 33.7278 55.761C33.7278 55.8582 33.7764 55.9446 33.8736 56.0202L33.9546 55.8906C34.1813 56.2037 34.4404 56.398 34.7319 56.4736L34.8291 56.7165L35.072 56.6517ZM33.2906 56.1011L33.5821 56.004L33.3878 55.8744L33.2906 56.1011ZM41.906 58.8542L42.0517 59.0161C41.9222 59.1673 41.7818 59.2428 41.6307 59.2428C41.5227 59.2428 41.4094 59.1996 41.2906 59.1133C41.3986 58.9837 41.6037 58.8973 41.906 58.8542ZM38.1003 59.2104C38.2083 59.1349 38.3108 59.0971 38.408 59.0971C38.5376 59.0971 38.6455 59.1888 38.7319 59.3724L38.1003 59.2104ZM29.7602 60.1983L29.906 60.1011C29.9492 60.1011 29.9869 60.1875 30.0193 60.3602C30.0301 60.4358 30.0355 60.5006 30.0355 60.5546C30.0355 60.6409 30.0139 60.7111 29.9708 60.7651C29.9276 60.7651 29.879 60.6139 29.825 60.3117L29.7602 60.1983ZM34.3594 62.4979L34.4404 62.676L34.2784 62.7246L34.3594 62.4979ZM36.9019 63.178H37.2096C37.2096 63.232 37.0477 63.3292 36.7238 63.4695C36.5726 63.4156 36.4971 63.3562 36.4971 63.2914C36.4971 63.2266 36.605 63.1511 36.821 63.0647L36.9019 63.178ZM30.91 64.3117L30.8452 64.4736L30.7157 64.3602L30.91 64.3117ZM39.072 64.9756H39.2015L39.1691 65.1052C39.1691 65.1807 39.2123 65.2455 39.2987 65.2995L39.1206 65.4776H38.8938L38.8452 65.1538L39.072 64.9756ZM43.1698 65.2347C42.997 64.9 42.9107 64.56 42.9107 64.2145C42.9107 63.8366 43.0888 63.5829 43.4451 63.4534C43.4559 63.1295 43.6988 62.9675 44.1738 62.9675L44.4653 62.9837C44.6381 62.649 44.7244 62.2172 44.7244 61.6882C44.7244 61.4183 44.6867 61.1753 44.6111 60.9594C44.5355 60.7435 44.4977 60.5222 44.4977 60.2955C44.4977 60.1659 44.5085 60.0471 44.5301 59.9392C44.5625 59.8204 44.5895 59.7071 44.6111 59.5991C44.6435 59.4911 44.6705 59.3778 44.692 59.259C44.7244 59.1403 44.7406 58.9999 44.7406 58.838C44.7406 58.6544 44.7136 58.4277 44.6597 58.1578C44.6165 57.8771 44.5517 57.5478 44.4653 57.1699C44.7136 57.0404 44.8378 56.8892 44.8378 56.7165C44.8378 56.5438 44.7136 56.344 44.4653 56.1173L44.9835 55.8096C44.5301 55.5397 44.3034 55.2536 44.3034 54.9513C44.3034 54.7246 44.4491 54.4871 44.7406 54.2388C44.6327 53.8393 44.4977 53.6396 44.3358 53.6396C44.2386 53.6396 44.1306 53.699 44.0119 53.8177C44.0119 53.4183 43.9255 53.2185 43.7528 53.2185L43.6232 53.2509C43.4181 52.981 43.3155 52.5438 43.3155 51.9392L43.3317 51.5343L43.8661 51.421C44.0389 50.8919 44.2926 50.6274 44.6273 50.6274C44.9404 50.6274 45.3182 50.865 45.7609 51.34L46.3601 50.838C46.3601 51.5397 46.441 51.8906 46.603 51.8906C46.6786 51.8906 46.7757 51.8366 46.8945 51.7287C47.024 51.6099 47.1266 51.5505 47.2022 51.5505C47.2777 51.5505 47.3371 51.5829 47.3803 51.6477C47.4343 51.7017 47.4883 51.7287 47.5423 51.7287C47.661 51.7287 47.7798 51.5343 47.8985 51.1457L47.9957 51.1619C48.0929 51.1619 48.163 51.1295 48.2062 51.0647C48.2602 50.9999 48.3088 50.9297 48.352 50.8542C48.3952 50.7678 48.4545 50.6922 48.5301 50.6274C48.6165 50.5519 48.7406 50.5141 48.9026 50.5141C49.2589 50.5141 49.4424 50.6976 49.4532 51.0647L49.9552 50.838C50.1387 50.8919 50.3223 50.9675 50.5058 51.0647C50.6894 51.1511 50.8675 51.2644 51.0402 51.4048L51.0078 51.8096L51.7852 52.0363C51.9579 51.9716 52.0443 51.8906 52.0443 51.7934C52.0443 51.6963 51.9471 51.5721 51.7528 51.421L52.7568 51.5343C52.8648 51.286 53.0375 51.0755 53.275 50.9027C53.5557 51.2158 53.912 51.3724 54.3439 51.3724L55.0888 51.2428C55.2076 51.7179 55.5207 52.1065 56.0281 52.4088L55.8985 53.0404C55.8985 53.3535 55.9957 53.645 56.19 53.9149L56.0605 55.2266L56.3358 55.3562L56.0119 56.3926C56.0119 56.6409 56.0983 56.8353 56.271 56.9756C56.0551 57.5694 55.9471 58.0444 55.9471 58.4007C55.9471 58.7462 56.0551 59.286 56.271 60.0202C56.1199 60.56 56.0443 60.9324 56.0443 61.1376C56.0443 61.3427 56.1199 61.7044 56.271 62.2226L55.9795 62.9513C56.1199 63.2428 56.271 63.3886 56.4329 63.3886C56.5409 63.3886 56.6435 63.3238 56.7406 63.1942V63.2914C56.7406 63.6261 56.8864 63.8744 57.1779 64.0363V64.1173C57.1779 64.7003 56.9566 65.2131 56.5139 65.6558C56.352 65.5586 56.1792 65.51 55.9957 65.51C55.7474 65.51 55.4775 65.591 55.186 65.7529L55.0402 65.4614L54.603 65.7529L54.6516 65.5424C54.6516 65.4021 54.5598 65.3157 54.3763 65.2833C54.3763 65.4561 54.1333 65.5802 53.6475 65.6558L52.8054 65.2509L52.4815 65.4129L52.3196 65.1861C52.5247 65.0566 52.6273 64.8569 52.6273 64.587L52.5463 64.1335C52.352 64.1875 52.2548 64.3224 52.2548 64.5384L52.3034 64.8785L52.1252 64.8461C52.0065 64.8461 51.9471 64.8946 51.9471 64.9918C51.9471 65.0998 52.0227 65.2779 52.1738 65.5262C51.9147 65.4291 51.6664 65.3805 51.4289 65.3805C51.0618 65.3805 50.7217 65.5046 50.4086 65.7529C50.0956 65.4938 49.7447 65.3643 49.356 65.3643L49.2265 65.3967C49.2265 65.5802 49.1185 65.672 48.9026 65.672L48.6921 65.6558L48.3358 65.1861L48.4167 64.7489C48.4167 64.5546 48.3682 64.3494 48.271 64.1335L48.6435 63.6477L48.773 63.7125C48.9889 63.7125 49.2535 63.2806 49.5665 62.4169L49.0969 61.5424L49.4046 61.4129C49.2319 61.1106 49.1455 60.7057 49.1455 60.1983C49.1455 59.6261 49.2589 58.9351 49.4856 58.1254H49.4532C49.2157 58.1254 49.0969 57.9851 49.0969 57.7044L49.1455 57.3481C49.329 57.4668 49.4748 57.6504 49.5827 57.8987L49.7933 57.7691C49.7501 57.564 49.5504 57.2995 49.1941 56.9756C49.2157 56.4574 49.3614 55.9176 49.6313 55.3562L48.8216 55.1942C49.0375 54.8164 49.1455 54.5249 49.1455 54.3197C49.1455 54.1578 49.0807 54.0498 48.9512 53.9959L48.7082 54.1254V53.8177C48.3088 53.8501 48.1091 53.9527 48.1091 54.1254L48.1252 54.2064L47.7204 54.2226C47.8823 54.3521 47.9633 54.5033 47.9633 54.676L47.8985 54.9675L47.769 54.9513C47.4019 54.9513 47.2184 55.205 47.2184 55.7125L47.2346 56.0202C46.9107 56.4628 46.7487 56.9972 46.7487 57.6234C46.7487 58.0336 46.8135 58.4871 46.9431 58.9837C46.7811 59.3076 46.7001 59.6423 46.7001 59.9878C46.7001 60.344 46.7811 60.7057 46.9431 61.0728L46.7163 62.1254C46.7163 62.8704 47.1104 63.4102 47.8985 63.7448L47.9471 64.0363C47.9471 64.2523 47.8553 64.4196 47.6718 64.5384L48.0443 65.17L47.2508 65.3967L47.1212 65.7368L46.7811 65.4938C46.6732 65.6666 46.4626 65.7529 46.1495 65.7529C45.8149 65.7529 45.3668 65.6558 44.8054 65.4614C44.5355 65.6018 44.2278 65.672 43.8823 65.672C43.5153 65.672 43.2616 65.6342 43.1212 65.5586L43.1698 65.2347ZM52.2386 63.0809C52.3574 63.3292 52.5571 63.4587 52.8378 63.4695C52.9566 63.3184 53.0915 63.2428 53.2427 63.2428L53.4208 63.2752C53.4316 63.0377 53.5288 62.9081 53.7123 62.8865L53.7609 62.3359C53.7609 61.9473 53.6745 61.7206 53.5018 61.6558V61.5748C53.5018 61.2077 53.6961 60.9162 54.0848 60.7003L54.101 60.4088C54.101 60.1605 54.0416 60.0363 53.9228 60.0363L53.7123 60.1173C53.8958 59.5127 53.9876 59.1025 53.9876 58.8865C53.9876 58.5735 53.9228 58.2874 53.7933 58.0282L54.0038 57.8987L54.0362 57.2347C54.0362 56.8029 53.966 56.587 53.8257 56.587L53.8904 55.4534L54.0524 55.259C53.7069 54.9999 53.5342 54.703 53.5342 54.3683C53.5342 54.1524 53.5989 53.9203 53.7285 53.672L53.4532 53.591C53.2696 53.591 53.1617 53.7314 53.1293 54.0121C53.0645 53.7853 52.9404 53.6396 52.7568 53.5748C52.7028 53.8231 52.5841 53.9473 52.4006 53.9473L52.0767 53.8663L52.0929 54.676C51.7474 54.8919 51.5746 55.2806 51.5746 55.842L51.6718 56.6517L51.4127 57.0728L51.688 57.3481C51.634 57.6072 51.5099 57.7368 51.3155 57.7368C51.553 58.0714 51.6772 58.4871 51.688 58.9837H51.607C51.4127 58.9837 51.3155 59.1834 51.3155 59.5829V59.6477C51.5315 59.8636 51.6394 60.0849 51.6394 60.3117C51.6394 60.5168 51.5584 60.7381 51.3965 60.9756C51.5261 61.1592 51.5908 61.3589 51.5908 61.5748C51.5908 61.8123 51.5099 62.0498 51.3479 62.2874C51.5854 62.3305 51.7042 62.5735 51.7042 63.0161L51.688 63.3724L52.2386 63.0809ZM52.8702 63.7287C52.8702 64.3656 52.9134 64.6841 52.9997 64.6841C53.0861 64.6841 53.2265 64.3224 53.4208 63.5991L52.8702 63.7287ZM44.3034 63.1619L44.0605 63.1457C43.769 63.1457 43.6232 63.232 43.6232 63.4048L44.3034 63.1619ZM58.3445 71.8744C58.3445 71.7664 58.3229 71.7125 58.2797 71.7125C58.2689 71.7233 58.2582 71.7287 58.2474 71.7287C58.2042 71.7287 58.1718 71.7125 58.1502 71.6801C58.107 71.6585 58.0692 71.6261 58.0368 71.5829C58.0152 71.5397 58.0044 71.4749 58.0044 71.3886C58.0044 71.313 58.0206 71.2482 58.053 71.1942C58.0962 71.1511 58.134 71.1079 58.1664 71.0647C58.2096 71.0323 58.2474 70.9945 58.2797 70.9513C58.3229 70.9081 58.3445 70.8542 58.3445 70.7894V70.7084C58.636 70.5357 58.798 70.3845 58.8304 70.255L58.7494 70.0606C58.7818 69.9203 58.8951 69.8015 59.0895 69.7044C59.0895 69.3373 58.9761 68.9486 58.7494 68.5384V67.9392L59.3162 66.6598C59.1974 66.3683 59.1218 66.093 59.0895 65.8339C59.1434 65.4453 59.1704 65.143 59.1704 64.927C59.1704 64.7111 59.1434 64.5816 59.0895 64.5384V62.6112L59.219 62.255C59.0895 62.255 59.0247 62.0552 59.0247 61.6558L59.0895 60.7975L59.2838 60.8137C59.1758 60.6301 59.1218 60.4682 59.1218 60.3278C59.1218 60.2955 59.1272 60.2631 59.138 60.2307V59.4534C59.138 58.9891 59.0841 58.5789 58.9761 58.2226L59.0895 57.8663L59.0409 56.1011C58.9977 55.9824 58.9005 55.8474 58.7494 55.6963L58.9275 54.6922V53.9959C58.9275 53.7368 58.8465 53.5802 58.6846 53.5262L57.2433 53.2347L57.1299 53.1214L57.0814 51.8258C57.4053 51.6315 57.8263 51.5343 58.3445 51.5343H58.5712C58.8411 51.2968 59.3864 51.178 60.2069 51.178H60.304C60.5955 51.5559 60.941 51.7448 61.3405 51.7448C61.5888 51.7448 61.7237 51.6909 61.7453 51.5829L62.3769 51.5991C62.9815 51.5991 63.4997 51.3994 63.9316 50.9999C64.2878 51.1187 64.5631 51.178 64.7575 51.178C65.0922 51.178 65.4484 51.0809 65.8263 50.8865H65.9397L66.3931 51.178C66.8897 51.6747 67.5267 52.0094 68.304 52.1821C68.3904 52.2145 68.4714 52.2955 68.547 52.425C68.6333 52.5438 68.7197 52.6895 68.8061 52.8623C68.8924 53.0242 68.9896 53.1915 69.0976 53.3643C69.2163 53.537 69.3513 53.6882 69.5024 53.8177V53.9635C69.5024 54.4817 69.6967 54.9405 70.0854 55.34L70.2959 56.6679L70.2474 57.2671L70.4255 57.0404V57.4453C70.2636 57.7583 70.1826 58.093 70.1826 58.4493L70.2474 59.0323L69.9073 59.4534C70.0692 59.7017 70.1502 59.9338 70.1502 60.1497C70.1502 60.3872 70.0692 60.6193 69.9073 60.8461V60.8946C69.9073 61.51 69.7183 62.12 69.3405 62.7246L69.4538 62.7894C69.3783 63.178 69.2595 63.5883 69.0976 64.0202H69.0652C68.9896 64.0202 68.8546 64.1227 68.6603 64.3278C68.466 64.5978 68.3256 64.7543 68.2393 64.7975C68.1529 64.8299 68.1097 64.8515 68.1097 64.8623L68.2231 64.927C68.1475 64.9918 68.0503 65.0242 67.9316 65.0242L67.7858 65.008L67.6563 65.1376C67.3756 65.1807 67.0733 65.3157 66.7494 65.5424C66.5982 65.5532 66.4579 65.6018 66.3283 65.6882C66.1988 65.7745 66.0422 65.8177 65.8587 65.8177L64.9032 65.7206C64.5901 65.591 64.2662 65.5262 63.9316 65.5262L63.2352 65.6072C63.0949 65.4884 62.9383 65.3805 62.7656 65.2833C62.6036 65.1753 62.4147 65.0836 62.1988 65.008L60.9842 65.0728C60.9194 65.3211 60.887 65.5748 60.887 65.8339L60.9356 66.4817C60.7845 66.6652 60.7089 66.8434 60.7089 67.0161C60.7089 67.2428 60.8438 67.4534 61.1138 67.6477L61.0328 68.3278C61.0328 69.3211 61.632 69.8177 62.8304 69.8177L63.3486 69.8825C63.6617 70.228 63.8182 70.5357 63.8182 70.8056C63.8182 71.2158 63.4889 71.5721 62.8304 71.8744C62.3553 71.6261 61.8425 71.5019 61.2919 71.5019L61.049 71.3724L60.9842 71.5181C60.887 71.4534 60.6765 71.394 60.3526 71.34C60.2662 71.2536 60.1529 71.1619 60.0125 71.0647C59.8722 70.9675 59.6994 70.865 59.4943 70.757C59.3432 70.8542 59.1974 70.9027 59.0571 70.9027C58.9167 70.9027 58.7926 70.8542 58.6846 70.757L58.6036 71.0485C58.6036 71.2536 58.7278 71.4534 58.9761 71.6477L58.3445 71.8744ZM65.0814 53.2347C64.6819 53.2779 64.2986 53.4507 63.9316 53.7529L63.7372 53.7368C63.3486 53.7368 63.0301 53.9581 62.7818 54.4007C62.3391 54.649 62.0314 55.0593 61.8587 55.6315C61.6752 55.7071 61.5024 55.8258 61.3405 55.9878L61.2757 56.9756C61.0706 56.9756 60.8978 57.0566 60.7575 57.2185V57.4453C60.7575 58.1902 60.9518 58.9351 61.3405 59.6801C61.2217 60.004 61.1623 60.2361 61.1623 60.3764C61.1623 60.7003 61.2757 61.0134 61.5024 61.3157C61.6428 62.255 62.2204 62.9027 63.2352 63.259C63.4511 63.6693 63.8344 63.9446 64.385 64.0849L64.7899 63.9068L66.4579 63.6639C66.609 63.4156 66.7062 63.1457 66.7494 62.8542C67.2568 62.6058 67.5105 62.2118 67.5105 61.672L67.4943 61.4453C68.0881 61.0134 68.385 60.5276 68.385 59.9878C68.385 59.5451 68.2015 59.0917 67.8344 58.6274L68.1907 57.8987C68.3418 57.8123 68.4174 57.6936 68.4174 57.5424C68.4174 57.4345 68.385 57.3211 68.3202 57.2023C68.2555 57.0836 68.2231 56.981 68.2231 56.8946L68.3202 56.5384C68.3202 56.4628 68.277 56.398 68.1907 56.344C68.1151 56.2901 68.0287 56.2361 67.9316 56.1821C67.8344 56.1281 67.7426 56.0687 67.6563 56.004C67.5807 55.9284 67.5429 55.842 67.5429 55.7448L67.5753 55.4372C67.5753 55.0593 67.4349 54.7138 67.1542 54.4007C67.0679 53.6234 66.3769 53.2347 65.0814 53.2347ZM61.3243 55.6477C61.3999 55.5073 61.4808 55.4372 61.5672 55.4372C61.5996 55.4372 61.632 55.448 61.6644 55.4695L61.3891 55.1619L61.3243 55.6477ZM59.1866 66.676C59.1111 66.8596 59.0139 66.9891 58.8951 67.0647L58.8142 66.838C58.9005 66.7192 58.9707 66.5195 59.0247 66.2388L59.1866 66.676ZM58.798 71.0809C58.9599 71.0809 59.0733 71.0917 59.138 71.1133H59.1542C59.219 71.1133 59.3054 71.0647 59.4133 70.9675C59.5969 71.0215 59.6887 71.0971 59.6887 71.1942C59.6887 71.313 59.4889 71.421 59.0895 71.5181L58.798 71.0809ZM74.167 64.0525C74.1454 63.8582 74.0915 63.7125 74.0051 63.6153C73.9295 63.5181 73.8377 63.4372 73.7298 63.3724C73.6326 63.2968 73.5355 63.2212 73.4383 63.1457C73.3411 63.0701 73.2655 62.9567 73.2116 62.8056C73.1576 62.676 73.082 62.5573 72.9848 62.4493C72.8985 62.3413 72.8067 62.2442 72.7095 62.1578C72.6232 62.0714 72.5422 61.9959 72.4666 61.9311C72.4019 61.8663 72.3695 61.8123 72.3695 61.7691L72.3209 61.17L72.4019 60.6841L72.2723 59.9716L72.3209 59.8744L72.6933 59.842L72.3209 59.7934C72.3965 59.5559 72.4828 59.4372 72.58 59.4372C72.526 59.34 72.4666 59.259 72.4019 59.1942C72.3371 59.1187 72.2723 59.0431 72.2075 58.9675C72.1535 58.8812 72.105 58.784 72.0618 58.676C72.0186 58.5681 71.997 58.4331 71.997 58.2712L72.0942 57.7044C72.2345 57.7044 72.3047 57.6612 72.3047 57.5748C72.3047 57.51 72.2615 57.4129 72.1751 57.2833C72.0996 57.143 72.0618 57.0242 72.0618 56.927C72.0618 56.7975 72.1104 56.7003 72.2075 56.6355C72.3155 56.56 72.3695 56.4628 72.3695 56.344L72.3209 56.1497C72.3965 55.8474 72.4882 55.5451 72.5962 55.2428C72.7041 54.9297 72.8283 54.6166 72.9687 54.3036L73.0658 54.4169L73.1144 54.3197L73.0334 54.0606C73.3141 53.9635 73.5516 53.7583 73.746 53.4453H73.9565L74.0537 53.2347L74.0051 53.1861L73.8108 53.2509C74.0915 52.9702 74.275 52.7057 74.3614 52.4574H74.7986L74.8958 52.1983C74.9174 52.1119 74.9768 52.0687 75.0739 52.0687L75.2521 52.1011L75.2035 51.923C75.549 51.8798 75.8297 51.7341 76.0456 51.4857L76.2723 51.5667L76.3209 51.3886H77.2925L77.4707 51.1295L77.6002 51.2104L77.7298 51.0323L78.2642 50.9513V50.7732L78.4423 50.757C78.5611 50.9081 78.7014 50.9837 78.8634 50.9837L79.1063 50.9513L79.2035 51.2104L79.4626 51.178L79.5597 51.3562L79.8836 51.3076L80.3533 51.3886L80.4828 51.3076L80.499 51.7448L80.6286 51.3076C80.7473 51.4264 80.8931 51.5127 81.0658 51.5667C81.163 51.7934 81.3411 51.9122 81.6002 51.923C81.719 52.1173 81.8971 52.2361 82.1346 52.2793C82.2966 52.5492 82.5341 52.7273 82.8472 52.8137L83.1711 53.2185C83.279 53.2509 83.333 53.3049 83.333 53.3805L83.2844 53.5262L83.6407 53.6558L83.6245 53.7529C83.6245 53.8177 83.6515 53.8501 83.7055 53.8501L83.916 53.7853L83.8189 53.9311L84.3533 54.8542L84.2723 55.0323L84.4019 55.1295C84.4558 55.3022 84.5584 55.4803 84.7095 55.6639L84.6448 55.9878L84.7095 56.3602L84.6286 56.4088L84.6934 56.5546L84.6286 56.6841L84.7095 57.2509L84.6286 57.9149L84.4504 58.0121L84.499 58.8704L84.3533 58.4493L84.0942 58.7246C83.6299 58.7354 83.2736 58.9567 83.0253 59.3886C82.8958 59.1834 82.7986 59.0809 82.7338 59.0809C82.6799 59.0809 82.6529 59.1619 82.6529 59.3238V59.4695L82.4261 59.5667V59.5181C82.4261 59.4102 82.3506 59.3562 82.1994 59.3562C82.0483 59.3562 81.8917 59.4426 81.7298 59.6153C81.6758 59.4857 81.584 59.421 81.4545 59.421L81.3735 59.4372C81.3303 59.2968 81.2602 59.2266 81.163 59.2266L81.0172 59.259C80.8877 59.0863 80.7365 58.9999 80.5638 58.9999L80.2723 59.0809H79.7865L79.495 58.9999L79.1549 59.0809L78.9606 59.0485C78.7878 59.0485 78.6151 59.1187 78.4423 59.259H78.3128C78.1077 59.1187 77.9133 59.0485 77.7298 59.0485L77.5516 59.0809C77.4653 58.9297 77.3681 58.8542 77.2602 58.8542L76.9201 58.9837C76.7257 58.9837 76.5692 59.0755 76.4504 59.259H76.0456C75.8728 59.1187 75.6785 59.0485 75.4626 59.0485C75.2575 59.0485 75.0523 59.1187 74.8472 59.259L74.9444 59.4695C74.8688 59.5775 74.831 59.6855 74.831 59.7934C74.831 59.923 74.8688 60.0417 74.9444 60.1497L74.8958 60.425C74.8958 60.7489 75.0901 60.9972 75.4788 61.17L75.3816 61.2023C75.468 61.3535 75.5328 61.4938 75.5759 61.6234C75.6299 61.7421 75.6839 61.8609 75.7379 61.9797C75.8027 62.0876 75.8782 62.1902 75.9646 62.2874C76.0618 62.3845 76.1913 62.4817 76.3533 62.5789L76.2723 62.8865C76.2723 63.0377 76.3641 63.1133 76.5476 63.1133H76.6286L76.6124 63.259C76.6124 63.367 76.6448 63.421 76.7095 63.421L76.8067 63.3886L76.8553 63.5667V63.1619C76.9956 62.9567 77.2278 62.8542 77.5516 62.8542L77.4707 62.757C77.6002 62.7354 77.7028 62.676 77.7784 62.5789L78.3128 63.1619C78.1077 63.3022 77.9889 63.4372 77.9565 63.5667L78.2966 63.6315L78.6691 63.5667C78.7986 63.7287 78.966 63.8096 79.1711 63.8096L79.5112 63.7448L79.1387 63.5829C79.5813 63.5505 79.8027 63.4102 79.8027 63.1619L79.7865 63.0323L79.9808 63.0647C80.1319 63.0647 80.2723 62.9945 80.4019 62.8542C80.5422 62.9621 80.6718 63.0161 80.7905 63.0161C81.0064 63.0161 81.1792 62.8326 81.3087 62.4655C81.557 62.3791 81.6812 62.282 81.6812 62.174L81.665 62.1092C81.7946 62.0984 81.8593 62.0444 81.8593 61.9473L81.8431 61.8501C82.0051 61.7529 82.1508 61.6018 82.2804 61.3967H82.3614C82.6097 61.3967 82.7338 61.2509 82.7338 60.9594L83.2359 61.2833L83.1225 61.0566L83.5759 60.8623L83.495 61.4453L83.6083 61.4291C83.6299 61.4291 83.6785 61.4399 83.7541 61.4614C83.8404 61.483 83.9268 61.5154 84.0132 61.5586C84.0996 61.6018 84.1751 61.6504 84.2399 61.7044C84.3155 61.7583 84.3533 61.8231 84.3533 61.8987C84.3533 61.9851 84.3209 62.0606 84.2561 62.1254C84.1913 62.1902 84.1589 62.2658 84.1589 62.3521L84.1913 62.5141L83.8351 62.6922L83.7541 63.1295C83.6677 63.1511 83.5597 63.1996 83.4302 63.2752C83.3114 63.34 83.2521 63.4318 83.2521 63.5505L83.3006 63.7448C83.1279 63.7772 83.0415 63.8744 83.0415 64.0363L83.0253 64.2307C82.7446 64.3278 82.5071 64.533 82.3128 64.8461C82.1185 64.8677 81.9673 64.9594 81.8593 65.1214H81.7298C81.5894 64.8839 81.3681 64.7651 81.0658 64.7651C81.0226 64.8083 80.9795 64.8677 80.9363 64.9432C80.8931 65.008 80.8445 65.0782 80.7905 65.1538C80.7473 65.2185 80.6987 65.2779 80.6448 65.3319C80.6016 65.3751 80.5584 65.3967 80.5152 65.3967L80.3047 65.3805C80.1859 65.3805 80.0672 65.4291 79.9484 65.5262C79.8404 65.6234 79.6947 65.672 79.5112 65.672L79.2521 65.6558L78.7986 65.4776C78.6259 65.618 78.4153 65.6882 78.167 65.6882L77.6488 65.591L77.5516 65.7368L77.0982 65.4291C77.0766 65.3319 77.0442 65.2833 77.001 65.2833L76.9363 65.2995C76.8283 65.1592 76.6826 65.089 76.499 65.089L76.2723 65.1214C75.8728 65.035 75.5328 64.8839 75.2521 64.6679C75.1981 64.4844 75.1063 64.3926 74.9768 64.3926L74.8958 64.4088L74.7986 63.9554L74.4423 63.8744C74.3128 63.8744 74.221 63.9338 74.167 64.0525ZM77.2925 56.6517L77.4869 56.6031L77.9565 56.6841C78.2048 56.8353 78.4423 56.9108 78.6691 56.9108C79.0793 56.9108 79.495 56.7003 79.916 56.2793L80.078 56.9108L80.1751 56.8299L80.2237 56.2793C80.2777 56.4952 80.3317 56.6031 80.3857 56.6031C80.4504 56.6031 80.5152 56.4952 80.58 56.2793C80.7419 56.4628 80.9255 56.5546 81.1306 56.5546L81.2925 56.5384L81.4707 56.6841C81.665 56.587 81.7622 56.4628 81.7622 56.3116C81.7622 56.1929 81.7244 56.0795 81.6488 55.9716L81.4707 56.0202L81.584 55.8258L81.4545 55.7772C81.4437 55.6045 81.4221 55.4803 81.3897 55.4048C81.3681 55.3292 81.3357 55.2806 81.2925 55.259C81.2494 55.2266 81.1954 55.205 81.1306 55.1942C81.0658 55.1834 80.9848 55.1457 80.8877 55.0809C80.7797 55.1349 80.7203 55.2212 80.7095 55.34C80.634 55.2968 80.4936 55.2698 80.2885 55.259L80.2075 55.3238L80.1751 55.1133C80.0996 55.0593 80.0564 54.9999 80.0456 54.9351C80.0456 54.8596 80.0078 54.7678 79.9322 54.6598C79.8674 54.5411 79.7919 54.4277 79.7055 54.3197C79.6191 54.201 79.5274 54.0984 79.4302 54.0121L79.0253 53.9311L79.2035 54.174L78.8472 54.0121L78.7662 54.1902C78.6367 54.1902 78.5557 54.255 78.5233 54.3845L78.4261 54.3197C78.3722 54.3197 78.3452 54.4061 78.3452 54.5789C78.302 54.4385 78.2588 54.3683 78.2156 54.3683C78.1724 54.3683 78.1454 54.4007 78.1346 54.4655L77.6488 54.3683L77.7298 54.1092C77.7298 54.0013 77.6596 53.9257 77.5193 53.8825V54.1092C77.2817 54.1524 77.163 54.2496 77.163 54.4007V54.4655C76.9687 54.4979 76.8715 54.6004 76.8715 54.7732L76.9363 54.9351C76.8499 54.9567 76.8067 55.0323 76.8067 55.1619C76.2345 55.3454 75.9484 55.5451 75.9484 55.761C75.9484 55.8582 75.997 55.9446 76.0942 56.0202L76.1751 55.8906C76.4019 56.2037 76.661 56.398 76.9525 56.4736L77.0496 56.7165L77.2925 56.6517ZM75.5112 56.1011L75.8027 56.004L75.6083 55.8744L75.5112 56.1011ZM84.1265 58.8542L84.2723 59.0161C84.1427 59.1673 84.0024 59.2428 83.8512 59.2428C83.7433 59.2428 83.6299 59.1996 83.5112 59.1133C83.6191 58.9837 83.8243 58.8973 84.1265 58.8542ZM80.3209 59.2104C80.4288 59.1349 80.5314 59.0971 80.6286 59.0971C80.7581 59.0971 80.8661 59.1888 80.9525 59.3724L80.3209 59.2104ZM71.9808 60.1983L72.1265 60.1011C72.1697 60.1011 72.2075 60.1875 72.2399 60.3602C72.2507 60.4358 72.2561 60.5006 72.2561 60.5546C72.2561 60.6409 72.2345 60.7111 72.1913 60.7651C72.1481 60.7651 72.0996 60.6139 72.0456 60.3117L71.9808 60.1983ZM76.58 62.4979L76.661 62.676L76.499 62.7246L76.58 62.4979ZM79.1225 63.178H79.4302C79.4302 63.232 79.2682 63.3292 78.9444 63.4695C78.7932 63.4156 78.7176 63.3562 78.7176 63.2914C78.7176 63.2266 78.8256 63.1511 79.0415 63.0647L79.1225 63.178ZM73.1306 64.3117L73.0658 64.4736L72.9363 64.3602L73.1306 64.3117ZM81.2925 64.9756H81.4221L81.3897 65.1052C81.3897 65.1807 81.4329 65.2455 81.5193 65.2995L81.3411 65.4776H81.1144L81.0658 65.1538L81.2925 64.9756ZM85.5361 65.1861L85.7466 64.2145C86.1893 64.1173 86.4106 63.9608 86.4106 63.7448L86.3944 63.6639L87.4632 63.34L87.8519 63.5019C88.0246 63.1673 88.219 62.9999 88.4349 62.9999L88.6616 63.0809L89.2446 62.174V61.6396C89.0827 61.0782 89.0017 60.5654 89.0017 60.1011C89.0017 59.6369 89.0827 59.2158 89.2446 58.838L88.9855 58.4979L89.3256 57.1699C89.25 56.8677 89.196 56.5924 89.1636 56.344C89.1312 56.0849 89.1151 55.8528 89.1151 55.6477C89.1151 55.3238 89.1636 55.0809 89.2608 54.9189L88.9369 54.6922C89.1205 54.4115 89.2122 54.2064 89.2122 54.0768C89.2122 54.0013 89.1906 53.9473 89.1474 53.9149C89.1043 53.8717 89.0557 53.8339 89.0017 53.8015C88.9477 53.7583 88.8991 53.7206 88.8559 53.6882C88.8128 53.645 88.7912 53.5856 88.7912 53.51L88.8559 53.2995H87.9653C87.8141 53.1484 87.6468 53.0728 87.4632 53.0728C87.2689 53.0728 87.0314 53.1646 86.7507 53.3481C86.2756 53.0998 86.0381 52.8461 86.0381 52.587L86.0543 52.4574L86.2972 52.3602L86.0543 52.004L86.9288 51.0647L87.6252 51.5181C87.7871 51.3238 87.9761 51.2266 88.192 51.2266C88.3863 51.2266 88.6076 51.3022 88.8559 51.4533C88.9099 51.6369 88.9585 51.7287 89.0017 51.7287C89.0773 51.7287 89.1366 51.4965 89.1798 51.0323L90.3782 51.0485C90.4106 51.394 90.9234 51.6315 91.9167 51.761C91.5388 52.0741 91.3499 52.3602 91.3499 52.6193C91.3499 52.6949 91.3661 52.7759 91.3985 52.8623C91.4416 52.9486 91.4848 53.035 91.528 53.1214C91.582 53.1969 91.6252 53.2725 91.6576 53.3481C91.7007 53.4237 91.7223 53.4884 91.7223 53.5424C91.7223 53.6288 91.69 53.6936 91.6252 53.7368C91.5712 53.7799 91.5442 53.8285 91.5442 53.8825C91.5442 53.9905 91.7223 54.093 92.0786 54.1902L92.2891 53.9149L92.9045 53.7691L92.5321 53.4938L93.5685 52.9108L93.4551 52.4736L93.8114 52.5708C94.0381 52.5708 94.2001 52.398 94.2972 52.0525L94.7507 51.7125L95.1393 51.7448C95.6252 51.7448 96.0084 51.5883 96.2891 51.2752L96.6778 51.34L96.9045 51.5343C97.0125 51.4372 97.1205 51.3886 97.2284 51.3886C97.2824 51.3886 97.3364 51.4102 97.3904 51.4533C97.4443 51.4965 97.5037 51.5451 97.5685 51.5991C97.6333 51.6531 97.7088 51.7071 97.7952 51.761C97.8816 51.815 97.9788 51.8528 98.0867 51.8744L98.4592 52.4412L98.7507 52.0849L98.6373 52.7165L98.8317 52.9918L98.6697 53.2995C98.7993 53.5262 98.864 53.7583 98.864 53.9959C98.864 54.4493 98.6481 54.9081 98.2163 55.3724L98.1029 55.1295L97.8276 55.2752L98.0381 55.5991L97.5037 55.5019C97.2986 55.5019 97.142 55.5559 97.0341 55.6639L96.5806 55.6477L96.5644 55.34L96.4025 55.3562C96.0462 55.3562 95.7817 55.1457 95.609 54.7246C95.7817 54.4871 95.8681 54.3036 95.8681 54.174C95.8681 54.0336 95.7601 53.9635 95.5442 53.9635L95.2527 53.9959L95.2203 53.4938C94.864 53.6234 94.6859 53.7637 94.6859 53.9149L94.7345 54.0768L94.4754 54.2226L94.6211 54.9837L94.2163 54.3683C93.9788 55.0593 93.6873 55.4048 93.3418 55.4048C93.223 55.4048 93.1097 55.367 93.0017 55.2914L92.4349 55.5667L92.4025 55.923L91.7061 55.9068L91.3337 56.587C91.528 56.7489 91.6252 56.9054 91.6252 57.0566C91.6252 57.2077 91.528 57.3535 91.3337 57.4938V58.9351L91.609 59.0647V60.1497L91.3337 60.0849L91.6738 62.1416L91.3661 62.2226L91.609 62.9351H91.6738C92.2891 62.9351 92.5968 63.0485 92.5968 63.2752L92.5321 63.4695C92.7372 63.3616 92.9747 63.3076 93.2446 63.3076C93.4713 63.3076 93.6927 63.367 93.9086 63.4857L94.443 63.178L95.107 63.1942L95.3013 63.6153L95.7223 63.5343C96.2837 63.5343 96.802 64.004 97.277 64.9432L96.9045 65.5262L96.2729 65.2023L96.111 65.6396L95.4956 65.6072C95.0746 65.6072 94.6859 65.6558 94.3296 65.7529L93.3904 65.4453L92.9369 65.3805L92.8559 65.8825L91.9329 65.4938L91.0422 65.8177L90.1191 65.2995C90.0003 65.6234 89.7682 65.7853 89.4227 65.7853C89.1205 65.7853 88.7372 65.6666 88.2729 65.4291L87.7223 65.7206L86.5725 65.6396C86.4538 65.4561 86.3512 65.3643 86.2648 65.3643C86.1677 65.3643 86.0921 65.4884 86.0381 65.7368L85.5361 65.1861ZM105.683 50.9999C105.855 51.1079 106.055 51.1672 106.282 51.178L107.27 51.1133C107.421 51.1996 107.561 51.2428 107.691 51.2428L107.917 51.2104C108.144 51.5991 108.57 51.8096 109.197 51.842C109.359 52.0255 109.504 52.1713 109.634 52.2793C109.763 52.3764 109.877 52.4898 109.974 52.6193C110.071 52.7489 110.158 52.9162 110.233 53.1214C110.319 53.3265 110.395 53.6234 110.46 54.0121L110.719 56.344L110.67 57.0404L110.784 58.1092L110.33 58.0768L110.719 58.3197L110.816 59.0971L110.67 59.9392L110.784 61.1538L110.719 61.4776L110.832 62.9999L111.043 62.9189C111.237 62.9189 111.345 63.2266 111.367 63.842C111.615 63.7556 111.739 63.5991 111.739 63.3724L111.723 63.2428L111.95 62.8865L112.176 63.0647L112.403 63.0323C112.716 63.0323 112.873 63.3022 112.873 63.842C112.873 64.0148 112.846 64.1551 112.792 64.2631C112.738 64.371 112.678 64.4736 112.614 64.5708C112.549 64.6571 112.49 64.7543 112.436 64.8623C112.382 64.9702 112.355 65.1106 112.355 65.2833L111.95 65.2671C111.669 65.4183 111.372 65.4938 111.059 65.4938L110.071 65.2671L109.731 65.3157C109.677 65.0026 109.537 64.7381 109.31 64.5222L108.695 64.4574C108.619 64.6949 108.392 64.8137 108.014 64.8137H107.917C107.95 64.9216 108.214 65.0134 108.711 65.089C107.761 65.1753 106.989 65.2887 106.395 65.4291L105.925 65.3643L105.521 65.5424L105.213 65.4776L104.759 65.6558H104.047C103.907 65.5802 103.712 65.5424 103.464 65.5424L102.848 65.591C102.848 65.699 103.135 65.7853 103.707 65.8501L102.638 65.9473C102.541 65.4722 102.174 65.2239 101.537 65.2023C101.44 64.8353 101.148 64.6247 100.662 64.5708L100.371 64.3602L100.452 64.1011C100.279 63.9608 100.193 63.7772 100.193 63.5505V63.5181C100.095 63.2482 100.047 62.9729 100.047 62.6922C100.047 62.3899 100.112 62.0822 100.241 61.7691L100.306 61.4291C100.101 61.2239 99.9983 60.9594 99.9983 60.6355C99.9983 60.506 100.047 60.4088 100.144 60.344C100.241 60.2793 100.355 60.2253 100.484 60.1821L100.468 60.0525C100.468 59.7934 100.597 59.6639 100.857 59.6639L101.002 59.6801C101.175 59.5397 101.261 59.3562 101.261 59.1295L101.245 58.9999C101.332 58.9351 101.429 58.8865 101.537 58.8542C101.656 58.8218 101.763 58.7894 101.861 58.757C101.969 58.7138 102.055 58.6598 102.12 58.5951C102.195 58.5195 102.233 58.4115 102.233 58.2712V58.1578C102.503 57.9635 102.838 57.8663 103.237 57.8663C103.539 57.7044 103.907 57.6126 104.338 57.591L104.468 57.0728H105.812C105.801 57.0944 105.796 57.116 105.796 57.1376C105.796 57.1592 105.812 57.1699 105.844 57.1699C105.877 57.1699 105.904 57.1699 105.925 57.1699C105.947 57.1592 105.985 57.1484 106.039 57.1376L106.217 57.3481L105.618 57.3319L106.282 57.5262C106.357 57.483 106.395 57.4183 106.395 57.3319L106.33 57.1376H106.427C106.654 57.1376 106.854 57.0836 107.027 56.9756L107.415 57.0242C107.696 57.0242 107.939 56.9702 108.144 56.8623L108.095 54.4169C108.095 53.9419 107.917 53.591 107.561 53.3643L107.205 53.1376L105.861 52.9108L105.569 53.089C105.472 53.0242 105.369 52.9918 105.261 52.9918C105.11 52.9918 104.981 53.0404 104.873 53.1376C104.765 53.2347 104.678 53.3589 104.614 53.51L103.95 53.8339C103.82 53.9203 103.755 54.039 103.755 54.1902L103.82 54.4979L103.642 55.7772C103.448 56.0579 103.351 56.3656 103.351 56.7003L103.237 56.8623L103.091 56.8461C102.865 56.8461 102.638 56.9108 102.411 57.0404C102.26 56.8785 102.06 56.7975 101.812 56.7975L101.715 56.344L101.18 56.2307C101.105 56.0903 101.067 55.842 101.067 55.4857L101.002 55.2914C100.851 55.3238 100.738 55.3778 100.662 55.4534C100.619 55.3778 100.597 55.205 100.597 54.9351L100.678 53.8501L100.986 54.0121C100.889 54.0984 100.84 54.2118 100.84 54.3521L100.889 54.6598L101.067 54.4979L101.051 54.2874C101.051 53.7907 101.213 53.2995 101.537 52.8137L101.683 52.2955C102.125 52.2955 102.503 52.1065 102.816 51.7287L103.043 51.761C103.248 51.761 103.351 51.6585 103.351 51.4533L103.464 51.2752L104.338 51.2104L105.051 51.0647L105.132 51.1942L105.164 50.9999H105.683ZM109.083 59.5667C108.975 59.6423 108.797 59.6801 108.549 59.6801C108.063 59.6801 107.631 59.6315 107.253 59.5343C106.875 59.4372 106.616 59.3454 106.476 59.259L106.039 59.4048C106.028 59.0377 105.796 58.8488 105.342 58.838C105.602 59.0539 105.731 59.1942 105.731 59.259L105.65 59.3076L104.986 59.1133L104.921 59.34C104.738 59.3832 104.565 59.4749 104.403 59.6153H104.257C103.772 59.6153 103.448 59.8258 103.286 60.2469L103.091 60.1659C102.865 60.1659 102.481 60.3224 101.942 60.6355L101.796 60.587L101.699 61.3319C101.699 61.4399 101.774 61.5694 101.925 61.7206C101.828 62.0013 101.78 62.2172 101.78 62.3683C101.78 62.5735 101.866 62.676 102.039 62.676L102.185 62.6598V62.7894C102.185 63.394 102.487 63.6963 103.091 63.6963L103.351 63.6801L103.399 64.4088C103.604 64.5168 103.95 64.5708 104.436 64.5708H104.808C105.024 64.5708 105.229 64.5276 105.423 64.4412C105.618 64.3548 105.747 64.1767 105.812 63.9068C106.017 63.7664 106.185 63.6963 106.314 63.6963L106.606 63.7448L107.027 63.6801C107.037 63.2698 107.178 62.9135 107.448 62.6112L107.383 62.1578H107.448C107.987 62.1578 108.257 61.8879 108.257 61.3481V61.2509C108.43 61.1753 108.517 61.0458 108.517 60.8623L108.338 59.8096C108.544 59.9392 108.705 60.004 108.824 60.004C108.965 60.004 109.051 59.8582 109.083 59.5667ZM102.427 61.5424L102.185 61.591C101.925 61.591 101.796 61.4129 101.796 61.0566C101.796 60.9702 101.801 60.8946 101.812 60.8299C101.834 60.7543 101.904 60.7165 102.023 60.7165C102.239 60.7165 102.373 60.9918 102.427 61.5424ZM103.496 63.4534L102.978 63.5343C102.535 63.5343 102.314 63.2914 102.314 62.8056V62.676L103.496 63.4534ZM104.873 64.0849L105.164 64.0687C105.456 64.0687 105.602 64.1065 105.602 64.1821C105.602 64.2469 105.45 64.344 105.148 64.4736L104.873 64.0849ZM105.197 65.6882C105.413 65.8069 105.521 65.8879 105.521 65.9311H104.808L105.197 65.6882ZM104.678 65.8015L104.565 65.9149C104.511 65.9149 104.463 65.8771 104.419 65.8015H104.678ZM104.193 57.2185L104.079 57.3319C104.025 57.3319 103.977 57.2941 103.934 57.2185H104.193ZM118.541 62.757L117.958 62.1902L118.558 61.8015L118.056 61.2347L118.007 60.4412C118.007 59.7934 118.12 59.259 118.347 58.838L118.088 58.4979L118.428 57.1699C118.137 56.9 117.991 56.6409 117.991 56.3926C117.991 56.1335 118.185 55.9122 118.574 55.7287L118.039 54.5303C118.223 54.2496 118.315 54.0444 118.315 53.9149C118.315 53.8393 118.293 53.7853 118.25 53.7529C118.207 53.7098 118.158 53.672 118.104 53.6396C118.05 53.5964 118.002 53.5586 117.958 53.5262C117.915 53.483 117.894 53.4237 117.894 53.3481L117.958 53.1376H116.906C116.647 53.008 116.393 52.9432 116.145 52.9432C115.778 52.9432 115.411 53.0782 115.043 53.3481C114.568 53.0998 114.331 52.8461 114.331 52.587L114.347 52.4574L114.59 52.3602L114.444 51.6315L115.222 51.0647L115.886 51.34L116.566 51.3076C116.609 51.1025 116.782 50.9999 117.084 50.9999L118.104 51.2428C118.234 51.2428 118.299 51.1672 118.299 51.0161L118.282 50.8704L118.639 50.7246L118.153 49.4614L118.849 49.5262L118.185 48.6841C118.336 48.4034 118.412 48.0255 118.412 47.5505L118.234 45.9473L119.124 46.1254C119.168 45.6396 119.416 45.3967 119.869 45.3967C120.107 45.3967 120.398 45.4614 120.744 45.591V45.8339C120.744 46.0822 120.765 46.2874 120.809 46.4493C120.863 46.6112 120.89 46.7678 120.89 46.9189C120.89 47.0485 120.798 47.3454 120.614 47.8096L121.133 48.0687L120.29 48.8299L120.954 49.4614L120.436 49.4938L121.003 50.0444C120.679 50.3899 120.517 50.6166 120.517 50.7246C120.517 50.7894 120.566 50.8218 120.663 50.8218C120.814 50.8218 120.96 50.784 121.1 50.7084L121.019 51.5991L121.521 51.6639L121.635 51.2266L122.299 51.4695C122.536 51.34 122.806 51.2752 123.108 51.2752C123.292 51.2752 123.61 51.3346 124.064 51.4533C124.172 51.2806 124.317 51.1942 124.501 51.1942C124.728 51.1942 125.008 51.3292 125.343 51.5991L125.521 51.178L126.315 52.1173L126.46 52.5708C126.245 52.5924 126.137 52.6733 126.137 52.8137C126.137 52.9756 126.239 53.1915 126.444 53.4614L125.699 53.2023C125.386 53.4507 125.133 53.5748 124.938 53.5748C124.776 53.5748 124.663 53.4776 124.598 53.2833L124.209 53.5586C123.983 53.4291 123.751 53.3643 123.513 53.3643L122.849 53.5424C122.601 53.3589 122.374 53.2671 122.169 53.2671C121.964 53.2671 121.737 53.3589 121.489 53.5424L120.971 53.3643C120.744 53.5802 120.631 53.7853 120.631 53.9797L120.711 54.2712L120.355 54.6274L120.776 54.9837L120.388 55.6153L120.711 56.0202L120.436 56.587C120.631 56.7489 120.728 56.9054 120.728 57.0566C120.728 57.2077 120.631 57.3535 120.436 57.4938V58.9351L120.711 59.0647V60.1497L120.436 60.0849L120.776 62.1416L120.469 62.2226L120.711 62.9351H120.776C121.284 62.9351 121.537 63.0377 121.537 63.2428L121.473 63.4695L122.104 63.6477V63.2914H123.351L123.594 63.6153L124.177 63.34C124.371 62.6706 124.76 62.2226 125.343 61.9959L125.327 61.4614C125.435 61.2347 125.548 61.1214 125.667 61.1214C125.775 61.1214 125.904 61.2509 126.056 61.51L126.444 61.6558L126.12 62.4493L126.752 62.6598L126.282 63.5505L125.521 63.5829L125.214 63.9716L126.169 63.761C125.392 64.9486 124.263 65.5424 122.784 65.5424H122.59C122.353 65.6828 122.104 65.7529 121.845 65.7529C121.575 65.7529 121.305 65.6666 121.035 65.4938L120.711 65.5586C120.215 65.5586 119.734 65.17 119.27 64.3926L118.979 64.4412C118.568 64.4412 118.326 64.1011 118.25 63.421L118.541 62.757ZM139.611 53.2185H139.53L139.562 53.3805C139.562 53.5424 139.438 53.7044 139.19 53.8663L139.06 54.8542C139.06 55.0161 139.077 55.1565 139.109 55.2752C139.141 55.394 139.174 55.5127 139.206 55.6315C139.238 55.7395 139.271 55.8528 139.303 55.9716C139.336 56.0903 139.352 56.2307 139.352 56.3926C139.352 56.6085 139.309 56.8569 139.222 57.1376C139.136 57.4075 139.093 57.6612 139.093 57.8987C139.093 58.2874 139.233 58.6544 139.514 58.9999V59.761C139.201 60.2685 139.044 60.7111 139.044 61.089C139.044 61.4345 139.157 61.7529 139.384 62.0444L139.206 63.0485L139.692 62.3683L140.858 63.178L140.664 64.2955L140.323 64.2631L140.696 64.9432C140.566 65.4291 140.28 65.672 139.838 65.672L139.449 65.6234L138.85 65.7691L138.299 65.4614C138.18 65.5802 138.013 65.6396 137.797 65.6396L137.02 65.4614C136.826 64.7813 136.658 64.4412 136.518 64.4412C136.421 64.4412 136.334 64.6517 136.259 65.0728L135.611 65.3967L135.077 65.0242L134.979 65.2833L134.17 65.9635L133.83 65.4291L133.603 66.0121L132.728 65.7853C132.642 65.9365 132.539 66.0121 132.421 66.0121C132.345 66.0121 132.259 65.9743 132.162 65.8987C132.064 65.8231 131.962 65.7368 131.854 65.6396C131.757 65.5532 131.66 65.4722 131.562 65.3967C131.465 65.3211 131.379 65.2833 131.303 65.2833L130.834 65.4453C130.65 65.4453 130.456 65.3427 130.251 65.1376C129.797 65.116 129.419 64.9054 129.117 64.506L128.971 63.5829L129.247 62.9189C128.933 62.8542 128.777 62.3845 128.777 61.51L128.809 60.7003L129.182 60.2955C128.998 60.1119 128.906 59.9716 128.906 59.8744C128.906 59.7556 129.009 59.6909 129.214 59.6801L129.198 58.9027L129.02 58.9351C128.966 58.9351 128.939 58.8272 128.939 58.6112C128.939 58.4169 129.031 57.9527 129.214 57.2185V56.6031C129.074 56.5924 129.004 56.506 129.004 56.344C129.004 56.2037 129.052 56.004 129.149 55.7448V55.2914L128.761 55.3238L129.133 54.2064C129.036 53.3967 128.583 52.8838 127.773 52.6679L127.627 51.9068L127.983 51.2104L128.55 51.0809L129.182 51.2104C129.484 51.0809 129.813 51.0161 130.17 51.0161C130.494 51.0161 130.844 51.0809 131.222 51.2104L131.919 50.838C131.919 50.9891 132.091 51.1403 132.437 51.2914C132.631 51.6045 132.728 51.923 132.728 52.2469C132.728 52.5276 132.674 52.7705 132.566 52.9756C131.908 52.9864 131.579 53.2131 131.579 53.6558L131.66 54.093C131.444 54.3737 131.336 54.6112 131.336 54.8056C131.336 55.0107 131.449 55.1834 131.676 55.3238L131.821 56.0687C131.595 56.5222 131.481 56.8946 131.481 57.1861C131.481 57.5532 131.681 57.7691 132.081 57.8339L131.336 59.3076H131.773L131.789 60.9108C131.649 60.8029 131.53 60.7489 131.433 60.7489C131.303 60.7489 131.238 60.8569 131.238 61.0728L131.255 61.2347L131.465 61.2023C131.67 61.2023 131.773 61.3427 131.773 61.6234C131.773 61.8933 131.735 62.1254 131.66 62.3197C131.865 63.0755 132.243 63.4534 132.793 63.4534H132.874L132.923 63.1457C133.106 63.2212 133.355 63.259 133.668 63.259C134.261 63.259 134.78 63.0161 135.222 62.5303L135.838 62.757L136.129 61.8825C136.464 61.6774 136.631 61.4183 136.631 61.1052L136.599 60.8461C136.933 60.3818 137.101 60.0525 137.101 59.8582C137.101 59.815 137.085 59.7826 137.052 59.761C137.02 59.7395 136.982 59.7179 136.939 59.6963C136.896 59.6747 136.858 59.6477 136.826 59.6153C136.793 59.5829 136.777 59.5289 136.777 59.4534L136.842 59.0647C136.842 58.7948 136.745 58.4385 136.55 57.9959C136.799 57.4345 136.923 57.062 136.923 56.8785C136.923 56.587 136.761 56.4412 136.437 56.4412L136.761 55.9878C136.61 55.8042 136.534 55.5667 136.534 55.2752C136.534 54.9945 136.599 54.6598 136.728 54.2712L136.307 53.8987L136.21 53.3643L135.805 53.4129C135.147 53.4129 134.817 52.9594 134.817 52.0525C134.817 51.9554 134.844 51.8636 134.898 51.7772C134.952 51.6909 135.017 51.6099 135.093 51.5343C135.179 51.448 135.265 51.3616 135.352 51.2752C135.449 51.1888 135.535 51.0917 135.611 50.9837L136.599 51.1133C137.117 51.1133 137.57 51.0593 137.959 50.9513L138.396 51.3724C138.839 51.0917 139.206 50.9513 139.498 50.9513C139.897 50.9513 140.178 51.1942 140.34 51.6801C140.307 52.7057 140.064 53.2185 139.611 53.2185ZM141.83 65.1861L142.041 64.2145C142.483 64.1173 142.705 63.9608 142.705 63.7448L142.689 63.6639L143.757 63.34L144.146 63.5019C144.319 63.1673 144.513 62.9999 144.729 62.9999L144.956 63.0809L145.539 62.174V61.6396C145.377 61.0782 145.296 60.5654 145.296 60.1011C145.296 59.6369 145.377 59.2158 145.539 58.838L145.28 58.4979L145.62 57.1699C145.544 56.8677 145.49 56.5924 145.458 56.344C145.425 56.0849 145.409 55.8528 145.409 55.6477C145.409 55.3238 145.458 55.0809 145.555 54.9189L145.231 54.6922C145.415 54.4115 145.506 54.2064 145.506 54.0768C145.506 54.0013 145.485 53.9473 145.442 53.9149C145.398 53.8717 145.35 53.8339 145.296 53.8015C145.242 53.7583 145.193 53.7206 145.15 53.6882C145.107 53.645 145.085 53.5856 145.085 53.51L145.15 53.2995H144.259C144.108 53.1484 143.941 53.0728 143.757 53.0728C143.563 53.0728 143.325 53.1646 143.045 53.3481C142.57 53.0998 142.332 52.8461 142.332 52.587L142.348 52.4574L142.591 52.3602L142.348 52.004L143.223 51.0647L143.919 51.5181C144.081 51.3238 144.27 51.2266 144.486 51.2266C144.68 51.2266 144.902 51.3022 145.15 51.4533C145.204 51.6369 145.253 51.7287 145.296 51.7287C145.371 51.7287 145.431 51.4965 145.474 51.0323L146.672 51.0485C146.705 51.394 147.218 51.6315 148.211 51.761C147.833 52.0741 147.644 52.3602 147.644 52.6193C147.644 52.6949 147.66 52.7759 147.693 52.8623C147.736 52.9486 147.779 53.035 147.822 53.1214C147.876 53.1969 147.919 53.2725 147.952 53.3481C147.995 53.4237 148.016 53.4884 148.016 53.5424C148.016 53.6288 147.984 53.6936 147.919 53.7368C147.865 53.7799 147.838 53.8285 147.838 53.8825C147.838 53.9905 148.016 54.093 148.373 54.1902L148.583 53.9149L149.199 53.7691L148.826 53.4938L149.863 52.9108L149.749 52.4736L150.106 52.5708C150.332 52.5708 150.494 52.398 150.591 52.0525L151.045 51.7125L151.433 51.7448C151.919 51.7448 152.303 51.5883 152.583 51.2752L152.972 51.34L153.199 51.5343C153.307 51.4372 153.415 51.3886 153.523 51.3886C153.576 51.3886 153.63 51.4102 153.684 51.4533C153.738 51.4965 153.798 51.5451 153.863 51.5991C153.927 51.6531 154.003 51.7071 154.089 51.761C154.176 51.815 154.273 51.8528 154.381 51.8744L154.753 52.4412L155.045 52.0849L154.931 52.7165L155.126 52.9918L154.964 53.2995C155.093 53.5262 155.158 53.7583 155.158 53.9959C155.158 54.4493 154.942 54.9081 154.51 55.3724L154.397 55.1295L154.122 55.2752L154.332 55.5991L153.798 55.5019C153.593 55.5019 153.436 55.5559 153.328 55.6639L152.875 55.6477L152.859 55.34L152.697 55.3562C152.34 55.3562 152.076 55.1457 151.903 54.7246C152.076 54.4871 152.162 54.3036 152.162 54.174C152.162 54.0336 152.054 53.9635 151.838 53.9635L151.547 53.9959L151.514 53.4938C151.158 53.6234 150.98 53.7637 150.98 53.9149L151.029 54.0768L150.769 54.2226L150.915 54.9837L150.51 54.3683C150.273 55.0593 149.981 55.4048 149.636 55.4048C149.517 55.4048 149.404 55.367 149.296 55.2914L148.729 55.5667L148.697 55.923L148 55.9068L147.628 56.587C147.822 56.7489 147.919 56.9054 147.919 57.0566C147.919 57.2077 147.822 57.3535 147.628 57.4938V58.9351L147.903 59.0647V60.1497L147.628 60.0849L147.968 62.1416L147.66 62.2226L147.903 62.9351H147.968C148.583 62.9351 148.891 63.0485 148.891 63.2752L148.826 63.4695C149.031 63.3616 149.269 63.3076 149.539 63.3076C149.765 63.3076 149.987 63.367 150.203 63.4857L150.737 63.178L151.401 63.1942L151.595 63.6153L152.016 63.5343C152.578 63.5343 153.096 64.004 153.571 64.9432L153.199 65.5262L152.567 65.2023L152.405 65.6396L151.79 65.6072C151.369 65.6072 150.98 65.6558 150.624 65.7529L149.684 65.4453L149.231 65.3805L149.15 65.8825L148.227 65.4938L147.336 65.8177L146.413 65.2995C146.294 65.6234 146.062 65.7853 145.717 65.7853C145.415 65.7853 145.031 65.6666 144.567 65.4291L144.016 65.7206L142.867 65.6396C142.748 65.4561 142.645 65.3643 142.559 65.3643C142.462 65.3643 142.386 65.4884 142.332 65.7368L141.83 65.1861ZM158.608 64.0525C158.587 63.8582 158.533 63.7125 158.446 63.6153C158.371 63.5181 158.279 63.4372 158.171 63.3724C158.074 63.2968 157.977 63.2212 157.879 63.1457C157.782 63.0701 157.707 62.9567 157.653 62.8056C157.599 62.676 157.523 62.5573 157.426 62.4493C157.34 62.3413 157.248 62.2442 157.151 62.1578C157.064 62.0714 156.983 61.9959 156.908 61.9311C156.843 61.8663 156.811 61.8123 156.811 61.7691L156.762 61.17L156.843 60.6841L156.713 59.9716L156.762 59.8744L157.135 59.842L156.762 59.7934C156.838 59.5559 156.924 59.4372 157.021 59.4372C156.967 59.34 156.908 59.259 156.843 59.1942C156.778 59.1187 156.713 59.0431 156.649 58.9675C156.595 58.8812 156.546 58.784 156.503 58.676C156.46 58.5681 156.438 58.4331 156.438 58.2712L156.535 57.7044C156.676 57.7044 156.746 57.6612 156.746 57.5748C156.746 57.51 156.703 57.4129 156.616 57.2833C156.541 57.143 156.503 57.0242 156.503 56.927C156.503 56.7975 156.552 56.7003 156.649 56.6355C156.757 56.56 156.811 56.4628 156.811 56.344L156.762 56.1497C156.838 55.8474 156.929 55.5451 157.037 55.2428C157.145 54.9297 157.269 54.6166 157.41 54.3036L157.507 54.4169L157.556 54.3197L157.475 54.0606C157.755 53.9635 157.993 53.7583 158.187 53.4453H158.398L158.495 53.2347L158.446 53.1861L158.252 53.2509C158.533 52.9702 158.716 52.7057 158.803 52.4574H159.24L159.337 52.1983C159.359 52.1119 159.418 52.0687 159.515 52.0687L159.693 52.1011L159.645 51.923C159.99 51.8798 160.271 51.7341 160.487 51.4857L160.713 51.5667L160.762 51.3886H161.734L161.912 51.1295L162.041 51.2104L162.171 51.0323L162.705 50.9513V50.7732L162.883 50.757C163.002 50.9081 163.143 50.9837 163.305 50.9837L163.547 50.9513L163.645 51.2104L163.904 51.178L164.001 51.3562L164.325 51.3076L164.794 51.3886L164.924 51.3076L164.94 51.7448L165.07 51.3076C165.188 51.4264 165.334 51.5127 165.507 51.5667C165.604 51.7934 165.782 51.9122 166.041 51.923C166.16 52.1173 166.338 52.2361 166.576 52.2793C166.738 52.5492 166.975 52.7273 167.288 52.8137L167.612 53.2185C167.72 53.2509 167.774 53.3049 167.774 53.3805L167.726 53.5262L168.082 53.6558L168.066 53.7529C168.066 53.8177 168.093 53.8501 168.147 53.8501L168.357 53.7853L168.26 53.9311L168.794 54.8542L168.713 55.0323L168.843 55.1295C168.897 55.3022 169 55.4803 169.151 55.6639L169.086 55.9878L169.151 56.3602L169.07 56.4088L169.135 56.5546L169.07 56.6841L169.151 57.2509L169.07 57.9149L168.892 58.0121L168.94 58.8704L168.794 58.4493L168.535 58.7246C168.071 58.7354 167.715 58.9567 167.466 59.3886C167.337 59.1834 167.24 59.0809 167.175 59.0809C167.121 59.0809 167.094 59.1619 167.094 59.3238V59.4695L166.867 59.5667V59.5181C166.867 59.4102 166.792 59.3562 166.641 59.3562C166.489 59.3562 166.333 59.4426 166.171 59.6153C166.117 59.4857 166.025 59.421 165.896 59.421L165.815 59.4372C165.771 59.2968 165.701 59.2266 165.604 59.2266L165.458 59.259C165.329 59.0863 165.178 58.9999 165.005 58.9999L164.713 59.0809H164.228L163.936 58.9999L163.596 59.0809L163.402 59.0485C163.229 59.0485 163.056 59.1187 162.883 59.259H162.754C162.549 59.1187 162.354 59.0485 162.171 59.0485L161.993 59.0809C161.906 58.9297 161.809 58.8542 161.701 58.8542L161.361 58.9837C161.167 58.9837 161.01 59.0755 160.892 59.259H160.487C160.314 59.1187 160.12 59.0485 159.904 59.0485C159.699 59.0485 159.493 59.1187 159.288 59.259L159.386 59.4695C159.31 59.5775 159.272 59.6855 159.272 59.7934C159.272 59.923 159.31 60.0417 159.386 60.1497L159.337 60.425C159.337 60.7489 159.531 60.9972 159.92 61.17L159.823 61.2023C159.909 61.3535 159.974 61.4938 160.017 61.6234C160.071 61.7421 160.125 61.8609 160.179 61.9797C160.244 62.0876 160.319 62.1902 160.406 62.2874C160.503 62.3845 160.632 62.4817 160.794 62.5789L160.713 62.8865C160.713 63.0377 160.805 63.1133 160.989 63.1133H161.07L161.054 63.259C161.054 63.367 161.086 63.421 161.151 63.421L161.248 63.3886L161.296 63.5667V63.1619C161.437 62.9567 161.669 62.8542 161.993 62.8542L161.912 62.757C162.041 62.7354 162.144 62.676 162.22 62.5789L162.754 63.1619C162.549 63.3022 162.43 63.4372 162.398 63.5667L162.738 63.6315L163.11 63.5667C163.24 63.7287 163.407 63.8096 163.612 63.8096L163.952 63.7448L163.58 63.5829C164.022 63.5505 164.244 63.4102 164.244 63.1619L164.228 63.0323L164.422 63.0647C164.573 63.0647 164.713 62.9945 164.843 62.8542C164.983 62.9621 165.113 63.0161 165.232 63.0161C165.448 63.0161 165.62 62.8326 165.75 62.4655C165.998 62.3791 166.122 62.282 166.122 62.174L166.106 62.1092C166.236 62.0984 166.3 62.0444 166.3 61.9473L166.284 61.8501C166.446 61.7529 166.592 61.6018 166.722 61.3967H166.803C167.051 61.3967 167.175 61.2509 167.175 60.9594L167.677 61.2833L167.564 61.0566L168.017 60.8623L167.936 61.4453L168.049 61.4291C168.071 61.4291 168.12 61.4399 168.195 61.4614C168.282 61.483 168.368 61.5154 168.454 61.5586C168.541 61.6018 168.616 61.6504 168.681 61.7044C168.757 61.7583 168.794 61.8231 168.794 61.8987C168.794 61.9851 168.762 62.0606 168.697 62.1254C168.632 62.1902 168.6 62.2658 168.6 62.3521L168.632 62.5141L168.276 62.6922L168.195 63.1295C168.109 63.1511 168.001 63.1996 167.871 63.2752C167.753 63.34 167.693 63.4318 167.693 63.5505L167.742 63.7448C167.569 63.7772 167.483 63.8744 167.483 64.0363L167.466 64.2307C167.186 64.3278 166.948 64.533 166.754 64.8461C166.56 64.8677 166.408 64.9594 166.3 65.1214H166.171C166.031 64.8839 165.809 64.7651 165.507 64.7651C165.464 64.8083 165.421 64.8677 165.377 64.9432C165.334 65.008 165.286 65.0782 165.232 65.1538C165.188 65.2185 165.14 65.2779 165.086 65.3319C165.043 65.3751 165 65.3967 164.956 65.3967L164.746 65.3805C164.627 65.3805 164.508 65.4291 164.39 65.5262C164.282 65.6234 164.136 65.672 163.952 65.672L163.693 65.6558L163.24 65.4776C163.067 65.618 162.857 65.6882 162.608 65.6882L162.09 65.591L161.993 65.7368L161.539 65.4291C161.518 65.3319 161.485 65.2833 161.442 65.2833L161.377 65.2995C161.269 65.1592 161.124 65.089 160.94 65.089L160.713 65.1214C160.314 65.035 159.974 64.8839 159.693 64.6679C159.639 64.4844 159.547 64.3926 159.418 64.3926L159.337 64.4088L159.24 63.9554L158.883 63.8744C158.754 63.8744 158.662 63.9338 158.608 64.0525ZM161.734 56.6517L161.928 56.6031L162.398 56.6841C162.646 56.8353 162.883 56.9108 163.11 56.9108C163.52 56.9108 163.936 56.7003 164.357 56.2793L164.519 56.9108L164.616 56.8299L164.665 56.2793C164.719 56.4952 164.773 56.6031 164.827 56.6031C164.892 56.6031 164.956 56.4952 165.021 56.2793C165.183 56.4628 165.367 56.5546 165.572 56.5546L165.734 56.5384L165.912 56.6841C166.106 56.587 166.203 56.4628 166.203 56.3116C166.203 56.1929 166.166 56.0795 166.09 55.9716L165.912 56.0202L166.025 55.8258L165.896 55.7772C165.885 55.6045 165.863 55.4803 165.831 55.4048C165.809 55.3292 165.777 55.2806 165.734 55.259C165.691 55.2266 165.637 55.205 165.572 55.1942C165.507 55.1834 165.426 55.1457 165.329 55.0809C165.221 55.1349 165.161 55.2212 165.151 55.34C165.075 55.2968 164.935 55.2698 164.73 55.259L164.649 55.3238L164.616 55.1133C164.541 55.0593 164.498 54.9999 164.487 54.9351C164.487 54.8596 164.449 54.7678 164.373 54.6598C164.309 54.5411 164.233 54.4277 164.147 54.3197C164.06 54.201 163.969 54.0984 163.871 54.0121L163.466 53.9311L163.645 54.174L163.288 54.0121L163.207 54.1902C163.078 54.1902 162.997 54.255 162.964 54.3845L162.867 54.3197C162.813 54.3197 162.786 54.4061 162.786 54.5789C162.743 54.4385 162.7 54.3683 162.657 54.3683C162.614 54.3683 162.587 54.4007 162.576 54.4655L162.09 54.3683L162.171 54.1092C162.171 54.0013 162.101 53.9257 161.96 53.8825V54.1092C161.723 54.1524 161.604 54.2496 161.604 54.4007V54.4655C161.41 54.4979 161.313 54.6004 161.313 54.7732L161.377 54.9351C161.291 54.9567 161.248 55.0323 161.248 55.1619C160.676 55.3454 160.39 55.5451 160.39 55.761C160.39 55.8582 160.438 55.9446 160.535 56.0202L160.616 55.8906C160.843 56.2037 161.102 56.398 161.394 56.4736L161.491 56.7165L161.734 56.6517ZM159.952 56.1011L160.244 56.004L160.049 55.8744L159.952 56.1011ZM168.568 58.8542L168.713 59.0161C168.584 59.1673 168.444 59.2428 168.292 59.2428C168.184 59.2428 168.071 59.1996 167.952 59.1133C168.06 58.9837 168.265 58.8973 168.568 58.8542ZM164.762 59.2104C164.87 59.1349 164.973 59.0971 165.07 59.0971C165.199 59.0971 165.307 59.1888 165.394 59.3724L164.762 59.2104ZM156.422 60.1983L156.568 60.1011C156.611 60.1011 156.649 60.1875 156.681 60.3602C156.692 60.4358 156.697 60.5006 156.697 60.5546C156.697 60.6409 156.676 60.7111 156.632 60.7651C156.589 60.7651 156.541 60.6139 156.487 60.3117L156.422 60.1983ZM161.021 62.4979L161.102 62.676L160.94 62.7246L161.021 62.4979ZM163.564 63.178H163.871C163.871 63.232 163.709 63.3292 163.386 63.4695C163.234 63.4156 163.159 63.3562 163.159 63.2914C163.159 63.2266 163.267 63.1511 163.483 63.0647L163.564 63.178ZM157.572 64.3117L157.507 64.4736L157.377 64.3602L157.572 64.3117ZM165.734 64.9756H165.863L165.831 65.1052C165.831 65.1807 165.874 65.2455 165.96 65.2995L165.782 65.4776H165.556L165.507 65.1538L165.734 64.9756Z" fill="black"/>
<g clip-path="url(#clip1_284_781)">
<rect width="8.652" height="6.489" transform="translate(205.485 51.912)" fill="black"/>
</g>
<rect x="205.485" y="9.37298" width="8.652" height="48.307" stroke="black" stroke-width="1.442"/>
<rect x="201.159" y="56.238" width="17.304" height="17.304" rx="8.652" fill="black"/>
</g>
<rect x="1.05" y="1.05" width="233.667" height="79.373" rx="12.95" stroke="black" stroke-width="2.1"/>
<defs>
<clipPath id="clip0_284_781">
<rect width="235.767" height="81.473" rx="14" fill="white"/>
</clipPath>
<clipPath id="clip1_284_781">
<rect x="204.764" y="8.65198" width="10.094" height="49.749" fill="white"/>
</clipPath>
</defs>
</svg>
