<svg width="227" height="82" viewBox="0 0 227 82" fill="none" xmlns="http://www.w3.org/2000/svg">
<g clip-path="url(#clip0_284_749)">
<rect width="226.514" height="82" rx="14" fill="#E0B36F"/>
<rect x="1.05" y="1.05" width="171.9" height="79.9" stroke="black" stroke-width="2.1"/>
<path d="M62.9585 16.7935C63.8006 16.8475 64.2811 17.1984 64.3998 17.8462C64.1083 18.0945 63.9626 18.2834 63.9626 18.413L64.0274 18.5587C63.887 18.6991 63.7035 18.7692 63.4768 18.7692L63.2015 18.7368V18.8826C63.2015 19.3792 63.0017 19.8596 62.6023 20.3239C62.7966 20.4103 62.8938 20.6046 62.8938 20.9069L62.829 21.4251L62.5213 21.1822L62.8776 21.8462L62.748 22.8502L62.9262 22.6559L62.8452 23.6113C62.8452 24.6154 63.2015 25.1174 63.914 25.1174C64.3243 25.1174 64.7291 25.0148 65.1286 24.8097C65.4633 24.9717 65.7979 25.0526 66.1326 25.0526C66.5537 25.0526 66.9477 24.9177 67.3148 24.6478L67.1043 24.9717C67.7305 24.9609 68.2055 24.8151 68.5294 24.5344C68.5294 24.6748 68.5726 24.7449 68.6589 24.7449C68.7777 24.7449 68.9558 24.6262 69.1934 24.3887L68.9828 23.7733C69.0152 23.6869 69.0422 23.6437 69.0638 23.6437C69.0746 23.6437 69.0854 23.6491 69.0962 23.6599C69.1178 23.7247 69.1502 23.7787 69.1934 23.8219C69.2473 23.8111 69.3553 23.5897 69.5172 23.1579C69.3985 22.7152 69.3391 22.3806 69.3391 22.1538C69.3391 21.7436 69.4201 21.3171 69.582 20.8745C69.5064 20.7341 69.4687 20.4588 69.4687 20.0486L69.5172 19.3846L69.0962 19.4332L69.3877 19.2227C68.6859 18.7152 68.3351 18.2618 68.3351 17.8623C68.3351 17.6464 68.4592 17.4359 68.7075 17.2308C68.9558 17.0256 69.2905 16.9231 69.7116 16.9231L70.3917 17.0202L71.0557 16.8907C71.5631 16.8907 72.022 17.1336 72.4322 17.6194L72.2703 18.0891L72.416 18.2024C72.1353 18.6775 71.7467 19.0175 71.25 19.2227L71.3148 20.0162C71.3148 20.3293 71.2662 20.4858 71.1691 20.4858L71.2662 20.7287L71.1205 21.2146L71.2986 21.2308L71.2824 22.0567C71.0233 22.2186 70.8938 22.3212 70.8938 22.3644L71.25 22.3482L71.1205 23.4332L71.3148 24.0486V24.5182C71.2176 24.7989 71.1691 25.0202 71.1691 25.1822C71.1691 25.4197 71.2554 25.5601 71.4282 25.6032L71.3796 25.9433C71.0233 25.9541 70.8236 26.1053 70.7804 26.3968C70.9531 26.2996 71.0881 26.251 71.1853 26.251C71.304 26.251 71.3634 26.3374 71.3634 26.5101C71.3634 26.5965 71.3472 26.7045 71.3148 26.834C71.2824 26.9528 71.2446 27.0823 71.2015 27.2227C71.1583 27.3522 71.1205 27.4872 71.0881 27.6275C71.0557 27.7679 71.0395 27.9028 71.0395 28.0324C71.0395 28.3455 71.1043 28.6532 71.2338 28.9555V30.332H70.9909V31.3198L71.25 31.2874C71.1961 31.5358 71.1529 31.8219 71.1205 32.1457C71.0881 32.4696 71.0719 32.8367 71.0719 33.247L71.0881 33.9919L71.4444 33.8623C71.5307 34.3698 71.8006 34.726 72.2541 34.9312V35.1579C71.6711 35.8165 71.1097 36.1457 70.5699 36.1457C70.3 36.1457 70.0409 36.0702 69.7925 35.919L69.582 36.2429L69.5011 35.9028C69.3391 35.9676 69.1718 36 68.999 36C68.6104 36 68.2325 35.7895 67.8654 35.3684L67.9302 34.9474C68.7075 34.5803 69.0962 34.0513 69.0962 33.3603C69.0962 33.0472 69.0152 32.7018 68.8533 32.3239C69.0908 32.1188 69.2096 31.8273 69.2096 31.4494L69.1124 30.7854C69.3391 30.224 69.4525 29.8623 69.4525 29.7004L69.4039 29.6194C69.3067 29.6194 69.107 29.83 68.8047 30.251C68.8803 29.6032 69.0962 29.1714 69.4525 28.9555L69.3229 28.2105C69.3229 27.6707 69.4255 27.1417 69.6306 26.6235L69.2743 27.1579C68.9073 26.9204 68.5672 26.8016 68.2541 26.8016L67.5091 26.9636C67.412 26.9636 67.3202 26.942 67.2338 26.8988C67.1475 26.8556 67.0557 26.807 66.9585 26.753C66.8722 26.6991 66.775 26.6505 66.667 26.6073C66.5699 26.5641 66.4511 26.5425 66.3108 26.5425C66.084 26.5425 65.6306 26.6505 64.9504 26.8664C64.6481 26.6937 64.2649 26.6073 63.8006 26.6073L62.8614 26.7045C63.0341 26.8772 63.1205 27.0229 63.1205 27.1417C63.1205 27.2605 63.0179 27.336 62.8128 27.3684L62.7804 28.0486L62.8776 29.4251L62.5213 29.8785L62.8614 29.7814V31.2874L62.6508 32.2429L63.1367 32L63.25 32.2753L62.6185 32.5506L62.9909 32.7287C62.8506 32.8259 62.7804 33.0526 62.7804 33.4089L62.7966 33.749C63.8762 34.1161 64.416 34.6289 64.416 35.2874C64.416 35.4278 64.3513 35.552 64.2217 35.6599C64.1029 35.7679 63.9626 35.8596 63.8006 35.9352C63.6387 36 63.4768 36.0486 63.3148 36.081C63.1529 36.1242 63.0341 36.1457 62.9585 36.1457L62.165 35.9676L61.3391 35.9838C61.1232 36.1134 60.9235 36.1781 60.7399 36.1781C60.524 36.1781 60.3243 36.0702 60.1407 35.8543L59.3472 35.7733L59.5415 35.498H59.3472C59.2716 35.39 59.2338 35.2713 59.2338 35.1417C59.2338 34.9798 59.2878 34.7962 59.3958 34.5911L60.0112 34.6559C60.497 34.3428 60.7939 33.9595 60.9019 33.5061C60.8047 33.4305 60.7561 33.3387 60.7561 33.2308C60.7561 33.1228 60.8209 33.004 60.9504 32.8745C60.8101 32.4858 60.7399 32.0648 60.7399 31.6113C60.7399 31.3738 60.7669 31.1741 60.8209 31.0121C60.8749 30.8394 60.9019 30.6775 60.9019 30.5263C60.9019 30.3536 60.8641 30.2294 60.7885 30.1538C60.7129 30.0675 60.6751 29.9595 60.6751 29.83C60.6751 29.7112 60.7183 29.5708 60.8047 29.4089C60.8911 29.247 60.9342 29.1066 60.9342 28.9879C60.9342 28.8907 60.9127 28.7665 60.8695 28.6154C60.8263 28.4642 60.8047 28.2429 60.8047 27.9514V27.6437C60.9666 27.2443 61.0476 26.7962 61.0476 26.2996C61.0476 26.0837 61.026 25.8462 60.9828 25.587C60.9504 25.3279 60.8965 25.0418 60.8209 24.7287C60.9504 24.6856 61.0152 24.5992 61.0152 24.4696C61.0152 24.3725 60.9558 24.2321 60.8371 24.0486C60.9127 23.9406 60.9504 23.7841 60.9504 23.5789C60.9504 23.2443 60.9127 22.9798 60.8371 22.7854L61.1448 22.8826C61.026 22.5263 60.9666 22.2132 60.9666 21.9433L61.0152 21.247L60.8047 21.4575C60.945 21.166 61.0152 20.7719 61.0152 20.2753L61.2581 19.6923L60.8695 19.5628C60.7291 18.8826 60.2649 18.4939 59.4768 18.3968L59.6549 17.1822L59.9626 17.247L59.7683 16.7935C60.0058 16.8907 60.2433 16.9393 60.4808 16.9393C60.7615 16.9393 61.026 16.8583 61.2743 16.6964C61.5442 16.7935 61.8033 16.8421 62.0517 16.8421C62.3755 16.8421 62.694 16.7611 63.0071 16.5992L62.9585 16.7935ZM80.6596 21.4575C80.692 21.803 81.2048 22.0405 82.1981 22.17C81.8202 22.4831 81.6313 22.7692 81.6313 23.0283C81.6313 23.1039 81.6475 23.1849 81.6798 23.2713C81.723 23.3576 81.7662 23.444 81.8094 23.5304C81.8634 23.6059 81.9066 23.6815 81.9389 23.7571C81.9821 23.8327 82.0037 23.8974 82.0037 23.9514C82.0037 24.0054 81.9929 24.0486 81.9713 24.081C81.9497 24.1134 81.9228 24.1565 81.8904 24.2105C81.858 24.2537 81.831 24.3185 81.8094 24.4049C81.7878 24.4804 81.777 24.5884 81.777 24.7287L81.8904 25.8138L81.6151 25.6356V26.996C81.8094 27.1579 81.9066 27.3144 81.9066 27.4656C81.9066 27.6167 81.8094 27.7625 81.6151 27.9028V29.3441L81.8904 29.4737V30.5587L81.6151 30.4939L81.9551 32.5506L81.6475 32.6316L81.8904 33.3441H81.9551C82.4626 33.3441 82.7163 33.4467 82.7163 33.6518L82.6515 33.8785L84.4491 34.0243L84.9187 33.9433C85.5557 33.9433 86.1117 34.413 86.5867 35.3522L86.2143 36.2267L85.5827 35.6113L85.4207 36.0486C85.2048 36.1242 84.9295 36.1619 84.5948 36.1619C84.0118 36.1619 83.445 35.9676 82.8944 35.5789L82.9754 36.2915L82.2143 35.9028L81.3236 36.2267L81.4207 35.5789C80.9133 35.9676 80.3789 36.1619 79.8175 36.1619C79.472 36.1619 79.051 36.054 78.5543 35.8381L77.5179 36.1296L75.7203 36.0486C75.6016 35.865 75.4666 35.7733 75.3155 35.7733C75.1319 35.7733 74.9268 35.8974 74.7001 36.1457L74.1981 35.5951L74.4086 34.6235C75.1643 34.5263 75.5422 34.359 75.5422 34.1215L77.2588 33.749L77.6475 33.9109C77.9821 33.5762 78.3006 33.4089 78.6029 33.4089L78.943 33.4899L79.526 32.583V32.0486C79.364 31.4872 79.2831 30.9744 79.2831 30.5101C79.2831 30.0459 79.364 29.6248 79.526 29.247L79.2669 28.9069L79.607 27.5789C79.5314 27.2767 79.4774 27.0013 79.445 26.753C79.4126 26.4939 79.3964 26.2618 79.3964 26.0567C79.3964 25.7328 79.445 25.4899 79.5422 25.3279L79.2183 25.1012C79.4018 24.8205 79.4936 24.6154 79.4936 24.4858C79.4936 24.4103 79.472 24.3563 79.4288 24.3239C79.3856 24.2807 79.3371 24.2429 79.2831 24.2105C79.2291 24.1673 79.1805 24.1296 79.1373 24.0972C79.0941 24.054 79.0726 23.9946 79.0726 23.919L79.1373 23.7085H78.0847C77.8688 23.5789 77.6367 23.5142 77.3883 23.5142C77.0105 23.5142 76.6218 23.6491 76.2223 23.919C75.7473 23.6707 75.5098 23.417 75.5098 23.1579L75.526 23.0283L75.7689 22.9312L75.526 22.5749L76.4005 21.6356L76.7406 21.9109L77.4207 21.9271C77.5827 21.7328 77.8202 21.6356 78.1333 21.6356C78.3276 21.6356 78.6623 21.7112 79.1373 21.8623C79.1913 22.0459 79.2399 22.1376 79.2831 22.1376C79.3587 22.1376 79.418 21.9055 79.4612 21.4413L80.6596 21.4575ZM80.5138 16.5992L80.7244 16.6154C81.0591 16.7773 81.3344 16.9339 81.5503 17.085C81.777 17.2362 81.9551 17.3873 82.0847 17.5385C82.2143 17.6896 82.306 17.8515 82.36 18.0243C82.414 18.197 82.441 18.3806 82.441 18.5749C82.441 18.8232 82.4086 19.0661 82.3438 19.3036C82.2898 19.5412 82.1981 19.7517 82.0685 19.9352C81.9497 20.1188 81.7932 20.2699 81.5989 20.3887C81.4045 20.4966 81.1724 20.556 80.9025 20.5668L79.8175 21.247L80.0604 20.583C78.9052 20.2267 78.3276 19.6977 78.3276 18.9959L78.3924 18.5587C78.2952 18.4939 78.2466 18.4022 78.2466 18.2834C78.2466 18.1107 78.2952 17.9541 78.3924 17.8138C78.4896 17.6626 78.5975 17.5331 78.7163 17.4251C78.835 17.3171 78.943 17.2362 79.0402 17.1822C79.1481 17.1282 79.2129 17.1012 79.2345 17.1012L79.3155 17.1174C79.3802 17.1174 79.4126 17.0634 79.4126 16.9555L79.3964 16.8259C79.3964 16.7179 79.4612 16.664 79.5908 16.664C79.7095 16.664 79.8121 16.7018 79.8985 16.7773C79.9956 16.8529 80.055 16.8907 80.0766 16.8907C80.0982 16.8907 80.1144 16.8745 80.1252 16.8421C80.1468 16.8097 80.1684 16.7773 80.19 16.7449C80.2223 16.7125 80.2601 16.6802 80.3033 16.6478C80.3573 16.6154 80.4275 16.5992 80.5138 16.5992ZM88.7088 41.7004L88.4011 41.6032C88.2284 41.0418 87.8829 40.6532 87.3647 40.4372L87.3323 40.0972C87.3323 39.8057 87.4241 39.6167 87.6076 39.5304C87.5104 38.8718 87.3485 38.5425 87.1218 38.5425L87.057 38.5587L87.2999 37.4575L87.2675 36.9393C87.2675 36.1835 87.5374 35.6653 88.0772 35.3846V35.2713C88.0772 34.9258 88.277 34.753 88.6764 34.753L88.7088 34.4777C87.7588 33.6896 87.2837 32.9717 87.2837 32.3239C87.2837 32.0108 87.3971 31.7139 87.6238 31.4332L87.3323 30.9312C87.8721 30.5209 88.3364 30.3158 88.725 30.3158C88.9086 30.3158 89.0759 30.359 89.227 30.4453L89.972 29.8947C89.918 29.7436 89.8262 29.668 89.6967 29.668L89.5024 29.7166L89.5833 29.2794C89.0003 28.4264 88.7088 27.5735 88.7088 26.7206C88.7088 26.3104 88.7628 25.9487 88.8708 25.6356L88.806 25.3603C88.806 25.058 88.9841 24.637 89.3404 24.0972L89.5024 24.1781L90.053 23.5142L90.1825 23.5304C90.366 23.5304 90.4578 23.4116 90.4578 23.1741L90.4416 22.9636L90.9113 22.7854L90.8303 22.4777C90.8303 22.2834 90.9382 22.0891 91.1542 21.8947C91.3701 22.0459 91.5752 22.1215 91.7696 22.1215C92.1366 22.1215 92.5307 21.8947 92.9517 21.4413H94.2959C94.4686 21.7112 94.7547 21.8462 95.1542 21.8462H95.2837L95.1704 22.5263C95.3971 22.224 95.6184 22.0729 95.8343 22.0729C96.1042 22.0729 96.3795 22.3104 96.6602 22.7854C97.0489 21.4683 97.497 20.8097 98.0044 20.8097L98.2959 20.8745L98.2797 20.5992L98.6198 20.7449L99.057 20.5182L98.9275 20.7935L99.219 20.7449C99.6832 20.7449 100.115 21.1228 100.514 21.8785L100.725 21.7004C100.898 22.3266 100.984 22.8772 100.984 23.3522C100.984 24.0108 100.784 24.3779 100.385 24.4534L100.434 24.664C99.613 24.6532 99.2028 24.448 99.2028 24.0486L98.976 23.9352L99.0246 23.0607C99.0246 22.5425 98.949 22.2834 98.7979 22.2834C98.6683 22.2834 98.474 22.4993 98.2149 22.9312C98.2905 23.0391 98.3283 23.1687 98.3283 23.3198C98.3283 23.5789 98.1987 23.8435 97.9396 24.1134C98.0044 24.4912 98.1177 24.6802 98.2797 24.6802L98.4092 24.6478L98.9436 26.3158L98.5874 26.4291L98.9275 26.9798V27.2227C98.9275 28.4103 98.636 29.2524 98.053 29.749C97.9126 30.6883 97.2756 31.1687 96.142 31.1903C95.613 31.6869 94.9868 31.9352 94.2635 31.9352C93.497 31.9352 92.6171 31.6167 91.6238 30.9798C91.5051 31.2605 91.2243 31.4008 90.7817 31.4008L90.4092 31.3684C90.636 31.5843 90.7493 31.7571 90.7493 31.8866C90.7493 31.973 90.7169 32.0432 90.6521 32.0972C90.5874 32.1404 90.5172 32.1835 90.4416 32.2267C90.366 32.2699 90.2959 32.3131 90.2311 32.3563C90.1663 32.3887 90.1339 32.4318 90.1339 32.4858C90.1339 32.5506 90.1825 32.6208 90.2797 32.6964L89.9072 32.7287L89.8586 32.4534C89.8586 32.2267 89.9882 32.0378 90.2473 31.8866C90.1069 31.7463 89.972 31.6761 89.8424 31.6761C89.5725 31.6761 89.3782 32.0756 89.2594 32.8745C89.8748 32.9825 90.2419 33.3711 90.3607 34.0405L91.3971 33.8462L91.5428 34.0405C91.9315 33.3387 92.4605 32.9879 93.1299 32.9879C93.443 32.9879 93.7291 33.0418 93.9882 33.1498C94.3445 33.031 94.6414 32.9717 94.8789 32.9717C95.4835 32.9717 96.0503 33.2362 96.5793 33.7652C96.9787 33.5816 97.3134 33.4899 97.5833 33.4899C98.2095 33.4899 98.7385 33.8516 99.1704 34.5749H99.6886L99.6724 34.8988C99.6724 35.4062 99.8235 35.8111 100.126 36.1134L100.061 36.5344C100.061 36.7395 100.11 36.9285 100.207 37.1012C100.336 36.9501 100.444 36.8745 100.531 36.8745C100.693 36.8745 100.774 37.1228 100.774 37.6194V37.7004C100.514 38.0243 100.385 38.3752 100.385 38.753C100.385 39.0877 100.482 39.4386 100.676 39.8057C100.493 39.9244 100.401 40.0972 100.401 40.3239L100.434 40.6154L100.239 40.5182C100.174 40.5182 100.11 40.5668 100.045 40.664C99.9801 40.7611 99.8991 40.8691 99.8019 40.9879C99.7156 41.1174 99.6022 41.247 99.4619 41.3765C99.3215 41.5061 99.1488 41.6032 98.9436 41.668C98.4578 41.83 98.1933 42.0729 98.1501 42.3968C98.0206 42.2996 97.8856 42.251 97.7453 42.251C97.4322 42.251 97.0975 42.4831 96.7412 42.9474C96.4821 42.861 96.2716 42.8178 96.1096 42.8178C95.7642 42.8178 95.4241 42.9204 95.0894 43.1255C94.8627 43.0283 94.6306 42.9798 94.393 42.9798C94.0907 42.9798 93.7723 43.0607 93.4376 43.2227L91.9315 43.1255C91.4889 42.7476 90.8897 42.5101 90.1339 42.413C90.0044 42.1215 89.7885 41.9757 89.4862 41.9757C89.2702 41.9757 89.0597 42.0297 88.8546 42.1377L88.7088 41.7004ZM91.5428 28.9069L91.721 28.9231C92.0449 28.9231 92.2716 28.7719 92.4011 28.4696H92.6441C92.6441 28.7179 92.8276 28.8961 93.1947 29.004C92.9787 29.0904 92.8708 29.2092 92.8708 29.3603L92.887 29.4899L93.3566 29.3117C93.5077 29.8516 93.6805 30.1215 93.8748 30.1215C93.9612 30.1215 94.0476 30.0783 94.1339 29.9919L95.2028 29.9433C95.6238 29.8462 95.8613 29.5762 95.9153 29.1336C96.2932 29.0364 96.5901 28.8529 96.806 28.583C97.0327 28.3131 97.1461 27.9946 97.1461 27.6275C97.1461 27.4656 97.1083 27.309 97.0327 27.1579C96.9571 26.996 96.8708 26.8286 96.7736 26.6559C96.6872 26.4831 96.6063 26.2996 96.5307 26.1053C96.4551 25.9109 96.4173 25.6896 96.4173 25.4413L96.4335 25.085C96.1852 25.3765 95.9153 25.5223 95.6238 25.5223L95.4133 25.4899C95.4133 24.9501 95.5158 24.4696 95.721 24.0486C95.4511 23.8758 95.0894 23.7895 94.636 23.7895L93.8262 23.8704L93.8748 23.6761C93.8748 23.5358 93.7777 23.4494 93.5833 23.417L93.5024 23.8704C93.2324 23.7301 92.9409 23.6599 92.6279 23.6599C91.9477 23.6599 91.2945 24.0486 90.6683 24.8259L90.9436 24.7125C91.0948 24.7125 91.1812 24.8745 91.2028 25.1984L90.7007 25.5708L91.0084 25.749C90.8357 26.0513 90.7493 26.3266 90.7493 26.5749C90.7493 26.6829 90.7709 26.78 90.8141 26.8664C90.8681 26.9528 90.9275 27.0391 90.9922 27.1255C91.057 27.2011 91.111 27.2767 91.1542 27.3522C91.2082 27.417 91.2351 27.4818 91.2351 27.5466C91.2351 27.6761 91.1218 27.7625 90.8951 27.8057C91.057 28 91.2082 28.0972 91.3485 28.0972L91.4943 28.0648L91.5428 28.9069ZM90.6198 33.4413L91.1542 33.3441C91.4349 33.3441 91.5752 33.4683 91.5752 33.7166V33.7976C91.4889 33.7112 91.3755 33.668 91.2351 33.668C91.0408 33.668 90.8033 33.7436 90.5226 33.8947L90.6198 33.4413ZM89.5185 38.251C89.7129 38.305 89.81 38.5209 89.81 38.8988V39.0769C90.0152 39.1201 90.1987 39.2011 90.3607 39.3198C90.5334 39.4494 90.6953 39.5789 90.8465 39.7085C90.9976 39.8489 91.1488 39.9676 91.2999 40.0648C91.4511 40.1727 91.6184 40.2267 91.8019 40.2267L92.2554 40.1619L92.2068 40.502L92.6279 40.5668C93.0381 40.5668 93.254 40.3131 93.2756 39.8057C93.5131 40.2699 93.7561 40.502 94.0044 40.502C94.1771 40.502 94.3553 40.3887 94.5388 40.1619L94.8303 40.2267C95.0246 40.2267 95.1866 40.1134 95.3161 39.8866L95.9963 39.9514C97.0543 39.9514 97.9288 39.363 98.6198 38.1862V38.1215C98.6198 37.5924 98.3876 37.3279 97.9234 37.3279L97.5995 37.3765C97.2648 36.6208 96.806 36.2429 96.223 36.2429L95.9477 36.2753C95.8181 36.0486 95.6778 35.9352 95.5266 35.9352C95.3755 35.9352 95.2297 36.0216 95.0894 36.1943L94.3768 35.4818C93.9342 35.5789 93.5887 35.8543 93.3404 36.3077C93.0057 36.2969 92.8384 36.1997 92.8384 36.0162L93.0489 35.5628C92.7682 35.5628 92.6279 35.7625 92.6279 36.1619L92.6441 36.4211C92.3957 36.1727 92.1582 36.0486 91.9315 36.0486C91.7156 36.0486 91.4997 36.1404 91.2837 36.3239C91.0894 36.1943 90.9059 36.1296 90.7331 36.1296C90.2473 36.1296 89.837 36.5722 89.5024 37.4575L89.5185 38.251ZM98.2311 37.5709C98.4038 37.776 98.4902 37.9433 98.4902 38.0729C98.4902 38.1808 98.4092 38.2348 98.2473 38.2348L97.891 38.1862L98.2311 37.5709ZM102.701 36.2105C102.205 36.2105 101.843 35.973 101.616 35.498C101.616 34.3968 101.821 33.8462 102.232 33.8462C102.361 33.8462 102.48 33.8839 102.588 33.9595L102.685 33.83C102.674 33.7976 102.669 33.7706 102.669 33.749C102.669 33.5978 102.863 33.4521 103.252 33.3117C103.176 33.0526 103.139 32.7611 103.139 32.4372C103.139 32.1889 103.176 32.0324 103.252 31.9676L103.317 32.0648C103.414 32.0648 103.463 31.9946 103.463 31.8543C103.409 31.7895 103.382 31.7247 103.382 31.6599V31.5628C103.382 31.5088 103.371 31.4386 103.349 31.3522C103.317 31.2551 103.29 31.1579 103.268 31.0607C103.247 30.9528 103.236 30.8664 103.236 30.8016C103.236 30.5965 103.333 30.4939 103.527 30.4939L103.058 29.9271C103.274 29.3117 103.382 28.8961 103.382 28.6802C103.382 28.3995 103.284 28.2321 103.09 28.1781V27.417C103.241 26.9636 103.317 26.6127 103.317 26.3644C103.317 25.9433 103.176 25.5601 102.896 25.2146L103.657 25.0202L103.576 23.8542L103.446 24.8907L103.009 24.8583C103.139 24.3077 103.203 23.7949 103.203 23.3198C103.203 22.6289 103.068 22.0189 102.799 21.4899L103.187 20.5992L103.236 20.2753C103.236 19.9514 103.117 19.6545 102.88 19.3846C103.128 19.363 103.252 19.2605 103.252 19.0769C103.252 18.9366 103.214 18.7962 103.139 18.6559L102.799 18.834C102.615 18.5533 102.388 18.413 102.118 18.413L101.811 18.4777L101.341 18.251L101.276 17.6194L101.875 17.1336L101.584 16.8907C101.714 16.4049 102 16.1619 102.442 16.1619L102.831 16.2105L103.43 16.0648L103.981 16.3725C104.132 16.2213 104.332 16.1457 104.58 16.1457L105.147 16.2429L105.212 16.8421L105.568 16.7125L105.924 17.3441L105.665 17.7166C105.989 17.9109 106.151 18.1592 106.151 18.4615C106.151 18.7962 105.973 19.1903 105.616 19.6437L106.07 19.9676L105.681 21.1984L106.021 21.5223V22.1053H106.507L107.041 22.4777L107.139 22.2186L107.948 21.5385L108.288 22.0729L108.515 21.4899L109.39 21.7166C109.465 21.5547 109.568 21.4737 109.697 21.4737C109.773 21.4737 109.859 21.5115 109.956 21.587C110.054 21.6626 110.151 21.749 110.248 21.8462C110.356 21.9433 110.453 22.0297 110.539 22.1053C110.637 22.1808 110.723 22.2186 110.799 22.2186L111.187 22.0891C111.382 22.0891 111.608 22.2834 111.867 22.6721C112.04 22.4993 112.191 22.413 112.321 22.413C112.472 22.413 112.596 22.5209 112.693 22.7368L113.147 23.919L112.871 24.583C113.271 24.6586 113.471 25.2901 113.471 26.4777L113.098 26.8826C113.271 27.0553 113.357 27.2173 113.357 27.3684C113.357 27.5412 113.244 27.6977 113.017 27.8381L113.082 28.2753L113.195 28.2429C113.292 28.2429 113.341 28.3347 113.341 28.5182C113.341 28.691 113.249 29.1174 113.066 29.7976V30.413C113.206 30.4238 113.276 30.5101 113.276 30.6721C113.276 30.8124 113.228 31.0121 113.131 31.2713V31.7247L113.6 32.4696L113.147 32.8097C113.244 33.6194 113.643 34.1323 114.345 34.3482L114.491 35.1093L114.135 35.8057C113.994 35.8812 113.821 35.919 113.616 35.919C113.411 35.919 113.238 35.8812 113.098 35.8057C112.785 35.9352 112.461 36 112.126 36C111.781 36 111.425 35.9352 111.058 35.8057L110.539 36.1457L110.361 36.1781C110.34 36.027 110.275 35.9514 110.167 35.9514C110.059 35.9406 109.935 35.9028 109.794 35.8381C109.654 35.7625 109.525 35.6545 109.406 35.5142C109.287 35.363 109.228 35.1417 109.228 34.8502C109.228 34.5263 109.282 34.2564 109.39 34.0405C110.253 34.0189 110.685 33.7706 110.685 33.2955C110.707 33.2416 110.718 33.193 110.718 33.1498C110.718 33.0634 110.685 32.9879 110.62 32.9231C110.836 32.6424 110.944 32.4049 110.944 32.2105C110.944 32.0162 110.831 31.8435 110.604 31.6923L110.458 30.9474C110.728 30.4184 110.863 29.9703 110.863 29.6032C110.863 29.2578 110.745 29.0148 110.507 28.8745L110.993 28.4696L110.507 27.8704L110.491 27.0769C110.523 27.0661 110.55 27.0607 110.572 27.0607C110.647 27.0607 110.701 27.0931 110.734 27.1579C110.885 27.1579 110.982 27.0229 111.025 26.753C110.971 26.7206 110.923 26.7045 110.88 26.7045C110.826 26.7045 110.788 26.7368 110.766 26.8016C110.529 26.8016 110.41 26.6559 110.41 26.3644L110.734 25.0688L110.167 24.9879L110.232 24.5668C110.232 24.1889 110.037 24 109.649 24L109.244 24.0486L109.195 24.3563C108.947 24.3023 108.72 24.2591 108.515 24.2267C108.31 24.1943 108.126 24.1781 107.965 24.1781C107.619 24.1781 107.236 24.2537 106.815 24.4049L106.199 24.1781L106.07 24.7287C105.757 24.9447 105.6 25.274 105.6 25.7166L105.681 26.332C105.53 26.3968 105.438 26.5047 105.406 26.6559C105.438 26.6451 105.465 26.6397 105.487 26.6397C105.541 26.6397 105.568 26.6559 105.568 26.6883C105.568 26.7314 105.6 26.7638 105.665 26.7854C105.741 26.7962 105.805 26.8178 105.859 26.8502C105.913 26.8826 105.94 26.9366 105.94 27.0121C105.94 27.1093 105.902 27.2335 105.827 27.3846C105.751 27.5358 105.714 27.6815 105.714 27.8219C105.714 28.081 105.832 28.3617 106.07 28.664C105.692 29.0202 105.503 29.3117 105.503 29.5385C105.503 29.7652 105.665 29.9325 105.989 30.0405V32.4534C105.805 32.3023 105.665 32.2267 105.568 32.2267C105.449 32.2267 105.39 32.3347 105.39 32.5506L105.487 33.1984L106.086 32.8745L106.248 34.0243L106.75 33.9271C107.149 33.9271 107.349 34.2024 107.349 34.753L107.284 35.417C107.004 35.6113 106.745 35.8704 106.507 36.1943C106.226 36.108 105.978 36.0648 105.762 36.0648C105.579 36.0648 105.379 36.0756 105.163 36.0972C104.947 36.1296 104.72 36.1727 104.483 36.2267L104.046 35.8057L103.252 36.2105H102.701ZM39.9535 51.0364C40.0939 51.0364 40.2504 51.085 40.4232 51.1822C40.5959 51.2794 40.7578 51.3279 40.909 51.3279C41.1681 51.3279 41.4434 51.1984 41.7349 50.9393L42.3017 51.2632C42.442 51.0256 42.5878 50.9069 42.7389 50.9069C42.8037 50.9069 42.8631 50.9339 42.9171 50.9879C42.9819 51.0418 43.0466 51.1012 43.1114 51.166C43.1762 51.22 43.2356 51.274 43.2896 51.3279C43.3543 51.3819 43.4137 51.4089 43.4677 51.4089C43.608 51.4089 43.743 51.2955 43.8725 51.0688C44.1856 51.6086 44.3422 52.0351 44.3422 52.3482C44.3422 52.5749 44.2774 52.7368 44.1478 52.834C44.0291 52.9204 43.8941 52.9852 43.743 53.0283C43.6026 53.0715 43.4677 53.1093 43.3381 53.1417C43.2194 53.1741 43.16 53.2389 43.16 53.336L42.5608 53.1579C42.4313 53.1579 42.3665 53.2227 42.3665 53.3522C42.3665 53.5681 42.5392 53.9622 42.8847 54.5344L42.7551 55.4089C42.7551 55.5816 42.7821 55.7382 42.8361 55.8785C42.8901 56.0081 42.9495 56.1269 43.0142 56.2348C43.079 56.3428 43.1384 56.4399 43.1924 56.5263C43.2464 56.6127 43.2734 56.6937 43.2734 56.7692C43.2734 56.8232 43.2572 56.8718 43.2248 56.915C43.2032 56.9474 43.1762 56.9906 43.1438 57.0445C43.1222 57.0877 43.0952 57.1471 43.0628 57.2227C43.0412 57.2874 43.0304 57.3738 43.0304 57.4818L43.1924 58.583L43.581 58.3077L43.3381 59.2794L43.4839 59.9757L43.4029 60.6073C43.4029 60.8016 43.4353 60.9798 43.5001 61.1417C43.5649 61.2928 43.635 61.4494 43.7106 61.6113C43.7862 61.7625 43.8564 61.9244 43.9211 62.0972C43.9859 62.2591 44.0183 62.4534 44.0183 62.6802L44.0021 63.004C44.0021 63.166 44.0345 63.247 44.0993 63.247C44.1748 63.247 44.3206 63.0742 44.5365 62.7287L44.7147 63.83C45.2113 62.9447 45.4596 62.0756 45.4596 61.2227V61.0283L45.6539 61.0931C45.7295 61.0931 45.7673 61.0283 45.7673 60.8988L45.6863 60.2348C45.6863 59.8462 45.8213 59.4035 46.0912 58.9069L45.7187 58.8907L46.3341 58.081L46.577 57.2551C46.7605 57.2551 46.8523 57.1795 46.8523 57.0283C46.8523 56.8664 46.7659 56.6505 46.5932 56.3806L46.7551 55.6842L47.16 55.6518L46.9171 54.9879C47.1006 54.8907 47.1924 54.7665 47.1924 54.6154C47.1924 54.4966 47.1546 54.3833 47.079 54.2753L47.4677 54.0324L47.2248 53.5789C47.4731 53.4602 47.5972 53.3468 47.5972 53.2389C47.5972 53.1525 47.5055 53.0661 47.3219 52.9798L46.5932 53.0283C45.9994 53.0283 45.7025 52.9096 45.7025 52.6721C45.7025 52.5749 45.7511 52.4615 45.8483 52.332L45.33 51.9271L45.7187 51.004L47.241 51.3279C47.4677 51.058 47.716 50.9231 47.9859 50.9231C48.3098 50.9231 48.6607 51.1174 49.0385 51.5061C49.3408 51.2686 49.5784 51.1498 49.7511 51.1498C49.8698 51.1498 49.9292 51.2362 49.9292 51.4089L49.913 51.587L50.3503 51.4089L50.3341 51.3441C50.3341 51.2362 50.4528 51.1822 50.6904 51.1822L50.9819 51.1984L51.5487 51.8947C51.4515 52.8016 51.1708 53.2551 50.7066 53.2551L50.3665 53.1903C49.9238 53.2874 49.7025 53.7139 49.7025 54.4696L49.6701 55.2955L49.3462 55.3117C49.465 55.4953 49.5244 55.6572 49.5244 55.7976C49.5244 55.8947 49.4974 55.9973 49.4434 56.1053C49.3894 56.2024 49.3246 56.305 49.2491 56.413C49.1843 56.5209 49.1249 56.6397 49.0709 56.7692C49.0169 56.888 48.99 57.0229 48.99 57.1741L49.0062 57.3846L48.4879 57.5789L48.8604 57.9676C48.4286 58.3887 48.2126 58.9285 48.2126 59.587L48.245 60.0405L48.0507 59.9433C47.9859 59.9433 47.9373 60.0135 47.9049 60.1538C47.8833 60.2942 47.8671 60.4723 47.8564 60.6883C47.8456 60.9042 47.8348 61.1363 47.824 61.3846C47.824 61.6329 47.8186 61.8704 47.8078 62.0972L47.1762 62.1457L47.5649 62.4534L47.4677 62.9393C47.0466 63.1228 46.8361 63.3117 46.8361 63.5061C46.8361 63.6248 46.9279 63.7598 47.1114 63.9109L46.4151 64.6883L46.6418 65.1093L46.3017 65.4494L46.3179 65.5466C46.3179 65.8596 45.7187 66.1026 44.5203 66.2753L43.743 66.2591C43.6026 65.8596 43.1438 65.6437 42.3665 65.6113L42.6094 65.0769C42.2423 64.8826 42.0588 64.6667 42.0588 64.4291C42.0588 64.2996 42.1236 64.1592 42.2531 64.0081L42.0102 63.7976L42.0912 63.1174C42.0912 62.8907 42.0534 62.7126 41.9778 62.583C41.9022 62.4534 41.8213 62.3401 41.7349 62.2429C41.6485 62.135 41.5676 62.0216 41.492 61.9028C41.4164 61.7841 41.3786 61.6167 41.3786 61.4008L41.4758 60.7368C41.0763 60.4345 40.8766 60.1484 40.8766 59.8785C40.8766 59.695 40.9468 59.5331 41.0871 59.3927L40.9252 59.0364L40.99 58.6802C40.99 58.3023 40.7686 57.892 40.326 57.4494L40.6175 56.5911L40.2126 56.251L40.2936 55.3441C40.2936 54.7287 40.1371 54.2483 39.824 53.9028L40.0021 53.5628C39.7106 53.2605 39.4299 53.1093 39.16 53.1093C38.9549 53.1093 38.7551 53.1903 38.5608 53.3522L38.0264 52.8016L38.2369 52.5263C38.075 52.4291 37.994 52.2672 37.994 52.0405C37.994 51.749 38.0966 51.4035 38.3017 51.004C38.6364 51.274 38.9225 51.4089 39.16 51.4089C39.2464 51.4089 39.3165 51.3927 39.3705 51.3603C39.4353 51.3171 39.4947 51.274 39.5487 51.2308C39.6134 51.1768 39.6728 51.1336 39.7268 51.1012C39.7916 51.058 39.8671 51.0364 39.9535 51.0364ZM57.2497 51.166L57.8975 51.1174C58.2969 51.1174 58.5938 51.1552 58.7882 51.2308L59.2092 51.085C59.3496 51.2254 59.5169 51.2955 59.7113 51.2955C59.8948 51.2955 60.1107 51.2146 60.359 51.0526V51.1498C60.359 51.5061 60.5156 51.6842 60.8287 51.6842L60.9906 51.668C61.1741 51.668 61.3199 51.7058 61.4279 51.7814C61.5466 51.8462 61.6492 51.9271 61.7355 52.0243C61.8219 52.1215 61.9029 52.224 61.9785 52.332C62.0648 52.4291 62.162 52.5101 62.27 52.5749C62.4859 52.6721 62.6694 52.9744 62.8206 53.4818L63.5331 53.8057V53.8866C63.5331 54.0486 63.5493 54.1727 63.5817 54.2591C63.6249 54.3455 63.6681 54.4211 63.7113 54.4858C63.7652 54.5398 63.8084 54.5938 63.8408 54.6478C63.884 54.7018 63.9056 54.7827 63.9056 54.8907L63.8894 55.0526C63.8894 55.2901 64.0405 55.5924 64.3428 55.9595L64.2295 56.332L64.2457 56.9798L64.6343 57.6275L64.6829 58.081C64.6829 58.448 64.6019 58.8151 64.44 59.1822V60.0243C64.5803 60.2942 64.6505 60.5965 64.6505 60.9312L64.6343 61.1903C64.0297 61.5789 63.6951 62.1188 63.6303 62.8097C63.5655 63.5007 62.8206 64.3644 61.3955 65.4008H60.2942C59.9488 65.7787 59.5763 65.9676 59.1768 65.9676C59.0581 65.9676 58.9393 65.9514 58.8206 65.919C58.7018 65.8758 58.5723 65.8327 58.4319 65.7895C58.2915 65.7463 58.1404 65.7085 57.9785 65.6761C57.8165 65.6329 57.633 65.6113 57.4279 65.6113L56.2457 65.7247L54.7882 64.7692L54.9177 64.2996L54.1566 64.1538L54.2214 63.9271C54.2214 63.8516 54.1836 63.8138 54.108 63.8138L53.9461 63.8462C53.8813 63.5655 53.7193 63.3009 53.4602 63.0526L53.7355 62.583L53.3631 62.5506V62.4534C53.3631 62.1619 53.3307 61.9136 53.2659 61.7085C53.2011 61.4926 53.131 61.3144 53.0554 61.1741C52.9906 61.0229 52.9258 60.8934 52.861 60.7854C52.7963 60.6667 52.7639 60.5587 52.7639 60.4615L52.7801 60.332C52.7801 60.1053 52.6613 59.7598 52.4238 59.2955L52.7153 59.0364L52.3914 58.9879C52.5426 58.7072 52.6181 58.4588 52.6181 58.2429L52.4724 57.6113C52.4724 57.5789 52.4832 57.552 52.5048 57.5304C52.5264 57.498 52.548 57.444 52.5696 57.3684C52.5911 57.2928 52.6127 57.1849 52.6343 57.0445C52.6667 56.8934 52.6883 56.6775 52.6991 56.3968C52.7207 55.8569 52.7585 55.587 52.8125 55.587L52.942 55.7166C52.9636 55.7166 52.996 55.6626 53.0392 55.5547C53.0824 55.4467 53.104 55.3171 53.104 55.166L52.9744 54.583C53.0068 54.4426 53.05 54.2915 53.104 54.1296C53.1687 53.9676 53.2335 53.8165 53.2983 53.6761C53.3739 53.5358 53.4548 53.4224 53.5412 53.336C53.6276 53.2389 53.7193 53.1903 53.8165 53.1903C53.9029 53.1903 53.9893 53.2335 54.0756 53.3198V52.9636L55.4036 52.3806V51.9919L55.7598 52.1862C56.1917 51.5924 56.6883 51.2524 57.2497 51.166ZM59.193 53.6113L58.9339 53.8057C58.6748 53.7301 58.3671 53.6923 58.0108 53.6923C57.4171 53.6923 57.0878 53.8866 57.023 54.2753C56.9582 54.5884 56.8449 54.8043 56.6829 54.9231C56.521 55.031 56.3536 55.1174 56.1809 55.1822C56.0189 55.2362 55.8732 55.3063 55.7436 55.3927C55.6141 55.4791 55.5493 55.6464 55.5493 55.8947L55.5655 55.9109C55.5655 56.1053 55.5493 56.278 55.5169 56.4291C55.4845 56.5803 55.4467 56.7206 55.4036 56.8502C55.3604 56.969 55.3226 57.0823 55.2902 57.1903C55.2578 57.2982 55.2416 57.4062 55.2416 57.5142L55.3712 58.3077L55.274 58.8583L55.3712 59.5385L55.2416 60.9798C55.2416 61.6059 55.5277 62.081 56.0999 62.4049C56.359 62.4588 56.548 62.5506 56.6667 62.6802C56.7963 62.8097 56.8934 62.9447 56.9582 63.085C57.0338 63.2146 57.0986 63.3333 57.1525 63.4413C57.2173 63.5385 57.3253 63.587 57.4764 63.587L58.6748 63.3117C58.7936 63.3117 58.9015 63.3333 58.9987 63.3765C59.0959 63.4089 59.1876 63.4521 59.274 63.5061C59.3604 63.5493 59.4413 63.5924 59.5169 63.6356C59.6033 63.668 59.6897 63.6842 59.776 63.6842C59.884 63.6842 60.0028 63.6572 60.1323 63.6032C60.2619 63.5385 60.3806 63.4629 60.4886 63.3765C60.5965 63.2901 60.6829 63.2038 60.7477 63.1174C60.8233 63.031 60.8611 62.9609 60.8611 62.9069C60.8611 62.8421 60.8233 62.7881 60.7477 62.7449C61.6222 62.3347 62.0972 61.5789 62.1728 60.4777L62.4157 60.6397L62.108 59.6032L62.1404 59.1498L62.6748 59.3765C62.5777 59.139 62.4103 58.9879 62.1728 58.9231C62.3779 58.6856 62.4805 58.4372 62.4805 58.1781C62.4805 57.919 62.3779 57.6707 62.1728 57.4332L62.2052 57.1417C62.2052 56.9582 62.162 56.8124 62.0756 56.7045C62.0001 56.5965 61.9623 56.4345 61.9623 56.2186L61.9785 55.8947C61.9785 55.7328 61.9191 55.6086 61.8003 55.5223C61.6924 55.4251 61.5628 55.3387 61.4117 55.2632C61.2713 55.1876 61.1364 55.1066 61.0068 55.0202C60.888 54.9231 60.8179 54.7881 60.7963 54.6154C60.7531 54.2915 60.413 54.0864 59.776 54L59.7922 54.1457C59.7922 54.5668 59.4359 54.7773 58.7234 54.7773H58.6748C58.9339 54.6478 59.0635 54.5236 59.0635 54.4049C59.0635 54.3293 59.0149 54.2591 58.9177 54.1943C59.3172 54.1835 59.5169 54.1403 59.5169 54.0648C59.5169 54 59.409 53.9244 59.193 53.8381V53.6113ZM73.056 47.1012C73.3583 47.274 73.72 47.3603 74.1411 47.3603L74.5783 47.3279L74.4811 48.0243C74.4811 48.197 74.5027 48.3536 74.5459 48.4939C74.5999 48.6343 74.6593 48.7584 74.724 48.8664C74.7888 48.9744 74.8428 49.0769 74.886 49.1741C74.94 49.2605 74.967 49.3414 74.967 49.417C74.967 49.5142 74.9292 49.5951 74.8536 49.6599C74.778 49.7247 74.7402 49.8327 74.7402 49.9838C74.7402 50.1781 74.778 50.3455 74.8536 50.4858L74.5783 51.1012L74.4811 53.498C74.7834 53.7571 74.9346 53.946 74.9346 54.0648C74.9346 54.1403 74.8806 54.1835 74.7726 54.1943C74.6971 54.5398 74.6377 54.8637 74.5945 55.166C74.5621 55.4683 74.5459 55.749 74.5459 56.0081C74.5459 56.5371 74.5999 56.942 74.7079 57.2227L74.5783 57.9676C74.7187 58.1727 74.7888 58.3941 74.7888 58.6316C74.7888 58.8691 74.7187 59.1066 74.5783 59.3441L74.8536 59.4737V60.5587L74.5783 60.4939V62.502L74.967 62.8745L74.8536 63.668H74.9184C75.2639 63.668 75.496 63.8462 75.6147 64.2024C76.133 64.1053 76.5918 64.0567 76.9913 64.0567C78.168 64.0567 78.8212 64.4885 78.9508 65.3522L78.384 66.0486H75.8091L75.7605 66.3401L75.388 65.919L74.4811 66.0486L74.384 65.5789L73.72 65.9676C73.4933 66.0432 73.218 66.081 72.8941 66.081C72.5054 66.081 72.1761 65.9946 71.9062 65.8219L70.4811 66.1296C70.168 66.0324 69.828 65.9838 69.4609 65.9838L68.6836 66.0486C68.5216 65.8003 68.2733 65.6761 67.9386 65.6761C67.6795 65.6761 67.469 65.7139 67.307 65.7895L67.1613 65.5951C67.2153 65.1957 67.4042 64.834 67.7281 64.5101C68.2571 64.4777 68.5216 64.359 68.5216 64.1538L68.5054 64.0729C68.7321 64.1484 69.0398 64.1862 69.4285 64.1862L70.4811 64.0567L70.6107 64.2348C70.9454 63.9001 71.2639 63.7328 71.5662 63.7328L71.9062 63.8138L72.4892 62.583V62.0486C72.3381 61.444 72.2625 60.9096 72.2625 60.4453C72.2625 59.7112 72.3651 59.0364 72.5702 58.4211C72.4191 58.1403 72.3435 57.892 72.3435 57.6761C72.3435 57.4818 72.4191 57.2928 72.5702 57.1093L72.4892 55.8785L72.1977 56.0405V54.664L72.4892 54.7287V54.502C72.4892 54.0054 72.3921 53.6977 72.1977 53.5789C72.3597 53.1795 72.4568 52.6883 72.4892 52.1053L72.2463 52.1215L72.2301 51.7004C72.2301 51.2686 72.2787 50.7989 72.3759 50.2915L71.89 49.919C72.2787 49.9082 72.473 49.8542 72.473 49.7571C72.473 49.7463 72.4514 49.7193 72.4083 49.6761C72.3759 49.6329 72.3327 49.5897 72.2787 49.5466C72.2355 49.4926 72.1923 49.4386 72.1491 49.3846C72.1168 49.3198 72.1006 49.2605 72.1006 49.2065V49.1741C71.9386 49.1093 71.7713 49.0769 71.5985 49.0769L71.0479 49.1741C70.8212 48.861 70.5837 48.7045 70.3354 48.7045C70.195 48.7045 70.0547 48.7422 69.9143 48.8178C69.7848 48.8826 69.6552 48.915 69.5257 48.915C69.3745 48.915 69.2342 48.8772 69.1046 48.8016C68.9859 48.7152 68.7969 48.6721 68.5378 48.6721C68.2355 48.6721 67.8361 48.7368 67.3394 48.8664L67.5176 48.3644C67.5176 48.2456 67.4582 48.1862 67.3394 48.1862L66.8698 48.332V47.8785L67.7443 47.085L67.9548 47.3927L69.2504 47.1822L69.4771 46.9555L69.72 47.2632L69.9305 47.004H70.222L70.384 47.2632C70.5459 47.1876 70.7888 47.1498 71.1127 47.1498C71.3502 47.1498 71.6795 47.2092 72.1006 47.3279C72.1438 47.5331 72.2031 47.6356 72.2787 47.6356C72.3327 47.6356 72.4029 47.4575 72.4892 47.1012H73.056ZM85.1215 63.166L84.5385 62.5992L85.1377 62.2105L84.6356 61.6437L84.587 60.8502C84.587 60.2024 84.7004 59.668 84.9271 59.247L84.668 58.9069L85.0081 57.5789C84.7166 57.309 84.5709 57.0499 84.5709 56.8016C84.5709 56.5425 84.7652 56.3212 85.1538 56.1377L84.6194 54.9393C84.803 54.6586 84.8947 54.4534 84.8947 54.3239C84.8947 54.2483 84.8731 54.1943 84.83 54.1619C84.7868 54.1188 84.7382 54.081 84.6842 54.0486C84.6302 54.0054 84.5816 53.9676 84.5385 53.9352C84.4953 53.892 84.4737 53.8327 84.4737 53.7571L84.5385 53.5466H83.4858C83.2267 53.417 82.973 53.3522 82.7247 53.3522C82.3576 53.3522 81.9906 53.4872 81.6235 53.7571C81.1484 53.5088 80.9109 53.2551 80.9109 52.9959L80.9271 52.8664L81.17 52.7692L81.0243 52.0405L81.8016 51.4737L82.4656 51.749L83.1458 51.7166C83.1889 51.5115 83.3617 51.4089 83.664 51.4089L84.6842 51.6518C84.8138 51.6518 84.8785 51.5762 84.8785 51.4251L84.8624 51.2794L85.2186 51.1336L84.7328 49.8704L85.4292 49.9352L84.7652 49.0931C84.9163 48.8124 84.9919 48.4345 84.9919 47.9595L84.8138 46.3563L85.7045 46.5344C85.7476 46.0486 85.996 45.8057 86.4494 45.8057C86.6869 45.8057 86.9784 45.8704 87.3239 46V46.2429C87.3239 46.4912 87.3455 46.6964 87.3887 46.8583C87.4426 47.0202 87.4696 47.1768 87.4696 47.3279C87.4696 47.4575 87.3779 47.7544 87.1943 48.2186L87.7126 48.4777L86.8704 49.2389L87.5344 49.8704L87.0162 49.9028L87.583 50.4534C87.2591 50.7989 87.0972 51.0256 87.0972 51.1336C87.0972 51.1984 87.1458 51.2308 87.2429 51.2308C87.3941 51.2308 87.5398 51.193 87.6802 51.1174L87.5992 52.0081L88.1012 52.0729L88.2146 51.6356L88.8785 51.8785C89.1161 51.749 89.386 51.6842 89.6883 51.6842C89.8718 51.6842 90.1903 51.7436 90.6437 51.8623C90.7517 51.6896 90.8974 51.6032 91.081 51.6032C91.3077 51.6032 91.5884 51.7382 91.9231 52.0081L92.1012 51.587L92.8947 52.5263L93.0405 52.9798C92.8246 53.0013 92.7166 53.0823 92.7166 53.2227C92.7166 53.3846 92.8192 53.6005 93.0243 53.8704L92.2794 53.6113C91.9663 53.8596 91.7126 53.9838 91.5182 53.9838C91.3563 53.9838 91.2429 53.8866 91.1781 53.6923L90.7895 53.9676C90.5628 53.8381 90.3306 53.7733 90.0931 53.7733L89.4292 53.9514C89.1808 53.7679 88.9541 53.6761 88.749 53.6761C88.5439 53.6761 88.3171 53.7679 88.0688 53.9514L87.5506 53.7733C87.3239 53.9892 87.2105 54.1943 87.2105 54.3887L87.2915 54.6802L86.9352 55.0364L87.3563 55.3927L86.9676 56.0243L87.2915 56.4291L87.0162 56.996C87.2105 57.1579 87.3077 57.3144 87.3077 57.4656C87.3077 57.6167 87.2105 57.7625 87.0162 57.9028V59.3441L87.2915 59.4737V60.5587L87.0162 60.4939L87.3563 62.5506L87.0486 62.6316L87.2915 63.3441H87.3563C87.8637 63.3441 88.1174 63.4467 88.1174 63.6518L88.0526 63.8785L88.6842 64.0567V63.7004H89.9312L90.1741 64.0243L90.7571 63.749C90.9514 63.0796 91.3401 62.6316 91.9231 62.4049L91.9069 61.8704C92.0148 61.6437 92.1282 61.5304 92.247 61.5304C92.3549 61.5304 92.4845 61.6599 92.6356 61.919L93.0243 62.0648L92.7004 62.8583L93.332 63.0688L92.8624 63.9595L92.1012 63.9919L91.7935 64.3806L92.749 64.17C91.9717 65.3576 90.8435 65.9514 89.3644 65.9514H89.17C88.9325 66.0918 88.6842 66.1619 88.4251 66.1619C88.1552 66.1619 87.8853 66.0756 87.6154 65.9028L87.2915 65.9676C86.7949 65.9676 86.3144 65.5789 85.8502 64.8016L85.5587 64.8502C85.1485 64.8502 84.9055 64.5101 84.83 63.83L85.1215 63.166ZM100.41 51.4089C100.582 51.5169 100.782 51.5762 101.009 51.587L101.997 51.5223C102.148 51.6086 102.288 51.6518 102.418 51.6518L102.644 51.6194C102.871 52.0081 103.298 52.2186 103.924 52.251C104.086 52.4345 104.231 52.5803 104.361 52.6883C104.491 52.7854 104.604 52.8988 104.701 53.0283C104.798 53.1579 104.885 53.3252 104.96 53.5304C105.047 53.7355 105.122 54.0324 105.187 54.4211L105.446 56.753L105.397 57.4494L105.511 58.5182L105.057 58.4858L105.446 58.7287L105.543 59.5061L105.397 60.3482L105.511 61.5628L105.446 61.8866L105.559 63.4089L105.77 63.3279C105.964 63.3279 106.072 63.6356 106.094 64.251C106.342 64.1646 106.466 64.0081 106.466 63.7814L106.45 63.6518L106.677 63.2955L106.903 63.4737L107.13 63.4413C107.443 63.4413 107.6 63.7112 107.6 64.251C107.6 64.4238 107.573 64.5641 107.519 64.6721C107.465 64.78 107.406 64.8826 107.341 64.9798C107.276 65.0661 107.217 65.1633 107.163 65.2713C107.109 65.3792 107.082 65.5196 107.082 65.6923L106.677 65.6761C106.396 65.8273 106.099 65.9028 105.786 65.9028L104.798 65.6761L104.458 65.7247C104.404 65.4116 104.264 65.1471 104.037 64.9312L103.422 64.8664C103.346 65.1039 103.119 65.2227 102.742 65.2227H102.644C102.677 65.3306 102.941 65.4224 103.438 65.498C102.488 65.5843 101.716 65.6977 101.122 65.8381L100.652 65.7733L100.248 65.9514L99.9399 65.8866L99.4865 66.0648H98.7739C98.6336 65.9892 98.4392 65.9514 98.1909 65.9514L97.5756 66C97.5756 66.108 97.8617 66.1943 98.4339 66.2591L97.365 66.3563C97.2679 65.8812 96.9008 65.6329 96.2638 65.6113C96.1666 65.2443 95.8751 65.0337 95.3893 64.9798L95.0978 64.7692L95.1788 64.5101C95.006 64.3698 94.9197 64.1862 94.9197 63.9595V63.9271C94.8225 63.6572 94.7739 63.3819 94.7739 63.1012C94.7739 62.7989 94.8387 62.4912 94.9683 62.1781L95.033 61.8381C94.8279 61.6329 94.7253 61.3684 94.7253 61.0445C94.7253 60.915 94.7739 60.8178 94.8711 60.753C94.9683 60.6883 95.0816 60.6343 95.2112 60.5911L95.195 60.4615C95.195 60.2024 95.3245 60.0729 95.5836 60.0729L95.7294 60.0891C95.9021 59.9487 95.9885 59.7652 95.9885 59.5385L95.9723 59.4089C96.0587 59.3441 96.1558 59.2955 96.2638 59.2632C96.3826 59.2308 96.4905 59.1984 96.5877 59.166C96.6957 59.1228 96.782 59.0688 96.8468 59.004C96.9224 58.9285 96.9602 58.8205 96.9602 58.6802V58.5668C97.2301 58.3725 97.5648 58.2753 97.9642 58.2753C98.2665 58.1134 98.6336 58.0216 99.0654 58L99.195 57.4818H100.539C100.528 57.5034 100.523 57.525 100.523 57.5466C100.523 57.5681 100.539 57.5789 100.572 57.5789C100.604 57.5789 100.631 57.5789 100.652 57.5789C100.674 57.5681 100.712 57.5574 100.766 57.5466L100.944 57.7571L100.345 57.7409L101.009 57.9352C101.084 57.892 101.122 57.8273 101.122 57.7409L101.057 57.5466H101.154C101.381 57.5466 101.581 57.4926 101.754 57.3846L102.142 57.4332C102.423 57.4332 102.666 57.3792 102.871 57.2713L102.823 54.8259C102.823 54.3509 102.644 54 102.288 53.7733L101.932 53.5466L100.588 53.3198L100.296 53.498C100.199 53.4332 100.096 53.4008 99.9885 53.4008C99.8374 53.4008 99.7078 53.4494 99.5998 53.5466C99.4919 53.6437 99.4055 53.7679 99.3407 53.919L98.6768 54.2429C98.5472 54.3293 98.4824 54.448 98.4824 54.5992L98.5472 54.9069L98.3691 56.1862C98.1747 56.4669 98.0776 56.7746 98.0776 57.1093L97.9642 57.2713L97.8185 57.2551C97.5917 57.2551 97.365 57.3198 97.1383 57.4494C96.9872 57.2874 96.7874 57.2065 96.5391 57.2065L96.4419 56.753L95.9075 56.6397C95.832 56.4993 95.7942 56.251 95.7942 55.8947L95.7294 55.7004C95.5782 55.7328 95.4649 55.7868 95.3893 55.8623C95.3461 55.7868 95.3245 55.614 95.3245 55.3441L95.4055 54.2591L95.7132 54.4211C95.616 54.5074 95.5675 54.6208 95.5675 54.7611L95.616 55.0688L95.7942 54.9069L95.778 54.6964C95.778 54.1997 95.9399 53.7085 96.2638 53.2227L96.4096 52.7045C96.8522 52.7045 97.2301 52.5155 97.5432 52.1376L97.7699 52.17C97.975 52.17 98.0776 52.0675 98.0776 51.8623L98.1909 51.6842L99.0654 51.6194L99.778 51.4737L99.859 51.6032L99.8913 51.4089H100.41ZM103.81 59.9757C103.702 60.0513 103.524 60.0891 103.276 60.0891C102.79 60.0891 102.358 60.0405 101.98 59.9433C101.603 59.8462 101.343 59.7544 101.203 59.668L100.766 59.8138C100.755 59.4467 100.523 59.2578 100.069 59.247C100.329 59.4629 100.458 59.6032 100.458 59.668L100.377 59.7166L99.7132 59.5223L99.6484 59.749C99.4649 59.7922 99.2922 59.8839 99.1302 60.0243H98.9845C98.4986 60.0243 98.1747 60.2348 98.0128 60.6559L97.8185 60.5749C97.5917 60.5749 97.2085 60.7314 96.6687 61.0445L96.5229 60.996L96.4258 61.7409C96.4258 61.8489 96.5013 61.9784 96.6525 62.1296C96.5553 62.4103 96.5067 62.6262 96.5067 62.7773C96.5067 62.9825 96.5931 63.085 96.7658 63.085L96.9116 63.0688V63.1984C96.9116 63.803 97.2139 64.1053 97.8185 64.1053L98.0776 64.0891L98.1262 64.8178C98.3313 64.9258 98.6768 64.9798 99.1626 64.9798H99.5351C99.751 64.9798 99.9561 64.9366 100.15 64.8502C100.345 64.7638 100.474 64.5857 100.539 64.3158C100.744 64.1754 100.912 64.1053 101.041 64.1053L101.333 64.1538L101.754 64.0891C101.764 63.6788 101.905 63.3225 102.175 63.0202L102.11 62.5668H102.175C102.715 62.5668 102.984 62.2969 102.984 61.7571V61.6599C103.157 61.5843 103.244 61.4548 103.244 61.2713L103.065 60.2186C103.271 60.3482 103.433 60.413 103.551 60.413C103.692 60.413 103.778 60.2672 103.81 59.9757ZM97.1545 61.9514L96.9116 62C96.6525 62 96.5229 61.8219 96.5229 61.4656C96.5229 61.3792 96.5283 61.3036 96.5391 61.2389C96.5607 61.1633 96.6309 61.1255 96.7496 61.1255C96.9656 61.1255 97.1005 61.4008 97.1545 61.9514ZM98.2233 63.8623L97.7051 63.9433C97.2625 63.9433 97.0411 63.7004 97.0411 63.2146V63.085L98.2233 63.8623ZM99.5998 64.4939L99.8913 64.4777C100.183 64.4777 100.329 64.5155 100.329 64.5911C100.329 64.6559 100.177 64.753 99.8751 64.8826L99.5998 64.4939ZM99.9237 66.0972C100.14 66.2159 100.248 66.2969 100.248 66.3401H99.5351L99.9237 66.0972ZM99.4055 66.2105L99.2922 66.3239C99.2382 66.3239 99.1896 66.2861 99.1464 66.2105H99.4055ZM98.9197 57.6275L98.8063 57.7409C98.7523 57.7409 98.7038 57.7031 98.6606 57.6275H98.9197ZM109.819 71.7004L109.511 71.6032C109.339 71.0418 108.993 70.6532 108.475 70.4372L108.443 70.0972C108.443 69.8057 108.534 69.6167 108.718 69.5304C108.621 68.8718 108.459 68.5425 108.232 68.5425L108.167 68.5587L108.41 67.4575L108.378 66.9393C108.378 66.1835 108.648 65.6653 109.188 65.3846V65.2713C109.188 64.9258 109.387 64.753 109.787 64.753L109.819 64.4777C108.869 63.6896 108.394 62.9717 108.394 62.3239C108.394 62.0108 108.507 61.7139 108.734 61.4332L108.443 60.9312C108.982 60.5209 109.447 60.3158 109.835 60.3158C110.019 60.3158 110.186 60.359 110.337 60.4453L111.082 59.8947C111.028 59.7436 110.937 59.668 110.807 59.668L110.613 59.7166L110.694 59.2794C110.111 58.4264 109.819 57.5735 109.819 56.7206C109.819 56.3104 109.873 55.9487 109.981 55.6356L109.916 55.3603C109.916 55.058 110.094 54.637 110.451 54.0972L110.613 54.1781L111.163 53.5142L111.293 53.5304C111.476 53.5304 111.568 53.4116 111.568 53.1741L111.552 52.9636L112.022 52.7854L111.941 52.4777C111.941 52.2834 112.049 52.0891 112.264 51.8947C112.48 52.0459 112.686 52.1215 112.88 52.1215C113.247 52.1215 113.641 51.8947 114.062 51.4413H115.406C115.579 51.7112 115.865 51.8462 116.264 51.8462H116.394L116.281 52.5263C116.507 52.224 116.729 52.0729 116.945 52.0729C117.215 52.0729 117.49 52.3104 117.771 52.7854C118.159 51.4683 118.607 50.8097 119.115 50.8097L119.406 50.8745L119.39 50.5992L119.73 50.7449L120.167 50.5182L120.038 50.7935L120.329 50.7449C120.793 50.7449 121.225 51.1228 121.625 51.8785L121.835 51.7004C122.008 52.3266 122.094 52.8772 122.094 53.3522C122.094 54.0108 121.895 54.3779 121.495 54.4534L121.544 54.664C120.723 54.6532 120.313 54.448 120.313 54.0486L120.086 53.9352L120.135 53.0607C120.135 52.5425 120.059 52.2834 119.908 52.2834C119.779 52.2834 119.584 52.4993 119.325 52.9312C119.401 53.0391 119.439 53.1687 119.439 53.3198C119.439 53.5789 119.309 53.8435 119.05 54.1134C119.115 54.4912 119.228 54.6802 119.39 54.6802L119.52 54.6478L120.054 56.3158L119.698 56.4291L120.038 56.9798V57.2227C120.038 58.4103 119.746 59.2524 119.163 59.749C119.023 60.6883 118.386 61.1687 117.252 61.1903C116.723 61.6869 116.097 61.9352 115.374 61.9352C114.607 61.9352 113.727 61.6167 112.734 60.9798C112.615 61.2605 112.335 61.4008 111.892 61.4008L111.52 61.3684C111.746 61.5843 111.86 61.7571 111.86 61.8866C111.86 61.973 111.827 62.0432 111.762 62.0972C111.698 62.1404 111.627 62.1835 111.552 62.2267C111.476 62.2699 111.406 62.3131 111.341 62.3563C111.277 62.3887 111.244 62.4318 111.244 62.4858C111.244 62.5506 111.293 62.6208 111.39 62.6964L111.017 62.7287L110.969 62.4534C110.969 62.2267 111.098 62.0378 111.358 61.8866C111.217 61.7463 111.082 61.6761 110.953 61.6761C110.683 61.6761 110.488 62.0756 110.37 62.8745C110.985 62.9825 111.352 63.3711 111.471 64.0405L112.507 63.8462L112.653 64.0405C113.042 63.3387 113.571 62.9879 114.24 62.9879C114.553 62.9879 114.839 63.0418 115.098 63.1498C115.455 63.031 115.752 62.9717 115.989 62.9717C116.594 62.9717 117.161 63.2362 117.69 63.7652C118.089 63.5816 118.424 63.4899 118.694 63.4899C119.32 63.4899 119.849 63.8516 120.281 64.5749H120.799L120.783 64.8988C120.783 65.4062 120.934 65.8111 121.236 66.1134L121.171 66.5344C121.171 66.7395 121.22 66.9285 121.317 67.1012C121.447 66.9501 121.555 66.8745 121.641 66.8745C121.803 66.8745 121.884 67.1228 121.884 67.6194V67.7004C121.625 68.0243 121.495 68.3752 121.495 68.753C121.495 69.0877 121.592 69.4386 121.787 69.8057C121.603 69.9244 121.511 70.0972 121.511 70.3239L121.544 70.6154L121.349 70.5182C121.285 70.5182 121.22 70.5668 121.155 70.664C121.09 70.7611 121.009 70.8691 120.912 70.9879C120.826 71.1174 120.713 71.247 120.572 71.3765C120.432 71.5061 120.259 71.6032 120.054 71.668C119.568 71.83 119.304 72.0729 119.26 72.3968C119.131 72.2996 118.996 72.251 118.856 72.251C118.542 72.251 118.208 72.4831 117.852 72.9474C117.592 72.861 117.382 72.8178 117.22 72.8178C116.874 72.8178 116.534 72.9204 116.2 73.1255C115.973 73.0283 115.741 72.9798 115.503 72.9798C115.201 72.9798 114.883 73.0607 114.548 73.2227L113.042 73.1255C112.599 72.7476 112 72.5101 111.244 72.413C111.115 72.1215 110.899 71.9757 110.596 71.9757C110.381 71.9757 110.17 72.0297 109.965 72.1377L109.819 71.7004ZM112.653 58.9069L112.831 58.9231C113.155 58.9231 113.382 58.7719 113.511 58.4696H113.754C113.754 58.7179 113.938 58.8961 114.305 59.004C114.089 59.0904 113.981 59.2092 113.981 59.3603L113.997 59.4899L114.467 59.3117C114.618 59.8516 114.791 60.1215 114.985 60.1215C115.071 60.1215 115.158 60.0783 115.244 59.9919L116.313 59.9433C116.734 59.8462 116.972 59.5762 117.026 59.1336C117.403 59.0364 117.7 58.8529 117.916 58.583C118.143 58.3131 118.256 57.9946 118.256 57.6275C118.256 57.4656 118.219 57.309 118.143 57.1579C118.067 56.996 117.981 56.8286 117.884 56.6559C117.798 56.4831 117.717 56.2996 117.641 56.1053C117.565 55.9109 117.528 55.6896 117.528 55.4413L117.544 55.085C117.295 55.3765 117.026 55.5223 116.734 55.5223L116.524 55.4899C116.524 54.9501 116.626 54.4696 116.831 54.0486C116.561 53.8758 116.2 53.7895 115.746 53.7895L114.937 53.8704L114.985 53.6761C114.985 53.5358 114.888 53.4494 114.694 53.417L114.613 53.8704C114.343 53.7301 114.051 53.6599 113.738 53.6599C113.058 53.6599 112.405 54.0486 111.779 54.8259L112.054 54.7125C112.205 54.7125 112.291 54.8745 112.313 55.1984L111.811 55.5708L112.119 55.749C111.946 56.0513 111.86 56.3266 111.86 56.5749C111.86 56.6829 111.881 56.78 111.924 56.8664C111.978 56.9528 112.038 57.0391 112.103 57.1255C112.167 57.2011 112.221 57.2767 112.264 57.3522C112.318 57.417 112.345 57.4818 112.345 57.5466C112.345 57.6761 112.232 57.7625 112.005 57.8057C112.167 58 112.318 58.0972 112.459 58.0972L112.605 58.0648L112.653 58.9069ZM111.73 63.4413L112.264 63.3441C112.545 63.3441 112.686 63.4683 112.686 63.7166V63.7976C112.599 63.7112 112.486 63.668 112.345 63.668C112.151 63.668 111.914 63.7436 111.633 63.8947L111.73 63.4413ZM110.629 68.251C110.823 68.305 110.92 68.5209 110.92 68.8988V69.0769C111.125 69.1201 111.309 69.2011 111.471 69.3198C111.644 69.4494 111.806 69.5789 111.957 69.7085C112.108 69.8489 112.259 69.9676 112.41 70.0648C112.561 70.1727 112.729 70.2267 112.912 70.2267L113.366 70.1619L113.317 70.502L113.738 70.5668C114.148 70.5668 114.364 70.3131 114.386 69.8057C114.623 70.2699 114.866 70.502 115.115 70.502C115.287 70.502 115.466 70.3887 115.649 70.1619L115.941 70.2267C116.135 70.2267 116.297 70.1134 116.426 69.8866L117.107 69.9514C118.165 69.9514 119.039 69.363 119.73 68.1862V68.1215C119.73 67.5924 119.498 67.3279 119.034 67.3279L118.71 67.3765C118.375 66.6208 117.916 66.2429 117.333 66.2429L117.058 66.2753C116.928 66.0486 116.788 65.9352 116.637 65.9352C116.486 65.9352 116.34 66.0216 116.2 66.1943L115.487 65.4818C115.044 65.5789 114.699 65.8543 114.451 66.3077C114.116 66.2969 113.949 66.1997 113.949 66.0162L114.159 65.5628C113.878 65.5628 113.738 65.7625 113.738 66.1619L113.754 66.4211C113.506 66.1727 113.269 66.0486 113.042 66.0486C112.826 66.0486 112.61 66.1404 112.394 66.3239C112.2 66.1943 112.016 66.1296 111.843 66.1296C111.358 66.1296 110.947 66.5722 110.613 67.4575L110.629 68.251ZM119.341 67.5709C119.514 67.776 119.6 67.9433 119.6 68.0729C119.6 68.1808 119.52 68.2348 119.358 68.2348L119.001 68.1862L119.341 67.5709ZM125.188 64.4615C125.167 64.2672 125.113 64.1215 125.026 64.0243C124.951 63.9271 124.859 63.8462 124.751 63.7814C124.654 63.7058 124.557 63.6302 124.459 63.5547C124.362 63.4791 124.287 63.3657 124.233 63.2146C124.179 63.085 124.103 62.9663 124.006 62.8583C123.92 62.7503 123.828 62.6532 123.731 62.5668C123.644 62.4804 123.563 62.4049 123.488 62.3401C123.423 62.2753 123.391 62.2213 123.391 62.1781L123.342 61.5789L123.423 61.0931L123.293 60.3806L123.342 60.2834L123.715 60.251L123.342 60.2024C123.418 59.9649 123.504 59.8462 123.601 59.8462C123.547 59.749 123.488 59.668 123.423 59.6032C123.358 59.5277 123.293 59.4521 123.229 59.3765C123.175 59.2901 123.126 59.193 123.083 59.085C123.04 58.9771 123.018 58.8421 123.018 58.6802L123.115 58.1134C123.256 58.1134 123.326 58.0702 123.326 57.9838C123.326 57.919 123.283 57.8219 123.196 57.6923C123.121 57.552 123.083 57.4332 123.083 57.336C123.083 57.2065 123.132 57.1093 123.229 57.0445C123.337 56.969 123.391 56.8718 123.391 56.753L123.342 56.5587C123.418 56.2564 123.509 55.9541 123.617 55.6518C123.725 55.3387 123.849 55.0256 123.99 54.7125L124.087 54.8259L124.136 54.7287L124.055 54.4696C124.335 54.3725 124.573 54.1673 124.767 53.8542H124.978L125.075 53.6437L125.026 53.5951L124.832 53.6599C125.113 53.3792 125.296 53.1147 125.383 52.8664H125.82L125.917 52.6073C125.939 52.5209 125.998 52.4777 126.095 52.4777L126.273 52.5101L126.225 52.332C126.57 52.2888 126.851 52.143 127.067 51.8947L127.293 51.9757L127.342 51.7976H128.314L128.492 51.5385L128.621 51.6194L128.751 51.4413L129.285 51.3603V51.1822L129.463 51.166C129.582 51.3171 129.723 51.3927 129.885 51.3927L130.127 51.3603L130.225 51.6194L130.484 51.587L130.581 51.7652L130.905 51.7166L131.374 51.7976L131.504 51.7166L131.52 52.1538L131.65 51.7166C131.768 51.8354 131.914 51.9217 132.087 51.9757C132.184 52.2024 132.362 52.3212 132.621 52.332C132.74 52.5263 132.918 52.6451 133.156 52.6883C133.318 52.9582 133.555 53.1363 133.868 53.2227L134.192 53.6275C134.3 53.6599 134.354 53.7139 134.354 53.7895L134.306 53.9352L134.662 54.0648L134.646 54.1619C134.646 54.2267 134.673 54.2591 134.727 54.2591L134.937 54.1943L134.84 54.3401L135.374 55.2632L135.293 55.4413L135.423 55.5385C135.477 55.7112 135.58 55.8893 135.731 56.0729L135.666 56.3968L135.731 56.7692L135.65 56.8178L135.715 56.9636L135.65 57.0931L135.731 57.6599L135.65 58.3239L135.472 58.4211L135.52 59.2794L135.374 58.8583L135.115 59.1336C134.651 59.1444 134.295 59.3657 134.046 59.7976C133.917 59.5924 133.82 59.4899 133.755 59.4899C133.701 59.4899 133.674 59.5708 133.674 59.7328V59.8785L133.447 59.9757V59.9271C133.447 59.8192 133.372 59.7652 133.221 59.7652C133.069 59.7652 132.913 59.8516 132.751 60.0243C132.697 59.8947 132.605 59.83 132.476 59.83L132.395 59.8462C132.351 59.7058 132.281 59.6356 132.184 59.6356L132.038 59.668C131.909 59.4953 131.758 59.4089 131.585 59.4089L131.293 59.4899H130.808L130.516 59.4089L130.176 59.4899L129.982 59.4575C129.809 59.4575 129.636 59.5277 129.463 59.668H129.334C129.129 59.5277 128.934 59.4575 128.751 59.4575L128.573 59.4899C128.486 59.3387 128.389 59.2632 128.281 59.2632L127.941 59.3927C127.747 59.3927 127.59 59.4845 127.472 59.668H127.067C126.894 59.5277 126.7 59.4575 126.484 59.4575C126.279 59.4575 126.073 59.5277 125.868 59.668L125.966 59.8785C125.89 59.9865 125.852 60.0945 125.852 60.2024C125.852 60.332 125.89 60.4507 125.966 60.5587L125.917 60.834C125.917 61.1579 126.111 61.4062 126.5 61.5789L126.403 61.6113C126.489 61.7625 126.554 61.9028 126.597 62.0324C126.651 62.1511 126.705 62.2699 126.759 62.3887C126.824 62.4966 126.899 62.5992 126.986 62.6964C127.083 62.7935 127.212 62.8907 127.374 62.9879L127.293 63.2955C127.293 63.4467 127.385 63.5223 127.569 63.5223H127.65L127.634 63.668C127.634 63.776 127.666 63.83 127.731 63.83L127.828 63.7976L127.876 63.9757V63.5708C128.017 63.3657 128.249 63.2632 128.573 63.2632L128.492 63.166C128.621 63.1444 128.724 63.085 128.8 62.9879L129.334 63.5708C129.129 63.7112 129.01 63.8462 128.978 63.9757L129.318 64.0405L129.69 63.9757C129.82 64.1377 129.987 64.2186 130.192 64.2186L130.532 64.1538L130.16 63.9919C130.602 63.9595 130.824 63.8192 130.824 63.5708L130.808 63.4413L131.002 63.4737C131.153 63.4737 131.293 63.4035 131.423 63.2632C131.563 63.3711 131.693 63.4251 131.812 63.4251C132.028 63.4251 132.2 63.2416 132.33 62.8745C132.578 62.7881 132.702 62.691 132.702 62.583L132.686 62.5182C132.816 62.5074 132.88 62.4534 132.88 62.3563L132.864 62.2591C133.026 62.1619 133.172 62.0108 133.302 61.8057H133.383C133.631 61.8057 133.755 61.6599 133.755 61.3684L134.257 61.6923L134.144 61.4656L134.597 61.2713L134.516 61.8543L134.629 61.8381C134.651 61.8381 134.7 61.8489 134.775 61.8704C134.862 61.892 134.948 61.9244 135.034 61.9676C135.121 62.0108 135.196 62.0594 135.261 62.1134C135.337 62.1673 135.374 62.2321 135.374 62.3077C135.374 62.3941 135.342 62.4696 135.277 62.5344C135.212 62.5992 135.18 62.6748 135.18 62.7611L135.212 62.9231L134.856 63.1012L134.775 63.5385C134.689 63.5601 134.581 63.6086 134.451 63.6842C134.333 63.749 134.273 63.8408 134.273 63.9595L134.322 64.1538C134.149 64.1862 134.063 64.2834 134.063 64.4453L134.046 64.6397C133.766 64.7368 133.528 64.942 133.334 65.2551C133.14 65.2767 132.988 65.3684 132.88 65.5304H132.751C132.611 65.2928 132.389 65.1741 132.087 65.1741C132.044 65.2173 132.001 65.2767 131.957 65.3522C131.914 65.417 131.866 65.4872 131.812 65.5628C131.768 65.6275 131.72 65.6869 131.666 65.7409C131.623 65.7841 131.58 65.8057 131.536 65.8057L131.326 65.7895C131.207 65.7895 131.088 65.8381 130.97 65.9352C130.862 66.0324 130.716 66.081 130.532 66.081L130.273 66.0648L129.82 65.8866C129.647 66.027 129.437 66.0972 129.188 66.0972L128.67 66L128.573 66.1457L128.119 65.8381C128.098 65.7409 128.065 65.6923 128.022 65.6923L127.957 65.7085C127.849 65.5682 127.704 65.498 127.52 65.498L127.293 65.5304C126.894 65.444 126.554 65.2928 126.273 65.0769C126.219 64.8934 126.127 64.8016 125.998 64.8016L125.917 64.8178L125.82 64.3644L125.463 64.2834C125.334 64.2834 125.242 64.3428 125.188 64.4615ZM128.314 57.0607L128.508 57.0121L128.978 57.0931C129.226 57.2443 129.463 57.3198 129.69 57.3198C130.1 57.3198 130.516 57.1093 130.937 56.6883L131.099 57.3198L131.196 57.2389L131.245 56.6883C131.299 56.9042 131.353 57.0121 131.407 57.0121C131.472 57.0121 131.536 56.9042 131.601 56.6883C131.763 56.8718 131.947 56.9636 132.152 56.9636L132.314 56.9474L132.492 57.0931C132.686 56.996 132.783 56.8718 132.783 56.7206C132.783 56.6019 132.746 56.4885 132.67 56.3806L132.492 56.4291L132.605 56.2348L132.476 56.1862C132.465 56.0135 132.443 55.8893 132.411 55.8138C132.389 55.7382 132.357 55.6896 132.314 55.668C132.271 55.6356 132.217 55.614 132.152 55.6032C132.087 55.5924 132.006 55.5547 131.909 55.4899C131.801 55.5439 131.741 55.6302 131.731 55.749C131.655 55.7058 131.515 55.6788 131.31 55.668L131.229 55.7328L131.196 55.5223C131.121 55.4683 131.078 55.4089 131.067 55.3441C131.067 55.2686 131.029 55.1768 130.953 55.0688C130.889 54.9501 130.813 54.8367 130.727 54.7287C130.64 54.61 130.549 54.5074 130.451 54.4211L130.046 54.3401L130.225 54.583L129.868 54.4211L129.787 54.5992C129.658 54.5992 129.577 54.664 129.544 54.7935L129.447 54.7287C129.393 54.7287 129.366 54.8151 129.366 54.9879C129.323 54.8475 129.28 54.7773 129.237 54.7773C129.194 54.7773 129.167 54.8097 129.156 54.8745L128.67 54.7773L128.751 54.5182C128.751 54.4103 128.681 54.3347 128.54 54.2915V54.5182C128.303 54.5614 128.184 54.6586 128.184 54.8097V54.8745C127.99 54.9069 127.893 55.0094 127.893 55.1822L127.957 55.3441C127.871 55.3657 127.828 55.4413 127.828 55.5708C127.256 55.7544 126.97 55.9541 126.97 56.17C126.97 56.2672 127.018 56.3536 127.115 56.4291L127.196 56.2996C127.423 56.6127 127.682 56.807 127.974 56.8826L128.071 57.1255L128.314 57.0607ZM126.532 56.5101L126.824 56.413L126.629 56.2834L126.532 56.5101ZM135.148 59.2632L135.293 59.4251C135.164 59.5762 135.024 59.6518 134.872 59.6518C134.764 59.6518 134.651 59.6086 134.532 59.5223C134.64 59.3927 134.845 59.3063 135.148 59.2632ZM131.342 59.6194C131.45 59.5439 131.553 59.5061 131.65 59.5061C131.779 59.5061 131.887 59.5978 131.974 59.7814L131.342 59.6194ZM123.002 60.6073L123.148 60.5101C123.191 60.5101 123.229 60.5965 123.261 60.7692C123.272 60.8448 123.277 60.9096 123.277 60.9636C123.277 61.0499 123.256 61.1201 123.212 61.1741C123.169 61.1741 123.121 61.0229 123.067 60.7206L123.002 60.6073ZM127.601 62.9069L127.682 63.085L127.52 63.1336L127.601 62.9069ZM130.144 63.587H130.451C130.451 63.641 130.289 63.7382 129.966 63.8785C129.814 63.8246 129.739 63.7652 129.739 63.7004C129.739 63.6356 129.847 63.5601 130.063 63.4737L130.144 63.587ZM124.152 64.7206L124.087 64.8826L123.957 64.7692L124.152 64.7206ZM132.314 65.3846H132.443L132.411 65.5142C132.411 65.5897 132.454 65.6545 132.54 65.7085L132.362 65.8866H132.136L132.087 65.5628L132.314 65.3846Z" fill="black"/>
<path d="M188 42.8025L199.897 8.55499H212.514L197.734 33.069L210.712 28.022L199.897 60.467L207.107 56.141L192.687 73.445L191.966 52.536L194.489 59.3855L200.978 39.558L188 42.8025Z" fill="black"/>
</g>
<rect x="1.05" y="1.05" width="224.414" height="79.9" rx="12.95" stroke="black" stroke-width="2.1"/>
<defs>
<clipPath id="clip0_284_749">
<rect width="226.514" height="82" rx="14" fill="white"/>
</clipPath>
</defs>
</svg>
